<?xml version="1.0" encoding="UTF-8"?>
<svg width="48px" height="48px" viewBox="0 0 48 48" version="1.1" xmlns="http://www.w3.org/2000/svg" xmlns:xlink="http://www.w3.org/1999/xlink">
    <!-- Generator: Sketch 56.2 (81672) - https://sketch.com -->
    <title>Gateway/Mono/Payping</title>
    <desc>Created with Sketch.</desc>
    <g id="Ready-For-Export" stroke="none" stroke-width="1" fill="none" fill-rule="evenodd">
        <g id="Artboard" transform="translate(-600.000000, -392.000000)" fill="#FFFFFF">
            <g id="Gateway_(Mono)" transform="translate(80.000000, 392.000000)">
                <g id="Gateway-/-Payping-/-Mono" transform="translate(520.000000, 0.000000)">
                    <path d="M34.3144725,48 L34.3144725,34.3218 L48,34.3218 L48,48 L34.3144725,48 Z M24.3831551,0 C33.6120965,0 41.2062625,7.5901 41.2062625,16.814 C41.2062625,26.0379 33.6120965,33.6281 24.3831551,33.6281 L10.2164701,33.6281 L10.2164701,48 L-1.10134124e-13,48 L-1.10134124e-13,0 L24.3831551,0 Z M24.3831551,24.0383 L24.3831551,24.0128 C28.1247585,23.6983 31.0368176,20.5328 31.0368176,16.78 C31.0368176,13.0272 28.1247585,9.8617 24.3831551,9.5472 C24.1506307,9.5343 23.9176059,9.5343 23.6850814,9.5472 L10.2164701,9.5472 L10.2164701,24.0808 L23.6850814,24.0808 C23.9184063,24.0796 24.1514311,24.0654 24.3831551,24.0383 Z" id="Shape"></path>
                </g>
            </g>
        </g>
    </g>
</svg>