<?xml version="1.0" encoding="UTF-8"?>
<svg width="48px" height="48px" viewBox="0 0 48 48" version="1.1" xmlns="http://www.w3.org/2000/svg" xmlns:xlink="http://www.w3.org/1999/xlink">
    <!-- Generator: Sketch 56 (81588) - https://sketch.com -->
    <title>Gateway/Mono/Vandar</title>
    <desc>Created with Sketch.</desc>
    <g id="Ready-For-Export" stroke="none" stroke-width="1" fill="none" fill-rule="evenodd">
        <g id="Artboard" transform="translate(-808.000000, -392.000000)" fill="#FFFFFF">
            <g id="Gateway_(Mono)" transform="translate(80.000000, 392.000000)">
                <g id="Gateway-/-Vandar-/-Mono" transform="translate(728.000000, 0.000000)">
                    <path d="M46.0765,19.26785 L28.7611,1.95255 C26.1568,-0.65085 21.8718,-0.65085 19.2675,1.95255 L1.9524,19.26785 C-0.6508,21.87225 -0.6508,26.15715 1.9524,28.76145 L12.631,39.44005 C14.4661,39.08545 16.2709,38.58915 18.0292,37.95555 C19.5153,37.42485 20.9482,36.75585 22.3092,35.95735 C23.4228,35.30805 24.4486,34.51875 25.3614,33.60865 C26.0965,32.88985 26.6804,32.03115 27.0787,31.08335 C26.4742,31.08335 25.8348,31.07255 25.1606,31.05115 C24.4892,31.02975 23.9329,31.00565 23.4993,30.97615 C22.2059,30.88595 20.9308,30.62025 19.7089,30.18655 C18.6294,29.80865 17.631,29.23025 16.7663,28.48165 C15.9416,27.75445 15.2907,26.85125 14.8617,25.83885 C14.3939,24.70525 14.1645,23.48725 14.1879,22.26115 C14.1888,21.37785 14.2784,20.49695 14.4552,19.63155 C14.6426,18.73165 14.9112,17.85065 15.2579,16.99935 C15.5993,16.14885 16.0307,15.33725 16.5446,14.57845 C17.036,13.84085 17.619,13.16855 18.2795,12.57755 C18.9131,12.00985 19.6362,11.55065 20.4195,11.21855 C21.2156,10.88545 22.0711,10.71725 22.934,10.72385 C24.1633,10.70945 25.3772,10.99895 26.4677,11.56655 C27.5412,12.13405 28.5014,12.89395 29.3004,13.80825 C30.1473,14.77795 30.8591,15.85775 31.4164,17.01825 C32.006,18.23445 32.4815,19.50275 32.8368,20.80685 C33.1898,22.09235 33.4296,23.40635 33.5536,24.73365 C33.6686,25.93825 33.6686,27.15105 33.5536,28.35555 C33.3988,29.93915 33.0262,31.49375 32.4463,32.97545 C31.8917,34.39105 31.1562,35.72905 30.2581,36.95585 C29.3587,38.17725 28.316,39.28645 27.1523,40.25945 C25.965,41.25435 24.6819,42.12895 23.3218,42.87035 C21.9198,43.62915 20.4503,44.25605 18.9322,44.74295 C18.6808,44.82575 18.4267,44.89805 18.1726,44.97305 L19.2426,46.04305 C21.8469,48.64635 26.1319,48.64635 28.7362,46.04305 L46.0516,28.72765 C48.6397,26.13365 48.6509,21.87545 46.0765,19.26785 Z M26.2977,19.65265 C25.8803,18.93545 25.3541,18.28725 24.7379,17.73135 C24.1896,17.23415 23.515,16.89705 22.7882,16.75715 C22.347,16.71275 21.9058,16.84615 21.5631,17.12765 C21.0692,17.48105 20.6375,17.91425 20.2856,18.40925 C19.8891,18.95955 19.5619,19.55655 19.3114,20.18685 C19.0577,20.77645 18.923,21.41045 18.9149,22.05225 C18.8975,22.58505 19.0899,23.10405 19.4505,23.49675 C19.8393,23.90175 20.3097,24.21965 20.8306,24.42925 C21.443,24.68305 22.0817,24.86845 22.7349,24.98185 C23.4335,25.10735 24.1388,25.19205 24.8473,25.23545 C25.546,25.27765 26.209,25.30035 26.8425,25.30035 L28.4283,25.30035 C28.1801,24.26975 27.8764,23.25325 27.5185,22.25545 C27.1984,21.34975 26.7895,20.47785 26.2977,19.65265 Z" id="Shape"></path>
                </g>
            </g>
        </g>
    </g>
</svg>