<?xml version="1.0" encoding="UTF-8"?>
<svg width="48px" height="48px" viewBox="0 0 48 48" version="1.1" xmlns="http://www.w3.org/2000/svg" xmlns:xlink="http://www.w3.org/1999/xlink">
    <!-- Generator: Sketch 56 (81588) - https://sketch.com -->
    <title>Gateway/Mono/Asan_Pardakht</title>
    <desc>Created with Sketch.</desc>
    <g id="Ready-For-Export" stroke="none" stroke-width="1" fill="none" fill-rule="evenodd">
        <g id="Artboard" transform="translate(-80.000000, -392.000000)" fill="#FFFFFF">
            <g id="Gateway_(Mono)" transform="translate(80.000000, 392.000000)">
                <g id="Gateway-/-Asan-Pardakht-/-Mono">
                    <path d="M26.6856948,36.0827359 C24.0384948,34.0812359 20.8465948,36.0000359 19.3414948,37.6162359 C14.7943948,42.4992359 11.6961948,38.5536359 11.6961948,38.5536359 C11.6961948,38.5536359 13.2860948,43.6289359 19.5115948,43.7131359 C21.3841948,43.7384359 23.0334948,43.4158359 25.2361948,41.5363359 C26.9391948,40.0831359 28.1888948,37.2192359 26.6856948,36.0827359 Z M11.7063948,37.7818359 C11.8218948,37.4359359 12.1407948,37.1088359 12.9281948,37.0907359 C14.2000948,37.0616359 15.6306948,38.2547359 16.8580948,38.9979359 C16.3386948,39.2829359 15.7773948,39.4862359 15.1849948,39.5433359 C15.0519948,39.5561359 14.9182948,39.5613359 14.7846948,39.5585359 C14.5404948,39.5535359 14.2969948,39.5215359 14.0596948,39.4637359 C13.7788948,39.3952359 13.5044948,39.2915359 13.2490948,39.1559359 C12.8887948,38.9646359 12.5605948,38.7240359 12.2689948,38.4390359 C12.2146948,38.3842359 12.1619948,38.3283359 12.1109948,38.2704359 C11.9747948,38.1086359 11.8400948,37.9456359 11.7063948,37.7818359 Z M36.0536948,17.3325359 C32.3866948,19.2494359 32.8479948,23.8698359 33.8674948,26.4277359 C36.9474948,34.1557359 30.8489948,35.5446359 30.8489948,35.5446359 C30.8489948,35.5446359 37.4168948,36.4578359 40.8300948,29.4858359 C41.8566948,27.3886359 42.3722948,25.3578359 41.4278948,21.8732359 C40.6977948,19.1791359 38.1357948,16.2441359 36.0536948,17.3325359 Z M34.2188948,29.8846359 C34.2747948,30.6909359 34.1994948,31.5058359 33.9093948,32.2643359 C33.8488948,32.4226359 33.7792948,32.5774359 33.7007948,32.7276359 C33.5455948,33.0248359 33.3552948,33.3032359 33.1355948,33.5564359 C32.8548948,33.8799359 32.5272948,34.1613359 32.1703948,34.3976359 C31.7440948,34.6798359 31.2752948,34.9033359 30.7836948,35.0451359 C30.5557948,35.1051359 30.3273948,35.1629359 30.0985948,35.2193359 C29.7080948,34.9221359 29.4126948,34.3737359 29.8567948,33.3762359 C30.5190948,31.8887359 32.7222948,30.8991359 34.2188948,29.8846359 Z M1.45619478,19.3312359 C6.89579478,15.5163359 13.1445948,19.5837359 16.0401948,22.9250359 C24.7881948,33.0200359 31.2691948,25.3478359 31.2691948,25.3478359 C31.2691948,25.3478359 27.7249948,35.3883359 15.2633948,35.1110359 C11.5150948,35.0276359 8.23849478,34.2642359 3.96599478,30.3462359 C0.662594783,27.3169359 -1.63250522,21.4974359 1.45619478,19.3312359 Z M20.3997948,26.1419359 C23.0123948,24.7933359 26.1919948,22.1733359 28.9089948,22.3328359 C30.9688948,22.4538359 31.3857948,23.5765359 31.3949948,24.4408359 L30.8761948,25.0379359 L30.8261948,25.0931359 L30.7893948,25.1325359 C30.2125948,25.7347359 29.5336948,26.2448359 28.8057948,26.6505359 C28.1815948,26.9984359 27.5127948,27.2680359 26.8176948,27.4360359 C26.3159948,27.5573359 25.8015948,27.6254359 25.2853948,27.6372359 C24.9560948,27.6447359 24.6261948,27.6296359 24.2988948,27.5927359 C24.0741948,27.5675359 23.8505948,27.5320359 23.6290948,27.4870359 C22.4748948,27.2528359 21.3941948,26.7674359 20.3997948,26.1419359 Z M18.0608948,20.7855359 C23.5004948,24.6004359 29.7492948,20.5330359 32.6448948,17.1916359 C41.3929948,7.09673595 47.8738948,14.7688359 47.8738948,14.7688359 C47.8738948,14.7688359 44.3296948,4.72843595 31.8680948,5.00563595 C28.1197948,5.08903595 24.8431948,5.85243595 20.5706948,9.77053595 C17.2673948,12.7998359 14.9721948,18.6193359 18.0608948,20.7855359 Z M37.0051948,13.9751359 C38.1072948,13.2825359 39.3177948,12.7598359 40.6092948,12.5629359 C40.8961948,12.5192359 41.1855948,12.4919359 41.4755948,12.4819359 C42.0056948,12.4636359 42.5372948,12.5041359 43.0584948,12.6024359 C43.7459948,12.7319359 44.4126948,12.9617359 45.0395948,13.2713359 C45.8439948,13.6685359 46.5833948,14.1939359 47.2287948,14.8164359 C47.2973948,14.8844359 47.3649948,14.9530359 47.4308948,15.0236359 C47.6226948,15.2356359 47.8119948,15.4499359 47.9998948,15.6654359 C47.9938948,16.5311359 47.5819948,17.6624359 45.5136948,17.7839359 C42.7969948,17.9434359 39.6176948,15.3239359 37.0051948,13.9751359 Z" id="Shape"></path>
                </g>
            </g>
        </g>
    </g>
</svg>