<?xml version="1.0" encoding="UTF-8"?>
<svg width="48px" height="48px" viewBox="0 0 48 48" version="1.1" xmlns="http://www.w3.org/2000/svg" xmlns:xlink="http://www.w3.org/1999/xlink">
    <!-- Generator: Sketch 56 (81588) - https://sketch.com -->
    <title>Gateway/Mono/Digipay</title>
    <desc>Created with Sketch.</desc>
    <g id="Ready-For-Export" stroke="none" stroke-width="1" fill="none" fill-rule="evenodd">
        <g id="Artboard" transform="translate(-184.000000, -392.000000)" fill="#FFFFFF">
            <g id="Gateway_(Mono)" transform="translate(80.000000, 392.000000)">
                <g id="Gateway-/-Digipay-/-Mono" transform="translate(104.000000, 0.000000)">
                    <path d="M39.975,18.6666667 L24.8875,18.6666667 L24.8875,33.7777778 L32.875,33.7777778 C36.7962217,33.7777778 39.975,30.5940249 39.975,26.6666667 L39.975,18.6666667 Z M41.75,8.88888889 L41.75,26.6666667 C41.75,31.5758644 37.7765272,35.5555556 32.875,35.5555556 L24.8875,35.5555556 L24.8875,39.1111111 C24.8875,44.0203089 20.9140272,48 16.0125,48 L6.25,48 L6.25,25.7777778 C6.25,22.2593763 8.29098584,19.2184185 11.2518388,17.7777778 C8.29098584,16.337137 6.25,13.2961793 6.25,9.77777778 L6.25,0 L32.875,0 C37.7765272,0 41.75,3.97969111 41.75,8.88888889 Z M23.1125,39.1111111 L23.1125,18.6666667 L15.125,18.6666667 C11.2037783,18.6666667 8.025,21.8504196 8.025,25.7777778 L8.025,46.2222222 L16.0125,46.2222222 C19.9337217,46.2222222 23.1125,43.0384693 23.1125,39.1111111 Z M39.975,16.8888889 L39.975,8.88888889 C39.975,4.96153067 36.7962217,1.77777778 32.875,1.77777778 L8.025,1.77777778 L8.025,9.77777778 C8.025,13.705136 11.2037783,16.8888889 15.125,16.8888889 L39.975,16.8888889 Z" id="Shape"></path>
                </g>
            </g>
        </g>
    </g>
</svg>