<?xml version="1.0" encoding="UTF-8"?>
<svg width="48px" height="48px" viewBox="0 0 48 48" version="1.1" xmlns="http://www.w3.org/2000/svg" xmlns:xlink="http://www.w3.org/1999/xlink">
    <!-- Generator: Sketch 56 (81588) - https://sketch.com -->
    <title>Gateway/Mono/Payping</title>
    <desc>Created with Sketch.</desc>
    <g id="Ready-For-Export" stroke="none" stroke-width="1" fill="none" fill-rule="evenodd">
        <g id="Artboard" transform="translate(-496.000000, -392.000000)" fill="#FFFFFF">
            <g id="Gateway_(Mono)" transform="translate(80.000000, 392.000000)">
                <g id="Gateway-/-Payping-/-Mono" transform="translate(416.000000, 0.000000)">
                    <path d="M26.923,0.021098038 C27.5547,0.032998038 28.1843,0.072498038 28.8113,0.151798038 C30.2352,0.332098038 31.6345,0.698098038 32.9632,1.23879804 C36.1036,2.51669804 38.8109,4.76649804 40.6415,7.61029804 C41.5485,9.01919804 42.2377,10.565498 42.6766,12.180998 C43.1299,13.849098 43.3155,15.587598 43.2296,17.313398 C43.1358,19.195698 42.715,21.059298 41.9909,22.800398 C41.2144,24.667398 40.0911,26.387598 38.6923,27.851498 C37.1972,29.416198 35.3934,30.681698 33.4105,31.556698 C31.993,32.182198 30.4875,32.607698 28.9514,32.816898 C28.2126,32.917498 27.4694,32.964098 26.724,32.968698 L21.6807,32.968698 L16.2787,24.195798 C18.6356,24.195798 24.6423,24.260398 26.998,24.187598 C28.0732,24.141098 29.129,23.884598 30.0973,23.414398 C31.0095,22.971398 31.831,22.348698 32.5027,21.591198 C33.1294,20.884598 33.6232,20.063398 33.9533,19.179898 C34.262,18.353198 34.4266,17.474398 34.4375,16.592498 C34.4483,15.720698 34.3137,14.848598 34.033,14.022498 C33.3107,11.896698 31.6392,10.150898 29.5432,9.32779804 C28.6716,8.98549804 27.747,8.81389804 26.8113,8.79619804 L26.6964,8.79539804 L13.5617,8.79539804 L13.5617,48 L4.75,48 L4.75,0.019798038 C12.141,0.019798038 19.5321,-0.025601962 26.923,0.021098038 Z" id="Shape"></path>
                </g>
            </g>
        </g>
    </g>
</svg>