<?xml version="1.0" encoding="UTF-8"?>
<svg width="49px" height="48px" viewBox="0 0 49 48" version="1.1" xmlns="http://www.w3.org/2000/svg" xmlns:xlink="http://www.w3.org/1999/xlink">
    <!-- Generator: Sketch 56 (81588) - https://sketch.com -->
    <title>Bank/Mono/Ansar</title>
    <desc>Created with Sketch.</desc>
    <g id="Ready-For-Export" stroke="none" stroke-width="1" fill="none" fill-rule="evenodd">
        <g id="Artboard" transform="translate(-80.000000, -184.000000)" fill="#FFFFFF">
            <g id="Banks_(Mono)" transform="translate(80.000000, 184.000000)">
                <g id="Bank-/-Ansar-/-Mono">
                    <path d="M15.4900055,41 L7,41 L7,31.0197285 L25.4978572,31.0197285 L15.4900055,41 Z M40.9495354,32.4877346 L40.9495354,41 L32.4122076,41 L40.9495354,32.4877346 L40.9495354,32.4877346 Z M7.05046457,15.5122654 L7.05046457,7 L15.5877924,7 L7.05046457,15.5122654 L7.05046457,15.5122654 Z M32.5147819,7 L41,7 L41,16.9802715 L22.5021428,16.9802715 L32.5147819,7 Z M0,23.9541717 L24.0246993,0 L31.0431678,7.05218052 L7.01846847,31.0063522 L0,23.9541717 Z M16.9568322,40.9478195 L40.9815315,16.9936478 L48,24.0458283 L23.9753007,48 L16.9568322,40.9478195 Z" id="Shape"></path>
                </g>
            </g>
        </g>
    </g>
</svg>