<?xml version="1.0" encoding="UTF-8"?>
<svg width="49px" height="48px" viewBox="0 0 49 48" version="1.1" xmlns="http://www.w3.org/2000/svg" xmlns:xlink="http://www.w3.org/1999/xlink">
    <!-- Generator: Sketch 56 (81588) - https://sketch.com -->
    <title>Bank/Mono/Futurebank</title>
    <desc>Created with Sketch.</desc>
    <g id="Ready-For-Export" stroke="none" stroke-width="1" fill="none" fill-rule="evenodd">
        <g id="Artboard" transform="translate(-704.000000, -184.000000)" fill="#FFFFFF">
            <g id="Banks_(Mono)" transform="translate(80.000000, 184.000000)">
                <g id="Bank-/-Futurebank-/-Mono" transform="translate(624.000000, 0.000000)">
                    <path d="M-1.0658141e-14,18.4603 C7.6613,16.9797 16.1238,16.7229 25.8796,17.8508 C34.0724,26.6222 37.9844,34.0111 40.7682,41.2914 C30.5577,30.4065 17.7556,22.0332 -1.0658141e-14,18.4603 Z M9.7183,10.913 C17.5511,9.8336 22.717,10.1331 30.6134,11.3112 C35.2087,15.27 42.5295,23.1498 45.3133,30.4301 C35.1028,19.5452 28.2771,14.0584 9.7183,10.913 Z M14.6313,6 C22.6112,6.1734 27.1874,6.7151 35.0839,7.8932 C38.8135,11.2993 42.6802,15.1215 47.3861,21.4673 C35.1782,10.8801 33.1902,9.1453 14.6313,6 Z" id="Shape"></path>
                </g>
            </g>
        </g>
    </g>
</svg>