<?xml version="1.0" encoding="UTF-8"?>
<svg width="49px" height="48px" viewBox="0 0 49 48" version="1.1" xmlns="http://www.w3.org/2000/svg" xmlns:xlink="http://www.w3.org/1999/xlink">
    <!-- Generator: Sketch 56 (81588) - https://sketch.com -->
    <title>Bank/Mono/Ghavamin</title>
    <desc>Created with Sketch.</desc>
    <g id="Ready-For-Export" stroke="none" stroke-width="1" fill="none" fill-rule="evenodd">
        <g id="Artboard" transform="translate(-912.000000, -184.000000)" fill="#FFFFFF">
            <g id="Banks_(Mono)" transform="translate(80.000000, 184.000000)">
                <g id="Bank-/-Ghavamin-/-Mono" transform="translate(832.000000, 0.000000)">
                    <path d="M24.404875,32.823 C19.5063854,32.823 15.535375,28.841916 15.535375,23.931 C15.535375,21.8681334 16.2360527,19.9693339 17.4118266,18.4607556 C17.7176287,15.4518422 19.8106132,10 30.963947,10 C46.3681215,10 47,21.2046889 47,21.2046889 L47,44.6934175 C47,44.6934175 46.521822,48 44.1650856,48 L19.1802657,48 L11,40.5816049 L37.7096775,40.5816049 L37.7096775,21.3417493 C37.7096775,21.3417493 35.8311197,14.0946799 27.3434536,14.0946799 C24.5516193,14.0946799 22.5247383,14.7768184 21.0616403,15.692346 C22.0934169,15.2710995 23.2221096,15.039 24.404875,15.039 C29.3033646,15.039 33.274375,19.020084 33.274375,23.931 C33.274375,26.499882 32.1877885,28.8143343 30.4502503,30.4376169 C29.8136471,33.5168426 27.150102,38 17.0360531,38 C1.63187856,38 1,26.8124436 1,26.8124436 L1,3.3065825 C1,3.3065825 1.47817837,0 3.83491461,0 L28.8197344,0 L37,7.41839495 L10.2903226,7.41839495 L10.2903226,26.6582506 C10.2903226,26.6582506 12.1688805,33.9053201 20.6565465,33.9053201 C23.1636554,33.9053201 25.0538824,33.3552225 26.4729123,32.5800059 C25.8093969,32.7388779 25.116935,32.823 24.404875,32.823 Z" id="Shape"></path>
                </g>
            </g>
        </g>
    </g>
</svg>