<?xml version="1.0" encoding="UTF-8"?>
<svg width="48px" height="48px" viewBox="0 0 48 48" version="1.1" xmlns="http://www.w3.org/2000/svg" xmlns:xlink="http://www.w3.org/1999/xlink">
    <!-- Generator: Sketch 56 (81588) - https://sketch.com -->
    <title>Bank/Mono/Iran_Venezuela</title>
    <desc>Created with Sketch.</desc>
    <g id="Ready-For-Export" stroke="none" stroke-width="1" fill="none" fill-rule="evenodd">
        <g id="Artboard" transform="translate(-1224.000000, -184.000000)" fill="#FFFFFF">
            <g id="Banks_(Mono)" transform="translate(80.000000, 184.000000)">
                <g id="Bank-/-Iran-Venezuela-/-Mono" transform="translate(1144.000000, 0.000000)">
                    <path d="M6.12244898,41.877551 L22.3220088,41.877551 L25.5216007,48 L0,48 L0,0 L48,0 L48,48 L35.9629767,48 L32.7633849,41.877551 L23.0151723,23.1715102 L31.2075038,23.1715102 L41.877551,43.5371294 L41.877551,26.108706 C41.4998077,29.3398876 40.2648492,32.3107984 38.4064555,34.7876583 L31.8132245,22.1715102 L21.3642449,22.1715102 L30.9899668,40.5902905 C30.6618788,40.7288401 30.3288396,40.8579369 29.9911915,40.9772387 L20.1632653,22.1715102 L12,22.1715102 L22.3220088,41.877551 C13.8696164,41.0946639 7.10372084,34.5024162 6.12244898,26.108706 L6.12244898,41.877551 Z M6.12244898,21.891294 C7.08699537,13.6406519 13.6406519,7.08699537 21.891294,6.12244898 L6.12244898,6.12244898 L6.12244898,21.891294 L6.12244898,21.891294 Z M26.108706,6.12244898 C34.3593481,7.08699537 40.9130046,13.6406519 41.877551,21.891294 L41.877551,6.12244898 L26.108706,6.12244898 L26.108706,6.12244898 Z M13.6509262,23.1715102 L19.5575447,23.1715102 L32.5155042,48 L26.6158704,48 L13.6509262,23.1715102 Z" id="Shape"></path>
                </g>
            </g>
        </g>
    </g>
</svg>