<?xml version="1.0" encoding="UTF-8"?>
<svg width="48px" height="48px" viewBox="0 0 48 48" version="1.1" xmlns="http://www.w3.org/2000/svg" xmlns:xlink="http://www.w3.org/1999/xlink">
    <!-- Generator: Sketch 56 (81588) - https://sketch.com -->
    <title>Bank/Mono/Kosar</title>
    <desc>Created with Sketch.</desc>
    <g id="Ready-For-Export" stroke="none" stroke-width="1" fill="none" fill-rule="evenodd">
        <g id="Artboard" transform="translate(-1744.000000, -184.000000)" fill="#FFFFFF">
            <g id="Banks_(Mono)" transform="translate(80.000000, 184.000000)">
                <g id="Bank-/-Kosar-/-Mono" transform="translate(1664.000000, 0.000000)">
                    <path d="M30.1671315,0.00576082385 C30.5228614,-0.056068638 30.5187489,0.395286433 30.6112798,0.617872494 C31.0554282,2.27902404 31.6846383,3.88865101 32.0527057,5.57247337 C31.9354999,5.91047441 31.4995765,5.81773024 31.2281525,5.8898646 C27.8661963,6.27732924 24.5638711,7.28514946 21.5864322,8.90508135 C18.2635445,10.780575 15.4403238,13.7133525 14.0873163,17.3262541 C13.0386327,19.7149323 12.7055214,22.3591723 12.7651525,24.9498267 C12.6829028,27.4951396 13.3861377,29.9848059 14.2867718,32.3405084 C12.7507588,29.5499387 11.8048873,26.4564046 11.3689639,23.305163 C11.2867143,21.128766 11.1715647,18.9090883 11.7473125,16.7862768 C12.226417,14.2471469 13.3861377,11.8852614 14.8625197,9.78512069 C17.6240531,5.99909666 21.4548327,3.01685561 25.7564916,1.18670354 C27.1979175,0.712677671 28.6228935,0.0160657341 30.1671315,0.00576082385 Z M27.4775665,12.0089204 C32.6880846,13.0208625 37.5839978,16.0566891 40.4524558,20.5826057 C43.3353073,25.2321813 44.4107223,30.8833941 43.8617054,36.297594 C43.6972059,38.1627827 43.1543583,39.9682031 42.5930039,41.7447696 C42.5169229,42.1301732 42.0501559,41.9714776 41.786957,41.9467457 C39.9898012,41.5345494 38.2255452,40.9822061 36.4407269,40.5102412 C38.0466521,37.198243 39.2104852,33.5956465 39.3153536,29.8879397 C39.3729284,27.7156646 39.1940353,25.498048 38.4106069,23.4535538 C36.9979686,19.2388454 33.7038683,15.9021155 29.9553385,13.657706 C29.0526481,13.2290217 28.143789,12.8044594 27.2164237,12.4314217 C26.5358075,12.1449452 25.7667729,12.0996036 25.1375627,11.6915291 C25.9333285,11.590541 26.7023631,11.8790785 27.4775665,12.0089204 Z M4.0693036,27.2272119 C4.94937533,28.1999954 5.69990378,29.284072 6.63138157,30.2094529 C9.60265175,33.4761095 13.4683874,36.1203494 17.8564085,36.9509252 C22.7153092,37.8783673 27.7592717,36.3305696 31.7422131,33.5255731 C33.3255197,32.4064598 34.5674902,30.9040039 35.8732039,29.4901702 C34.6435711,31.5944329 32.9739023,33.3936702 31.2219838,35.0692488 C28.2445449,37.8660012 24.3582468,39.6569947 20.3074494,40.1104106 C18.3684129,40.1289596 16.3964765,40.2897161 14.4903398,39.8527879 C12.8617959,39.5415798 11.2455894,39.1438101 9.71368886,38.4946009 C6.61904412,37.4311342 3.81021705,35.605104 1.46198831,33.3318407 C0.937646507,32.843388 0.407135985,32.3487523 0,31.7531285 C0.24674908,31.1698706 0.777259606,30.77004 1.18233935,30.3021971 C2.20429179,29.3335355 3.05146364,28.1999954 4.0693036,27.2272119 Z M28.6088058,18.1159612 C30.6713809,19.5791558 31.7881994,22.2201417 31.6348334,24.7525939 C31.4421429,26.0630374 31.1354111,27.4176984 30.3351556,28.4929857 C28.9234026,30.4887992 26.5363996,31.8615491 24.0864772,31.6665904 C20.5217026,31.7188474 17.2636598,28.58946 17.0277123,24.9656415 C16.7662037,22.6542764 17.6431422,20.2564863 19.3164038,18.684758 C20.2601941,17.8687456 21.363249,17.2014646 22.5842777,16.9381699 C24.6291567,16.5060451 26.9139157,16.7954683 28.6088058,18.1159612 Z" id="Shape"></path>
                </g>
            </g>
        </g>
    </g>
</svg>