<?xml version="1.0" encoding="UTF-8"?>
<svg width="48px" height="48px" viewBox="0 0 48 48" version="1.1" xmlns="http://www.w3.org/2000/svg" xmlns:xlink="http://www.w3.org/1999/xlink">
    <!-- Generator: Sketch 56 (81588) - https://sketch.com -->
    <title>Bank/Mono/Mehr_Iran</title>
    <desc>Created with Sketch.</desc>
    <g id="Ready-For-Export" stroke="none" stroke-width="1" fill="none" fill-rule="evenodd">
        <g id="Artboard" transform="translate(-2056.000000, -184.000000)" fill="#FFFFFF">
            <g id="Banks_(Mono)" transform="translate(80.000000, 184.000000)">
                <g id="Bank-/-Mehr-Iran-/-Mono" transform="translate(1976.000000, 0.000000)">
                    <path d="M48,6.72645137 C44.222165,8.25800572 40.7495646,10.277853 38.0694858,13.5687491 C32.251229,19.7524711 28.2295031,28.3709654 25.9380173,39.3030264 C25.8920094,39.5238736 25.4116483,39.1736411 25.3532728,39.3942405 C20.4047121,37.2301361 16.7787523,30.3794109 14.9908788,22.9913157 C14.4048976,20.5701759 13.7434735,17.9963516 12.7253651,15.5809126 C16.7114721,14.4808903 20.9372649,16.9887826 25.452709,23.8506617 C26.5462603,20.0645324 34.0037309,9.00482127 34.0037309,9.00482127 L34.0826368,8.7118455 C30.465087,5.471018 25.6909108,3.5 20.4576458,3.5 C9.16124378,3.5 0,12.6801551 0,24.0001239 C0,35.3198449 9.16124378,44.5 20.4576458,44.5 C34.2478691,44.5 39.3126862,34.4384389 42.8518247,23.5628911 C44.5677183,17.9509924 45.9548785,11.9266472 48,6.72645137 Z" id="Shape"></path>
                </g>
            </g>
        </g>
    </g>
</svg>