<?xml version="1.0" encoding="UTF-8"?>
<svg width="48px" height="48px" viewBox="0 0 48 48" version="1.1" xmlns="http://www.w3.org/2000/svg" xmlns:xlink="http://www.w3.org/1999/xlink">
    <!-- Generator: Sketch 56 (81588) - https://sketch.com -->
    <title>Bank/Mono/Sanat_Madan</title>
    <desc>Created with Sketch.</desc>
    <g id="Ready-For-Export" stroke="none" stroke-width="1" fill="none" fill-rule="evenodd">
        <g id="Artboard" transform="translate(-3304.000000, -184.000000)" fill="#FFFFFF">
            <g id="Banks_(Mono)" transform="translate(80.000000, 184.000000)">
                <g id="Bank-/-Sanat-Madan-/-Mono" transform="translate(3224.000000, 0.000000)">
                    <path d="M24,37.0087851 L33.1222056,27.8860081 L29.2361974,24 L24,29.2367688 L18.7632312,24 L10.9912149,24 L5.49560746,29.4956075 L16.4868224,29.4956075 L24,37.0087851 Z M10.7318049,5.49560746 L5.49560746,5.49560746 L5.49560746,42.5043925 L42.5043925,42.5043925 L42.5043925,5.49560746 L37.2676237,5.49560746 L27.8860081,14.8777944 L31.5126062,18.5043925 L42.5043925,18.5043925 L37.0087851,24 L29.2361974,24 L24,18.7638026 L18.7632312,24 L14.8772231,20.1139919 L20.1139919,14.8777944 L10.7318049,5.49560746 Z M34.9912149,0 L48,0 L48,48 L0,48 L0,0 L13.0082137,0 L24,10.9917863 L34.9912149,0 L34.9912149,0 Z" id="Shape"></path>
                </g>
            </g>
        </g>
    </g>
</svg>