<?xml version="1.0" encoding="UTF-8"?>
<svg width="48px" height="48px" viewBox="0 0 48 48" version="1.1" xmlns="http://www.w3.org/2000/svg" xmlns:xlink="http://www.w3.org/1999/xlink">
    <!-- Generator: Sketch 56 (81588) - https://sketch.com -->
    <title>Bank/Mono/Sepah</title>
    <desc>Created with Sketch.</desc>
    <g id="Ready-For-Export" stroke="none" stroke-width="1" fill="none" fill-rule="evenodd">
        <g id="Artboard" transform="translate(-3512.000000, -184.000000)" fill="#FFFFFF">
            <g id="Banks_(Mono)" transform="translate(80.000000, 184.000000)">
                <g id="Bank-/-Sepah-/-Mono" transform="translate(3432.000000, 0.000000)">
                    <path d="M23.9469338,44.518 C21.6988338,44.5283 19.5197338,45.0552 17.3833338,46.0232 C17.2884338,47.1159 16.4515338,47.7753 14.8700338,48 C13.6658338,47.9839 12.4579338,47.7129 11.2437338,47.1872 C10.4843338,46.9574 9.86093378,45.681 9.09153378,44.1088 C8.32433378,42.5408 7.43543378,40.677 6.64683378,39.2571 C6.47203378,38.9474 6.46353378,38.5709 6.62423378,38.2537 C7.09423378,37.3181 7.86543378,36.9443 8.76403378,37.1719 C8.99703378,37.2304 9.19373378,37.3861 9.30403378,37.5995 C9.43623378,37.8548 9.60613378,38.1834 9.60613378,38.1834 C10.5680338,38.4993 11.5485338,38.7541 12.5703338,38.8778 L12.6965338,38.7729 C12.6690338,38.7567 12.6428338,38.738 12.6166338,38.7217 C6.80183378,35.0591 2.88323378,28.6791 2.75333378,21.38 C2.54723378,9.815 11.9233338,0.2119 23.6253338,0.0034 C23.7504338,0.0011 23.8753338,-1.13686838e-13 24.0000338,-1.13686838e-13 L24.0936338,-1.13686838e-13 C24.1871338,0.0006 24.2808338,0.0017 24.3748338,0.0034 C36.0767338,0.2119 45.4528338,9.815 45.2467338,21.38 C45.1168338,28.6791 41.1982338,35.0591 35.3834338,38.7217 C35.3572338,38.738 35.3310338,38.7567 35.3035338,38.7729 L35.4297338,38.8778 C36.4515338,38.7541 37.4320338,38.4993 38.3939338,38.1834 C38.3939338,38.1834 38.5638338,37.8548 38.6959338,37.5995 C38.8063338,37.3861 39.0030338,37.2304 39.2359338,37.1719 C40.1345338,36.9443 40.9058338,37.3181 41.3757338,38.2537 C41.5365338,38.5709 41.5280338,38.9474 41.3532338,39.2571 C40.5646338,40.677 39.6757338,42.5408 38.9085338,44.1088 C38.1390338,45.681 37.5157338,46.9574 36.7562338,47.1872 C35.5421338,47.7129 34.3342338,47.9839 33.1300338,48 C31.5486338,47.7753 30.7117338,47.1159 30.6167338,46.0232 C28.4634338,45.0476 26.2668338,44.52 24.0000338,44.5178 L23.9469338,44.518 Z M9.91593378,39.0113 C9.91593378,39.0113 10.4789338,40.564 10.7817338,41.3322 C11.1733338,42.3259 12.2656338,44.973 12.2656338,44.973 C12.5216338,45.6 13.0413338,46.0733 11.7022338,46.7775 C11.7184338,46.8249 11.7347338,46.8711 11.7521338,46.9335 C12.5728338,47.2022 13.3148338,47.4555 14.0843338,47.4419 C14.1767338,47.3931 14.2704338,47.3595 14.3491338,47.327 L10.6804338,39.762 C10.2944338,38.9665 10.1907338,38.924 9.91593378,39.0113 Z M38.0841338,39.0113 C38.0841338,39.0113 37.5211338,40.564 37.2183338,41.3322 C36.8267338,42.3259 35.7345338,44.973 35.7345338,44.973 C35.4784338,45.6 34.9587338,46.0733 36.2978338,46.7775 C36.2816338,46.8249 36.2653338,46.8711 36.2479338,46.9335 C35.4272338,47.2022 34.6852338,47.4555 33.9157338,47.4419 C33.8233338,47.3931 33.7296338,47.3595 33.6509338,47.327 L37.3196338,39.762 C37.7056338,38.9665 37.8093338,38.924 38.0841338,39.0113 Z M33.1004338,38.1606 C30.5225338,36.7614 27.2708338,36.2099 24.0000338,36.3021 L23.8892338,36.2992 C19.2032338,36.188 14.5714338,37.4031 11.9208338,40.5448 C11.8708338,40.9569 14.2792338,45.5412 14.7838338,46.2055 C15.0074338,46.4217 15.0861338,46.4515 15.2760338,46.4791 C17.4979338,44.5948 20.7420338,43.7973 24.0000338,43.8422 L24.0763338,43.8413 C27.3086338,43.8098 30.5194338,44.6095 32.7240338,46.4791 C32.9139338,46.4515 32.9926338,46.4217 33.2162338,46.2055 C33.7208338,45.5412 36.1292338,40.9569 36.0792338,40.5448 C35.2734338,39.5897 34.2846338,38.8127 33.1667338,38.1969 C33.1491338,38.2233 33.1121338,38.2635 33.0554338,38.3177 C32.9082338,38.457 32.7450338,38.586 32.5668338,38.7035 C32.3874338,38.8223 32.2043338,38.9171 32.0175338,38.9902 L31.5526338,39.1814 C31.3956338,39.2286 31.2362338,39.277 31.0755338,39.3252 C30.9160338,39.3746 30.7558338,39.4157 30.5946338,39.4497 C30.5831338,39.4529 30.5723338,39.4559 30.5620338,39.4585 C30.5573338,39.4668 30.5516338,39.4753 30.5452338,39.4839 C30.5180338,39.5267 30.4912338,39.5659 30.4656338,39.6027 C30.4401338,39.6395 30.4145338,39.6775 30.3888338,39.7168 C30.3127338,39.8382 30.2391338,39.9595 30.1665338,40.0822 L30.0482338,40.2976 C29.9627338,40.4471 29.8861338,40.6017 29.8201338,40.7627 C29.7541338,40.9238 29.6929338,41.0839 29.6352338,41.2441 L29.6340338,41.2464 C29.5615338,41.4479 29.5331338,41.6073 29.5487338,41.725 C29.5643338,41.843 29.6308338,41.9233 29.7481338,41.9656 C29.7907338,41.981 29.8304338,41.9823 29.8672338,41.9694 C29.9040338,41.9565 29.9382338,41.9367 29.9699338,41.91 C30.0016338,41.8834 30.0306338,41.8526 30.0572338,41.8182 C30.0838338,41.7835 30.1065338,41.7515 30.1251338,41.7221 C30.1585338,41.6739 30.1844338,41.6551 30.2026338,41.6657 C30.2210338,41.6762 30.2225338,41.7029 30.2071338,41.7456 C30.1653338,41.8389 30.1097338,41.9454 30.0406338,42.0651 C29.9713338,42.1847 29.8936338,42.2942 29.8074338,42.3936 C29.7213338,42.4929 29.6313338,42.5699 29.5373338,42.6245 C29.4434338,42.6788 29.3502338,42.6896 29.2579338,42.6561 C29.1584338,42.6203 29.0902338,42.5644 29.0531338,42.4889 C29.0162338,42.4133 28.9972338,42.3292 28.9965338,42.2366 C28.9958338,42.144 29.0083338,42.0511 29.0338338,41.9579 C29.0594338,41.8647 29.0844338,41.7845 29.1088338,41.7169 L29.1095338,41.7161 C29.1514338,41.6104 29.1993338,41.5013 29.2522338,41.3863 C29.3054338,41.2711 29.3572338,41.1582 29.4054338,41.0463 C29.4303338,40.9998 29.4414338,40.9671 29.4398338,40.9504 C29.4370338,40.9335 29.4042338,40.9486 29.3401338,40.9932 C29.1648338,41.1228 28.9917338,41.2335 28.8218338,41.3276 C28.6520338,41.4207 28.4698338,41.4941 28.2780338,41.5492 C27.9943338,41.632 27.7031338,41.6728 27.4044338,41.6716 C27.1058338,41.6704 26.8061338,41.637 26.5033338,41.5724 C26.2688338,41.5232 26.0315338,41.4594 25.7938338,41.379 C25.5548338,41.2998 25.3106338,41.2 25.0605338,41.0821 C24.9499338,41.0304 24.8537338,40.9746 24.7696338,40.917 C24.6867338,40.8585 24.6197338,40.791 24.5700338,40.7125 C24.5202338,40.6339 24.4877338,40.5418 24.4737338,40.4365 C24.4597338,40.3311 24.4705338,40.2067 24.5058338,40.0631 C24.5304338,39.9716 24.5648338,39.8781 24.6075338,39.7824 C24.6488338,39.688 24.6960338,39.5976 24.7478338,39.5119 C24.7942338,39.4356 24.8316338,39.4029 24.8583338,39.4125 C24.8840338,39.4221 24.8852338,39.4733 24.8607338,39.5637 C24.8387338,39.6484 24.8326338,39.7266 24.8422338,39.7985 C24.8519338,39.8703 24.8820338,39.9373 24.9326338,40.0003 C25.0587338,40.1504 25.2103338,40.2671 25.3872338,40.3505 C25.5641338,40.4339 25.7425338,40.5103 25.9225338,40.5796 C26.5733338,40.8345 27.2926338,40.9736 28.0795338,40.9958 C28.2387338,41.0011 28.3951338,40.9932 28.5483338,40.9731 C28.7029338,40.952 28.8524338,40.9115 28.9993338,40.852 C29.2238338,40.7639 29.4117338,40.6421 29.5621338,40.4862 C29.7123338,40.3291 29.7502338,40.299 29.8745338,40.0909 C29.9007338,40.0409 29.9301338,39.9983 29.9628338,39.963 C29.9953338,39.9288 30.0266338,39.8959 30.0592338,39.863 C30.1343338,39.7855 30.2093338,39.7106 30.2820338,39.6357 C30.3367338,39.5809 30.3933338,39.5269 30.4523338,39.4737 C30.4422338,39.466 30.4637338,39.4353 30.5170338,39.3805 C30.5866338,39.3208 30.6561338,39.2599 30.7247338,39.1965 C30.7944338,39.1332 30.8718338,39.0822 30.9567338,39.0447 C31.0286338,39.0147 31.1231338,38.9765 31.2420338,38.9311 C31.3463338,38.8907 31.8644338,38.7069 32.0184338,38.6452 C32.3268338,38.5207 32.6322338,38.3831 32.9356338,38.2322 C32.9699338,38.216 33.0075338,38.1988 33.0513338,38.1794 C33.0692338,38.1717 33.0855338,38.1655 33.1004338,38.1606 Z M36.4876338,46.3764 C36.3076338,46.2909 36.0417338,46.1457 36.0480338,45.8321 C36.4427338,45.7136 36.9449338,45.691 37.1385338,46.3216 C36.9451338,46.4636 36.6296338,46.4438 36.4876338,46.3764 Z M11.5124338,46.3764 C11.6924338,46.2909 11.9583338,46.1457 11.9520338,45.8321 C11.5573338,45.7136 11.0551338,45.691 10.8615338,46.3216 C11.0548338,46.4636 11.3704338,46.4438 11.5124338,46.3764 Z M39.3645338,37.6527 C40.2732338,37.3655 40.9571338,38.0797 40.7747338,38.8054 L37.3626338,45.8472 C37.0227338,45.4293 36.6868338,45.3868 36.3540338,45.3665 L39.3645338,37.6527 Z M8.63553378,37.6527 C7.72683378,37.3655 7.04293378,38.0797 7.22533378,38.8054 L10.6374338,45.8472 C10.9773338,45.4293 11.3131338,45.3868 11.6460338,45.3665 L8.63553378,37.6527 Z M30.0243338,44.003 C30.0435338,43.9497 30.1278338,43.8556 30.2767338,43.7206 C30.4260338,43.5856 30.5148338,43.5234 30.5432338,43.5336 C30.6356338,43.567 30.7087338,43.6424 30.7626338,43.7604 C30.8165338,43.8782 30.8281338,43.9797 30.7972338,44.065 C30.7691338,44.143 30.6934338,44.2273 30.5705338,44.3176 C30.4476338,44.4076 30.3630338,44.4444 30.3168338,44.4277 C30.2956338,44.4201 30.2381338,44.3512 30.1444338,44.2211 C30.1121338,44.1772 30.0796338,44.1334 30.0472338,44.0896 C30.0229338,44.0569 30.0154338,44.0278 30.0243338,44.003 Z M16.9795338,44.0909 C16.9766338,44.0721 17.0127338,43.9681 17.0878338,43.7783 C17.1630338,43.5886 17.2116338,43.4918 17.2340338,43.4883 C17.2974338,43.4783 17.3782338,43.5055 17.4765338,43.5704 C17.5754338,43.6388 17.6304338,43.7084 17.6416338,43.7794 C17.6546338,43.8613 17.6283338,43.9727 17.5626338,44.1132 C17.4962338,44.2498 17.4444338,44.3212 17.4072338,44.3271 C17.3884338,44.33 17.3581338,44.3185 17.3156338,44.2928 C17.2734338,44.2671 17.2309338,44.2402 17.1882338,44.2127 C17.1392338,44.1936 17.0933338,44.1751 17.0502338,44.157 C17.0072338,44.1389 16.9836338,44.1168 16.9795338,44.0909 Z M16.4600338,43.4561 C16.4552338,43.4263 16.4941338,43.3091 16.5764338,43.1048 C16.6588338,42.9006 16.7112338,42.7967 16.7335338,42.7931 C16.7821338,42.7855 16.8583338,42.8079 16.9622338,42.8602 C17.0624338,42.9131 17.1341338,42.9668 17.1771338,43.0213 C17.2163338,42.9309 17.2574338,42.8401 17.3004338,42.7493 C17.3605338,42.621 17.3979338,42.556 17.4128338,42.5535 C17.4800338,42.5429 17.5686338,42.571 17.6786338,42.6377 C17.7898338,42.7118 17.8516338,42.788 17.8641338,42.8663 C17.8784338,42.956 17.8454338,43.0738 17.7654338,43.2205 C17.6872338,43.3552 17.6277338,43.4259 17.5867338,43.4325 C17.5567338,43.4372 17.5056338,43.4166 17.4334338,43.3706 C17.3309338,43.3027 17.2467338,43.2549 17.1811338,43.2271 C17.0775338,43.515 16.9830338,43.6658 16.8970338,43.6794 C16.8822338,43.6818 16.8060338,43.6479 16.6686338,43.578 C16.5313338,43.5079 16.4617338,43.4673 16.4600338,43.4561 Z M31.9301338,40.033 C31.9347338,40.0286 31.9393338,40.0243 31.9439338,40.0199 C31.9622338,40.0023 31.9770338,39.9917 31.9885338,39.9878 C31.9999338,39.9839 32.0049338,39.9897 32.0034338,40.0052 C32.0016338,40.0208 31.9867338,40.0514 31.9581338,40.0972 C31.7848338,40.3882 31.6223338,40.6879 31.4708338,40.9967 C31.0640338,41.825 31.3598338,41.2175 31.1502338,41.7363 L31.1501338,41.7365 C31.0769338,41.939 31.0484338,42.0992 31.0640338,42.2173 C31.0797338,42.3353 31.1461338,42.4156 31.2635338,42.458 C31.3060338,42.4733 31.3457338,42.4746 31.3826338,42.4617 C31.4194338,42.4488 31.4535338,42.429 31.4853338,42.4024 C31.5170338,42.3757 31.5461338,42.3449 31.5727338,42.3105 C31.5993338,42.2758 31.6218338,42.2438 31.6404338,42.2144 C31.6739338,42.1662 31.6999338,42.1474 31.7180338,42.158 C31.7363338,42.1686 31.7378338,42.1952 31.7225338,42.2379 C31.6806338,42.3312 31.6252338,42.4377 31.5560338,42.5574 C31.4866338,42.677 31.4089338,42.7865 31.3229338,42.8859 C31.2367338,42.9852 31.1466338,43.0622 31.0528338,43.1168 C30.9587338,43.1711 30.8656338,43.1817 30.7732338,43.1484 C30.6737338,43.1126 30.6055338,43.0567 30.5685338,42.9812 C30.5315338,42.9056 30.5127338,42.8215 30.5119338,42.7289 C30.5113338,42.6363 30.5237338,42.5434 30.5491338,42.4502 C30.5749338,42.3571 30.5997338,42.2768 30.6242338,42.2092 L30.6331338,42.2012 C30.6947338,42.0323 30.7910338,41.8187 30.9215338,41.5605 C31.2164338,40.9773 30.7782338,41.8179 31.3550338,40.717 C31.4049338,40.6226 31.4656338,40.532 31.5373338,40.4454 C31.5791338,40.3964 31.6298338,40.3392 31.6892338,40.2744 C31.7488338,40.2095 31.8153338,40.1422 31.8887338,40.0722 C31.8933338,40.0679 31.8980338,40.0635 31.9026338,40.0591 L31.9301338,40.033 Z M19.6148338,40.5174 L19.6148338,40.5174 C19.9331338,40.4748 20.2420338,40.42 20.5413338,40.3534 C20.8406338,40.2869 21.1355338,40.1925 21.4259338,40.0698 C21.6839338,39.9601 21.9323338,39.8317 22.1712338,39.6848 C22.4097338,39.5381 22.6386338,39.3824 22.8573338,39.2177 C23.1647338,38.9853 23.4523338,38.7419 23.7198338,38.4873 C23.9874338,38.2325 24.2613338,37.976 24.5417338,37.7174 C24.6248338,37.6391 24.7087338,37.5645 24.7932338,37.494 C24.8775338,37.4231 24.9685338,37.3571 25.0660338,37.2958 C25.1564338,37.2394 25.2207338,37.2225 25.2588338,37.245 C25.2966338,37.2677 25.2979338,37.324 25.2625338,37.4138 C25.2389338,37.4825 25.2138338,37.5534 25.1872338,37.6265 C25.1605338,37.6995 25.1292338,37.7676 25.0933338,37.8307 C25.0758338,37.864 25.0560338,37.891 25.0344338,37.9116 C25.0128338,37.9323 24.9846338,37.953 24.9496338,37.9739 C24.9003338,38.0009 24.8307338,38.0559 24.7405338,38.139 C24.6505338,38.2221 24.5357338,38.3302 24.3960338,38.4632 C24.2334338,38.619 24.0710338,38.7777 23.9091338,38.9391 C23.7473338,39.1005 23.5822338,39.2596 23.4139338,39.4162 C23.2455338,39.5731 23.0745338,39.7254 22.9010338,39.8733 C22.7274338,40.0213 22.5476338,40.1597 22.3615338,40.2886 C21.5801338,40.8371 20.7079338,41.1875 19.7452338,41.3401 L19.7452338,41.3401 C19.4984338,41.3753 19.2868338,41.4042 19.1105338,41.4263 C18.9341338,41.4485 18.7842338,41.4561 18.6607338,41.4489 C18.5253338,41.4398 18.3910338,41.4248 18.2576338,41.4038 C18.1242338,41.3828 17.9947338,41.3499 17.8689338,41.3048 C17.8200338,41.2857 17.7812338,41.2708 17.7528338,41.26 C17.7243338,41.2493 17.6986338,41.2438 17.6756338,41.2437 C17.6526338,41.2435 17.6312338,41.2526 17.6112338,41.2709 C17.5911338,41.2896 17.5653338,41.3205 17.5340338,41.3635 C17.5057338,41.4024 17.4764338,41.4473 17.4463338,41.498 C17.4160338,41.5487 17.3798338,41.6099 17.3377338,41.6814 C17.2577338,41.805 17.1569338,41.8986 17.0349338,41.9619 C16.9130338,42.025 16.7776338,42.0456 16.6287338,42.0233 C16.5461338,42.0096 16.4712338,41.9947 16.4035338,41.9787 C16.3360338,41.9626 16.2598338,41.9651 16.1752338,41.9862 C16.0980338,42.0061 16.0239338,42.0332 15.9528338,42.0673 C15.8817338,42.1016 15.8130338,42.1506 15.7466338,42.2148 C15.6465338,42.3071 15.5806338,42.3491 15.5486338,42.3409 C15.5166338,42.3324 15.5332338,42.2677 15.5980338,42.1466 C15.6712338,42.0048 15.7574338,41.867 15.8566338,41.7327 C15.9559338,41.5984 16.0679338,41.4775 16.1921338,41.3697 C16.2560338,41.3137 16.3253338,41.2617 16.3997338,41.2135 C16.4744338,41.1654 16.5553338,41.1382 16.6422338,41.132 C16.7144338,41.1283 16.7864338,41.136 16.8583338,41.1552 C16.9301338,41.1744 17.0030338,41.1877 17.0769338,41.195 C17.1587338,41.2051 17.2309338,41.1956 17.2933338,41.1664 C17.3556338,41.1376 17.4109338,41.0944 17.4593338,41.0369 C17.5150338,40.9785 17.5644338,40.917 17.6079338,40.8527 C17.6513338,40.7885 17.6945338,40.7242 17.7381338,40.66 C17.8008338,40.5736 17.8605338,40.5154 17.9168338,40.4853 C17.9733338,40.4555 18.0589338,40.4525 18.1737338,40.4762 C18.4336338,40.5231 18.6761338,40.5507 18.9012338,40.5589 C19.1262338,40.5673 19.3642338,40.5534 19.6148338,40.5174 Z M30.6242338,40.0049 C30.6423338,39.9552 30.7258338,39.8628 30.8749338,39.7278 C31.0239338,39.5929 31.1128338,39.5305 31.1412338,39.5407 C31.2337338,39.5741 31.3068338,39.6496 31.3607338,39.7675 C31.4146338,39.8854 31.4262338,39.9868 31.3953338,40.0721 C31.3671338,40.1502 31.2919338,40.2335 31.1696338,40.322 C31.0473338,40.4104 30.9630338,40.4462 30.9169338,40.4296 C30.8955338,40.422 30.8381338,40.353 30.7444338,40.2228 C30.7107338,40.1827 30.6777338,40.1406 30.6453338,40.0967 C30.6222338,40.0603 30.6154338,40.0297 30.6242338,40.0049 Z M24.0905338,0.6808 L24.0000338,0.6808 C23.8792338,0.6808 23.7586338,0.682 23.6378338,0.6841 C12.3143338,0.8862 3.24173378,10.1773 3.44163378,21.3674 C3.56783378,28.4655 7.39763378,34.6643 13.0700338,38.1996 C13.1312338,38.2372 13.1899338,38.2758 13.2497338,38.3133 L13.4760338,38.1259 C13.4098338,38.0861 13.3448338,38.0449 13.2798338,38.0048 C10.4618338,36.294 8.27703378,33.9825 6.58943378,31.1392 C4.89443378,28.2832 3.89633378,24.9726 3.83263378,21.4375 C3.73523378,15.949 5.90743378,10.9265 9.48873378,7.2513 C13.0712338,3.5749 18.0628338,1.2471 23.6053338,1.1485 C23.7371338,1.1461 23.8687338,1.1451 24.0000338,1.1453 L24.0984338,1.1454 C24.1971338,1.1458 24.2958338,1.1468 24.3947338,1.1485 C29.9372338,1.2471 34.9288338,3.5749 38.5113338,7.2513 C42.0926338,10.9265 44.2648338,15.949 44.1674338,21.4375 C44.1037338,24.9726 43.1056338,28.2832 41.4105338,31.1392 C39.7230338,33.9825 37.5382338,36.294 34.7201338,38.0048 C34.6552338,38.0449 34.5902338,38.0861 34.5240338,38.1259 L34.7503338,38.3133 C34.8101338,38.2758 34.8688338,38.2372 34.9300338,38.1996 C40.6024338,34.6643 44.4322338,28.4655 44.5584338,21.3674 C44.7582338,10.1773 35.6857338,0.8862 24.3623338,0.6841 C24.2716338,0.6825 24.1811338,0.6815 24.0905338,0.6808 Z M15.4534338,37.2383 C15.0711338,37.1237 14.7049338,36.9545 14.3817338,36.7195 C14.0082338,36.448 13.7007338,36.0949 13.4554338,35.7049 C13.1861338,35.7238 12.9188338,35.768 12.6574338,35.8353 L12.6485338,35.8376 C12.7684338,36.0033 12.9009338,36.16 13.0428338,36.3071 C13.0954338,36.3617 13.1495338,36.415 13.2049338,36.4667 C13.5537338,36.7922 13.9612338,37.0623 14.4157338,37.2142 C14.6634338,37.297 14.9218338,37.3445 15.1821338,37.3635 C15.1612338,37.3733 15.3428338,37.2886 15.4534338,37.2383 Z M32.4338338,37.164 C32.5025338,37.1775 32.5716338,37.1885 32.6411338,37.1971 C32.9933338,37.2407 33.3596338,37.2206 33.6942338,37.0955 C33.9754338,36.9904 34.2274338,36.817 34.4448338,36.6118 C34.4927338,36.5666 34.5390338,36.5198 34.5836338,36.4714 C34.6313338,36.4198 34.6769338,36.3664 34.7209338,36.3117 L34.7219338,36.3104 C34.6617338,36.2952 34.6009338,36.2823 34.5398338,36.2712 C34.3838338,36.2429 34.2256338,36.2273 34.0670338,36.2255 C34.0560338,36.2255 34.0450338,36.2255 34.0340338,36.2255 C33.9237338,36.2264 33.8133338,36.2342 33.7043338,36.2506 C33.6456338,36.3349 33.5812338,36.4153 33.5106338,36.4907 C33.2430338,36.7772 32.8995338,36.9852 32.5358338,37.1263 C32.5040338,37.1386 32.4722338,37.1504 32.4402338,37.1617 L32.4338338,37.164 Z M16.5184338,36.7837 C16.3944338,36.5093 16.2436338,36.2468 16.0636338,36.0052 C15.8847338,35.7652 15.6764338,35.5461 15.4376338,35.3649 C15.1616338,35.1554 14.8471338,35.0004 14.5187338,34.8916 C14.3497338,34.8357 14.1767338,34.7916 14.0018338,34.7583 C13.7747338,34.7149 13.5443338,34.6897 13.3132338,34.6818 L13.3041338,34.6816 C13.3051338,34.6844 13.3061338,34.6873 13.3072338,34.6902 C13.3833338,34.9005 13.4747338,35.105 13.5813338,35.3017 C13.6656338,35.4573 13.7594338,35.6079 13.8632338,35.7513 C14.0654338,36.0306 14.3069338,36.2834 14.5885338,36.4837 C14.8475338,36.6679 15.1372338,36.8064 15.4385338,36.9063 C15.5953338,36.9582 15.7553338,37.0001 15.9172338,37.0324 L15.9558338,37.0158 C16.0071338,36.9938 16.0582338,36.9721 16.1093338,36.9506 C15.9128338,36.8178 15.7206338,36.6786 15.5296338,36.5381 C15.3140338,36.3756 15.1000338,36.2108 14.8921338,36.0371 C14.6836338,35.8642 14.4790338,35.6857 14.2852338,35.4918 L14.2860338,35.4905 C14.5365338,35.6024 14.7761338,35.73 15.0119338,35.8633 C15.2484338,35.9956 15.4786338,36.1367 15.7072338,36.2803 C15.9341338,36.4265 16.1597338,36.5746 16.3790338,36.7315 C16.4112338,36.7544 16.4435338,36.7775 16.4757338,36.8007 L16.5020338,36.7902 L16.5184338,36.7837 Z M32.4415338,36.8279 C32.4530338,36.8234 32.4643338,36.8188 32.4758338,36.8141 C32.8041338,36.6793 33.1134338,36.4821 33.3435338,36.2089 C33.5367338,35.9793 33.6712338,35.7045 33.7598338,35.4191 C33.7794338,35.3562 33.7967338,35.2926 33.8119338,35.2285 C33.8280338,35.1602 33.8415338,35.0913 33.8530338,35.0221 L33.8532338,35.0204 C33.8527338,35.0205 33.8522338,35.0207 33.8516338,35.0209 C33.7840338,35.0399 33.7171338,35.0607 33.6509338,35.0843 C33.5888338,35.1064 33.5275338,35.1305 33.4671338,35.1569 C33.1762338,35.2835 32.9026338,35.4602 32.6899338,35.6976 C32.4772338,35.9349 32.3314338,36.2261 32.2374338,36.529 C32.2339338,36.5402 32.2305338,36.5514 32.2271338,36.5627 C32.3148338,36.4596 32.4062338,36.3598 32.4989338,36.2609 C32.6237338,36.1318 32.7509338,36.0047 32.8862338,35.8846 C33.0207338,35.7637 33.1603338,35.6473 33.3145338,35.5432 L33.3156338,35.5442 C33.2374338,35.7129 33.1449338,35.8694 33.0470338,36.0213 C32.9499338,36.1741 32.8447338,36.3199 32.7373338,36.4637 C32.6414338,36.5875 32.5444338,36.7101 32.4415338,36.8279 Z M32.7625338,35.2079 C32.7664338,35.05 32.7534338,34.8914 32.7278338,34.7359 C32.7170338,34.671 32.7040338,34.6063 32.6889338,34.5422 C32.6728338,34.4739 32.6539338,34.4062 32.6332338,34.3392 L32.6326338,34.3375 C32.6322338,34.3379 32.6318338,34.3383 32.6313338,34.3387 C32.5794338,34.3859 32.5289338,34.4347 32.4803338,34.4854 C32.4347338,34.5328 32.3907338,34.5819 32.3485338,34.6324 C32.1452338,34.8759 31.9798338,35.1564 31.8960338,35.4638 C31.8121338,35.7713 31.8121338,36.0969 31.8637338,36.4098 C31.8732338,36.4676 31.8991338,36.5764 31.8991338,36.5764 C31.9006338,36.5709 31.9021338,36.5655 31.9035338,36.56 C32.0076338,36.1693 32.1860338,35.792 32.4573338,35.4893 C32.5485338,35.3875 32.6492338,35.2953 32.7570338,35.2122 L32.7625338,35.2079 Z M16.6820338,36.4067 C16.6402338,36.2023 16.5836338,36.0009 16.5108338,35.8053 C16.4064338,35.5248 16.2677338,35.2561 16.0893338,35.0154 C15.8831338,34.7369 15.6246338,34.5 15.3398338,34.3037 C15.1871338,34.1983 15.0266338,34.1043 14.8609338,34.0206 C14.6612338,33.9198 14.4539338,33.8345 14.2414338,33.7647 L14.2327338,33.7619 C14.2329338,33.765 14.2330338,33.768 14.2332338,33.771 C14.2474338,33.9941 14.2778338,34.2162 14.3250338,34.4348 C14.3308338,34.4615 14.3368338,34.4883 14.3431338,34.5149 C14.7323338,34.6151 15.1085338,34.7691 15.4455338,34.9889 C15.5250338,35.0406 15.6019338,35.096 15.6762338,35.1549 C15.8882338,35.3226 16.0778338,35.5173 16.2453338,35.7291 C16.4121338,35.9403 16.5573338,36.1683 16.6820338,36.4067 Z M35.7197338,34.5983 L35.6867338,34.5983 C35.5763338,34.5992 35.4660338,34.607 35.3571338,34.6234 C35.2982338,34.7078 35.2338338,34.7881 35.1633338,34.8635 C34.8958338,35.15 34.5521338,35.3582 34.1884338,35.4992 C34.1547338,35.5123 34.1207338,35.5248 34.0865338,35.5368 C34.1552338,35.5504 34.2244338,35.5613 34.2937338,35.5699 C34.6459338,35.6135 35.0122338,35.5934 35.3468338,35.4683 C35.6280338,35.3633 35.8801338,35.1898 36.0974338,34.9847 C36.1453338,34.9395 36.1916338,34.8925 36.2364338,34.8442 C36.2839338,34.7926 36.3295338,34.7393 36.3735338,34.6846 L36.3745338,34.6832 C36.3059338,34.6658 36.2366338,34.6515 36.1669338,34.6395 C36.0192338,34.614 35.8697338,34.6 35.7197338,34.5983 Z M12.6421338,35.5171 C12.7330338,35.4948 12.9359338,35.4552 12.9537338,35.4519 C12.5650338,35.2826 12.2008338,35.0551 11.8947338,34.7606 C11.5620338,34.4406 11.3058338,34.0486 11.1164338,33.6287 C11.0554338,33.6246 10.9944338,33.6219 10.9334338,33.6201 C10.8905338,33.6191 10.8476338,33.6186 10.8047338,33.6186874 C10.6474338,33.6196 10.4906338,33.6284 10.3342338,33.6452 L10.3080338,33.6482 L10.2989338,33.6493 C10.3134338,33.6766 10.3283338,33.7034 10.3433338,33.7303 C10.5356338,34.0693 10.7692338,34.3864 11.0459338,34.6615 C11.2649338,34.8791 11.5118338,35.0702 11.7846338,35.2161 C12.0529338,35.3595 12.3440338,35.4572 12.6421338,35.5171 L12.6406338,35.5174 L12.6421338,35.5171 Z M13.7199338,34.3992 C13.5477338,34.0588 13.3252338,33.7437 13.0444338,33.4845 C12.8053338,33.2637 12.5286338,33.086 12.2351338,32.9465 C11.8890338,32.7818 11.5190338,32.6681 11.1420338,32.6002 L11.1159338,32.5956 L11.1069338,32.5943 C11.1076338,32.5971 11.1082338,32.6001 11.1088338,32.6031 C11.1553338,32.8219 11.2178338,33.0372 11.2964338,33.2465 C11.3586338,33.4122 11.4308338,33.5742 11.5139338,33.7305 C11.6715338,34.0265 11.8692338,34.3028 12.1113338,34.5357 C12.3534338,34.7686 12.6370338,34.9557 12.9390338,35.1018 C13.0198338,35.1409 13.1020338,35.1771 13.1853338,35.2106 C13.1388338,35.1118 13.0956338,35.0115 13.0559338,34.9097 C13.0196338,34.8167 12.9607338,34.6382 12.9625338,34.644 C12.8033338,34.4841 12.6462338,34.3222 12.4941338,34.1546 C12.3112338,33.9548 12.1330338,33.75 11.9676338,33.5312 L11.9686338,33.5301 C12.2013338,33.6753 12.4213338,33.8345 12.6365338,33.9989 C12.7952338,34.1189 12.9500338,34.2433 13.1029338,34.3696 C13.1234338,34.369 13.1438338,34.3685 13.1643338,34.3681 C13.1839338,34.368 13.2034338,34.3679 13.2230338,34.368 C13.3890338,34.3693 13.5550338,34.3799 13.7199338,34.3992 Z M34.1415338,35.1815 C34.4651338,35.0468 34.7690338,34.8513 34.9961338,34.5817 C35.1894338,34.3522 35.3240338,34.0773 35.4127338,33.7918 C35.4322338,33.729 35.4495338,33.6654 35.4646338,33.6014 C35.4809338,33.5329 35.4944338,33.4642 35.5059338,33.3948 L35.5061338,33.3932 C35.5055338,33.3933 35.5050338,33.3935 35.5044338,33.3937 C35.4368338,33.4126 35.3698338,33.4335 35.3036338,33.4571 C35.2415338,33.4793 35.1802338,33.5034 35.1199338,33.5296 C34.8291338,33.6562 34.5554338,33.8329 34.3428338,34.0703 C34.1846338,34.2467 34.0633338,34.4529 33.9730338,34.6716 L34.1432338,34.6427 L34.1515338,34.6336 C34.2765338,34.5046 34.4036338,34.3775 34.5389338,34.2574 C34.6734338,34.1365 34.8131338,34.0201 34.9671338,33.916 L34.9684338,33.9169 C34.8902338,34.0858 34.7975338,34.2421 34.6997338,34.3941 C34.6026338,34.5468 34.4974338,34.6927 34.3900338,34.8364 C34.3118338,34.9376 34.2327338,35.0378 34.1504338,35.1354 C34.1475338,35.1507 34.1447338,35.1661 34.1415338,35.1815 Z M33.6043338,34.7699 C33.7121338,34.4381 33.8767338,34.1224 34.1102338,33.8619 C34.2029338,33.7585 34.3054338,33.6649 34.4152338,33.5807 C34.4190338,33.4227 34.4061338,33.2642 34.3805338,33.1086 C34.3698338,33.0437 34.3568338,32.9791 34.3417338,32.9151 C34.3255338,32.8466 34.3067338,32.7791 34.2859338,32.712 L34.2854338,32.7104 C34.2849338,32.7108 34.2846338,32.7111 34.2842338,32.7115 C34.2322338,32.7587 34.1816338,32.8074 34.1330338,32.8581 C34.0875338,32.9057 34.0435338,32.9548 34.0013338,33.0052 C33.7979338,33.2486 33.6325338,33.5292 33.5487338,33.8367 C33.4648338,34.1441 33.4648338,34.4697 33.5163338,34.7826 L33.5193338,34.7998 L33.5250338,34.7977 C33.5513338,34.7881 33.5777338,34.7789 33.6043338,34.7699 Z M13.9163338,33.4997 C13.8749338,33.4083 13.8289338,33.3189 13.7779338,33.2321 C13.6083338,32.9433 13.3869338,32.687 13.1373338,32.4646 C12.8446338,32.2038 12.5129338,31.9866 12.1612338,31.8144 L12.1530338,31.8105 C12.1527338,31.8135 12.1525338,31.8165 12.1522338,31.8196 C12.1350338,32.0502 12.1352338,32.2818 12.1538338,32.5122 C12.1554338,32.5319 12.1571338,32.5517 12.1590338,32.5715 C12.5989338,32.7523 13.0110338,33.0055 13.3477338,33.3431 C13.5957338,33.5918 13.7994338,33.8806 13.9634338,34.1907 L13.9600338,34.1667 C13.9478338,34.0819 13.9380338,33.9967 13.9305338,33.9115 C13.9204338,33.7969 13.9163338,33.4997 13.9163338,33.4997 Z M35.6632338,34.026 C35.7166338,34.0356 35.7703338,34.0437 35.8240338,34.0503 C36.1763338,34.0939 36.5425338,34.0738 36.8772338,33.9487 C37.1583338,33.8436 37.4104338,33.6702 37.6278338,33.465 C37.6756338,33.4198 37.7220338,33.3729 37.7666338,33.3245 C37.8143338,33.273 37.8599338,33.2196 37.9038338,33.1648 L37.9048338,33.1636 C37.8363338,33.1462 37.7669338,33.132 37.6971338,33.1199 C37.5493338,33.0944 37.3999338,33.0804 37.2499338,33.0788 C37.2389338,33.0787 37.2279338,33.0787 37.2169338,33.0787 C37.1066338,33.0795 36.9963338,33.0874 36.8874338,33.1037 C36.8286338,33.1882 36.7641338,33.2685 36.6937338,33.3439 C36.4260338,33.6304 36.0825338,33.8385 35.7187338,33.9795 C35.7037338,33.9853 35.6889338,33.991 35.6737338,33.9965 C35.6702338,34.0064 35.6667338,34.0161 35.6632338,34.026 Z M35.7745338,33.0192 C35.8699338,32.9228 35.9672338,32.8283 36.0691338,32.7377 C36.2036338,32.6168 36.3433338,32.5005 36.4974338,32.3963 L36.4985338,32.3973 C36.4204338,32.566 36.3277338,32.7225 36.2299338,32.8745 C36.1328338,33.0272 36.0276338,33.1731 35.9202338,33.3168 C35.8846338,33.3629 35.8487338,33.4088 35.8125338,33.4544 C35.8038338,33.5076 35.7937338,33.5604 35.7822338,33.6131 C36.0640338,33.4814 36.3254338,33.3008 36.5264338,33.062 C36.7198338,32.8325 36.8542338,32.5578 36.9429338,32.2723 C36.9624338,32.2094 36.9797338,32.1458 36.9948338,32.0817 C37.0111338,32.0134 37.0246338,31.9445 37.0361338,31.8752 L37.0363338,31.8736 C37.0357338,31.8737 37.0352338,31.8738 37.0347338,31.8741 C36.9670338,31.8929 36.9000338,31.9139 36.8338338,31.9375 C36.7717338,31.9596 36.7104338,31.9837 36.6501338,32.0101 C36.3591338,32.1366 36.0857338,32.3134 35.8730338,32.5508 C35.7367338,32.7028 35.6279338,32.8769 35.5425338,33.0619 L35.5523338,33.0598 C35.5799338,33.0536 35.7745338,33.0192 35.7745338,33.0192 Z M10.6817338,33.3087 C10.2348338,33.0224 9.83223378,32.6564 9.54323378,32.2088 C9.29273378,31.8208 9.13323378,31.3804 9.04503378,30.9283 C8.79553378,30.8513 8.53863378,30.7978 8.27993378,30.7657 L8.25363378,30.7625 L8.24453378,30.7615 C8.24533378,30.7644 8.24613378,30.7674 8.24693378,30.7703 C8.30523378,30.9862 8.37933378,31.1977 8.46923378,31.4025 C8.54043378,31.5646 8.62133378,31.7225 8.71283378,31.874 C8.88623378,32.1611 9.09873378,32.4262 9.35313378,32.6456 C9.60103378,32.8595 9.88603378,33.0276 10.1867338,33.1558 C10.3272338,33.2158 10.6248338,33.3107 10.6248338,33.3107 C10.6438338,33.3098 10.6628338,33.3092 10.6817338,33.3087 Z M35.1592338,33.1774 C35.2668338,32.8723 35.4240338,32.5838 35.6404338,32.3425 C35.7331338,32.239 35.8356338,32.1453 35.9454338,32.0611 C35.9493338,31.9032 35.9363338,31.7446 35.9107338,31.5891 C35.9000338,31.524 35.8870338,31.4595 35.8719338,31.3954 C35.8557338,31.3271 35.8369338,31.2594 35.8161338,31.1924 L35.8156338,31.1907 C35.8151338,31.1911 35.8148338,31.1915 35.8144338,31.1919 C35.7624338,31.2391 35.7118338,31.2878 35.6632338,31.3385 C35.6177338,31.3861 35.5737338,31.4351 35.5315338,31.4856 C35.3281338,31.729 35.1627338,32.0096 35.0789338,32.317 C34.9985338,32.6117 34.9952338,32.9232 35.0406338,33.2241 L35.0518338,33.2194 C35.0725338,33.2109 35.0934338,33.2025 35.1142338,33.1944 C35.1291338,33.1887 35.1441338,33.1829 35.1592338,33.1774 Z M11.4171338,32.3374 C11.4028338,32.2741 11.3870338,32.2111 11.3696338,32.1486 C11.2894338,31.8602 11.1740338,31.5809 11.0166338,31.3257 C10.8347338,31.0308 10.5972338,30.773 10.3301338,30.5531 C10.1868338,30.4352 10.0349338,30.3278 9.87693378,30.2306 C9.68643378,30.1132 9.48713378,30.0107 9.28123378,29.923 L9.27293378,29.9195 C9.27283378,29.9225 9.27273378,29.9255 9.27263378,29.9285 C9.26783378,30.1521 9.27933378,30.3759 9.30783378,30.5978 C9.33043378,30.7733 9.36363378,30.9476 9.40873378,31.1187 C9.49663378,31.4521 9.63073378,31.775 9.82123378,32.0633 C10.0011338,32.3356 10.2284338,32.5746 10.4815338,32.7801 C10.6179338,32.8907 10.9080338,33.0738 10.9080338,33.0738 C10.8789338,32.9788 10.8528338,32.8828 10.8298338,32.7862 C10.8179338,32.7362 10.8067338,32.686 10.7966338,32.6357 C10.7573338,32.5749 10.7182338,32.5141 10.6793338,32.4531 C10.5368338,32.224 10.3967338,31.9931 10.2655338,31.7562 C10.1333338,31.5198 10.0068338,31.2797 9.89593378,31.0288 L9.89713378,31.0279 C10.0904338,31.2227 10.2679338,31.428 10.4398338,31.6372 C10.6068338,31.8389 10.7656338,32.046 10.9218338,32.255 L10.7383338,32.2392 L10.9348338,32.2561 C11.0427338,32.2662 11.1500338,32.2834 11.2564338,32.3038 C11.3102338,32.314 11.3637338,32.3253 11.4171338,32.3374 Z M37.2388338,32.3723 C37.2314338,32.3959 37.2237338,32.4196 37.2157338,32.4432 L37.2106338,32.458 C37.2305338,32.4595 37.2504338,32.4606 37.2704338,32.4616 C37.6249338,32.4796 37.9886338,32.433 38.3133338,32.2839 C38.5861338,32.1587 38.8249338,31.9674 39.0268338,31.747 C39.0713338,31.6984 39.1140338,31.6483 39.1551338,31.5967 C39.1988338,31.5419 39.2404338,31.4853 39.2803338,31.4275 L39.2813338,31.4261 C39.1367338,31.4007 38.9903338,31.3878 38.8437338,31.3843 C38.8180338,31.3839 38.7922338,31.3837 38.7665338,31.3839 C38.5971338,31.3859 38.4273338,31.403 38.2621338,31.4404 C38.2096338,31.5288 38.1512338,31.6136 38.0865338,31.6939 C37.8597338,31.9751 37.5639338,32.1945 37.2432338,32.358 L37.2388338,32.3723 Z M11.8443338,31.7537 C11.8279338,31.5783 11.7974338,31.4044 11.7506338,31.2346 C11.6563338,30.8922 11.4952338,30.571 11.2936338,30.2795 C11.1929338,30.1339 11.0821338,29.9954 10.9634338,29.8641 C10.8134338,29.6981 10.6509338,29.5439 10.4778338,29.402 L10.4707338,29.3963 C10.4698338,29.3993 10.4689338,29.4021 10.4679338,29.405 C10.4006338,29.6183 10.3489338,29.8363 10.3142338,30.0572 C10.3099338,30.0843 10.3059338,30.1113 10.3022338,30.1384 C10.6889338,30.4153 11.0321338,30.756 11.2824338,31.1619 C11.5205338,31.5478 11.6714338,31.9822 11.7541338,32.4272 C11.7816338,32.4355 11.8091338,32.4442 11.8365338,32.4531 C11.8344338,32.4189 11.8326338,32.3847 11.8312338,32.3506 C11.8253338,32.2061 11.8259338,32.0615 11.8331338,31.9173 C11.8358338,31.8626 11.8395338,31.808 11.8443338,31.7537 Z M37.3718338,31.6924 C37.3665338,31.7703 37.3567338,31.848 37.3443338,31.925 L37.3416338,31.9418 C37.5558338,31.8031 37.7491338,31.6319 37.8991338,31.425 C38.0752338,31.182 38.1894338,30.8982 38.2571338,30.6071 C38.2720338,30.5429 38.2847338,30.4783 38.2952338,30.4133 C38.3063338,30.344 38.3148338,30.2743 38.3212338,30.2044 L38.3213338,30.2027 C38.3208338,30.203 38.3203338,30.2031 38.3198338,30.2034 C38.2537338,30.2271 38.1884338,30.2529 38.1241338,30.2811 C38.0638338,30.3077 38.0044338,30.3362 37.9461338,30.3668 C37.6651338,30.5142 37.4051338,30.7104 37.2102338,30.9625 C37.0645338,31.1508 36.9585338,31.3665 36.8842338,31.5922 C36.9402338,31.5754 36.9968338,31.5601 37.0538338,31.5468 L37.0607338,31.5382 C37.1757338,31.4004 37.2934338,31.2644 37.4197338,31.1348 C37.5448338,31.0046 37.6757338,30.8782 37.8219338,30.7632 L37.8231338,30.764 C37.7574338,30.9381 37.6764338,31.1007 37.5898338,31.2596 C37.5227338,31.3844 37.4503338,31.5053 37.3756338,31.6246 L37.3718338,31.6924 Z M36.5218338,31.7253 C36.6047338,31.3824 36.7468338,31.0514 36.9631338,30.7715 C37.0467338,30.6635 37.1404338,30.5642 37.2418338,30.4735 L37.2469338,30.4688 C37.2393338,30.311 37.2149338,30.1538 37.1780338,30.0006 C37.1626338,29.9365 37.1449338,29.873 37.1251338,29.8102 C37.1041338,29.7432 37.0805338,29.6771 37.0548338,29.6118 L37.0543338,29.6103 C37.0538338,29.6107 37.0534338,29.611 37.0530338,29.6114 C37.0047338,29.6624 36.9579338,29.7146 36.9130338,29.7686 C36.8710338,29.8194 36.8307338,29.8715 36.7923338,29.925 C36.6072338,30.1825 36.4627338,30.4743 36.4014338,30.787 C36.3400338,31.0997 36.3638338,31.4246 36.4380338,31.733 C36.4401338,31.7421 36.4423338,31.7512 36.4446338,31.7603 C36.4702338,31.7482 36.4959338,31.7366 36.5218338,31.7253 Z M25.7463338,28.3382 C27.1290338,28.8439 28.6080338,29.0725 30.0969338,29 C28.3482338,29.5682 26.5583338,29.6356 24.8794338,29.2822 L24.8655338,29.6282 L24.0000338,30.8195 L23.1342338,29.6282 L23.1205338,29.2822 C21.4418338,29.6356 19.6516338,29.5682 17.9028338,29 C19.3918338,29.0725 20.8709338,28.8439 22.2537338,28.3382 C19.9890338,27.1518 18.1678338,25.1126 17.3146338,22.4889 C16.0504338,18.6015 17.2459338,14.3344 20.3463338,11.6683 C16.9773338,16.6521 18.1903338,23.383 23.0232338,26.8908 L22.6872338,18.584 L22.6872338,12.0492 C23.2106338,11.7982 23.6626338,11.4185 24.0000338,10.9464 C24.3373338,11.4185 24.7895338,11.7982 25.3127338,12.0492 L25.3127338,18.584 L24.9768338,26.8908 C29.8096338,23.383 31.0226338,16.6521 27.6538338,11.6683 C30.7541338,14.3344 31.9494338,18.6015 30.6853338,22.4889 C29.8323338,25.1126 28.0110338,27.1518 25.7463338,28.3382 Z M38.5491338,30.7283 C38.5966338,30.7261 38.6441338,30.7226 38.6913338,30.7181 C39.0447338,30.6844 39.3977338,30.5855 39.6973338,30.3908 C39.9491338,30.2273 40.1575338,30.0034 40.3253338,29.7559 C40.3623338,29.7015 40.3972338,29.6456 40.4305338,29.5887 C40.4658338,29.528 40.4987338,29.4661 40.5298338,29.4031 L40.5305338,29.4016 C40.5010338,29.4008 40.4716338,29.4006 40.4421338,29.4008 C40.3829338,29.4013 40.3237338,29.4031 40.2645338,29.407 C40.0130338,29.4236 39.7602338,29.4721 39.5243338,29.5632 L39.5218338,29.5695 C39.4832338,29.6625 39.4385338,29.753 39.3871338,29.8401 C39.1880338,30.1777 38.8976338,30.4553 38.5731338,30.6719 L38.5608338,30.68 C38.5570338,30.6961 38.5531338,30.7122 38.5491338,30.7283 Z M7.45393378,27.5885 C7.42703378,27.5728 7.40003378,27.5572 7.37293378,27.542 C7.16473378,27.4251 6.94703378,27.3255 6.72283378,27.2434 L6.71423378,27.2403 C6.71433378,27.2432 6.71443378,27.2464 6.71443378,27.2494 C6.72103378,27.4729 6.74393378,27.6958 6.78383378,27.916 C6.81533378,28.09 6.85733378,28.2624 6.91113378,28.431 C7.01303378,28.7505 7.15803378,29.0577 7.35453378,29.3303 C7.54593378,29.5958 7.78403378,29.8256 8.04673378,30.0201 C8.20353378,30.1363 8.36913378,30.2406 8.54103378,30.3332 C8.52113378,30.3131 8.50133378,30.2928 8.48173378,30.2724 C8.11843378,29.8926 7.81633378,29.4471 7.64093378,28.9494 C7.48743378,28.514 7.43463378,28.0488 7.45393378,27.5885 Z M9.42953378,29.6466 C9.45053378,29.2084 9.40173378,28.7651 9.25133378,28.352 C9.13673378,28.0374 8.96533378,27.7453 8.75993378,27.4814 C8.51923378,27.1719 8.23233378,26.8985 7.91743378,26.6654 L7.91013378,26.6601 C7.90933378,26.6631 7.90853378,26.6659 7.90773378,26.6688 C7.85103378,26.8852 7.81013378,27.1056 7.78633378,27.328 C7.76753378,27.504 7.75933378,27.6811 7.76343378,27.858 C7.77123378,28.1933 7.82373378,28.5289 7.93543378,28.8457 C8.04713378,29.1626 8.21663378,29.457 8.42083378,29.7231 C8.52403378,29.8576 8.63613378,29.9851 8.75523378,30.1057 C8.82363378,30.175 8.89443378,30.2419 8.96723378,30.3065 L8.96613378,30.2866 C8.96463378,30.2595 8.96203378,30.1939 8.96203378,30.1939 C8.86403378,29.949 8.77553378,29.7005 8.68923378,29.4512 C8.60373378,29.1951 8.52113378,28.938 8.44863378,28.677 C8.37503378,28.4165 8.30783378,28.1535 8.25823378,27.8837 L8.25963378,27.8831 C8.40243378,28.1174 8.52733378,28.3584 8.64583378,28.6018 C8.76553378,28.8448 8.87503378,29.0917 8.98183378,29.3396 C9.00523378,29.3956 9.02853378,29.4517 9.05153378,29.5079 L9.18273378,29.5509 C9.26633378,29.5791 9.34853378,29.6117 9.42953378,29.6466 Z M38.6428338,29.9977 C38.6432338,30.0758 38.6392338,30.1539 38.6323338,30.2317 L38.6316338,30.2398 C38.8464338,30.0619 39.0333338,29.8489 39.1627338,29.6012 C39.3017338,29.3352 39.3734338,29.0377 39.3982338,28.7399 C39.4036338,28.6742 39.4067338,28.6084 39.4077338,28.5426 C39.4087338,28.4724 39.4069338,28.4022 39.4031338,28.3322 L39.4029338,28.3306 C39.4024338,28.3308 39.4019338,28.3311 39.4014338,28.3313 C39.3396338,28.3644 39.2786338,28.3994 39.2192338,28.4367 C39.1633338,28.4718 39.1088338,28.5086 39.0555338,28.5474 C38.7990338,28.7339 38.5701338,28.9657 38.4140338,29.2434 C38.2961338,29.4531 38.2221338,29.6844 38.1815338,29.921 L38.1823338,29.9207 C38.2304338,29.903 38.2789338,29.8865 38.3279338,29.8715 L38.3494338,29.8348 C38.4433338,29.6817 38.5400338,29.5301 38.6461338,29.3835 C38.7511338,29.2366 38.8623338,29.0926 38.9902338,28.9576 L38.9915338,28.9582 C38.9517338,29.1399 38.8952338,29.3127 38.8327338,29.4823 C38.7755338,29.6404 38.7100338,29.794 38.6420338,29.9462 L38.6428338,29.9977 Z M37.8467338,30.0669 C37.8815338,29.7262 37.9735338,29.3896 38.1418338,29.0904 C38.2099338,28.9694 38.2897338,28.8558 38.3788338,28.7498 C38.3482338,28.5947 38.3012338,28.4427 38.2425338,28.2965 C38.2179338,28.2354 38.1913338,28.1752 38.1625338,28.1159 C38.1321338,28.0527 38.0989338,27.9908 38.0642338,27.9298 L38.0633338,27.9283 C38.0630338,27.9287 38.0626338,27.9292 38.0623338,27.9297 C38.0218338,27.987 37.9830338,28.0456 37.9466338,28.1055 C37.9125338,28.1618 37.8801338,28.2192 37.8497338,28.2777 C37.7040338,28.5593 37.6034338,28.869 37.5882338,29.1873 C37.5729338,29.5037 37.6426338,29.8197 37.7596338,30.1124 C37.7874338,30.0973 37.8154338,30.0827 37.8436338,30.0685 L37.8467338,30.0669 Z M9.78413378,29.8176 C9.83453378,29.6822 9.87783378,29.5442 9.91313378,29.4043 C9.98863378,29.1048 10.0270338,28.7951 10.0132338,28.4862 C9.99823378,28.1495 9.92073378,27.8178 9.80103378,27.5035 C9.65863378,27.1294 9.45813378,26.7777 9.21833378,26.4578 L9.20233378,26.4367 L9.19673378,26.4294 C9.19513378,26.432 9.19363378,26.4347 9.19203378,26.4373 C9.07693378,26.6291 8.97603378,26.8292 8.89083378,27.036 C8.88043378,27.0612 8.87023378,27.0867 8.86033378,27.1121 C9.17223378,27.4711 9.42673378,27.8824 9.57593378,28.3352 C9.72993378,28.8026 9.77083378,29.3016 9.73333378,29.7907 C9.72673378,29.7874 9.76073378,29.805 9.78413378,29.8176 Z M39.7995338,28.6886 C39.8680338,28.6737 39.9359338,28.6562 40.0030338,28.6366 C40.3437338,28.5366 40.6716338,28.3726 40.9289338,28.1248 C41.1451338,27.9166 41.3075338,27.6574 41.4254338,27.3826 C41.4513338,27.3222 41.4751338,27.2607 41.4970338,27.1985 C41.5202338,27.1324 41.5408338,27.0652 41.5593338,26.9975 L41.5598338,26.996 C41.5592338,26.996 41.5587338,26.9961 41.5582338,26.9962 C41.4889338,27.008 41.4200338,27.0219 41.3518338,27.0385 C41.2878338,27.0539 41.2243338,27.0716 41.1615338,27.0914 C40.9664338,27.1531 40.7761338,27.2364 40.6022338,27.3451 C40.5819338,27.4459 40.5546338,27.5455 40.5199338,27.6427 C40.3884338,28.012 40.1559338,28.3394 39.8782338,28.6134 C39.8524338,28.6389 39.8263338,28.664 39.7995338,28.6886 Z M39.4562338,27.9589 C39.4706338,27.9172 39.4854338,27.8755 39.5001338,27.8339 C39.5634338,27.666 39.6295338,27.4987 39.7060338,27.3347 C39.7813338,27.1704 39.8632338,27.0081 39.9632338,26.8513 L39.9647338,26.8518 C39.9599338,27.0376 39.9372338,27.218 39.9078338,27.3963 C39.8796338,27.575 39.8411338,27.7506 39.7997338,27.9253 C39.7717338,28.0352 39.7427338,28.145 39.7107338,28.2538 C39.7123338,28.2739 39.7137338,28.294 39.7148338,28.3139 C39.7152338,28.3204 39.7156338,28.3268 39.7160338,28.3333 C39.9560338,28.0827 40.1542338,27.785 40.2545338,27.4505 C40.3407338,27.1631 40.3548338,26.8575 40.3225338,26.5603 C40.3156338,26.4949 40.3061338,26.4297 40.2946338,26.3649 C40.2822338,26.2957 40.2672338,26.2271 40.2502338,26.1591 L40.2498338,26.1574 C40.2493338,26.1578 40.2490338,26.1581 40.2485338,26.1584 C40.1940338,26.2028 40.1408338,26.2486 40.0895338,26.2966 C40.0414338,26.3414 39.9946338,26.388 39.9497338,26.436 C39.7332338,26.6678 39.5523338,26.9388 39.4515338,27.2411 C39.3697338,27.4868 39.3423338,27.7474 39.3533338,28.0056 C39.3864338,27.9898 39.4197338,27.9745 39.4534338,27.96 L39.4562338,27.9589 Z M39.0519338,28.173 C39.0193338,27.8268 39.0450338,27.473 39.1553338,27.1423 C39.1992338,27.0106 39.2562338,26.884 39.3235338,26.763 C39.2641338,26.6165 39.1892338,26.4761 39.1038338,26.3436 C39.0682338,26.2883 39.0306338,26.2341 38.9912338,26.1814 C38.9492338,26.1251 38.9051338,26.0705 38.8593338,26.0172 L38.8583338,26.016 C38.8581338,26.0165 38.8578338,26.017 38.8576338,26.0175 C38.8286338,26.0815 38.8016338,26.1463 38.7772338,26.2121 C38.7542338,26.2738 38.7334338,26.3363 38.7148338,26.3995 C38.6250338,26.7037 38.5847338,27.0268 38.6301338,27.3423 C38.6753338,27.6574 38.8046338,27.9558 38.9761338,28.2222 L38.9773338,28.2213 C39.0020338,28.2049 39.0268338,28.1888 39.0519338,28.173 Z M14.0181338,15.4508 C11.6697338,19.5118 13.0600338,24.7067 17.1222338,27.0544 C17.1160338,27.0469 17.1097338,27.0382 17.1035338,27.0295 C13.4122338,22.1218 14.4003338,15.1511 19.3107338,11.461 C17.0785338,12.0192 15.1698338,13.459 14.0181338,15.4508 Z M30.8965338,27.0295 C30.8903338,27.0382 30.8840338,27.0471 30.8778338,27.0544 C34.9400338,24.7067 36.3303338,19.5118 33.9819338,15.4508 C32.8302338,13.459 30.9215338,12.0192 28.6893338,11.461 C33.5997338,15.1511 34.5877338,22.1218 30.8965338,27.0295 Z M7.90803378,26.2807 C7.97063378,26.3198 8.08153378,26.3985 8.07673378,26.395 C8.20823378,25.8788 8.24863378,25.3313 8.13253378,24.8083 C8.06383378,24.4989 7.94253378,24.2029 7.78713378,23.9273 C7.59473378,23.5861 7.35083378,23.2741 7.07393378,22.9976 L7.05513378,22.9789 L7.04853378,22.9726 C7.04733378,22.9754 7.04613378,22.9782 7.04493378,22.9809 C6.95843378,23.1872 6.88703378,23.3996 6.83223378,23.6166 C6.78883378,23.7881 6.75573378,23.9623 6.73493378,24.138 C6.69553378,24.4711 6.70043378,24.8108 6.76643378,25.1401 C6.83253378,25.4695 6.95883378,25.7848 7.12363378,26.077 C7.21053378,26.2311 7.30823378,26.3792 7.41443378,26.5208 C7.46533378,26.5889 7.51833378,26.6553 7.57313378,26.7203 L7.57623378,26.7073 C7.58113378,26.6863 7.58623378,26.6653 7.59143378,26.6445 L7.59553378,26.6286 C7.53183378,26.3692 7.47863378,26.1075 7.42763378,25.8454 C7.37893378,25.5799 7.33333378,25.3138 7.29813378,25.0452 C7.26193378,24.7768 7.23243378,24.5071 7.22133378,24.2331 L7.22263378,24.2327 C7.33093378,24.4847 7.42093378,24.7407 7.50393378,24.9985 C7.58833378,25.2558 7.66213378,25.5157 7.73293378,25.7761 C7.77353378,25.9322 7.81323378,26.0884 7.85033378,26.2452 L7.90803378,26.2807 Z M6.46643378,23.8275 C6.26253378,23.6645 6.04323378,23.5205 5.81443378,23.3958 L5.79113378,23.3833 L5.78303378,23.3789 C5.78273378,23.382 5.78233378,23.385 5.78203378,23.388 C5.75623378,23.6177 5.74783378,23.8492 5.75773378,24.0802 C5.76513378,24.2496 5.78223378,24.4184 5.81053378,24.5856 C5.86813378,24.9256 5.97273378,25.2591 6.13653378,25.5634 C6.28713378,25.8432 6.48553378,26.0956 6.71143378,26.3185 C6.85043378,26.4556 6.99973378,26.5821 7.15693378,26.6979 C7.14003378,26.6752 7.12323378,26.6523 7.10673378,26.6294 C6.80043378,26.2024 6.56393378,25.7187 6.46023378,25.2015 C6.36953378,24.7488 6.38263378,24.2809 6.46633378,23.828 L6.46643378,23.8275 Z M40.6548338,26.5333 C40.7208338,26.5101 40.7859338,26.4844 40.8499338,26.4565 C41.1753338,26.3148 41.4804338,26.1111 41.7046338,25.8331 C41.8931338,25.5995 42.0218338,25.322 42.1043338,25.0347 C42.1224338,24.9715 42.1384338,24.9076 42.1523338,24.8431 C42.1670338,24.7744 42.1790338,24.7054 42.1890338,24.6358 L42.1893338,24.6342 C42.1886338,24.6343 42.1881338,24.6344 42.1876338,24.6347 C42.1204338,24.655 42.0539338,24.6774 41.9882338,24.7024 C41.9267338,24.7257 41.8659338,24.7512 41.8060338,24.7787 C41.6202338,24.8643 41.4419338,24.9707 41.2830338,25.1004 C41.2754338,25.2029 41.2608338,25.305 41.2385338,25.4059 C41.1542338,25.7887 40.9645338,26.1427 40.7233338,26.4492 C40.7009338,26.4776 40.6782338,26.5057 40.6548338,26.5333 Z M8.36443378,26.5292 C8.47213378,26.3505 8.56693378,26.1641 8.64593378,25.9709 C8.76283378,25.6852 8.84433378,25.3838 8.87413378,25.076 C8.90653378,24.7407 8.87643378,24.4013 8.80213378,24.0732 C8.71373378,23.6829 8.56473378,23.3065 8.37223378,22.956 L8.35933378,22.9329 L8.35493378,22.925 C8.35293378,22.9274 8.35103378,22.9296 8.34913378,22.932 C8.20823378,23.1058 8.08013378,23.2896 7.96673378,23.4824 C7.95283378,23.506 7.93923378,23.5298 7.92583378,23.5536 C8.18413378,23.9529 8.37833378,24.3958 8.46233378,24.8651 C8.55303378,25.3715 8.51653378,25.8946 8.39863378,26.3935 C8.38793378,26.4388 8.37653378,26.4841 8.36443378,26.5292 Z M39.8445338,26.0984 C39.7720338,25.7642 39.7552338,25.4162 39.8220338,25.08 C39.8491338,24.9438 39.8897338,24.811 39.9414338,24.6826 C39.8642338,24.5447 39.7724338,24.4148 39.6711338,24.294 C39.6288338,24.2434 39.5847338,24.1945 39.5391338,24.147 C39.4904338,24.0965 39.4398338,24.0479 39.3877338,24.0007 L39.3864338,23.9996 C39.3863338,24.0001 39.3861338,24.0007 39.3859338,24.0012 C39.3652338,24.0682 39.3466338,24.1359 39.3306338,24.2044 C39.3155338,24.2684 39.3026338,24.333 39.2920338,24.398 C39.2409338,24.711 39.2414338,25.0367 39.3259338,25.3439 C39.4095338,25.6483 39.5731338,25.9263 39.7743338,26.1678 C39.7865338,26.1554 39.7988338,26.1431 39.8113338,26.1308 C39.8223338,26.1199 39.8334338,26.1091 39.8445338,26.0984 Z M40.7843338,23.9664 L40.7838338,23.9669 C40.7837338,23.967 40.7836338,23.9671 40.7835338,23.9672 C40.7349338,24.018 40.6879338,24.0701 40.6430338,24.1241 C40.6009338,24.1746 40.5604338,24.2266 40.5218338,24.28 C40.3359338,24.537 40.1905338,24.8284 40.1283338,25.1409 C40.0810338,25.3788 40.0828338,25.6238 40.1188338,25.8634 C40.1549338,25.8361 40.1916338,25.8097 40.2291338,25.7842 L40.2386338,25.7778 C40.2426338,25.7596 40.2466338,25.7414 40.2507338,25.7231 C40.2926338,25.5484 40.3372338,25.3745 40.3926338,25.2021 C40.4467338,25.0297 40.5077338,24.8583 40.5872338,24.6903 L40.5887338,24.6905 C40.6073338,24.8754 40.6072338,25.0574 40.6006338,25.238 C40.5949338,25.4188 40.5785338,25.5979 40.5594338,25.7763 C40.5501338,25.8499 40.5405338,25.9234 40.5299338,25.9967 C40.5380338,26.0251 40.5456338,26.0536 40.5529338,26.0821 C40.5575338,26.1006 40.5620338,26.119 40.5664338,26.1375 C40.7541338,25.8717 40.8973338,25.5707 40.9511338,25.2485 C41.0006338,24.9524 40.9763338,24.6475 40.9073338,24.3567 C40.8920338,24.2926 40.8745338,24.2291 40.8551338,24.1663 C40.8342338,24.0992 40.8107338,24.033 40.7852338,23.9676 L40.7846338,23.9661 L40.7843338,23.9664 Z M41.3646338,24.3993 C41.4258338,24.3654 41.4859338,24.3294 41.5446338,24.2914 C41.8424338,24.0983 42.1099338,23.8475 42.2857338,23.5365 C42.4335338,23.2753 42.5149338,22.9804 42.5494338,22.6836 C42.5570338,22.6182 42.5624338,22.5525 42.5654338,22.4867 C42.5688338,22.4166 42.5693338,22.3464 42.5678338,22.2763 L42.5678338,22.2745 C42.5673338,22.2748 42.5668338,22.275 42.5663338,22.2753 C42.5033338,22.3063 42.4412338,22.3393 42.3805338,22.3747 C42.3237338,22.4079 42.2678338,22.4428 42.2134338,22.4798 C42.0440338,22.5947 41.8855338,22.7287 41.7499338,22.8827 C41.7592338,22.9851 41.7616338,23.0882 41.7561338,23.1914 C41.7354338,23.5828 41.6062338,23.963 41.4184338,24.3049 C41.4009338,24.3366 41.3829338,24.3681 41.3646338,24.3993 Z M39.9419338,24.1316 C39.9991338,24.202 40.0534338,24.2752 40.1038338,24.3507 C40.1099338,24.3402 40.1161338,24.3297 40.1223338,24.3194 C40.0594338,24.2596 39.9990338,24.1969 39.9419338,24.1316 Z M40.8472338,23.4889 C40.8574338,23.3688 40.8703338,23.2487 40.8880338,23.1285 C40.9133338,22.9496 40.9454338,22.7706 40.9965338,22.5918 L40.9980338,22.5918 C41.0467338,22.7713 41.0763338,22.9507 41.0991338,23.13 C41.1231338,23.3094 41.1362338,23.4886 41.1465338,23.6678 C41.1520338,23.805 41.1561338,23.9421 41.1550338,24.0792 C41.1587338,24.0912 41.1623338,24.1032 41.1658338,24.1152 L41.1716338,24.1043 C41.3363338,23.79 41.4463338,23.4401 41.4468338,23.083 C41.4471338,22.7829 41.3734338,22.4859 41.2577338,22.2104 C41.2322338,22.1496 41.2046338,22.0898 41.1750338,22.031 C41.1435338,21.9683 41.1095338,21.9069 41.0737338,21.8465 L41.0728338,21.845 C41.0725338,21.8455 41.0722338,21.846 41.0719338,21.8464 C41.0323338,21.9045 40.9945338,21.9636 40.9589338,22.0241 C40.9256338,22.0809 40.8942338,22.1389 40.8648338,22.1978 C40.7235338,22.4818 40.6277338,22.793 40.6175338,23.1116 C40.6118338,23.2889 40.6327338,23.4656 40.6736338,23.6379 C40.6880338,23.6246 40.8472338,23.4889 40.8472338,23.4889 Z M40.4224338,23.901 C40.3409338,23.6427 40.2967338,23.3728 40.3053338,23.1016 C40.3098338,22.9627 40.3282338,22.8251 40.3581338,22.69 C40.2593338,22.5665 40.1475338,22.4533 40.0277338,22.3507 C39.9778338,22.3078 39.9263338,22.2668 39.8735338,22.2274 C39.8171338,22.1855 39.7593338,22.1458 39.7002338,22.1078 L39.6988338,22.1068 C39.6987338,22.1074 39.6986338,22.1079 39.6986338,22.1085 C39.6891338,22.1781 39.6817338,22.2479 39.6771338,22.318 C39.6729338,22.3836 39.6706338,22.4495 39.6709338,22.5154 C39.6716338,22.8325 39.7255338,23.1536 39.8590338,23.443 C39.9652338,23.673 40.1193338,23.8778 40.2991338,24.0559 L40.3052338,24.0476 C40.3187338,24.0298 40.3324338,24.012 40.3463338,23.9944 C40.3710338,23.9628 40.3965338,23.9318 40.4224338,23.901 Z M7.68573378,23.0545 C7.72973378,23.0023 7.77263378,22.9491 7.81413378,22.8948 C8.10413378,22.5161 8.33313378,22.0842 8.44003378,21.6171 C8.51063378,21.3083 8.52803378,20.9888 8.50583378,20.6732 C8.47843378,20.2823 8.39193378,19.8961 8.26033378,19.5275 L8.25133378,19.5026 L8.24813378,19.4941 C8.24583378,19.4961 8.24353378,19.4981 8.24133378,19.5001 C8.07463378,19.6493 7.91903378,19.8107 7.77643378,19.983 C7.75903378,20.0041 7.74183378,20.0253 7.72483378,20.0468 C7.91643378,20.482 8.03803378,20.9501 8.04653378,21.4267 C8.05573378,21.9411 7.93663378,22.4518 7.74123378,22.9256 C7.72333378,22.9688 7.70483378,23.0118 7.68573378,23.0545 Z M6.24033378,20.0859 C6.06493378,19.8927 5.87143378,19.7158 5.66513378,19.5562 L5.64413378,19.5402 L5.63683378,19.5347 C5.63603378,19.5376 5.63523378,19.5406 5.63433378,19.5434 C5.57453378,19.759 5.53043378,19.9786 5.50333378,20.2007 C5.48193378,20.3764 5.47113378,20.5533 5.47263378,20.7303 C5.47553378,21.0657 5.52313378,21.402 5.63013378,21.7204 C5.73713378,22.039 5.90223378,22.3358 6.10253378,22.6048 C6.20813378,22.7468 6.32373378,22.8814 6.44683378,23.0085 C6.45343378,23.0153 6.46523378,23.0263 6.46523378,23.0263 C6.45273378,23.0022 6.44033378,22.9779 6.42823378,22.9537 C6.19353378,22.4837 6.03673378,21.9687 6.01633378,21.4416 C5.99853378,20.9803 6.08573378,20.5202 6.24023378,20.0863 L6.24033378,20.0859 Z M7.41323378,22.8989 C7.49583378,22.7113 7.56513378,22.518 7.61853378,22.3201 C7.69893378,22.022 7.74233378,21.7129 7.73363378,21.4039 C7.72413378,21.0671 7.65193378,20.7341 7.53743378,20.4178 C7.47683378,20.2505 7.40433378,20.0874 7.32233378,19.9294 C7.21583378,19.7241 7.09303378,19.5277 6.95623378,19.3414 L6.95073378,19.334 C6.94913378,19.3366 6.94753378,19.3391 6.94593378,19.3418 C6.82383378,19.5381 6.71653378,19.7434 6.62613378,19.9562 C6.55653378,20.12 6.49683378,20.2882 6.44933378,20.4598 C6.35953378,20.784 6.31323378,21.1214 6.32963378,21.4581 C6.34563378,21.784 6.41953378,22.1054 6.53253378,22.411 C6.59293378,22.5745 6.66433378,22.7338 6.74523378,22.8883 L6.75173378,22.8725 C6.78233378,22.7996 6.81493378,22.7277 6.85043378,22.657 L6.85633378,22.6454 L6.88363378,22.5936 C6.87783378,22.4726 6.87343378,22.3516 6.86943378,22.2306 C6.86353378,21.9607 6.86063378,21.6907 6.86853378,21.42 C6.87533378,21.1492 6.88893378,20.8781 6.92143378,20.6058 L6.92293378,20.6058 C6.98983378,20.8716 7.03793378,21.1389 7.07913378,21.4065 C7.12153378,21.674 7.15323378,21.9422 7.18183378,22.2106 C7.19763378,22.3764 7.21253378,22.5424 7.22453378,22.7085 C7.26273378,22.7447 7.30013378,22.7818 7.33693378,22.8192 C7.36273378,22.8454 7.38813378,22.872 7.41323378,22.8989 Z M41.6468338,22.2237 C41.7018338,22.1806 41.7553338,22.1354 41.8071338,22.0884 C42.0702338,21.8503 42.2942338,21.56 42.4180338,21.2249 C42.5219338,20.9434 42.5553338,20.6394 42.5418338,20.3407 C42.5388338,20.275 42.5335338,20.2093 42.5260338,20.1438 C42.5182338,20.074 42.5074338,20.0047 42.4947338,19.9357 L42.4944338,19.934 C42.4939338,19.9343 42.4934338,19.9347 42.4931338,19.935 C42.4358338,19.9758 42.3799338,20.0182 42.3257338,20.0628 C42.2748338,20.1046 42.2252338,20.1481 42.1774338,20.1933 C42.0285338,20.3338 41.8936338,20.4914 41.7844338,20.665 C41.8100338,20.7646 41.8288338,20.866 41.8399338,20.9688 C41.8821338,21.3584 41.8154338,21.7544 41.6847338,22.1219 C41.6726338,22.156 41.6600338,22.19 41.6468338,22.2237 Z M40.6573338,21.9223 C40.5248338,21.6691 40.4301338,21.396 40.3934338,21.112 C40.3756338,20.9743 40.3716338,20.8355 40.3796338,20.6973 C40.2625338,20.5913 40.1338338,20.4975 39.9993338,20.4153 C39.9431338,20.381 39.8856338,20.3486 39.8271338,20.3183 C39.7649338,20.2858 39.7013338,20.256 39.6370338,20.2279 L39.6355338,20.2273 C39.6355338,20.2278 39.6355338,20.2284 39.6355338,20.2289 C39.6374338,20.2991 39.6413338,20.3691 39.6479338,20.4391 C39.6541338,20.5046 39.6626338,20.5699 39.6732338,20.6349 C39.7248338,20.9478 39.8294338,21.2563 40.0075338,21.5205 C40.1570338,21.7424 40.3550338,21.928 40.5749338,22.0797 C40.5972338,22.0341 40.6206338,21.9892 40.6449338,21.9447 C40.6491338,21.9373 40.6532338,21.9298 40.6573338,21.9223 Z M41.3451338,21.6921 C41.3786338,21.7483 41.4103338,21.8056 41.4403338,21.8638 C41.5306338,21.5558 41.5683338,21.2294 41.5172338,20.9113 C41.4696338,20.615 41.3492338,20.3337 41.1909338,20.0802 C41.1561338,20.0243 41.1192338,19.9696 41.0805338,19.9163 C41.0394338,19.8595 40.9961338,19.8043 40.9511338,19.7504 L40.9500338,19.7491 C40.9497338,19.7496 40.9495338,19.7501 40.9492338,19.7506 C40.9195338,19.8142 40.8915338,19.8786 40.8662338,19.944 C40.8424338,20.0055 40.8207338,20.0677 40.8011338,20.1306 C40.7070338,20.4334 40.6623338,20.756 40.7032338,21.0721 C40.7271338,21.2585 40.7807338,21.4396 40.8551338,21.612 L40.9926338,21.4389 C40.9823338,21.3084 40.9748338,21.1775 40.9728338,21.0457 C40.9691338,20.865 40.9721338,20.6832 40.9940338,20.4985 L40.9955338,20.4982 C41.0722338,20.6676 41.1302338,20.8399 41.1815338,21.0134 C41.2338338,21.1864 41.2755338,21.3614 41.3144338,21.5366 C41.3250338,21.5883 41.3352338,21.6401 41.3451338,21.6921 Z M41.6687338,20.0187 C41.7191338,19.9701 41.7676338,19.9197 41.8143338,19.8676 C42.0512338,19.6035 42.2440338,19.2914 42.3323338,18.9454 C42.4066338,18.6547 42.4082338,18.3487 42.3639338,18.0531 C42.3541338,17.9881 42.3420338,17.9233 42.3278338,17.859 C42.3127338,17.7904 42.2949338,17.7226 42.2751338,17.6553 L42.2746338,17.6537 C42.2742338,17.654 42.2737338,17.6544 42.2733338,17.6548 C42.2207338,17.7013 42.1694338,17.7492 42.1202338,17.7991 C42.0738338,17.846 42.0291338,17.8944 41.9862338,17.9443 C41.8527338,18.0995 41.7348338,18.2703 41.6441338,18.4543 C41.6799338,18.5507 41.7091338,18.6496 41.7308338,18.7506 C41.8133338,19.1337 41.7879338,19.5346 41.6960338,19.9136 C41.6875338,19.9488 41.6784338,19.9838 41.6687338,20.0187 Z M40.6076338,19.75 C40.4717338,19.5312 40.3664338,19.2938 40.3071338,19.0429 C40.2756338,18.9099 40.2573338,18.7747 40.2506338,18.6387 L40.2503338,18.6318 C40.1228338,18.5386 39.9852338,18.4585 39.8429338,18.3908 C39.7834338,18.3625 39.7230338,18.3362 39.6616338,18.312 C39.5963338,18.2863 39.5301338,18.2631 39.4631338,18.2418 L39.4615338,18.2413 C39.4615338,18.2418 39.4616338,18.2425 39.4616338,18.243 C39.4708338,18.3126 39.4819338,18.3819 39.4957338,18.4508 C39.5087338,18.5153 39.5240338,18.5794 39.5413338,18.6429 C39.6250338,18.9488 39.7609338,19.2447 39.9654338,19.4891 C40.1231338,19.6774 40.3180338,19.8312 40.5303338,19.9542 L40.5435338,19.9159 C40.5625338,19.8626 40.5827338,19.8098 40.6045338,19.7575 L40.6076338,19.75 Z M40.7186338,17.6313 C40.6957338,17.6976 40.6746338,17.7646 40.6562338,17.8322 C40.6388338,17.8958 40.6237338,17.9599 40.6107338,18.0244 C40.5485338,18.3354 40.5375338,18.6609 40.6110338,18.971 C40.6472338,19.1243 40.7037338,19.2717 40.7750338,19.4118 L40.8833338,19.2334 L40.9323338,19.2807 C40.9104338,19.1602 40.8910338,19.0392 40.8765338,18.9168 C40.8542338,18.7374 40.8383338,18.5563 40.8408338,18.3703 L40.8423338,18.37 C40.9361338,18.5306 41.0117338,18.6959 41.0806338,18.863 C41.1507338,19.0298 41.2103338,19.1994 41.2670338,19.3697 C41.3139338,19.5191 41.3592338,19.6689 41.3972338,19.8205 C41.3999338,19.8085 41.4027338,19.7966 41.4054338,19.7844 C41.4821338,19.438 41.4967338,19.0717 41.4038338,18.7269 C41.3259338,18.437 41.1771338,18.1698 40.9932338,17.934 C40.9527338,17.8821 40.9105338,17.8315 40.8665338,17.7825 C40.8197338,17.7302 40.7709338,17.6798 40.7205338,17.6308 L40.7193338,17.6297 L40.7186338,17.6313 Z M8.89403378,16.1739 C8.89403378,16.1739 8.62333378,16.3642 8.48093378,16.4434 C8.40683378,16.4846 8.33163378,16.5238 8.25533378,16.561 C8.33733378,17.0213 8.34543378,17.4963 8.24543378,17.9541 C8.13563378,18.4567 7.90183378,18.9262 7.60233378,19.342 C7.57493378,19.3801 7.54703378,19.4176 7.51853378,19.4548 C7.57343378,19.4141 7.62743378,19.3722 7.68033378,19.329 C8.04993378,19.0273 8.37253378,18.6601 8.58433378,18.2302 C8.72433378,17.946 8.81503378,17.6392 8.86633378,17.327 C8.92883378,16.9465 8.93473378,16.557 8.89403378,16.1739 Z M7.27843378,19.2547 L7.28193378,19.2501 C7.61153378,18.8164 7.86753378,18.3155 7.96233378,17.7757 C8.01863378,17.4552 8.01833378,17.1264 7.97683378,16.8042 C7.92793378,16.4241 7.82333378,16.0515 7.67633378,15.6978 L7.66603378,15.6735 L7.66243378,15.6651 C7.66023378,15.6672 7.65813378,15.6694 7.65593378,15.6715 C7.49713378,15.8291 7.34983378,15.998 7.21633378,16.1775 C7.11063378,16.3195 7.01343378,16.4678 6.92703378,16.6223 C6.76333378,16.915 6.63803378,17.2307 6.57313378,17.5604 C6.50823378,17.8899 6.50443378,18.2296 6.54503378,18.5625 C6.56643378,18.7382 6.60003378,18.9123 6.64403378,19.0838 C6.65313378,19.1192 6.66263378,19.1546 6.67263378,19.1898 C6.71463378,19.1221 6.75863378,19.0557 6.80523378,18.991 L6.81603378,18.9762 C6.84643378,18.8053 6.87993378,18.6349 6.91443378,18.4647 C6.97103378,18.2008 7.03063378,17.9374 7.10083378,17.6758 C7.16993378,17.414 7.24563378,17.1534 7.34013378,16.8959 L7.34163378,16.8962 C7.34543378,17.1704 7.33053378,17.4414 7.30883378,17.7112 C7.28833378,17.9813 7.25723378,18.2496 7.22313378,18.5173 C7.19753378,18.7011 7.17093378,18.8847 7.14053378,19.0677 C7.18173378,19.1201 7.22133378,19.1739 7.25983378,19.2284 C7.26603378,19.2371 7.27223378,19.2458 7.27843378,19.2547 Z M6.33703378,15.5581 C6.33573378,15.5605 6.33443378,15.5628 6.33313378,15.5651 C6.22523378,15.761 6.13153378,15.9646 6.05393378,16.1744 C5.99253378,16.3403 5.94113378,16.5102 5.90173378,16.6826 C5.82713378,17.0097 5.79583378,17.3478 5.82643378,17.6824 C5.85703378,18.0169 5.94913378,18.3439 6.08183378,18.6519 C6.15193378,18.8144 6.23323378,18.972 6.32373378,19.1241 L6.33823378,19.1482 C6.33133378,19.121 6.32463378,19.0937 6.31823378,19.0664 C6.19363378,18.5343 6.16243378,17.9744 6.27963378,17.438 C6.37353378,17.0076 6.55803378,16.6017 6.79753378,16.2326 C6.66733378,15.9964 6.51413378,15.7726 6.34343378,15.5642 L6.33763378,15.5571 L6.33703378,15.5581 Z M40.3349338,17.8269 C40.1809338,17.6303 40.0537338,17.413 39.9679338,17.1781 C39.9211338,17.0498 39.8871338,16.9175 39.8645338,16.7833 L39.8634338,16.7765 C39.7258338,16.6987 39.5798338,16.6354 39.4304338,16.5848 C39.3681338,16.5636 39.3050338,16.5448 39.2413338,16.5279 C39.1733338,16.5099 39.1049338,16.4947 39.0359338,16.4814 L39.0342338,16.4811 C39.0343338,16.4817 39.0346338,16.4822 39.0347338,16.4827 C39.0518338,16.5509 39.0710338,16.6183 39.0929338,16.6851 C39.1134338,16.7477 39.1359338,16.8095 39.1606338,16.8706 C39.2796338,17.1645 39.4493338,17.4426 39.6810338,17.6613 C39.8574338,17.8277 40.0658338,17.9563 40.2879338,18.0531 C40.3002338,17.9807 40.3151338,17.9088 40.3323338,17.8376 L40.3349338,17.8269 Z M41.4348338,17.9876 C41.4790338,17.9334 41.5213338,17.8776 41.5616338,17.8205 C41.7659338,17.5303 41.9206338,17.1979 41.9678338,16.8438 C42.0074338,16.5464 41.9732338,16.2424 41.8945338,15.9541 C41.8771338,15.8906 41.8575338,15.8277 41.8359338,15.7655 C41.8128338,15.6992 41.7872338,15.6339 41.7596338,15.5693 L41.7589338,15.5677 C41.7586338,15.5682 41.7582338,15.5686 41.7578338,15.569 C41.7110338,15.6213 41.6657338,15.675 41.6227338,15.7304 C41.5822338,15.7824 41.5435338,15.8356 41.5066338,15.8903 C41.3923338,16.06 41.2953338,16.2434 41.2268338,16.4367 C41.2735338,16.5283 41.3142338,16.623 41.3476338,16.7208 C41.4745338,17.0917 41.4962338,17.4927 41.4495338,17.8799 C41.4451338,17.9159 41.4403338,17.9518 41.4348338,17.9876 Z M41.1567338,17.6402 C41.1716338,17.3332 41.1347338,17.0218 41.0202338,16.7356 C40.9086338,16.457 40.7295338,16.209 40.5194338,15.9963 C40.4731338,15.9495 40.4251338,15.9044 40.3758338,15.8608 C40.3230338,15.8143 40.2687338,15.77 40.2129338,15.7273 L40.2116338,15.7262 C40.2115338,15.7268 40.2114338,15.7273 40.2112338,15.7279 C40.1961338,15.7965 40.1830338,15.8654 40.1726338,15.9349 C40.1629338,15.9999 40.1554338,16.0653 40.1502338,16.131 C40.1248338,16.4472 40.1520338,16.7717 40.2613338,17.0711 C40.3103338,17.2051 40.3750338,17.3325 40.4516338,17.4524 L40.4531338,17.4486 C40.4694338,17.4064 40.4868338,17.3646 40.5052338,17.3232 L40.5112338,17.3103 L40.5996338,17.1238 L40.5707338,17.1846 C40.5523338,17.1189 40.5348338,17.0528 40.5188338,16.9861 C40.4754338,16.8106 40.4386338,16.6325 40.4192338,16.4476 L40.4206338,16.4471 C40.5327338,16.5955 40.6271338,16.7509 40.7152338,16.9088 C40.8042338,17.0662 40.8834338,17.2276 40.9596338,17.3902 C40.9697338,17.4128 40.9798338,17.4355 40.9900338,17.4581 C41.0413338,17.5101 41.0908338,17.5638 41.1385338,17.6189 C41.1446338,17.6259 41.1506338,17.6331 41.1567338,17.6402 Z M39.8619338,15.9018 C39.7077338,15.7407 39.5741338,15.5606 39.4714338,15.3622 C39.4085338,15.2409 39.3580338,15.114 39.3185338,14.9838 L39.3165338,14.9772 C39.1701338,14.9176 39.0172338,14.8734 38.8625338,14.8423 C38.7981338,14.8292 38.7330338,14.8184 38.6677338,14.81 C38.5981338,14.8007 38.5282338,14.7943 38.4581338,14.79 L38.4563338,14.7898 C38.4566338,14.7905 38.4568338,14.791 38.4570338,14.7915 C38.4827338,14.8568 38.5104338,14.9213 38.5405338,14.9847 C38.5689338,15.0441 38.5991338,15.1027 38.6315338,15.1601 C38.7870338,15.4365 38.9907338,15.6906 39.2485338,15.878 C39.4260338,16.007 39.6258338,16.1021 39.8344338,16.1691 L39.8346338,16.1644 C39.8385338,16.1021 39.8442338,16.04 39.8517338,15.9782 C39.8547338,15.9527 39.8581338,15.9272 39.8619338,15.9018 Z M8.95513378,15.7395 C9.12183378,15.5973 9.27463378,15.4392 9.40713378,15.2646 C9.61073378,14.9962 9.76323378,14.6914 9.87213378,14.3731 C10.0018338,13.9945 10.0725338,13.5959 10.0926338,13.1965 L10.0941338,13.1611 C10.0912338,13.1621 10.0884338,13.1631 10.0855338,13.1641 C9.87443378,13.2381 9.66883378,13.3274 9.47113378,13.4321 C9.44693378,13.4449 9.42283378,13.4579 9.39893378,13.4711 C9.40923378,13.9466 9.34203378,14.4253 9.16733378,14.869 C8.99343378,15.3103 8.71993378,15.7071 8.39453378,16.0506 L8.41673378,16.0363 C8.48503378,15.992 8.55453378,15.9497 8.62493378,15.9093 C8.72463378,15.8519 8.95513378,15.7395 8.95513378,15.7395 Z M41.0293338,15.9783 C41.0664338,15.9189 41.1011338,15.8581 41.1339338,15.7964 C41.2996338,15.4826 41.4107338,15.1331 41.4123338,14.776 C41.4138338,14.4759 41.3410338,14.1787 41.2262338,13.9027 C41.2008338,13.8419 41.1735338,13.7821 41.1441338,13.7231 C41.1128338,13.6603 41.0790338,13.5988 41.0434338,13.5383 L41.0426338,13.5368 C41.0422338,13.5373 41.0419338,13.5378 41.0416338,13.5382 C41.0017338,13.5962 40.9637338,13.6551 40.9280338,13.7155 C40.8945338,13.7722 40.8629338,13.83 40.8333338,13.8889 C40.7416338,14.0717 40.6687338,14.266 40.6255338,14.4664 C40.6837338,14.5513 40.7360338,14.6401 40.7816338,14.7329 C40.9546338,15.0847 41.0273338,15.4795 41.0302338,15.8695 C41.0306338,15.9058 41.0302338,15.942 41.0293338,15.9783 Z M8.09083378,15.9153 C8.21173378,15.7942 8.32513378,15.6659 8.42963378,15.5304 C8.61813378,15.2857 8.77663378,15.0169 8.88703378,14.728 C9.00723378,14.4132 9.06823378,14.078 9.08363378,13.742 C9.10203378,13.3423 9.05823378,12.9398 8.96563378,12.5508 L8.95933378,12.5252 L8.95713378,12.5163 C8.95463378,12.5181 8.95213378,12.5198 8.94963378,12.5216 C8.76773378,12.6517 8.59543378,12.7952 8.43493378,12.951 C8.30793378,13.0743 8.18833378,13.2053 8.07843378,13.344 C7.86413378,13.6143 7.68623378,13.9151 7.56953378,14.2404 C7.45933378,14.5476 7.40433378,14.8728 7.39163378,15.1983 C7.38773378,15.2971 7.38763378,15.396 7.39113378,15.4948 C7.45353378,15.4315 7.51793378,15.37 7.58453378,15.3111 L7.76123378,15.1631 L7.76693378,15.1738 L7.77193378,15.1606 C7.86993378,14.9091 7.97083378,14.6586 8.08183378,14.4115 C8.19163378,14.1642 8.30823378,13.919 8.44263378,13.6798 L8.44403378,13.6803 C8.40403378,13.9515 8.34593378,14.2168 8.28163378,14.4798 C8.21813378,14.7431 8.14453378,15.0029 8.06823378,15.2619 C8.03513378,15.3695 8.00173378,15.4769 7.96723378,15.5841 C7.97413378,15.6006 7.98093378,15.617 7.98753378,15.6336 C8.02493378,15.7263 8.05943378,15.8203 8.09083378,15.9153 Z M40.7145338,15.7499 C40.6978338,15.4166 40.6220338,15.0822 40.4587338,14.7892 C40.3126338,14.5271 40.1032338,14.304 39.8677338,14.1199 C39.8158338,14.0793 39.7624338,14.0406 39.7080338,14.0037 C39.6498338,13.9643 39.5902338,13.9273 39.5295338,13.892 L39.5280338,13.8912 C39.5278338,13.8917 39.5278338,13.8924 39.5278338,13.8929 C39.5215338,13.9628 39.5173338,14.0328 39.5160338,14.103 C39.5146338,14.1688 39.5155338,14.2348 39.5186338,14.3005 C39.5338338,14.6173 39.6022338,14.9357 39.7487338,15.2187 C39.8035338,15.3246 39.8687338,15.4245 39.9419338,15.5181 L40.0334338,15.2379 L40.0522338,15.2493 C40.0319338,15.2004 40.0121338,15.1512 39.9933338,15.1017 C39.9279338,14.9331 39.8686338,14.7613 39.8259338,14.5802 L39.8271338,14.5796 C39.9573338,14.7124 40.0707338,14.8545 40.1783338,14.9999 C40.2867338,15.1448 40.3858338,15.2949 40.4821338,15.4462 C40.5219338,15.5113 40.5614338,15.5765 40.6000338,15.6423 C40.6090338,15.6503 40.6178338,15.6584 40.6267338,15.6665 C40.6564338,15.6937 40.6857338,15.7214 40.7145338,15.7499 Z M8.01273378,12.9387 C7.92473378,12.6929 7.81373378,12.4554 7.68443378,12.2291 L7.67113378,12.2061 L7.66653378,12.1984 C7.66463378,12.2008 7.66273378,12.2031 7.66083378,12.2055 C7.51843378,12.3876 7.38973378,12.5803 7.27693378,12.7821 C7.19433378,12.9301 7.12023378,13.0829 7.05663378,13.24 C6.93073378,13.5508 6.84593378,13.8797 6.82273378,14.2148 C6.79953378,14.55 6.83833378,14.8874 6.92013378,15.2127 C6.96333378,15.3843 7.01853378,15.5529 7.08353378,15.7174 C7.08693378,15.7261 7.09043378,15.7347 7.09393378,15.7434 C7.09423378,15.7472 7.08953378,15.6915 7.08733378,15.6598 C7.04923378,15.1145 7.10783378,14.5568 7.30903378,14.0458 C7.47053378,13.636 7.71733378,13.2648 8.01273378,12.9387 Z M39.2031338,14.1354 C38.9772338,13.9934 38.7716338,13.8196 38.6044338,13.6113 C38.5188338,13.5047 38.4442338,13.3905 38.3796338,13.2706 C38.3796338,13.2706 38.2630338,13.2454 38.2059338,13.2387 C38.1261338,13.2296 38.0459338,13.2249 37.9655338,13.2226 C37.9354338,13.2221 37.9053338,13.222 37.8751338,13.2221 C37.8191338,13.223 37.7633338,13.2249 37.7075338,13.2288 C37.6374338,13.2335 37.5676338,13.241 37.4980338,13.2506 L37.4964338,13.2509 C37.5591338,13.3495 37.6286338,13.444 37.7031338,13.5341 C37.9292338,13.8076 38.2091338,14.0445 38.5383338,14.1832 C38.7508338,14.2727 38.9782338,14.3212 39.2078338,14.3389 C39.2051338,14.2882 39.2029338,14.153 39.2031338,14.136 L39.2031338,14.1354 Z M39.7066338,11.7091 C39.6931338,11.7478 39.5596338,12.4262 39.5584338,12.505 C39.6323338,12.5768 39.7012338,12.6536 39.7643338,12.7355 C40.0035338,13.0461 40.1529338,13.4188 40.2329338,13.8006 C40.2404338,13.8359 40.2472338,13.8715 40.2535338,13.9072 C40.2781338,13.8417 40.3001338,13.7752 40.3199338,13.7082 C40.4204338,13.3679 40.4601338,13.0034 40.3911338,12.653 C40.3332338,12.3585 40.2030338,12.0816 40.0359338,11.8338 C39.9991338,11.7792 39.9604338,11.7259 39.9199338,11.6739 C39.8767338,11.6186 39.8315338,11.5649 39.7847338,11.5126 L39.7835338,11.5113 C39.7833338,11.5119 39.7830338,11.5125 39.7828338,11.513 C39.7553338,11.5775 39.7297338,11.6428 39.7066338,11.7091 Z M39.9030338,13.7589 C39.8213338,13.4307 39.6799338,13.1129 39.4589338,12.8545 C39.2638338,12.6265 39.0144338,12.449 38.7471338,12.3152 C38.6883338,12.2857 38.6283338,12.2582 38.5676338,12.2329 C38.5028338,12.2058 38.4371338,12.1812 38.3705338,12.1587 L38.3689338,12.1581 C38.3690338,12.1587 38.3690338,12.1592 38.3691338,12.1598 C38.3768338,12.2296 38.3866338,12.299 38.3991338,12.3682 C38.4107338,12.433 38.4246338,12.4974 38.4407338,12.5613 C38.5183338,12.8687 38.6482338,13.1673 38.8478338,13.4158 C38.9572338,13.5519 39.0859338,13.6709 39.2264338,13.7741 L39.2650338,13.5488 C39.1957338,13.4522 39.1282338,13.3539 39.0645338,13.2526 C38.9671338,13.1004 38.8749338,12.9437 38.7972338,12.7747 L38.7983338,12.7737 C38.9521338,12.8784 39.0915338,12.9951 39.2257338,13.1165 C39.3606338,13.2369 39.4874338,13.3644 39.6118338,13.4939 C39.6682338,13.5548 39.7245338,13.6159 39.7795338,13.6781 C39.8214338,13.704 39.8625338,13.7309 39.9030338,13.7589 Z M9.28313378,12.5371 C9.31183378,12.6637 9.36193378,12.9147 9.36193378,12.9147 C9.75863378,12.6498 10.1150338,12.315 10.3670338,11.9076 C10.5336338,11.6381 10.6533338,11.3412 10.7343338,11.0354 C10.8345338,10.6568 10.8775338,10.2632 10.8721338,9.8719 L10.8715338,9.8455 L10.8713338,9.8363 C10.8685338,9.8376 10.8657338,9.8387 10.8629338,9.8398 C10.6570338,9.9274 10.4575338,10.0296 10.2669338,10.1468 C10.1161338,10.2394 9.97093378,10.3413 9.83333378,10.4527 C9.57273378,10.6639 9.33923378,10.9105 9.15673378,11.1926 C8.97413378,11.4747 8.84473378,11.7887 8.75883378,12.1129 C8.74183378,12.1774 8.72643378,12.2424 8.71263378,12.3077 L8.71353378,12.307 C8.78623378,12.2537 8.86053378,12.2026 8.93673378,12.1544 L9.13483378,12.0366 L9.16353378,12.1213 C9.30593378,11.9099 9.45083378,11.7001 9.60403378,11.4953 C9.76513378,11.2778 9.93233378,11.0639 10.1155338,10.8598 L10.1168338,10.8606 C10.0186338,11.1167 9.90423378,11.3628 9.78403378,11.6055 C9.66473378,11.8487 9.53633378,12.0863 9.40543378,12.3223 C9.36483378,12.3936 9.32403378,12.4646 9.28283378,12.5356 L9.28313378,12.5371 Z M10.3991338,12.7504 C10.4019338,12.8159 10.4031338,12.8439 10.4031338,12.8439 C10.5345338,12.7595 10.6594338,12.6652 10.7760338,12.5603 C11.0241338,12.3369 11.2307338,12.0699 11.3990338,11.7822 C11.5927338,11.4511 11.7385338,11.092 11.8382338,10.722 L11.8405338,10.7132 C11.8375338,10.7136 11.8345338,10.7139 11.8315338,10.7142 C11.6019338,10.7413 11.3744338,10.7858 11.1517338,10.848 C11.1325338,10.8533 11.1135338,10.8588 11.0944338,10.8645 C11.0008338,11.3306 10.8309338,11.7834 10.5637338,12.1783 C10.3811338,12.448 10.1572338,12.687 9.90773378,12.896 C10.0024338,12.8611 10.0983338,12.8294 10.1956338,12.8026 L10.3991338,12.7504 Z M38.1033338,12.4844 C37.9130338,12.366 37.7378338,12.224 37.5884338,12.0563 C37.4961338,11.9526 37.4147338,11.8404 37.3433338,11.722 C37.2484338,11.709 37.1526338,11.702 37.0568338,11.6999 C37.0356338,11.6996 37.0142338,11.6995 36.9930338,11.6995 C36.8157338,11.7011 36.6392338,11.7194 36.4651338,11.7525 L36.4634338,11.7528 C36.5312338,11.848 36.6054338,11.9389 36.6843338,12.0251 C36.9240338,12.2867 37.2158338,12.509 37.5516338,12.6307 C37.7496338,12.7025 37.9583338,12.7395 38.1685338,12.75 L38.1678338,12.7475 C38.1450338,12.6697 38.1033338,12.4844 38.1033338,12.4844 Z M9.85743378,10.0431 C9.85173378,9.9972 9.84523378,9.9515 9.83803378,9.9058 C9.80313378,9.6849 9.75123378,9.4668 9.68383378,9.2535 L9.68103378,9.2449 C9.67863378,9.2468 9.67633378,9.2487 9.67393378,9.2507 C9.37113378,9.499 9.09823378,9.7866 8.87333378,10.1076 C8.67603378,10.3893 8.51603378,10.6989 8.41793378,11.0292 C8.32233378,11.3512 8.28653378,11.6889 8.29553378,12.0242 C8.30033378,12.2011 8.31743378,12.3777 8.34503378,12.5524 C8.34653378,12.5617 8.34803378,12.5709 8.34953378,12.5802 L8.34983378,12.5775 C8.35343378,12.5506 8.35723378,12.5237 8.36133378,12.4969 C8.43983378,11.9774 8.60783378,11.466 8.89453378,11.023 C9.14543378,10.6354 9.48133378,10.3092 9.85743378,10.0431 Z M39.3621338,11.7617 C39.3928338,11.5103 39.3856338,11.2543 39.3240338,11.0082 C39.2510338,10.7171 39.1071338,10.4472 38.9275338,10.2082 C38.8880338,10.1555 38.8466338,10.1043 38.8036338,10.0545 C38.7576338,10.0013 38.7097338,9.9501 38.6603338,9.9002 L38.6591338,9.899 C38.6588338,9.8995 38.6587338,9.9 38.6584338,9.9006 C38.6342338,9.9665 38.6120338,10.033 38.5924338,10.1005 C38.5739338,10.1636 38.5575338,10.2275 38.5435338,10.2919 C38.4998338,10.4918 38.4773338,10.6981 38.4851338,10.903 L38.4898338,10.9073 C38.5654338,10.974 38.6365338,11.0457 38.7022338,11.1226 C38.9569338,11.4205 39.1251338,11.7853 39.2245338,12.1624 C39.2320338,12.1909 39.2392338,12.2195 39.2459338,12.2482 L39.2548338,12.2545 C39.2588338,12.2416 39.2679338,12.205 39.2679338,12.205 C39.2875338,12.055 39.3197338,11.9066 39.3621338,11.7617 Z M37.2795338,10.6187 C37.2908338,10.688 37.3040338,10.7568 37.3200338,10.8252 C37.3350338,10.8893 37.3521338,10.953 37.3714338,11.0159 C37.4646338,11.3191 37.6097338,11.6106 37.8216338,11.8486 C37.8910338,11.9264 37.9668338,11.9978 38.0476338,12.063 L38.0474338,12.0582 C38.0457338,12.0299 38.0434338,11.7527 38.0434338,11.7527 L38.0940338,11.7641 C38.0722338,11.7346 38.0506338,11.7049 38.0295338,11.6748 C37.9246338,11.5276 37.8246338,11.3758 37.7383338,11.211 L37.7394338,11.21 C37.8983338,11.3066 38.0436338,11.4162 38.1836338,11.5304 C38.3245338,11.6441 38.4576338,11.7648 38.5885338,11.8878 L38.6177338,11.9163 C38.6598338,11.9328 38.7015338,11.9501 38.7429338,11.9682 C38.7802338,11.9847 38.8173338,12.0018 38.8542338,12.0198 C38.7549338,11.7392 38.6085338,11.4737 38.4032338,11.2571 C38.1968338,11.0392 37.9388338,10.8747 37.6650338,10.7546 C37.6047338,10.7281 37.5435338,10.7037 37.4815338,10.6815 C37.4154338,10.6577 37.3485338,10.6366 37.2809338,10.6174 L37.2793338,10.617 L37.2795338,10.6187 Z M35.8891338,10.285 C35.8211338,10.2863 35.7533338,10.2891 35.6856338,10.2949 C35.5977338,10.3023 35.5102338,10.3139 35.4233338,10.3289 L35.4217338,10.3292 C35.4877338,10.4256 35.5604338,10.5177 35.6379338,10.6052 C35.8732338,10.8709 36.1612338,11.098 36.4949338,11.2256 C36.7079338,11.3069 36.9344338,11.3477 37.1621338,11.3581 C37.1294338,11.2778 37.1003338,11.196 37.0747338,11.1133 L37.0715338,11.1031 C36.8744338,10.9786 36.6938338,10.8287 36.5414338,10.6518 C36.4522338,10.5481 36.3738338,10.4365 36.3053338,10.3189 L36.3021338,10.3132 C36.2567338,10.3064 36.0215338,10.2685 35.8891338,10.285 Z M26.2360338,10.8478 C25.5113338,11.3573 24.5097338,11.1838 24.0000338,10.4582 C23.4904338,11.1838 22.4886338,11.3573 21.7641338,10.8478 C21.1557338,10.4208 20.9209338,9.6315 21.1969338,8.941 C21.3517338,9.7639 22.1450338,10.3059 22.9682338,10.1498 C23.4017338,10.0686 23.7789338,9.8014 24.0000338,9.4192 C24.2210338,9.8014 24.5984338,10.0686 25.0317338,10.1498 C25.8549338,10.3059 26.6482338,9.7639 26.8031338,8.941 C27.0791338,9.6315 26.8442338,10.4208 26.2360338,10.8478 Z M38.3342338,9.8802 C38.3264338,9.7973 38.3134338,9.7148 38.2946338,9.6334 C38.2266338,9.3411 38.0872338,9.0688 37.9118338,8.8267 C37.8731338,8.7734 37.8326338,8.7214 37.7904338,8.671 C37.7454338,8.617 37.6983338,8.565 37.6498338,8.5143 L37.6486338,8.513 C37.6484338,8.5136 37.6481338,8.5141 37.6480338,8.5146 C37.6227338,8.5802 37.5992338,8.6463 37.5784338,8.7133 C37.5589338,8.7763 37.5415338,8.8398 37.5263338,8.9039 C37.4792338,9.1031 37.4533338,9.309 37.4575338,9.5139 C37.5336338,9.5831 37.6050338,9.6574 37.6709338,9.7371 C37.8903338,10.003 38.0421338,10.3194 38.1388338,10.6495 C38.1512338,10.657 38.1635338,10.6646 38.1758338,10.6725 C38.1870338,10.4792 38.2196338,10.2869 38.2685338,10.1001 C38.2871338,10.029 38.3342338,9.8802 38.3342338,9.8802 Z M36.2571338,9.2091 C36.2671338,9.2786 36.2792338,9.3477 36.2941338,9.4164 C36.3079338,9.4807 36.3239338,9.5446 36.3422338,9.6078 C36.4302338,9.9125 36.5701338,10.2066 36.7781338,10.4481 C36.8362338,10.5157 36.8993338,10.5786 36.9662338,10.6372 C36.9571338,10.5746 36.9500338,10.5119 36.9452338,10.449 L36.9334338,10.2288 L36.9585338,10.2331 C36.8672338,10.0981 36.7807338,9.9588 36.7057338,9.8091 L36.7068338,9.8081 C36.8640338,9.9074 37.0072338,10.0194 37.1454338,10.136 C37.2136338,10.193 37.2798338,10.2514 37.3447338,10.3111 C37.3515338,10.313 37.3582338,10.3149 37.3650338,10.3167 C37.4590338,10.3431 37.5518338,10.3737 37.6430338,10.4084 C37.6737338,10.42 37.7043338,10.4323 37.7348338,10.4449 C37.6448338,10.2339 37.5250338,10.036 37.3697338,9.8664 C37.1670338,9.6452 36.9119338,9.4763 36.6402338,9.3516 C36.5802338,9.3241 36.5194338,9.2987 36.4578338,9.2754 C36.3922338,9.2505 36.3257338,9.2282 36.2585338,9.208 L36.2568338,9.2075 L36.2571338,9.2091 Z M12.0307338,10.3849 L12.0383338,10.3847 C12.1931338,10.3242 12.3433338,10.2519 12.4860338,10.1666 C12.7836338,9.9888 13.0448338,9.755 13.2684338,9.4912 C13.3835338,9.3553 13.4890338,9.2115 13.5853338,9.0617 C13.7103338,8.8673 13.8198338,8.663 13.9133338,8.4517 L13.9170338,8.4433 C13.8656338,8.4411 13.8143338,8.4402 13.7629338,8.4398 C13.7296338,8.4398 13.7297338,8.4398 13.6964338,8.4401 C13.6147338,8.4413 13.5331338,8.4442 13.4516338,8.4496 C13.3530338,8.456 13.2546338,8.4657 13.1566338,8.4787 C12.9929338,8.9252 12.7558338,9.3467 12.4313338,9.6961 C12.1295338,10.0212 11.7608338,10.2782 11.3641338,10.4747 L11.3811338,10.4712 C11.4784338,10.451 11.5763338,10.4338 11.6747338,10.4198 C11.7885338,10.4034 11.9029338,10.3912 12.0177338,10.3854 L12.0307338,10.3849 Z M11.1768338,10.2188 C11.2883338,10.1654 11.3973338,10.1069 11.5033338,10.0433 C11.7598338,9.889 11.9985338,9.7033 12.2024338,9.4837 C12.4382338,9.2298 12.6235338,8.9322 12.7642338,8.6163 C12.8366338,8.4536 12.8975338,8.2859 12.9480338,8.1152 C13.0136338,7.8935 13.0614338,7.6668 13.0920338,7.4377 L13.0932338,7.4287 C13.0902338,7.4295 13.0873338,7.4302 13.0843338,7.4309 C12.8675338,7.4859 12.6548338,7.5566 12.4485338,7.6433 C12.2853338,7.7118 12.1262338,7.7902 11.9732338,7.8793 C11.6834338,8.0481 11.4149338,8.2563 11.1914338,8.5071 C10.9736338,8.7517 10.8010338,9.0339 10.6680338,9.3325 C10.6231338,9.4332 10.5826338,9.5359 10.5463338,9.64 C10.5740338,9.6268 10.6018338,9.6138 10.6298338,9.6011 C10.7345338,9.5536 10.8409338,9.5097 10.9495338,9.4721 L10.9618338,9.4679 L11.0418338,9.4419 C11.2194338,9.2493 11.3995338,9.0587 11.5872338,8.8747 C11.7798338,8.6844 11.9777338,8.4984 12.1899338,8.3248 L12.1910338,8.3257 C12.0549338,8.5638 11.9042338,8.7896 11.7483338,9.011 C11.5933338,9.2332 11.4302338,9.4484 11.2645338,9.6616 C11.2369338,9.6964 11.2093338,9.7311 11.1815338,9.7658 C11.1838338,9.8197 11.1847338,9.8737 11.1849338,9.9276 C11.1853338,10.0248 11.1825338,10.1219 11.1768338,10.2188 Z M36.0931338,9.8543 C35.8123338,9.701 35.5553338,9.5023 35.3531338,9.2539 C35.2655338,9.1462 35.1891338,9.0303 35.1230338,8.9086 C35.0664338,8.8983 35.0094338,8.89 34.9522338,8.8839 C34.8723338,8.8752 34.7922338,8.8709 34.7118338,8.8692 C34.6814338,8.8689 34.6815338,8.8689 34.6511338,8.8689 C34.5941338,8.8695 34.5371338,8.8714 34.4803338,8.8752 C34.4014338,8.8803 34.3228338,8.8889 34.2445338,8.9003 L34.2428338,8.9005 C34.3062338,8.9987 34.3763338,9.0928 34.4513338,9.1824 C34.6792338,9.4545 34.9607338,9.6895 35.2908338,9.8262 C35.4856338,9.9069 35.6930338,9.9531 35.9028338,9.9728 C35.9146338,9.9727 35.9262338,9.9726 35.9379338,9.9727 C36.0055338,9.9732 36.0731338,9.9757 36.1405338,9.9807 C36.1237338,9.939 36.1079338,9.8969 36.0931338,9.8543 Z M12.0599338,7.4779 C12.0675338,7.217 12.0506338,6.9553 12.0126338,6.6975 L12.0086338,6.6714 L12.0072338,6.6625 C12.0045338,6.664 12.0019338,6.6655 11.9993338,6.6671 C11.8067338,6.7808 11.6226338,6.9086 11.4491338,7.0498 C11.3118338,7.1616 11.1812338,7.2816 11.0596338,7.4102 C10.8225338,7.6607 10.6190338,7.9449 10.4743338,8.2588 C10.3377338,8.5551 10.2545338,8.8743 10.2134338,9.1975 C10.1898338,9.3825 10.1796338,9.5694 10.1815338,9.7559 L10.1825338,9.7525 C10.1901338,9.7266 10.1980338,9.7006 10.2061338,9.6746 C10.3694338,9.1531 10.6272338,8.655 11.0009338,8.2525 C11.3007338,7.9297 11.6659338,7.6741 12.0599338,7.4779 Z M36.4998338,8.9583 C36.4224338,8.7902 36.3243338,8.632 36.2028338,8.4915 C36.0063338,8.2648 35.7558338,8.0891 35.4877338,7.9568 C35.4287338,7.9277 35.3686338,7.9006 35.3076338,7.8756 C35.2427338,7.8489 35.1767338,7.8248 35.1101338,7.8027 L35.1085338,7.8022 C35.1085338,7.8027 35.1086338,7.8033 35.1086338,7.8038 C35.1167338,7.8736 35.1270338,7.9431 35.1399338,8.012 C35.1520338,8.0768 35.1663338,8.1411 35.1828338,8.2048 C35.2623338,8.5119 35.3942338,8.8096 35.5954338,9.0569 C35.7051338,9.1916 35.8336338,9.3092 35.9740338,9.411 C35.9520338,9.2976 35.9362338,9.1829 35.9278338,9.0677 L35.9278338,9.067 C35.8878338,9.0096 35.8487338,8.9515 35.8108338,8.8923 C35.7125338,8.7405 35.6193338,8.5844 35.5406338,8.416 L35.5417338,8.415 C35.6961338,8.5186 35.8363338,8.6345 35.9712338,8.755 C36.0034338,8.7834 36.0351338,8.8122 36.0665338,8.8413 C36.0665338,8.8413 36.0529338,8.8388 36.1204338,8.8514 C36.1970338,8.8668 36.2727338,8.8864 36.3477338,8.9087 C36.3987338,8.924 36.4496338,8.9406 36.4998338,8.9583 Z M37.0955338,9.242 C37.1736338,8.9296 37.1981338,8.6008 37.1336338,8.284 C37.0739338,7.99 36.9420338,7.7139 36.7732338,7.4672 C36.7361338,7.4128 36.6970338,7.3598 36.6562338,7.3081 C36.6127338,7.253 36.5671338,7.1996 36.5199338,7.1476 L36.5188338,7.1464 C36.5185338,7.1469 36.5183338,7.1474 36.5180338,7.1479 C36.4909338,7.2127 36.4657338,7.2781 36.4431338,7.3447 C36.4219338,7.407 36.4027338,7.4699 36.3859338,7.5336 C36.3333338,7.7314 36.3017338,7.9366 36.3003338,8.1416 C36.3003338,8.1416 36.4451338,8.2909 36.5073338,8.3705 C36.6845338,8.5976 36.8135338,8.8584 36.9021338,9.1322 C36.9680338,9.1662 37.0326338,9.2028 37.0955338,9.242 Z M34.9276338,8.4463 C34.6687338,8.3201 34.4285338,8.155 34.2294338,7.9462 C34.1350338,7.8473 34.0511338,7.7396 33.9767338,7.6258 L33.9729338,7.62 L33.9699338,7.6198 C33.9026338,7.6129 33.8351338,7.6093 33.7674338,7.608 C33.7511338,7.6078 33.7347338,7.6078 33.7182338,7.6078 C33.5089338,7.6091 33.3005338,7.6345 33.0963338,7.6806 L33.0946338,7.681 C33.1655338,7.7739 33.2428338,7.8623 33.3246338,7.9457 C33.5732338,8.1991 33.8722338,8.4111 34.2120338,8.5216 C34.2697338,8.5404 34.3282338,8.5562 34.3872338,8.5692 C34.4634338,8.5627 34.5399338,8.5588 34.6162338,8.5571 C34.6497338,8.5567 34.6832338,8.5567 34.7166338,8.5571 C34.8016338,8.5588 34.8864338,8.5633 34.9708338,8.572 C34.9567338,8.534 34.9435338,8.4957 34.9310338,8.4572 L34.9276338,8.4463 Z M35.3455338,7.555 C35.2557338,7.396 35.1469338,7.2483 35.0166338,7.1198 C34.8028338,6.909 34.5394338,6.7534 34.2617338,6.6426 C34.2005338,6.6183 34.1385338,6.596 34.0758338,6.5758 C34.0089338,6.5543 33.9413338,6.5355 33.8731338,6.5186 L33.8715338,6.5182 C33.8716338,6.5187 33.8717338,6.5194 33.8719338,6.5198 C33.8853338,6.5888 33.9010338,6.6571 33.9193338,6.7249 C33.9364338,6.7885 33.9557338,6.8515 33.9772338,6.9137 C34.0806338,7.2135 34.2355338,7.5 34.4555338,7.7308 C34.5660338,7.8467 34.6913338,7.9468 34.8262338,8.0327 L34.8247338,8.0246 C34.8072338,7.9242 34.7945338,7.8229 34.7873338,7.7213 L34.7870338,7.7142 C34.7428338,7.6604 34.6994338,7.6058 34.6572338,7.55 C34.5473338,7.4063 34.4423338,7.258 34.3505338,7.0962 L34.3515338,7.0952 C34.5137338,7.1863 34.6624338,7.291 34.8063338,7.4005 L34.8140338,7.4062 L34.9820338,7.4426 C35.0582338,7.46 35.1332338,7.4818 35.2074338,7.5061 C35.2539338,7.5214 35.2999338,7.5376 35.3455338,7.555 Z M35.9533338,7.8648 C36.0185338,7.5269 36.0237338,7.1725 35.9283338,6.8399 C35.8456338,6.5514 35.6925338,6.2866 35.5050338,6.0538 C35.4636338,6.0025 35.4205338,5.9527 35.3758338,5.9043 C35.3281338,5.8528 35.2785338,5.8032 35.2273338,5.755 L35.2262338,5.7538 C35.2259338,5.7545 35.2258338,5.755 35.2255338,5.7555 C35.2036338,5.8222 35.1836338,5.8895 35.1662338,5.9575 C35.1500338,6.0212 35.1359338,6.0857 35.1240338,6.1503 C35.0871338,6.3516 35.0717338,6.5587 35.0864338,6.7632 C35.1658338,6.8284 35.2410338,6.899 35.3107338,6.9753 C35.5195338,7.2034 35.6759338,7.4748 35.7877338,7.7626 C35.8440338,7.7947 35.8993338,7.8288 35.9533338,7.8648 Z M13.4244338,7.2435 C13.4184338,7.3518 13.4054338,7.4597 13.3892338,7.5668 C13.3828338,7.609 13.3759338,7.6511 13.3683338,7.6931 C13.4889338,7.598 13.5991338,7.4903 13.6942338,7.3689 C13.8798338,7.132 14.0048338,6.8519 14.0836338,6.5627 C14.1009338,6.499 14.1160338,6.4346 14.1289338,6.3699 C14.1428338,6.3008 14.1538338,6.2313 14.1629338,6.1614 L14.1631338,6.1592 C14.1624338,6.1594 14.1616338,6.1596 14.1609338,6.1598 C14.0938338,6.1812 14.0274338,6.2047 13.9619338,6.2305 C13.9005338,6.2549 13.8399338,6.2813 13.7803338,6.3098 C13.4932338,6.4469 13.2254338,6.6339 13.0205338,6.8792 C12.9422338,6.9731 12.8740338,7.0745 12.8149338,7.1811 L12.8244338,7.1783 C12.9501338,7.1411 13.0773338,7.1091 13.2061338,7.0843 L13.2650338,7.0742 C13.3915338,6.9527 13.5233338,6.8354 13.6690338,6.7291 L13.6701338,6.73 C13.5999338,6.8963 13.5158338,7.0518 13.4263338,7.2029 L13.4244338,7.2435 Z" id="Shape"></path>
                </g>
            </g>
        </g>
    </g>
</svg>