<?xml version="1.0" encoding="UTF-8"?>
<svg width="48px" height="48px" viewBox="0 0 48 48" version="1.1" xmlns="http://www.w3.org/2000/svg" xmlns:xlink="http://www.w3.org/1999/xlink">
    <!-- Generator: Sketch 56 (81588) - https://sketch.com -->
    <title>Bank/Mono/Tosee</title>
    <desc>Created with Sketch.</desc>
    <g id="Ready-For-Export" stroke="none" stroke-width="1" fill="none" fill-rule="evenodd">
        <g id="Artboard" transform="translate(-4136.000000, -184.000000)" fill="#FFFFFF">
            <g id="Banks_(Mono)" transform="translate(80.000000, 184.000000)">
                <g id="Bank-/-Tosee-/-Mono" transform="translate(4056.000000, 0.000000)">
                    <path d="M36.0673723,28.1378196 C29.4949627,28.1378196 24.1344048,22.798763 24.1344048,16.2527155 C24.1344048,9.70700637 29.4949627,4.36794978 36.0673723,4.36794978 C42.6394421,4.36794978 48,9.70700637 48,16.2527155 C48,22.798763 42.6394421,28.1378196 36.0673723,28.1378196 Z M35.9895501,19.8533801 L35.9895501,12.9180898 L21.5458813,2 L7.10221247,12.9180898 L7.10221247,19.8533801 L21.5458813,8.93529032 L35.9895501,19.8533801 Z M0,46 L43.0914227,46 L43.0914227,20.0493554 L36.0765478,20.0493554 L36.0765478,39.1137881 L7.01487486,39.1137881 L7.01487486,20.0493554 L0,20.0493554 L0,46 L0,46 Z" id="Shape"></path>
                </g>
            </g>
        </g>
    </g>
</svg>