<?xml version="1.0" encoding="UTF-8"?>
<svg width="48px" height="48px" viewBox="0 0 48 48" version="1.1" xmlns="http://www.w3.org/2000/svg" xmlns:xlink="http://www.w3.org/1999/xlink">
    <!-- Generator: Sketch 56 (81588) - https://sketch.com -->
    <title>Bank/Color/Caspian</title>
    <desc>Created with Sketch.</desc>
    <g id="Ready-For-Export" stroke="none" stroke-width="1" fill="none" fill-rule="evenodd">
        <g id="Artboard" transform="translate(-392.000000, -80.000000)">
            <g id="Banks_(Color)" transform="translate(80.000000, 80.000000)">
                <g id="Bank-/-Caspian-/-Color" transform="translate(312.000000, 0.000000)">
                    <path d="M31.5111,18.3721 L31.1885,18.3721 C31.1185,18.8406 30.8743,19.3199 30.4558,19.81 C30.3158,19.81 30.1482,19.7783 29.9532,19.715 C29.7648,19.655 29.6098,19.5841 29.4881,19.5024 C29.8832,19.3424 30.1866,19.174 30.3983,18.9973 C30.5883,18.8389 30.7517,18.6305 30.8884,18.3721 C30.3383,18.3721 29.979,18.2938 29.8106,18.1371 C29.8106,17.762 29.8915,17.4444 30.0532,17.1843 C30.1616,17.0109 30.2858,16.8859 30.4258,16.8092 C30.5909,16.8092 30.7409,16.8751 30.8759,17.0068 C31.0393,17.1651 31.1435,17.3919 31.1885,17.6869 L31.5836,17.6869 C31.647,17.6869 31.7436,17.5702 31.8737,17.3369 C32.0354,17.0468 32.1663,16.8509 32.2663,16.7492 C32.603,16.7492 32.8448,16.8309 32.9915,16.9943 C33.1282,17.1493 33.1965,17.3977 33.1965,17.7395 C33.0498,18.0979 32.8981,18.3346 32.7414,18.4496 C32.4663,18.4496 32.1921,18.3146 31.9187,18.0445 C31.7987,18.2629 31.6628,18.3721 31.5111,18.3721 L31.5111,18.3721 Z M12.9182,16.4301 L12.6053,17.1083 C12.5071,17.0727 12.4148,17.0549 12.3286,17.0549 C12.039,17.0549 11.8063,17.2607 11.6305,17.6722 C11.6391,17.7331 11.7365,17.7899 11.9227,17.8423 L12.4295,17.9846 C12.6105,18.054 12.701,18.1395 12.701,18.2411 C12.701,18.4799 12.6277,18.7932 12.4812,19.1809 C11.8503,19.5501 11.2029,19.7347 10.5392,19.7347 C10.2324,19.7347 9.991,19.6661 9.8152,19.5289 C9.6239,19.3782 9.5282,19.1555 9.5282,18.8609 C9.5282,18.6729 9.5747,18.446 9.6678,18.1802 C9.7454,17.9566 9.8359,17.7594 9.9393,17.5883 C10.0272,17.5816 10.0919,17.6121 10.1333,17.6798 C9.9954,17.9321 9.9264,18.1819 9.9264,18.4291 C9.9264,18.8389 10.1996,19.0438 10.7461,19.0438 C10.9719,19.0438 11.2529,19.0048 11.5891,18.9269 C11.9511,18.8423 12.2183,18.7466 12.3907,18.6399 C12.2459,18.54 12.0252,18.4579 11.7287,18.3935 C11.4874,18.341 11.3288,18.2589 11.2529,18.1472 C11.2529,18.0557 11.2883,17.8864 11.359,17.6391 C11.6055,16.7755 11.9908,16.3437 12.5148,16.3437 C12.6424,16.3437 12.7769,16.3725 12.9182,16.4301 Z M14.3685,18.1898 C14.3685,18.393 14.278,18.6707 14.0969,19.0229 C13.9228,19.3616 13.7444,19.6207 13.5617,19.8002 C13.4427,19.8002 13.2833,19.7595 13.0833,19.6783 C12.8833,19.597 12.7402,19.5149 12.654,19.4319 C12.9661,19.2913 13.2445,19.1279 13.4893,18.9416 C13.7772,18.7232 13.9478,18.5259 14.0013,18.3498 C13.9237,18.1382 13.7642,17.9527 13.5229,17.7936 L13.8797,17.1154 C14.0073,17.2237 14.1206,17.388 14.2198,17.6081 C14.3189,17.8283 14.3685,18.0222 14.3685,18.1898 Z M16.3717,19.186 L15.9554,19.5721 L15.5468,19.1708 L15.9709,18.7898 L16.3717,19.186 Z M18.0706,18.3707 C17.931,18.3707 17.8008,18.3106 17.6801,18.1903 C17.5681,18.0786 17.4983,17.9524 17.4707,17.8119 C17.45,17.9423 17.3767,18.0667 17.2509,18.1853 C17.1199,18.3089 16.9889,18.3707 16.8578,18.3707 L16.651,18.3707 C16.5113,18.3707 16.3812,18.3106 16.2605,18.1903 C16.1485,18.0786 16.0786,17.9524 16.0511,17.8119 C16.0304,17.9423 15.9571,18.0667 15.8313,18.1853 C15.7002,18.3089 15.5692,18.3707 15.4382,18.3707 L15.3632,18.3707 C15.034,18.3707 14.8193,18.2369 14.7194,17.9693 C14.6521,17.7882 14.6073,17.3843 14.5849,16.7578 C14.5745,16.4479 14.5616,16.2328 14.5461,16.1126 C14.5168,15.8789 14.4616,15.6715 14.3806,15.4903 L14.8538,15.0026 C14.9331,15.1262 14.9822,15.3167 15.0012,15.5741 C15.0081,15.6672 15.0116,15.8645 15.0116,16.1659 L15.0116,16.9152 C15.0116,17.1388 15.0279,17.3013 15.0607,17.4029 C15.1193,17.5841 15.2365,17.6747 15.4124,17.6747 C15.5865,17.6747 15.7235,17.5985 15.8235,17.4461 C15.9045,17.3225 15.945,17.1828 15.945,17.027 L16.1648,17.027 C16.1648,17.2082 16.2036,17.3564 16.2812,17.4715 C16.3708,17.607 16.5036,17.6747 16.6794,17.6747 L16.832,17.6747 C17.0061,17.6747 17.1431,17.5985 17.2431,17.4461 C17.3242,17.3225 17.3647,17.1828 17.3647,17.027 L17.5845,17.027 C17.5845,17.2082 17.6232,17.3564 17.7008,17.4715 C17.7905,17.607 17.9232,17.6747 18.099,17.6747 L18.2904,17.6747 C18.3369,17.6747 18.4326,17.6671 18.5774,17.6518 C18.3706,17.5282 18.2671,17.3504 18.2671,17.1184 C18.2671,16.8848 18.3947,16.657 18.6498,16.4352 C18.8843,16.2303 19.0946,16.1278 19.2808,16.1278 C19.5756,16.1278 19.8169,16.2853 20.0048,16.6003 C20.0358,16.6528 20.0384,16.679 20.0126,16.679 C19.9988,16.679 19.9755,16.6731 19.9427,16.6612 C19.8428,16.6257 19.7186,16.6079 19.5704,16.6079 C19.2549,16.6079 19.0032,16.6782 18.8153,16.8187 C18.8515,17.1489 19.0455,17.3877 19.3971,17.535 L20.372,17.2861 L20.072,17.9262 C19.7324,18.0007 19.2825,18.1074 18.7222,18.2462 C18.3861,18.3292 18.1689,18.3707 18.0706,18.3707 Z M18.1508,16.0262 L17.7939,16.3767 L17.4319,16.0643 L17.1009,16.392 L16.7208,16.0643 L17.0776,15.7062 L17.4397,16.0237 L17.7706,15.6909 L18.1508,16.0262 Z M20.8655,15 C20.9103,15.2168 20.9327,15.5275 20.9327,15.9322 C20.9327,16.5994 20.8707,17.3301 20.7465,18.1243 L20.4854,18.5104 L20.4828,17.5553 C20.4828,16.668 20.4061,15.9907 20.2526,15.5233 L20.8655,15 Z M26.462,18.3721 L26.3293,18.3721 C26.1893,18.3721 26.0626,18.3121 25.9492,18.1921 C25.8459,18.0804 25.7817,17.952 25.7567,17.807 C25.7283,17.9487 25.6625,18.0737 25.5591,18.1821 C25.4374,18.3088 25.2932,18.3721 25.1265,18.3721 C24.8598,18.3721 24.6897,18.2037 24.6164,17.867 C24.4797,18.2021 24.2913,18.3696 24.0512,18.3696 C23.9095,18.3696 23.7887,18.3121 23.6886,18.1971 C23.6153,18.1121 23.5628,18.0112 23.5311,17.8945 C23.3944,18.2129 23.196,18.3721 22.9359,18.3721 L22.8034,18.3721 C22.5133,18.3721 22.3157,18.1304 22.2107,17.6469 C22.1574,17.8436 22.0823,18.0087 21.9857,18.1421 C21.4605,18.1421 21.1129,18.0245 20.9429,17.7895 C21.0112,17.5344 21.0713,17.3344 21.1229,17.1893 C21.3263,17.0076 21.6181,16.8459 21.9982,16.7042 C21.9848,16.6408 21.9565,16.5508 21.9131,16.4341 L22.2107,15.989 C22.2991,16.1174 22.3658,16.3374 22.4108,16.6492 C22.4708,17.0626 22.5091,17.2985 22.5258,17.3569 C22.5891,17.5769 22.6942,17.6869 22.8409,17.6869 L22.8809,17.6869 L22.8809,17.6894 L22.9785,17.6894 C23.1318,17.6894 23.2527,17.6169 23.341,17.4719 C23.4144,17.3519 23.4511,17.2193 23.4511,17.0743 L23.6761,17.0743 C23.6761,17.4844 23.8087,17.6894 24.0737,17.6894 C24.2505,17.6894 24.3797,17.6094 24.4613,17.4494 C24.518,17.3394 24.5464,17.2143 24.5464,17.0743 L24.7714,17.0743 C24.7714,17.2643 24.7898,17.4027 24.8264,17.4894 C24.8831,17.6244 24.9923,17.6919 25.154,17.6919 C25.3374,17.6919 25.4749,17.6111 25.5666,17.4494 C25.6316,17.3344 25.6642,17.2077 25.6642,17.0693 L25.8892,17.0693 C25.8892,17.4844 26.0334,17.6919 26.3218,17.6919 L26.3968,17.6919 L26.257,17.6869 L26.5096,17.6869 C26.6779,17.6869 26.8021,17.6044 26.8821,17.4394 C26.9372,17.326 26.9647,17.2035 26.9647,17.0718 L27.1872,17.0718 C27.1872,17.4836 27.3406,17.6894 27.6473,17.6894 C27.8507,17.6894 27.9974,17.6103 28.0875,17.4519 C28.1491,17.3435 28.18,17.2168 28.18,17.0718 L28.405,17.0718 C28.405,17.4819 28.5392,17.6869 28.8076,17.6869 C29.006,17.6869 29.1644,17.6361 29.2828,17.5344 C29.2828,17.4894 29.1761,17.3127 28.9627,17.0043 L29.3478,16.4991 C29.4078,16.5625 29.4678,16.6683 29.5278,16.8167 C29.5945,16.9801 29.6279,17.1168 29.6279,17.2268 C29.6279,17.2902 29.5987,17.411 29.5403,17.5894 C29.5137,17.6711 29.4678,17.7911 29.4028,17.9495 C29.3445,18.0645 29.2586,18.1621 29.1452,18.2421 C29.0235,18.3288 28.9018,18.3721 28.7801,18.3721 C28.6484,18.3721 28.5326,18.3188 28.4326,18.2121 C28.3375,18.1137 28.2792,17.997 28.2575,17.862 C28.1641,18.2021 27.9574,18.3721 27.6373,18.3721 C27.4023,18.3721 27.2172,18.2029 27.0822,17.8645 C26.9105,18.2029 26.7038,18.3721 26.462,18.3721 Z M22.1882,17.5494 L22.0782,16.9943 C21.8214,17.0493 21.5814,17.1776 21.358,17.3794 C21.4564,17.5011 21.6606,17.5619 21.9707,17.5619 C22.049,17.5619 22.1215,17.5577 22.1882,17.5494 Z M30.8384,17.777 C30.7917,17.6753 30.7301,17.5836 30.6534,17.5019 C30.5583,17.4002 30.465,17.3494 30.3733,17.3494 C30.3266,17.3494 30.2758,17.391 30.2208,17.4744 C30.1741,17.5444 30.1449,17.6078 30.1332,17.6644 C30.1516,17.7195 30.2174,17.7628 30.3308,17.7945 C30.4141,17.8178 30.4967,17.8295 30.5783,17.8295 C30.6834,17.8295 30.7701,17.812 30.8384,17.777 Z M32.8164,17.9495 C32.8198,17.9162 32.8214,17.8845 32.8214,17.8545 C32.8214,17.5394 32.6531,17.346 32.3163,17.2743 C32.2213,17.3394 32.1563,17.436 32.1212,17.5644 C32.2513,17.7445 32.483,17.8728 32.8164,17.9495 Z" id="Shape" fill="#313C4C"></path>
                    <path d="M16.5318,30.7284 L14.9642,30.7284 C14.341,30.7284 13.8358,30.2232 13.8358,29.6 C13.8358,29.5996 13.8358,29.5991 13.8358,29.5987 C13.8358,29.4741 13.9368,29.373 14.0614,29.373 C14.7471,29.373 16.8025,29.373 17.5187,29.373 C17.6565,29.373 17.7681001,29.4847 17.7681001,29.6224 C17.7681001,29.8662 17.7681001,31.9659 17.7681001,31.9659 C17.7682,32.0912 17.6666,32.1927 17.5413,32.1928 C17.5407,32.1928 17.54,32.1928 17.5394,32.1928 C16.9829,32.1927 16.5318,31.7417 16.5318,31.1852 L16.5318,30.7284 Z M27.5172,25.9632 C27.4778,27.0251 28.1239,27.4597 28.7263,27.1192 C29.2729,26.8103 29.8243,24.9408 30.2496,23.3514 C30.4436,22.6261 30.6177,21.9593 30.7302,21.5252 C30.8079,21.2245 31.0792,21.0142999 31.3898,21.0142999 C31.7834,21.0142999 32.3162,21.0142999 32.6951,21.0142999 C32.8046,21.0142999 32.9075,21.0667 32.9719,21.1553 C33.0362,21.2438 33.0543,21.3579 33.0204,21.462 C32.6663,22.5446 31.7294,25.34 30.9522,27.0339 C30.3186,28.415 29.549,28.6332 28.6072,28.6182 C28.5276,28.6169 27.9283,28.5634 27.6137,28.1303 C27.299,27.6972 27.1175,27.0536 27.283,26.5444 C27.2897,26.5236 27.2965,26.5026 27.3031,26.4815 C27.2209,26.6751 27.1396,26.8603 27.06,27.0339 C26.4263,28.415 25.6568,28.6332 24.715,28.6182 C24.6353,28.6169 24.0361,28.5634 23.7214,28.1303 C23.4855,27.8056 23.3245,27.3626 23.3283,26.9467 C23.3141,26.9761 23.2998,27.0052 23.2856,27.0339 C22.7174,28.1817 21.8824,28.6332 20.9406,28.6182 C20.861,28.6169 19.9582,28.7183 19.2989,28.1064 C18.9154,27.7506 18.5732,26.9135 18.4941,26.301 C18.3862,26.5606 18.2792,26.8071 18.1752,27.0339 C17.5415,28.415 16.772,28.6332 15.8302,28.6182 C15.7505,28.6169 15.1932,28.5297 14.8366,28.1303 C14.5219,27.7779 14.3282,27.1597 14.2599,26.6124 C14.1968,26.7589 14.1343,26.8998 14.0728,27.0339 C13.4391,28.415 12.6696,28.6332 11.7278,28.6182 C11.6481,28.6169 11.0908,28.5297 10.7342,28.1303 C10.365,27.7168 10.1623,26.9376 10.1334,26.3362 C10.0297,26.5846 9.927,26.8208 9.827,27.0387 C9.1934,28.4198 8.6952,29.3072 7.1906,30.3425 C3.8908,32.6127 0.363,30.9192 0.0233,27.9478 C-0.1576,26.3648 0.7294,24.095 2.1838,22.1465 C2.4628,21.7727 3.3735,21.9886 3.3735,21.9886 C3.2591,22.8549 0.0756,25.8107 1.3734,28.7038 C1.7764,29.6022 3.7232,29.821 5.1644,29.1864 C6.0483,28.7971 6.8263,28.0185 7.4011,27.0717 C7.7662,26.4702 8.4955,24.9456 8.9207,23.3562 C9.1147,22.631 9.2888,21.9642 9.4013,21.5301 C9.479,21.2293 9.7503,21.0192 10.0609,21.0192 C10.5073,21.0192 11.1409,21.0192 11.5699,21.0192 C11.6794,21.0191 11.7823,21.0715 11.8467,21.1601 C11.9111,21.2487 11.9291,21.3628 11.8952,21.4669 C11.6463,22.2279 11.1093,23.8355 10.5423,25.3117 C10.422,26.8819 11.2102,27.479 11.8469,27.1192 C12.3934,26.8103 12.9449,24.9408 13.3701,23.3514 C13.5641,22.6261 13.7382,21.9593 13.8507,21.5252 C13.9285,21.2245 14.1997,21.0142999 14.5104,21.0142999 C14.904,21.0142999 15.4367,21.0142999 15.8157,21.0142999 C15.9252,21.0142999 16.0281,21.0667 16.0924,21.1553 C16.1568,21.2438 16.1748,21.3579 16.1409,21.462 C15.8694,22.292 15.2554,24.1288 14.6334,25.7041 C14.6622,26.9797 15.3687,27.4473 15.9493,27.1192 C16.4958,26.8103 17.0473,24.9408 17.4725,23.3514 C17.6666,22.6261 17.8407,21.9593 17.9532,21.5252 C18.0309,21.2245 18.3022,21.0142999 18.6128,21.0142999 C19.0064,21.0142999 19.5392,21.0142999 19.9181,21.0142999 C20.0276,21.0142999 20.1305,21.0667 20.1949,21.1553 C20.2592,21.2438 20.2773,21.3579 20.2434,21.462 C19.9865,22.2472 19.4232,23.9333 18.8365,25.4467 C18.8107,26.5819 19.4681,27.4568 20.8267,27.0965 C21.6171,26.8868 22.1577,24.9408 22.583,23.3514 C22.777,22.6261 22.9511,21.9593 23.0636,21.5252 C23.1413,21.2245 23.4126,21.0142999 23.7232,21.0142999 C24.1194,21.0142999 24.6565,21.0142999 25.0358,21.0142999 C25.1446,21.0142999 25.2469,21.0657 25.3114,21.1532 C25.376,21.2406 25.3951,21.3536 25.3629,21.4574 C25.0715,22.3903 24.3565,24.6091 23.6344,26.2766 C23.7206,27.1077 24.2949,27.4239 24.8341,27.1192 C25.3806,26.8103 25.9321,24.9408 26.3573,23.3514 C26.5514,22.6261 26.7255,21.9593 26.838,21.5252 C26.9157,21.2245 27.187,21.0142999 27.4976,21.0142999 C27.8912,21.0142999 28.424,21.0142999 28.8029,21.0142999 C28.9124,21.0142999 29.0153,21.0667 29.0796,21.1553 C29.144,21.2438 29.162,21.3579 29.1281,21.462 C28.8416,22.338 28.1735,24.3354 27.5172,25.9632 Z M13.3254,29.6224 C13.3254,29.4847 13.2138,29.373 13.076,29.373 C12.323,29.373 10.0797,29.373 9.359,29.373 C9.2991,29.373 9.2417,29.3968 9.1994,29.4391 C9.157,29.4815 9.1333,29.5389 9.1333,29.5987 C9.1333,29.5991 9.1333,29.5996 9.1333,29.6 C9.1333,30.2232 9.6385,30.7284 10.2617,30.7284 C11.224,30.7284 12.5348,30.7284 13.076,30.7284 C13.2138,30.7284 13.3254,30.6168 13.3254,30.4791 C13.3254,30.2353 13.3254,29.8662 13.3254,29.6224 Z M46.7659,18.1165 C47.0477,18.1909 47.3464,18.0866 47.5207,17.853 C47.7978,17.4219 47.9441,16.8927 47.9984,16.2708 C48.0082,16.1644 47.9733,16.0586 47.9021,15.9789 C47.831,15.8991 47.7299,15.8525 47.623,15.8501 C46.7684,15.8311 44.7366,15.8361 43.5197,16.2245 C41.9182,16.7357 39.8148,17.5101 38.4119,18.9278 C37.527,19.822 36.8579,20.8229 36.3224,21.9467 C36.2601,22.0804 36.2733,22.2371 36.3571,22.3585 C36.4409,22.4799 36.5828,22.5478 36.7299,22.5368 C38.0753,22.3831 40.938,22.27 41.6051,23.7526 C41.9153,24.4421 40.4529,26.6829 37.6971,26.731 C35.649,26.7668 34.7408,24.9436 35.0183,23.1047 C35.3071,21.1902 36.9836,18.4543 39.0691,16.0118 C39.1219,15.9507 39.1347,15.8646 39.1019,15.7908 C39.0691,15.7169 38.9966,15.6687 38.9158,15.667 C38.4698,15.6573 37.7742,15.6425 37.2434,15.6312 C36.7758,15.6209 36.3384,15.8611 36.096,16.261 C34.9041,18.2114 34.3106,19.4409 33.7632,21.0777 C33.1489,22.9146 32.6151,24.7505 33.2168,26.6355 C33.8085,28.4893 36.0252,28.713 36.3663,28.7097355 C37.649,28.6969 39.9637,28.2398 41.4567,25.8887 C42.5574,24.1552 43.5903,20.333 38.2419,20.893 C39.0622,19.7127 40.4697,18.6658 42.453,18.2969 C44.207,17.9706 45.872,17.9673 46.7659,18.1165 Z M7.8558,21.6761 C7.9178,21.5057 7.8928,21.3158 7.7888,21.1673 C7.6848,21.0188 7.5149,20.9303 7.3336,20.9303 C7.0893,20.9303 6.8161,20.9303 6.5561,20.9303 C5.9093,20.9303 5.3316,21.3349 5.1104,21.9427 C5.0245,22.1786 4.9322,22.4322 4.8436,22.6758 C4.7427,22.953 4.7834,23.2621 4.9526,23.5037 C5.1218,23.7454 5.3983,23.8893 5.6933,23.8893 C5.8066,23.8893 5.9202,23.8893 6.0309,23.8893 C6.643,23.8893 7.1897,23.5064 7.399,22.9313 C7.5472,22.5242 7.7173,22.0567 7.8558,21.6761 Z" id="Shape" fill="#FDB816"></path>
                </g>
            </g>
        </g>
    </g>
</svg>