<?xml version="1.0" encoding="UTF-8"?>
<svg width="48px" height="48px" viewBox="0 0 48 48" version="1.1" xmlns="http://www.w3.org/2000/svg" xmlns:xlink="http://www.w3.org/1999/xlink">
    <!-- Generator: Sketch 56 (81588) - https://sketch.com -->
    <title>Bank/Color/Iran_Venezuela</title>
    <desc>Created with Sketch.</desc>
    <g id="Ready-For-Export" stroke="none" stroke-width="1" fill="none" fill-rule="evenodd">
        <g id="Artboard" transform="translate(-1224.000000, -80.000000)">
            <g id="Banks_(Color)" transform="translate(80.000000, 80.000000)">
                <g id="Bank-/-Iran-Venezuela-/-Color" transform="translate(1144.000000, 0.000000)">
                    <path d="M24,6 C33.9344384,6 42,14.0655616 42,24 C42,33.9344384 33.9344384,42 24,42 C14.0655616,42 6,33.9344384 6,24 C6,14.0655616 14.0655616,6 24,6 Z" id="Shape" fill="#EDC53A"></path>
                    <path d="M48,48 L34.8622857,48 L31.6626939,41.877551 L21.3642449,22.1715102 L31.8132245,22.1715102 L41.877551,41.4296 L41.877551,6.12244898 L6.12244898,6.12244898 L6.12244898,41.877551 L21.0974694,41.877551 L24.2970612,48 L0,48 L0,0 L48,0 L48,48 Z M12,22.1715102 L20.1632653,22.1715102 L33.6613061,48 L25.4980408,48 L12,22.1715102 Z" id="Shape" fill="#2E3390"></path>
                </g>
            </g>
        </g>
    </g>
</svg>