<?xml version="1.0" encoding="UTF-8"?>
<svg width="48px" height="48px" viewBox="0 0 48 48" version="1.1" xmlns="http://www.w3.org/2000/svg" xmlns:xlink="http://www.w3.org/1999/xlink">
    <!-- Generator: Sketch 56 (81588) - https://sketch.com -->
    <title>Bank/Color/Postbank</title>
    <desc>Created with Sketch.</desc>
    <g id="Ready-For-Export" stroke="none" stroke-width="1" fill="none" fill-rule="evenodd">
        <g id="Artboard" transform="translate(-2784.000000, -80.000000)" fill="#14763E">
            <g id="Banks_(Color)" transform="translate(80.000000, 80.000000)">
                <g id="Bank-/-Postbank-/-Color" transform="translate(2704.000000, 0.000000)">
                    <path d="M27.0227574,0.207404751 C38.7798841,1.6956776 47.9221157,11.7750629 47.9221157,23.9204706 C47.9221157,37.0853781 37.1806474,47.8228571 24.0106221,47.8228571 C10.8407993,47.8228571 0.0991283875,37.0853781 0.0991283875,23.9204706 C0.0991283875,20.4975731 0.82527445,17.2387719 2.13144541,14.2901271 L3.36738155,15.8788571 L3.43928029,15.9673949 C3.43928029,15.9673949 3.674217,16.2445042 3.95350813,16.4859159 C4.20890054,16.7037311 4.53619168,16.8999664 4.76667269,16.9947563 C4.94267269,17.0655462 5.1174575,17.1264538 5.3011537,17.1619496 C6.11026763,17.3206722 6.94044484,17.3111933 7.54135624,17.2837647 C8.01933092,17.2621849 8.35998915,17.235563 8.35998915,17.235563 C11.4844448,17.0897479 12.6797866,18.4976807 13.4925461,19.4558655 C14.23766,20.3319664 21.5292043,30.0432941 21.5292043,30.0432941 L25.1545208,26.4146554 C25.1545208,26.4146554 22.1104702,22.5349243 20.7599891,20.7956302 C19.2503183,18.8522353 18.1566474,17.4553949 17.4893056,16.8918991 C16.0314828,15.6634622 12.8073816,15.5178487 12.0693562,15.3909916 C12.0693562,15.3909916 9.34773598,15.0584201 7.72363472,13.3933445 C7.34125497,13.0012773 7.07614105,12.6549916 7.07614105,12.6549916 L4.74384386,9.79133044 C5.34114736,8.98020695 5.98835896,8.20788282 6.68088181,7.47895297 L9.19624231,10.717647 C9.68697649,11.3434622 9.95492586,11.7064874 10.4507233,12.200605 C11.7135081,13.4605042 13.4976094,13.6309243 13.4976094,13.6309243 C17.2187233,14.3005042 19.2507233,14.4769748 20.4300651,15.842958 C21.8453562,17.4810084 22.118774,17.8557311 23.3015588,19.3802353 C23.7374069,19.9419159 27.1575588,24.412168 27.1575588,24.412168 L30.6704702,20.893042 C30.6704702,20.893042 28.4213562,17.9963025 27.1150271,16.2795966 C26.4758372,15.4387899 25.463179,14.1264538 24.7166474,13.5907899 C23.1772043,12.4888067 21.8070778,12.6523697 20.4110271,12.5045378 C19.2118372,12.3764706 18.1056094,12.3520672 16.6672297,11.667563 C16.6672297,11.667563 16.045255,11.5292101 14.7614069,9.87603359 C13.4759385,8.22426889 13.1156347,7.74527729 13.1156347,7.74527729 L10.3600065,4.31409789 C11.17122,3.7475574 12.0189489,3.22994446 12.8988472,2.76560305 L15.6142676,6.28652099 L16.9704195,8.05344536 C18.9242423,10.5472269 20.1874322,10.5758655 21.4895081,10.7289412 C23.5553309,10.9737815 25.5004448,10.8430924 27.1826727,12.1110588 C28.1562423,12.8443697 28.6650018,13.6224538 29.3653562,14.524168 C30.422774,15.8849075 32.7020651,18.8490084 32.7020651,18.8490084 L36.2180145,15.3286722 C36.2180145,15.3286722 34.1939132,12.7132773 33.4074828,11.7195966 C33.1466221,11.3910588 32.6984195,10.9747899 32.0347233,10.5442017 C30.9856094,9.86191595 29.9383183,9.65216805 27.251736,9.25566385 C24.5659638,8.85956301 23.6928499,8.39347897 22.4237866,7.00591595 C21.8172043,6.34218485 21.4812043,5.87126048 21.072698,5.34487393 L17.555649,0.905304432 C18.6523508,0.596816427 19.7805585,0.364872512 20.9340917,0.215650713 L23.3305208,3.52248738 C24.134774,4.49781511 24.852141,5.76759662 26.8940651,6.67697477 C29.3513816,7.77109242 31.2073816,7.5145546 32.8896094,7.94917645 C32.8896094,7.94917645 33.3479385,8.06070586 33.8526474,8.28215124 C34.3879385,8.51831931 34.7362929,8.87085712 35.0710778,9.24860502 C35.6272297,9.87603359 36.1143183,10.4877311 36.2257107,10.6317311 C36.2485967,10.660168 38.3113816,13.2309916 38.3113816,13.2309916 L41.786217,9.75361343 C41.786217,9.75361343 40.9839891,8.72887393 40.3476347,7.92457141 C39.9537107,7.42702519 39.7821664,7.24773107 39.4516347,7.04584872 C39.1901664,6.88672267 38.8622676,6.72820166 38.419736,6.62352939 C37.9144195,6.50574788 37.2247993,6.41842015 36.0351284,6.37042015 C32.9021664,6.24578149 31.744698,5.99670586 29.7509765,3.61001679 L28.2716853,1.81626889 L27.0227574,0.207404751 Z" id="Shape"></path>
                </g>
            </g>
        </g>
    </g>
</svg>