<?xml version="1.0" encoding="UTF-8"?>
<svg width="48px" height="48px" viewBox="0 0 48 48" version="1.1" xmlns="http://www.w3.org/2000/svg" xmlns:xlink="http://www.w3.org/1999/xlink">
    <!-- Generator: Sketch 56 (81588) - https://sketch.com -->
    <title>Bank/Color/Saderat</title>
    <desc>Created with Sketch.</desc>
    <g id="Ready-For-Export" stroke="none" stroke-width="1" fill="none" fill-rule="evenodd">
        <g id="Artboard" transform="translate(-3096.000000, -80.000000)" fill="#2D2A68">
            <g id="Banks_(Color)" transform="translate(80.000000, 80.000000)">
                <g id="Bank-/-Saderat-/-Color" transform="translate(3016.000000, 0.000000)">
                    <path d="M31.8102906,47.9991622 L31.8102906,6.65233908 C29.9695643,2.38213713 25.9597184,2.92620518 21.1417556,5.61711768 C22.5334972,0.357977397 42.0139845,-4.84106395 47.5,8.12358862 L47.5,47.9991622 L31.8102906,47.9991622 Z M16.1897094,0.000699595829 L16.1897094,41.3475228 C18.0304357,45.6178629 22.0401425,45.0737948 26.8581053,42.3828823 C25.4665028,47.6420226 5.98601547,52.8410639 0.5,39.8764114 L0.5,0.000699595829 L16.1897094,0.000699595829 Z M23.9999305,31.6331863 C19.7674004,31.6331863 16.3151692,28.2042313 16.3151692,23.9999309 C16.3151692,19.7957687 19.7674004,16.3666755 23.9999305,16.3666755 C28.2325996,16.3666755 31.6846917,19.7957687 31.6846917,23.9999309 C31.6846917,28.2042313 28.2325996,31.6331863 23.9999305,31.6331863 Z" id="Shape"></path>
                </g>
            </g>
        </g>
    </g>
</svg>