<?xml version="1.0" encoding="UTF-8"?>
<svg width="48px" height="48px" viewBox="0 0 48 48" version="1.1" xmlns="http://www.w3.org/2000/svg" xmlns:xlink="http://www.w3.org/1999/xlink">
    <!-- Generator: Sketch 56 (81588) - https://sketch.com -->
    <title>Bank/Color/Sarmayeh</title>
    <desc>Created with Sketch.</desc>
    <g id="Ready-For-Export" stroke="none" stroke-width="1" fill="none" fill-rule="evenodd">
        <g id="Artboard" transform="translate(-3408.000000, -80.000000)">
            <g id="Banks_(Color)" transform="translate(80.000000, 80.000000)">
                <g id="Bank-/-Sarmayeh-/-Color" transform="translate(3328.000000, 0.000000)">
                    <path d="M14.1858,30.4299 L14.1858,16.416 C24.1383,16.0947 32.9508,9.8457 41.085,0.0666 L41.1234,16.1046 C32.1438,26.8254 23.1648,30.2601 14.1858,30.4299 Z M27.2574,48 C23.9367,48 21.2283,45.2916 21.2283,41.9709 C21.2283,38.6499 23.9367,35.9415 27.2574,35.9415 C30.5784,35.9415 33.2868,38.6499 33.2868,41.9709 C33.2868,45.2916 30.5784,48 27.2574,48 Z" id="Shape" fill="#1F1F48"></path>
                    <path d="M33.027,17.6367 L33.027,31.6506 C23.0748,31.9719 14.262,38.2209 6.1278,48 L6.0894,31.962 C15.069,21.2412 24.048,17.8065 33.027,17.6367 Z" id="Shape" fill="#AFB2AE"></path>
                </g>
            </g>
        </g>
    </g>
</svg>