<?xml version="1.0" encoding="UTF-8"?>
<svg width="48px" height="48px" viewBox="0 0 48 48" version="1.1" xmlns="http://www.w3.org/2000/svg" xmlns:xlink="http://www.w3.org/1999/xlink">
    <!-- Generator: Sketch 56 (81588) - https://sketch.com -->
    <title>Bank/Color/Taavon_Eslami</title>
    <desc>Created with Sketch.</desc>
    <g id="Ready-For-Export" stroke="none" stroke-width="1" fill="none" fill-rule="evenodd">
        <g id="Artboard" transform="translate(-3928.000000, -80.000000)" fill="#00920A">
            <g id="Banks_(Color)" transform="translate(80.000000, 80.000000)">
                <g id="Bank-/-Taavon-Eslami-/-Color" transform="translate(3848.000000, 0.000000)">
                    <path d="M42.9170038,18.5915 C44.1329007,21.2319 44.8110009,24.1699 44.8110009,27.2649 C44.8110009,29.7363 44.3785819,32.1076 43.5853969,34.3073 C43.2649605,34.2559 42.9363181,34.2292 42.6014711,34.2292 C39.1954587,34.2292 36.430219,36.9924 36.430219,40.3959 C36.430219,41.4661 36.7036206,42.4729 37.1844753,43.3505 C33.9799115,45.9771 29.9775593,47.667 25.5981288,48 L25.5981288,42.5034 C33.3104177,41.7037 39.3321595,35.1815 39.3321595,27.2649 C39.3321595,25.1669 38.9092476,23.1667 38.1437829,21.3453 L42.9170038,18.5915 Z M5.01764796,18.7344 L9.7956724,21.491 C9.06853604,23.2733 8.6677404,25.2227 8.6677404,27.2649 C8.6677404,35.074 14.5272626,41.5264 22.0887402,42.4675 L22.0887402,47.9738 C17.8318001,47.5859 13.9436321,45.9144 10.8155247,43.3505 C11.2962793,42.4729 11.569681,41.4661 11.569681,40.3959 C11.569681,36.9924 8.80444123,34.2292 5.39842884,34.2292 C5.06358185,34.2292 4.73493943,34.2559 4.41450306,34.3073 C3.62131798,32.1076 3.18899909,29.7363 3.18899909,27.2649 C3.18899909,24.2257 3.84278134,21.3379 5.01764796,18.7344 Z M5.39842884,35.7508 C7.96402131,35.7508 10.0469578,37.8322 10.0469578,40.3959 C10.0469578,42.9595 7.96402131,45.0409 5.39842884,45.0409 C2.83293645,45.0409 0.75,42.9595 0.75,40.3959 C0.75,37.8322 2.83293645,35.7508 5.39842884,35.7508 Z M42.6014711,35.7508 C45.1670636,35.7508 47.25,37.8322 47.25,40.3959 C47.25,42.9595 45.1670636,45.0409 42.6014711,45.0409 C40.0358786,45.0409 37.9530422,42.9595 37.9530422,40.3959 C37.9530422,37.8322 40.0358786,35.7508 42.6014711,35.7508 Z M17.5531946,34.9178 C17.9655988,35.705 18.4451526,36.4573 18.9879529,37.1612 C19.617017,37.977 20.3311437,38.7278 21.1200256,39.3909 C21.5045092,39.714 21.906806,40.0161 22.3247143,40.2944 C19.3985558,39.9218 16.771518,38.5863 14.7722433,36.6162 C15.6170665,35.9533 16.5406477,35.3904 17.5135654,34.936 L17.5531946,34.9178 Z M30.4710232,34.929 L30.4864346,34.936 C31.4593523,35.3904 32.3828335,35.9533 33.2276566,36.6162 C31.2369883,38.5779 28.6237606,39.9105 25.7126133,40.2896 C26.1279196,40.0125 26.5278146,39.7121 26.9099965,39.3909 C27.787744,38.6532 28.572723,37.8069 29.2513236,36.8833 C29.7064593,36.2639 30.1138598,35.6095 30.4710232,34.929 Z M24.4037478,33.5254 C24.9781715,33.5417 25.550894,33.5843 26.1208144,33.6614 C27.3693353,33.8303 28.5974412,34.1517 29.765703,34.623 C29.3556005,35.3973 28.8767473,36.1356 28.3334465,36.8234 C27.7298012,37.5876 27.0464972,38.2894 26.2930414,38.907 C25.7034065,39.3902 25.0708399,39.8214 24.4037478,40.1901 L24.4037478,33.5254 Z M23.5961521,33.5254 L23.5961521,40.1733 C22.9401682,39.8084 22.3177091,39.3829 21.7370808,38.907 C20.983625,38.2894 20.3002209,37.5876 19.6965756,36.8234 C19.1509732,36.1326 18.6704187,35.391 18.2590153,34.613 C19.4198715,34.1472 20.6393711,33.8291 21.8790855,33.6614 C22.4490059,33.5843 23.0217284,33.5417 23.5961521,33.5254 Z M37.1389417,27.6684 C37.0411696,30.9022 35.7712329,33.8437 33.7396343,36.0826 C32.8352672,35.3656 31.844036,34.7579 30.7981646,34.2695 L30.7977643,34.2693 C31.7606745,32.2042 32.2692497,29.9418 32.3229893,27.6684 L37.1389417,27.6684 Z M10.8609582,27.6684 L15.7071329,27.6684 C15.7606724,29.9374 16.267146,32.1956 17.227054,34.2578 L17.2017354,34.2695 C16.155964,34.7579 15.1646327,35.3656 14.2602656,36.0826 C12.2287671,33.8437 10.9588304,30.9022 10.8609582,27.6684 Z M31.5564239,27.6684 C31.5027843,29.8367 31.0158251,31.9942 30.0949458,33.9623 C28.8539304,33.4564 27.547867,33.112 26.2196873,32.9322 C25.6169427,32.8507 25.011296,32.806 24.4037478,32.7894 L24.4037478,27.6684 L31.5564239,27.6684 Z M23.5961521,27.6684 L23.5961521,32.7894 C22.988604,32.806 22.3829572,32.8507 21.7803127,32.9322 C20.4611396,33.1108 19.1637826,33.4517 17.9303728,33.9521 C17.0125959,31.9867 16.5271378,29.833 16.4736983,27.6684 L23.5961521,27.6684 Z M10.8609582,26.8614 C10.9588304,23.6275 12.2288672,20.686 14.2604658,18.447 C15.1722383,19.1695 16.1716756,19.7802 17.2273543,20.2713 C16.2678465,22.3334 15.7608725,24.5918 15.707233,26.8614 L10.8609582,26.8614 Z M16.4736983,26.8614 C16.527438,24.6963 17.0131963,22.5425 17.930573,20.5773 C18.3867094,20.7626 18.8516524,20.9261 19.3230001,21.0673 C20.7088223,21.4826 22.1500854,21.7061 23.5961521,21.7411 L23.5961521,26.8614 L16.4736983,26.8614 Z M32.3230894,26.8614 C32.2694498,24.5877 31.7609748,22.325 30.797464,20.2596 C31.843936,19.7706 32.8348669,19.1639 33.7394341,18.447 C35.7711328,20.686 37.0411696,23.6275 37.1389417,26.8614 L32.3230894,26.8614 Z M24.4037478,21.7411 C25.8499146,21.7061 27.2911777,21.4826 28.6769999,21.0673 C29.157054,20.9235 29.6305033,20.7565 30.0947457,20.567 C31.0152247,22.5349 31.5025842,24.6925 31.5563238,26.8614 L24.4037478,26.8614 L24.4037478,21.7411 Z M23.5961521,14.3562 L23.5961521,21.0051 C22.2216382,20.9703 20.8518278,20.7573 19.5344561,20.3625 C19.1030378,20.2333 18.6772237,20.0844 18.2591153,19.9164 C18.2811316,19.8746 18.303448,19.833 18.3259646,19.7914 C18.6961377,19.1072 19.1202505,18.452 19.5953009,17.8359 C20.2560884,16.979 21.0159489,16.1975 21.8616727,15.5217 C22.4063745,15.0863 22.9868026,14.6951 23.5961521,14.3562 Z M24.4037478,14.3396 C25.0242055,14.6823 25.6147411,15.0791 26.1684495,15.5217 C27.0140733,16.1975 27.7739338,16.979 28.4347212,17.8359 C28.9098717,18.452 29.3339845,19.1072 29.7041576,19.7914 C29.7247728,19.8296 29.7452879,19.8679 29.7656029,19.9064 C29.3394886,20.0785 28.9053684,20.2307 28.4654439,20.3625 C27.1481722,20.7573 25.7782617,20.9703 24.4037478,21.0051 L24.4037478,14.3396 Z M22.3242139,14.2355 C21.9534404,14.4823 21.5951761,14.7478 21.2508221,15.0301 C20.3650687,15.7561 19.570983,16.592 18.8825752,17.5065 C18.3892113,18.162 17.9499873,18.8579 17.5678054,19.5837 L17.5533948,19.6113 C16.565366,19.1532 15.628675,18.5849 14.7725435,17.9134 C16.7716181,15.9435 19.3983557,14.6081 22.3242139,14.2355 Z M25.7134139,14.2404 C28.6241609,14.6196 31.2368882,15.952 33.2273564,17.9134 C32.3782301,18.5794 31.4499453,19.1439 30.470723,19.6 C30.0597199,18.817 29.5822677,18.0687 29.0420692,17.3683 C28.4130052,16.5525 27.6989785,15.8017 26.9099965,15.1387 C26.5280148,14.8176 26.1285201,14.5173 25.7134139,14.2404 Z M6.72570789,15.6706 C9.45542142,11.6193 13.5742596,8.5788 18.3976175,7.2328 C19.3773402,9.3451 21.5186196,10.8117 23.99995,10.8117 C26.4813804,10.8117 28.6226598,9.3451 29.6023825,7.2328 C34.3741023,8.5644 38.4563135,11.5544 41.1861271,15.5408 L36.4229136,18.2888 C33.636158,14.4456 29.1081179,11.944 23.99995,11.944 C18.8354404,11.944 14.2638683,14.5011 11.4853187,18.4165 L6.72570789,15.6706 Z M23.99995,0 C26.5655424,0 28.6484789,2.0814 28.6484789,4.645 C28.6484789,7.2087 26.5655424,9.2901 23.99995,9.2901 C21.4344576,9.2901 19.3515211,7.2087 19.3515211,4.645 C19.3515211,2.0814 21.4344576,0 23.99995,0 Z" id="Shape"></path>
                </g>
            </g>
        </g>
    </g>
</svg>