<?xml version="1.0" encoding="UTF-8"?>
<svg width="48px" height="48px" viewBox="0 0 48 48" version="1.1" xmlns="http://www.w3.org/2000/svg" xmlns:xlink="http://www.w3.org/1999/xlink">
    <!-- Generator: Sketch 56 (81588) - https://sketch.com -->
    <title>Bank/Color/Tejarat</title>
    <desc>Created with Sketch.</desc>
    <g id="Ready-For-Export" stroke="none" stroke-width="1" fill="none" fill-rule="evenodd">
        <g id="Artboard" transform="translate(-4032.000000, -80.000000)" fill="#2F4A98">
            <g id="Banks_(Color)" transform="translate(80.000000, 80.000000)">
                <g id="Bank-/-Tejarat-/-Color" transform="translate(3952.000000, 0.000000)">
                    <path d="M41.7143,48 L7.2133,48 L7.2133,42.574 L7.8885,41.7821 C6.09,40.1514 4.5397,38.2519 3.3011,36.1474 L12.2228,41.2561 L13.2086,41.2561 L2.4243,34.5166 C2.079,33.8102 1.7674,33.0844 1.4916,32.3412 L14.3061,41.2561 L14.9841,41.2561 L0.9712,30.7745 C0.7144,29.9014 0.5059,29.0077 0.3489,28.0968 L15.9862,41.2561 L16.6947,41.2561 L0.0755,25.9141 C0.0254,25.2827 0,24.6443 0,24 C0,23.8585 0.0012,23.7172 0.0038,23.5764 L17.3741,41.2561 L17.866,41.2561 L0.1062,21.7306 C0.1901,20.8374 0.3231,19.9583 0.5024,19.0963 L18.5175,41.2561 L18.9664,41.2561 L0.9878,17.1689 C1.2105,16.4185 1.469,15.6835 1.7613,14.9656 L19.46,41.2561 L19.8787,41.2561 L2.6415,13.0502 C3.0286,12.2973 3.4544,11.5674 3.9163,10.8631 L20.3529,41.2561 L20.7362,41.2561 L16.516,32.5362 C16.4709,32.5146 16.4262,32.4924 16.3816,32.4697 C16.1626,32.3531 15.9534,32.2201 15.774,32.0471 C15.6046,31.8838 15.4661,31.6919 15.3504,31.4876 C15.2024,31.2265 15.0894,30.9472 14.959,30.6773 C14.9183,30.5975 14.8771,30.5188 14.8324,30.4413 C14.8068,30.3986 14.7849,30.3663 14.7478,30.3337 C14.6896,30.2866 14.6276,30.2447 14.5692,30.1979 C14.5134,30.1497 14.4573,30.0982 14.4191,30.0342 C14.388,29.9821 14.3689,29.9253 14.3486,29.8683 L14.3472,29.8679 C14.3051,29.844 14.2702,29.8206 14.2426,29.7796 C14.2167,29.7412 14.2019,29.6958 14.2001,29.6495 C14.1986,29.61 14.2056,29.6108 14.2074,29.5715 C14.2078,29.5615 14.2049,29.5516 14.2054,29.5416 C14.2074,29.4975 14.2114,29.4941 14.2244,29.4527 C14.233,29.3908 14.2428,29.3293 14.2542,29.2678 C14.2668,29.2093 14.2807,29.155 14.3096,29.1024 C14.3921,28.9523 14.551,28.8611 14.7027,28.7894 L12.1154,23.4436 C12.0941,23.437 12.0742,23.4306 12.0317,23.4169 C11.7682,23.3258 11.4903,23.2085 11.3156,22.9798 C11.2715,22.922 11.2334,22.8614 11.2024,22.7956 C11.1656,22.7176 11.1397,22.6349 11.1222,22.5506 C11.1015,22.4508 11.094,22.3492 11.091,22.2475 C11.088,22.1488 11.0943,22.0487 11.0817,21.9504 C11.0804,21.9426 11.0812,21.9427 11.0767,21.9362 C11.0593,21.9128 11.0408,21.8915 11.0217,21.8691 C10.9384,21.7775 10.8522,21.6888 10.7699,21.5962 C10.704,21.518 10.6414,21.4373 10.5914,21.3477 C10.5137,21.2083 10.4682,21.052 10.4734,20.8917 C10.4758,20.8199 10.4907,20.7508 10.5111,20.6823 C10.5487,20.5766 10.5883,20.4717 10.626,20.3661 L5.1798,9.1129 C5.6712,8.4927 6.1925,7.8973 6.7417,7.3289 L8.3019,11.0056 C8.3045,10.8901 8.311,10.7722 8.3331,10.659 C8.4055,10.2867 8.6837,9.9762 9.037,9.8449 C9.168,9.7962 9.3199,9.767 9.4587,9.7972 C9.5589,9.819 9.6523,9.858 9.7439,9.9039 C9.8276,9.9459 9.9075,9.9945 9.9836,10.0484 L8.4018,5.7655 C8.968,5.2806 9.557,4.8217 10.167,4.3905 L12.2798,11.0514 C12.3481,10.9927 12.4143,10.9318 12.4805,10.8707 C12.7114,10.6512 12.9328,10.4223 13.1622,10.2012 C13.3207,10.0533 13.4893,9.8962 13.685,9.7947 L11.921,3.261 C12.6393,2.8414 13.3813,2.4581 14.1446,2.1135 L16.2207,11.7796 C16.2372,11.7635 16.2535,11.7473 16.2698,11.7308 C16.3249,11.6715 16.3773,11.6104 16.422,11.5428 C16.4595,11.4861 16.4929,11.4259 16.5172,11.3623 C16.572,11.2187 16.5777,11.0642 16.5745,10.9122 C16.5662,10.7314 16.544,10.5518 16.5327,10.3712 C16.5259,10.2089 16.5261,10.0392 16.5923,9.8875 C16.6913,9.6604 16.9356,9.5426 17.1608,9.4754 C17.2059,9.4619 17.2519,9.4503 17.2979,9.4401 C17.3695,9.4242 17.4419,9.412 17.5146,9.4023 L17.532,9.4 L16.1758,1.3064 C16.8688,1.0672 17.576,0.8589 18.2959,0.6832 L19.3398,9.3428 C19.4695,9.3372 19.5445,9.3347 19.7234,9.3282 C19.986,9.3202 20.2486,9.313 20.5113,9.3094 C20.6942,9.3068 20.8795,9.3109 21.0622,9.3048 C21.0954,9.3025 21.1285,9.2998 21.1616,9.2969 L20.4984,0.2541 C21.2663,0.1416 22.046,0.0656 22.8357,0.0279 L23.1103,11.3398 C23.1313,11.3612 23.1509,11.3843 23.169,11.4094 C23.2153,11.4739 23.2441,11.5524 23.2694,11.6268 C23.332,11.8108 23.3592,12.0051 23.3746,12.1981 C23.3813,12.282 23.3857,12.3661 23.3888,12.4502 C23.3939,12.5843 23.3972,12.7185 23.4044,12.8526 C23.4104,12.9369 23.4178,13.021 23.426,13.1052 C23.4497,13.3253 23.4752,13.5451 23.4964,13.7655 C23.501,13.8188 23.5053,13.872 23.5092,13.9253 L23.5142,13.9234 C23.5568,13.9048 23.5978,13.884 23.6383,13.8613 C23.8073,13.7619 23.9585,13.6363 24.1064,13.5083 C24.2414,13.3914 24.3743,13.2721 24.5106,13.1567 C24.5837,13.0965 24.5834,13.0968 24.6578,13.0378 C24.7346,12.9797 24.8129,12.9234 24.8936,12.8715 L25.2202,0.0306 C25.9908,0.0693 26.7518,0.1443 27.5016,0.2541 L26.6057,12.4701 C26.9705,12.4356 27.3378,12.4123 27.7041,12.4343 C27.896,12.4458 28.0905,12.4692 28.2773,12.5191 L29.7041,0.6832 C30.4241,0.859 31.1314,1.0673 31.8242,1.3064 L29.7719,13.5538 C29.9303,13.5432 30.0888,13.5342 30.2473,13.5264 C30.391,13.5207 30.4528,13.5175 30.5969,13.5146 C30.7913,13.5107 30.9865,13.51 31.1806,13.5238 C31.2531,13.529 31.3269,13.5354 31.3997,13.5474 L33.8554,2.1135 C34.6186,2.4581 35.3606,2.8414 36.079,3.261 L33.0335,14.5412 C33.0578,14.5518 33.0819,14.5631 33.1059,14.5746 C33.2201,14.6291 33.3307,14.69 33.4383,14.7567 C33.7587,14.9552 34.0406,15.228 34.22,15.5615 C34.235,15.5894 34.2492,15.6176 34.2627,15.6462 L37.833,4.3905 C38.443,4.8217 39.032,5.2807 39.5982,5.7655 L33.9197,21.1409 C33.9747,21.2414 34.0097,21.3521 34.0179,21.4681 C34.0232,21.5439 34.0135,21.6163 34.0038,21.6912 C33.9964,21.7484 33.9906,21.8058 33.985,21.8632 C33.9751,21.9884 33.9752,21.9879 33.9679,22.1131 C33.9393,22.8332 33.9916,23.5519 34.0707,24.2673 L41.2583,7.3289 C41.8074,7.8972 42.3288,8.4926 42.8202,9.1129 L35.2859,24.6806 C35.5086,24.7752 35.7083,24.9143 35.8468,25.1193 C35.897,25.1937 35.9374,25.2746 35.9663,25.3596 C35.9977,25.4521 36.0152,25.5489 36.0162,25.6466 C36.0168,25.6992 36.0126,25.7517 36.004,25.8034 L44.0837,10.8631 C44.5455,11.5673 44.9713,12.2972 45.3585,13.0502 L35.4111,29.3276 C35.4821,29.3854 35.557,29.4385 35.6332,29.4896 C35.8089,29.6038 35.9908,29.7079 36.1675,29.8205 C36.1838,29.8313 36.2002,29.8422 36.2164,29.8532 L46.2387,14.9656 C46.531,15.6834 46.7894,16.4185 47.0122,17.1689 L36.9276,30.6799 C36.9465,30.7334 36.9623,30.7881 36.9754,30.8435 C37.0293,31.0715 37.0295,31.3046 37.0502,31.5369 C37.1277,31.5743 37.21,31.6021 37.2894,31.6351 L37.3001,31.64 L47.4976,19.0963 C47.6769,19.9584 47.8099,20.8375 47.8938,21.7306 L35.6208,35.2238 C35.619,35.2651 35.6178,35.3064 35.6171,35.3476 C35.6152,35.4658 35.6176,35.5839 35.6254,35.7015 L35.657,35.6984 C35.7561,35.6905 35.7557,35.6906 35.8551,35.6846 C35.9565,35.6808 35.9561,35.68 36.0572,35.6799 C36.0726,35.6799 36.0881,35.6804 36.1036,35.6809 L47.9962,23.5764 L47.9979,23.6821 C47.9993,23.7879 48,23.8939 48,24 C48,24.6443 47.9746,25.2827 47.9245,25.9141 L36.8749,36.1145 C36.8706,36.1442 36.8656,36.1733 36.8613,36.2013 C36.8519,36.2804 36.8501,36.4604 36.8471,36.5388 C36.841,36.6988 36.8358,36.8587 36.8299,37.0187 C36.8249,37.0904 36.8167,37.1538 36.7881,37.2196 C36.7828,37.2319 36.7765,37.2434 36.7693,37.2542 L47.6511,28.0968 L47.621,28.2674 C47.4679,29.1195 47.2696,29.956 47.0288,30.7745 L33.0159,41.2561 L33.6939,41.2561 L46.5084,32.3412 L46.4562,32.4803 C46.1935,33.175 45.8994,33.8544 45.5757,34.5166 L34.7914,41.2561 L35.7772,41.2561 L44.6989,36.1474 L44.6498,36.2303 C43.5404,38.0982 42.1849,39.803 40.628,41.2998 L41.7143,42.574 L41.7143,48 Z M41.1143,43.174 L7.8133,43.174 L7.8133,47.4 L41.1143,47.4 L41.1143,43.174 Z M30.9607,46.0761 C30.9607,46.2051 30.9042,46.3814 30.7913,46.605 C30.6827,46.8201 30.5715,46.9846 30.4575,47.0985 C30.3833,47.0985 30.2839,47.0727 30.1591,47.0211 C30.0344,46.9695 29.9452,46.9174 29.8914,46.8647 C30.086,46.7754 30.2597,46.6717 30.4123,46.5534 C30.5919,46.4147 30.6983,46.2895 30.7317,46.1777 C30.6833,46.0433 30.5838,45.9255 30.4333,45.8245 L30.6559,45.3939 C30.7354,45.4627 30.8061,45.567 30.8679,45.7067 C30.9298,45.8465 30.9607,45.9696 30.9607,46.0761 Z M40.552,46.6647 L40.2923,46.9098 L40.0375,46.655 L40.302,46.4131 L40.552,46.6647 Z M33.1507,46.6421 L32.8911,46.8873 L32.6363,46.6324 L32.9008,46.3905 L33.1507,46.6421 Z M12.4322,44.1038 L12.7824,44.1038 L12.7824,45.6032 C12.7824,45.7992 12.7697,45.95 12.7444,46.0555 C12.7104,46.1934 12.6487,46.3041 12.5592,46.3876 C12.4698,46.471 12.3519,46.5128 12.2055,46.5128 C12.0338,46.5128 11.9016,46.4474 11.809,46.3165 C11.7164,46.1856 11.6698,45.9936 11.669,45.7405 L12.0001,45.6888 C12.0041,45.8245 12.0187,45.9204 12.0441,45.9764 C12.0821,46.0615 12.1398,46.104 12.2174,46.104 C12.2957,46.104 12.3511,46.0736 12.3836,46.0127 C12.416,45.9519 12.4322,45.8256 12.4322,45.6339 L12.4322,44.1038 Z M14.7256,46.4724 L14.3433,46.4724 L14.1914,45.9344 L13.4958,45.9344 L13.3522,46.4724 L12.9794,46.4724 L13.6572,44.1038 L14.0288,44.1038 L14.7256,46.4724 Z M11.4731,44.5045 L10.5342,44.5045 L10.5342,45.0296 L11.4078,45.0296 L11.4078,45.4287 L10.5342,45.4287 L10.5342,46.0733 L11.5063,46.0733 L11.5063,46.4724 L10.1828,46.4724 L10.1828,44.1038 L11.4731,44.1038 L11.4731,44.5045 Z M15.2645,46.4724 L14.9131,46.4724 L14.9131,44.1038 L15.6526,44.1038 C15.8386,44.1038 15.9737,44.1251 16.058,44.1676 C16.1423,44.2102 16.2098,44.2858 16.2604,44.3946 C16.311,44.5034 16.3364,44.6278 16.3364,44.7679 C16.3364,44.9456 16.298,45.0923 16.2212,45.2081 C16.1445,45.3239 16.0297,45.3969 15.877,45.4271 C15.953,45.4874 16.0157,45.5536 16.0651,45.6258 C16.1146,45.6979 16.1813,45.8261 16.2651,46.0103 L16.4776,46.4724 L16.0574,46.4724 L15.8034,45.957 C15.7132,45.7728 15.6515,45.6567 15.6182,45.6088 C15.585,45.5609 15.5498,45.528 15.5126,45.5103 C15.4754,45.4925 15.4164,45.4836 15.3357,45.4836 L15.2645,45.4836 L15.2645,46.4724 Z M18.2368,46.4724 L17.8546,46.4724 L17.7026,45.9344 L17.007,45.9344 L16.8634,46.4724 L16.4907,46.4724 L17.1685,44.1038 L17.54,44.1038 L18.2368,46.4724 Z M19.501,44.5045 L18.9858,44.5045 L18.9858,46.4724 L18.6345,46.4724 L18.6345,44.5045 L18.1181,44.5045 L18.1181,44.1038 L19.501,44.1038 L19.501,44.5045 Z M20.9966,46.4724 L20.4043,46.4724 L20.4043,44.1038 L21.0999,44.1038 C21.2376,44.1038 21.3403,44.1116 21.4079,44.1272 C21.4756,44.1429 21.5361,44.1754 21.5896,44.225 C21.643,44.2745 21.6875,44.3405 21.7231,44.4229 C21.7587,44.5053 21.7765,44.5977 21.7765,44.7 C21.7765,44.8109 21.7546,44.9127 21.7106,45.0054 C21.6667,45.098 21.6072,45.1675 21.532,45.2138 C21.638,45.2558 21.7195,45.3274 21.7765,45.4287 C21.8335,45.5299 21.862,45.6489 21.862,45.7857 C21.862,45.8934 21.8436,45.9982 21.8068,46.1 C21.77,46.2018 21.7197,46.2831 21.656,46.3439 C21.5923,46.4048 21.5138,46.4422 21.4204,46.4562 C21.3619,46.4649 21.2206,46.4702 20.9966,46.4724 Z M23.728,46.4724 L23.3458,46.4724 L23.1938,45.9344 L22.4982,45.9344 L22.3546,46.4724 L21.9819,46.4724 L22.6597,44.1038 L23.0312,44.1038 L23.728,46.4724 Z M24.2444,46.4724 L23.9179,46.4724 L23.9179,44.1038 L24.2598,44.1038 L24.972,45.6856 L24.972,44.1038 L25.2984,44.1038 L25.2984,46.4724 L24.9459,46.4724 L24.2444,44.9278 L24.2444,46.4724 Z M26.0261,46.4724 L25.6747,46.4724 L25.6747,44.1038 L26.0261,44.1038 L26.0261,45.1556 L26.7359,44.1038 L27.2084,44.1038 L26.5531,45.0264 L27.244,46.4724 L26.7893,46.4724 L26.311,45.3608 L26.0261,45.7566 L26.0261,46.4724 Z M9.9561,44.5045 L9.4409,44.5045 L9.4409,46.4724 L9.0896,46.4724 L9.0896,44.5045 L8.5732,44.5045 L8.5732,44.1038 L9.9561,44.1038 L9.9561,44.5045 Z M38.2667,46.147 L38.1619,46.147 C38.0426,46.147 37.9292,46.1051 37.8216,46.0212 C37.7625,45.975 37.6862,45.8917 37.5926,45.7713 C37.4991,45.6508 37.4244,45.5686 37.3685,45.5245 C37.3749,45.5632 37.3781,45.6035 37.3781,45.6455 C37.3781,45.7003 37.3722,45.7583 37.3604,45.8196 C37.2647,45.9573 37.1094,46.0508 36.8943,46.1002 C36.7589,46.1314 36.5729,46.147 36.3363,46.147 C36.0149,46.147 35.7982,46.1244 35.6864,46.0793 C35.523,46.0137 35.4413,45.875 35.4413,45.6632 C35.4413,45.4729 35.5074,45.274 35.6396,45.0665 C35.6902,45.0622 35.7224,45.0799 35.7364,45.1197 C35.674,45.2219 35.6429,45.3202 35.6429,45.4148 C35.6429,45.5503 35.7197,45.6369 35.8735,45.6745 C35.9606,45.696 36.1417,45.7067 36.417,45.7067 C36.6707,45.7067 36.8562,45.6971 36.9733,45.6777 C37.0787,45.6605 37.1685,45.6256 37.2427,45.5729 C37.118,45.3643 36.9008,45.1896 36.5911,45.0488 C36.5976,44.8305 36.6148,44.6472 36.6427,44.4988 C37.1083,44.2365 37.555,44.0591 37.9829,43.9666 L37.7894,44.3827 C37.6389,44.4193 37.4443,44.4865 37.2056,44.5843 C37.0153,44.6617 36.8777,44.7235 36.7927,44.7698 C36.9615,44.8332 37.155,44.9493 37.3733,45.1181 C37.455,45.1815 37.5555,45.2745 37.6749,45.3971 C37.7824,45.5078 37.8609,45.5809 37.9103,45.6164 C37.992,45.6756 38.0775,45.7051 38.1668,45.7051 L38.3313,45.7051 C38.5646,45.7051 38.6812,45.6702 38.6812,45.6003 C38.6812,45.5519 38.6205,45.4455 38.499,45.281 L38.7473,44.9423 C38.8699,45.1057 38.9312,45.2767 38.9312,45.4552 C38.8936,45.6831 38.8419,45.8379 38.7764,45.9196 C38.6549,46.0712 38.485,46.147 38.2667,46.147 Z M39.902,46.147 L39.7972,46.147 C39.5919,46.147 39.458,46.0621 39.3956,45.8922 C39.3537,45.7772 39.3258,45.5207 39.3118,45.1229 C39.3053,44.9262 39.2973,44.7896 39.2876,44.7133 C39.2693,44.5649 39.2349,44.4332 39.1844,44.3182 L39.4795,44.0085 C39.529,44.087 39.5596,44.208 39.5714,44.3714 C39.5757,44.4305 39.5779,44.5558 39.5779,44.7472 L39.5779,45.2229 C39.5779,45.3648 39.5881,45.4681 39.6085,45.5326 C39.6451,45.6476 39.7182,45.7051 39.8279,45.7051 L39.9666,45.7051 C40.1999,45.7051 40.3165,45.6702 40.3165,45.6003 C40.3165,45.5519 40.2558,45.4455 40.1343,45.281 L40.3826,44.9423 C40.5052,45.1057 40.5665,45.2767 40.5665,45.4552 C40.5289,45.6831 40.4772,45.8379 40.4117,45.9196 C40.2902,46.0712 40.1203,46.147 39.902,46.147 Z M29.7689,45.3874 C29.7689,45.438 29.7382,45.5288 29.6769,45.66 C29.6157,45.7911 29.5657,45.8723 29.527,45.9035 C29.4797,45.9411 29.3318,45.9884 29.0835,46.0454 C28.7878,46.1131 28.5142,46.147 28.2626,46.147 C27.925,46.147 27.6928,46.0809 27.5659,45.9486 C27.4853,45.8648 27.4449,45.7406 27.4449,45.5761 C27.4449,45.3525 27.5089,45.1418 27.6369,44.9439 C27.6422,44.9429 27.6481,44.9423 27.6546,44.9423 C27.7019,44.9423 27.7347,44.9606 27.753,44.9971 C27.6874,45.152 27.6546,45.2702 27.6546,45.3519 C27.6546,45.5896 27.9105,45.7084 28.4222,45.7084 C28.8867,45.7084 29.2506,45.653 29.5141,45.5422 C29.4689,45.4251 29.4098,45.3175 29.3367,45.2197 L29.5818,44.8875 C29.6312,44.9488 29.6759,45.0375 29.7156,45.1536 C29.7511,45.2568 29.7689,45.3347 29.7689,45.3874 Z M32.046,46.147 L31.8251,46.147 C31.6197,46.147 31.4859,46.0621 31.4235,45.8922 C31.3816,45.7772 31.3536,45.5207 31.3397,45.1229 C31.3332,44.9262 31.3251,44.7896 31.3155,44.7133 C31.2972,44.5649 31.2628,44.4332 31.2122,44.3182 L31.5074,44.0085 C31.5568,44.087 31.5875,44.208 31.5993,44.3714 C31.6036,44.4305 31.6058,44.5558 31.6058,44.7472 L31.6058,45.2229 C31.6058,45.3648 31.616,45.4681 31.6364,45.5326 C31.6729,45.6476 31.7461,45.7051 31.8557,45.7051 L32.117,45.7051 C32.2922,45.7051 32.4358,45.6874 32.5476,45.6519 C32.6239,45.6283 32.7674,45.5637 32.9782,45.4584 C32.5685,45.2971 32.3374,45.2165 32.2847,45.2165 C32.2374,45.2165 32.1992,45.2315 32.1702,45.2616 C32.1444,45.2874 32.1089,45.3433 32.0638,45.4294 C32.0466,45.4369 32.031,45.4406 32.017,45.4406 C31.988,45.4406 31.9649,45.4261 31.9476,45.3971 C32.0208,45.2068 32.0767,45.0756 32.1154,45.0036 C32.1874,44.8681 32.2568,44.8004 32.3234,44.8004 C32.3664,44.8004 32.514,44.8568 32.7661,44.9697 C33.0182,45.0826 33.2018,45.1391 33.3168,45.1391 C33.4437,45.1391 33.6415,45.1133 33.9103,45.0617 L33.7394,45.4519 C33.5985,45.467 33.4824,45.4842 33.391,45.5035 C33.4555,45.6379 33.5803,45.7051 33.7652,45.7051 L34.1071,45.7051 C34.3404,45.7051 34.457,45.6702 34.457,45.6003 C34.457,45.5519 34.3963,45.4455 34.2748,45.281 L34.5232,44.9423 C34.6457,45.1057 34.707,45.2767 34.707,45.4552 C34.6694,45.6831 34.6178,45.8379 34.5522,45.9196 C34.4307,46.0712 34.2608,46.147 34.0426,46.147 L33.9087,46.147 C33.727,46.147 33.5824,46.0927 33.4749,45.9841 C33.3889,45.897 33.3142,45.7573 33.2507,45.5648 C32.9067,45.8078 32.7019,45.9476 32.6363,45.9841 C32.4417,46.0927 32.2449,46.147 32.046,46.147 Z M21.0394,45.44 L20.7557,45.44 L20.7557,46.0733 L21.0809,46.0733 C21.2075,46.0733 21.2879,46.0685 21.3219,46.0588 C21.3741,46.0459 21.4167,46.0143 21.4495,45.9643 C21.4823,45.9142 21.4988,45.8471 21.4988,45.7631 C21.4988,45.692 21.4861,45.6317 21.4608,45.5822 C21.4354,45.5326 21.3988,45.4965 21.351,45.4739 C21.3031,45.4513 21.1993,45.44 21.0394,45.44 Z M23.0811,45.5353 L22.8413,44.6564 L22.6063,45.5353 L23.0811,45.5353 Z M14.0786,45.5353 L13.8389,44.6564 L13.6038,45.5353 L14.0786,45.5353 Z M17.5899,45.5353 L17.3501,44.6564 L17.1151,45.5353 L17.5899,45.5353 Z M15.5387,44.5045 L15.2645,44.5045 L15.2645,45.1055 L15.5244,45.1055 C15.693,45.1055 15.7982,45.0958 15.8402,45.0765 C15.8821,45.0571 15.915,45.0237 15.9387,44.9763 C15.9625,44.9289 15.9743,44.8696 15.9743,44.7986 C15.9743,44.7188 15.9587,44.6545 15.9274,44.6055 C15.8962,44.5565 15.8521,44.5255 15.7951,44.5126 C15.7666,44.5072 15.6811,44.5045 15.5387,44.5045 Z M20.9575,44.498 L20.7557,44.498 L20.7557,45.0458 L20.986,45.0458 C21.1229,45.0458 21.2079,45.0431 21.2412,45.0377 C21.3013,45.028 21.3486,44.9997 21.383,44.9529 C21.4174,44.906 21.4347,44.8443 21.4347,44.7679 C21.4347,44.6946 21.4198,44.6351 21.3901,44.5893 C21.3605,44.5435 21.3163,44.5158 21.2578,44.5061 C21.223,44.5007 21.1229,44.498 20.9575,44.498 Z M28.5755,44.7165 L28.3368,44.9423 L28.1029,44.7052 L28.3464,44.4875 L28.5755,44.7165 Z M29.1657,44.6859 L28.927,44.9101 L28.6932,44.6746 L28.9383,44.4553 L29.1657,44.6859 Z M38.9554,44.4649 L38.6957,44.7101 L38.4409,44.4553 L38.7054,44.2134 L38.9554,44.4649 Z M34.936,44.4779 L34.7135,44.7004 L34.4877,44.502 L34.2813,44.7101 L34.0442,44.502 L34.2667,44.2746 L34.4925,44.4762 L34.6989,44.265 L34.936,44.4779 Z M21.5093,41.2561 L20.2583,37.8688 L20.2294,37.864 L20.1397,37.8471 C20.096,37.8349 20.0585,37.8214 20.0234,37.7913 C19.9447,37.724 19.9156,37.6117 19.9516,37.5146 C19.9676,37.4713 19.9938,37.4413 20.026,37.4093 L20.0739,37.3695 L19.6619,36.2538 C19.6222,36.2801 19.5793,36.3013 19.5338,36.319 C19.4745,36.342 19.4128,36.3586 19.3503,36.3702 C19.3181,36.3762 19.2861,36.3806 19.2535,36.3837 C19.195,36.3893 19.1329,36.3902 19.0711,36.3845 L21.1383,41.2561 L21.5093,41.2561 Z M21.8608,41.2561 L22.1792,41.2561 L21.293,37.9738 C21.1313,37.9659 20.97,37.955 20.8089,37.9398 L21.8608,41.2561 Z M22.5516,41.2561 L22.87,41.2561 L22.3236,37.9957 L22.1768,37.9947 L21.8504,37.9915 L22.5516,41.2561 Z M23.187,41.2561 L23.5054,41.2561 L23.2668,38.0027 L23.2139,38.0031 C23.0741,38.0014 22.9342,38.0001 22.7944,37.9991 L23.187,41.2561 Z M24.1715,41.2561 L24.2552,37.9677 C24.1383,38.0419 24.0079,38.0205 23.8776,37.9998 C23.8488,37.9967 23.8196,37.9979 23.7905,37.9976 L23.7572,37.9974 L23.8363,41.2561 L24.1715,41.2561 Z M24.813,41.2561 L25.3568,36.7452 C25.3481,36.7687 25.3392,36.7922 25.3297,36.8154 C25.3069,36.8656 25.2831,36.9148 25.2525,36.9606 C25.1497,37.1142 25.0027,37.2373 24.8565,37.3473 C24.8303,37.3661 24.8038,37.3845 24.7772,37.4027 L24.4946,41.2561 L24.813,41.2561 Z M25.4484,41.2561 L26.6675,35.5802 C26.6394,35.6411 26.6113,35.7021 26.5823,35.7628 C26.5467,35.8338 26.5468,35.8335 26.5096,35.9032 C26.3868,36.1156 26.2315,36.3421 25.9803,36.4072 C25.9673,36.4105 25.9543,36.4134 25.9411,36.4157 L25.13,41.2561 L25.4484,41.2561 Z M25.8208,41.2561 L26.1392,41.2561 L27.5309,36.8686 C27.5086,36.8522 27.4883,36.8335 27.4709,36.8116 C27.4364,36.7684 27.4145,36.7152 27.3989,36.6627 C27.3634,36.5427 27.3669,36.4159 27.3847,36.2932 C27.389,36.2641 27.3957,36.2258 27.4014,36.1969 C27.4144,36.1318 27.4288,36.067 27.4406,36.0017 C27.461,35.8669 27.4761,35.7312 27.4905,35.5956 C27.5069,35.4264 27.5193,35.2569 27.5182,35.0867 C27.5179,35.0505 27.5172,35.0143 27.5158,34.9781 L25.8208,41.2561 Z M26.4907,41.2561 L26.8617,41.2561 L28.4781,37.4468 C28.4506,37.4417 28.4236,37.4345 28.3971,37.4239 C28.2852,37.3794 28.1996,37.2869 28.1635,37.1719 C28.146,37.1161 28.1417,37.0584 28.1398,37.0003 L28.1393,36.9821 C28.1169,36.9791 28.0944,36.9766 28.0719,36.9747 L26.4907,41.2561 Z M27.2638,41.2561 L27.6471,41.2561 L29.5537,37.7306 C29.4244,37.7269 29.2954,37.7163 29.1679,37.6917 C29.1143,37.6814 29.0598,37.6704 29.0079,37.6524 L27.2638,41.2561 Z M28.54,41.2561 L30.9316,37.7035 C30.7167,37.7068 30.5018,37.7071 30.287,37.7124 L28.1213,41.2561 L28.54,41.2561 Z M29.4825,41.2561 L32.424,37.6379 L32.4067,37.639 C32.1728,37.6529 31.9389,37.6661 31.7049,37.6771 L29.0336,41.2561 L29.4825,41.2561 Z M30.6259,41.2561 L34.3038,37.5127 C34.1648,37.5217 34.0257,37.5301 33.8867,37.5395 L33.4899,37.5666 L30.134,41.2561 L30.6259,41.2561 Z M32.0138,41.2561 L36.6634,37.3433 C36.5916,37.3789 36.5047,37.3926 36.4307,37.3979 C36.4127,37.3992 36.3946,37.4 36.3764,37.4004 C36.3418,37.4013 36.3059,37.4006 36.2713,37.3992 C36.221,37.3972 36.1768,37.3936 36.1253,37.3896 C36.0638,37.3847 36.0027,37.3787 35.941,37.3771 C35.84,37.3789 35.739,37.3879 35.6383,37.3953 C35.5828,37.3999 35.5274,37.4046 35.472,37.4096 L31.3053,41.2561 L32.0138,41.2561 Z M19.697,35.6208 C19.7031,35.6202 19.7092,35.6197 19.7154,35.6193 C19.7564,35.6198 19.7561,35.6197 19.7972,35.6231 C19.8089,35.6248 19.8206,35.6267 19.8322,35.6289 L19.8355,35.6295 C19.8465,35.6317 19.8575,35.634 19.8684,35.6365 L19.8732,35.6376 C19.8838,35.6401 19.8944,35.6428 19.9048,35.6456 L19.9166,35.6489 L19.9281,35.6524 L19.9435,35.6569 L19.9554,35.6608 L19.9657,35.6644 L19.9789,35.6688 L19.9936,35.6741 L20.0139,35.6819 L20.0314,35.6889 L20.0485,35.6961 L20.0686,35.7049 L20.0827,35.7113 L20.1054,35.7221 L20.1055,35.7222 C20.1879,35.762 20.2668,35.8101 20.3429,35.8612 C20.4794,35.9527 20.614,36.054 20.7175,36.1829 C20.9344,36.4529 20.9908,36.8091 20.8958,37.139 C20.8653,37.2446 20.8237,37.3438 20.7588,37.4328 L20.7577,37.4341 C20.8904,37.4478 21.0232,37.4582 21.156,37.4662 L21.174,37.4673 L21.2899,37.4736 L21.3222,37.4751 L21.4425,37.4803 L21.4896,37.4819 L21.5852,37.4852 L21.6344,37.4865 L21.7307,37.489 L21.8389,37.4914 C21.9725,37.493 22.1061,37.4941 22.2398,37.4951 L22.734,37.4986 L22.734,37.4986 C22.8948,37.4997 23.0555,37.5011 23.2162,37.5031 L23.3589,37.5019 L23.5065,37.4999 L23.6164,37.4985 L23.6266,37.4984 C23.6833,37.4978 23.74,37.4974 23.7967,37.4976 C23.8704,37.4992 23.8701,37.4962 23.9431,37.5039 L23.9613,37.5068 C23.9714,37.4745 23.9827,37.4435 23.9956,37.4122 C24.0252,37.3529 24.0606,37.3022 24.1114,37.2591 C24.1655,37.218 24.2203,37.1781 24.276,37.139 L24.4188,37.0426 L24.4899,36.9939 L24.5604,36.9444 C24.6017,36.9133 24.6418,36.8814 24.6812,36.8479 L24.7216,36.8107 L24.7415,36.7919 L24.7613,36.7724 L24.7806,36.7524 L24.7892,36.7429 L24.7991,36.7317 L24.8074,36.7217 L24.8165,36.7104 L24.8292,36.6936 L24.8367,36.6827 C24.8626,36.6439 24.8792,36.5985 24.8949,36.5549 C24.9143,36.5011 24.933,36.4472 24.9534,36.3937 C24.9731,36.3464 24.973,36.3468 24.9949,36.3004 C25.0285,36.2389 25.0644,36.1808 25.1133,36.1301 C25.2054,36.0346 25.3242,35.9762 25.4525,35.9509 L25.4748,35.9468 C25.4832,35.9453 25.4918,35.944 25.5004,35.9429 C25.6113,35.9281 25.7238,35.9417 25.8344,35.927 C25.85,35.9243 25.8659,35.9215 25.8794,35.913 L25.8963,35.8994 L25.9128,35.8847 L25.9182,35.8796 L25.9338,35.864 L25.9485,35.8479 L25.9627,35.831 L25.9766,35.8134 L25.9814,35.8071 L25.9945,35.7889 L26.0065,35.7713 L26.0255,35.7416 L26.0393,35.7185 L26.0533,35.6944 L26.0627,35.6777 C26.0767,35.6526 26.09,35.6274 26.103,35.6031 C26.1779,35.4537 26.2442,35.3002 26.3177,35.1502 C26.3606,35.0679 26.4087,34.9887 26.452,34.9067 C26.5037,34.8089 26.5533,34.7101 26.6067,34.6132 C26.6371,34.5615 26.6682,34.5107 26.7021,34.4612 C26.7401,34.4086 26.7799,34.3578 26.8245,34.3106 C26.8629,34.27 26.9039,34.232 26.9473,34.1969 L26.9681,34.1808 L26.9826,34.1695 L26.9986,34.1577 L27.0188,34.1433 L27.0297,34.1358 L27.0558,34.1183 L27.0585,34.1166 C27.0701,34.109 27.0818,34.1016 27.0936,34.0944 C27.2563,33.9944 27.4562,33.895 27.6479,33.9706 C27.691,33.9877 27.7314,34.0156 27.7662,34.0458 L27.7672,34.0467 L27.7672,34.0467 C27.8032,34.078 27.8344,34.1146 27.8606,34.1544 C27.9004,34.2149 27.9281,34.2828 27.9475,34.3523 C27.9842,34.4832 27.99,34.6195 28.0014,34.7541 C28.013,34.8911 28.0197,35.0277 28.0179,35.1653 C28.0163,35.2844 28.0096,35.4033 27.9996,35.522 L27.9993,35.5261 L27.9989,35.5299 C27.9967,35.5563 27.9943,35.5827 27.9918,35.609 C27.9886,35.6413 27.9853,35.6737 27.9818,35.706 L27.981,35.713 L27.9783,35.7366 L27.9731,35.7834 L27.9702,35.8073 L27.9685,35.8221 L27.9659,35.8422 L27.9627,35.869 L27.9572,35.9122 L27.9549,35.9311 L27.9534,35.9424 L27.9518,35.9545 L27.9405,36.0399 C27.9259,36.1494 27.8972,36.2563 27.8796,36.3653 C27.8756,36.3956 27.8727,36.4253 27.8716,36.4559 L27.8717,36.4611 C27.9461,36.468 28.0211,36.4695 28.0956,36.4744 L28.1342,36.478 L28.1613,36.4809 L28.1941,36.485 L28.2113,36.4875 L28.2267,36.4899 L28.2495,36.494 L28.2494,36.494 C28.2851,36.5007 28.3202,36.5097 28.3544,36.5223 C28.4763,36.5671 28.5726,36.658 28.6135,36.7824 C28.6321,36.8391 28.6371,36.898 28.6388,36.9573 L28.6862,36.9564 L28.6955,36.9563 L28.7191,36.9562 L28.7521,36.9567 C28.855,36.9642 28.9474,36.991 29.0303,37.0539 C29.0547,37.0725 29.0773,37.0933 29.0992,37.1147 C29.1209,37.136 29.1417,37.1614 29.1673,37.1785 L29.1828,37.1833 L29.1984,37.1875 L29.2295,37.1946 C29.2518,37.1991 29.2744,37.2028 29.2965,37.2068 C29.477,37.2349 29.6595,37.237 29.8422,37.2312 L29.8837,37.2299 L29.9459,37.2274 L30.1986,37.2156 L30.2636,37.213 C30.2847,37.2123 30.306,37.2116 30.3271,37.2111 L30.3286,37.211 C30.5206,37.2091 30.7126,37.208 30.9047,37.2049 C31.0375,37.2015 31.1702,37.1974 31.3029,37.1925 L31.4497,37.1869 L31.494,37.1851 L31.6807,37.1771 L31.6991,37.1762 L31.8715,37.168 L31.9101,37.1661 L32.0935,37.1565 L32.131,37.1545 C32.372,37.1402 32.6129,37.1249 32.8539,37.1091 L33.3959,37.0731 L33.8669,37.0412 L33.9744,37.0339 L33.9743,37.034 L34.4455,37.0024 C34.5819,36.9922 34.7181,36.9799 34.8542,36.9668 C34.991,36.9538 35.1277,36.94 35.2644,36.927 L35.3111,36.9225 L35.37,36.9171 L35.4093,36.9133 L35.4554,36.9092 L35.4698,36.9079 C35.5131,36.9041 35.5564,36.9003 35.5997,36.8968 C35.7,36.8895 35.8002,36.8831 35.9006,36.8778 L35.9274,36.8776 L35.933,36.8776 L35.9364,36.8776 L35.9543,36.8779 L35.9723,36.8783 L36.0079,36.8797 L36.0438,36.8817 L36.0438,36.8818 C36.1389,36.8876 36.2338,36.898 36.3291,36.9006 L36.3329,36.9006 C36.336,36.7162 36.347,36.5315 36.3541,36.3472 L36.3618,36.1712 C36.3146,36.1741 36.2675,36.1777 36.2202,36.1802 L36.173,36.1823 C36.1387,36.1821 36.1045,36.1816 36.0703,36.1811 L36.019,36.1807 C36.0019,36.1806 35.9847,36.1806 35.9676,36.1807 L35.9174,36.1829 L35.9004,36.1838 L35.8689,36.1855 L35.783,36.1912 L35.7711,36.192 L35.7233,36.1959 L35.6678,36.2005 L35.6153,36.2054 C35.456,36.2204 35.297,36.2391 35.1375,36.2545 C35.0395,36.2627 35.0399,36.2627 34.9416,36.2691 C34.858,36.2726 34.7747,36.2751 34.691,36.2744 L34.6658,36.2737 C34.6658,36.2737 34.6511,36.2734 34.6511,36.2734 L34.6479,36.2732 C34.639,36.273 34.6291,36.2725 34.611,36.2714 C34.5159,36.2616 34.4265,36.2351 34.3393,36.1964 C34.2387,36.1518 34.1451,36.0931 34.0442,36.0489 C34.0165,36.0381 33.9901,36.0303 33.9611,36.0229 L33.9361,36.0182 L33.9277,36.0168 L33.911,36.014 L33.9012,36.0125 L33.8858,36.0103 L33.8759,36.009 L33.8608,36.007 L33.8419,36.0048 L33.8098,36.0013 L33.7945,35.9999 L33.7586,35.9966 C33.692,35.9909 33.6253,35.9865 33.559,35.9791 C33.5023,35.971 33.5028,35.971 33.4468,35.9607 C33.3861,35.9464 33.3268,35.9306 33.2692,35.9063 C33.2082,35.8806 33.1498,35.8504 33.0929,35.8176 L33.0928,35.8177 L33.0889,35.8153 C33.073,35.8062 33.0572,35.7968 33.0414,35.7872 L33.0411,35.7871 L33.0396,35.7861 L33.0077,35.7664 L32.9948,35.7583 L32.99,35.7553 L32.9839,35.7514 L32.9718,35.7437 L32.9582,35.7348 L32.9394,35.7228 L32.9088,35.7026 L32.9007,35.6974 L32.8916,35.6914 L32.8891,35.6897 L32.8126,35.6392 L32.7712,35.6122 L32.7459,35.5958 L32.7331,35.5877 L32.687,35.5589 C32.6407,35.5325 32.5942,35.5074 32.5453,35.4859 L32.5234,35.4774 L32.5177,35.4753 L32.5061,35.4713 L32.483,35.4638 L32.4745,35.4611 C32.407,35.4409 32.338,35.4293 32.2669,35.4186 C32.1882,35.4068 32.1091,35.3974 32.0299,35.3899 C31.9297,35.3803 31.8288,35.3729 31.7276,35.3686 L31.7195,35.3683 L31.6625,35.3664 L31.6496,35.366 L31.6043,35.3651 L31.5888,35.3649 L31.5421,35.3646 L31.5303,35.3645 L31.4721,35.3651 L31.4628,35.3653 L31.4151,35.3664 L31.3962,35.3671 L31.3574,35.3687 L31.337,35.3697 L31.2975,35.3721 L31.2795,35.3732 L31.2226,35.3777 L31.1573,35.3841 L31.138,35.3863 L31.0894,35.3921 L31.0713,35.3943 L31.0076,35.4029 L30.9107,35.4171 C30.823,35.4303 30.7356,35.4441 30.6479,35.4556 C30.5697,35.4646 30.57,35.4645 30.4913,35.4719 C30.3388,35.4824 30.1867,35.4856 30.0348,35.4659 C29.9151,35.4503 29.8048,35.4233 29.6998,35.3619 L29.6825,35.3515 L29.6781,35.3487 L29.6756,35.3472 L29.6721,35.345 L29.6655,35.3408 L29.6608,35.3376 L29.6518,35.3318 L29.6363,35.321 L29.6322,35.3183 L29.6307,35.3172 C29.6211,35.3104 29.6115,35.3034 29.602,35.2962 L29.5999,35.2946 L29.5951,35.2909 L29.5834,35.282 L29.5724,35.2732 L29.5682,35.27 L29.5655,35.2677 L29.5613,35.2644 L29.5541,35.2584 L29.5372,35.2446 L29.5235,35.2329 L29.5179,35.2283 L29.5125,35.2236 L29.5066,35.2186 L29.4944,35.2079 L29.4752,35.1913 L29.4461,35.1656 C29.4133,35.1367 29.3806,35.1078 29.3471,35.0801 C29.2143,34.9768 29.0712,34.8875 28.936,34.7874 C28.9214,34.776 28.9069,34.7644 28.8926,34.7527 L28.8925,34.7527 L28.8808,34.7431 L28.8697,34.7339 L28.867,34.7317 C28.8572,34.7236 28.8476,34.7154 28.8379,34.7071 L28.8373,34.7065 L28.8323,34.7022 L28.8113,34.6837 L28.8084,34.681 L28.8055,34.6784 L28.7983,34.6718 L28.7851,34.6597 L28.7792,34.6542 L28.7743,34.6496 L28.7684,34.6439 L28.7594,34.6353 L28.7504,34.6263 L28.744,34.62 L28.7399,34.6158 L28.7343,34.6101 L28.7213,34.5965 L28.7145,34.5894 L28.7124,34.5872 C28.7034,34.5776 28.6946,34.5677 28.6858,34.5577 C28.6774,34.548 28.6691,34.5382 28.6609,34.5283 L28.6587,34.5257 L28.6532,34.5188 L28.642,34.505 L28.6366,34.4979 L28.6326,34.493 L28.6281,34.4869 L28.6211,34.4778 L28.6127,34.4663 L28.6076,34.4595 L28.6047,34.4555 L28.6009,34.4502 L28.5879,34.4316 L28.5835,34.4253 L28.5825,34.4239 C28.5754,34.4133 28.5683,34.4026 28.5614,34.3919 L28.5605,34.3905 L28.5563,34.3837 L28.5444,34.3647 L28.5411,34.3592 L28.5385,34.355 L28.5341,34.3473 L28.5269,34.3353 L28.5215,34.3256 L28.5175,34.3188 L28.5144,34.313 L28.5102,34.3056 L28.5022,34.2905 L28.4977,34.2821 L28.496,34.2789 L28.4942,34.2754 L28.4802,34.2477 L28.4788,34.2449 L28.4775,34.2421 L28.4642,34.214 L28.4627,34.2106 L28.4611,34.2071 L28.457,34.1976 L28.4504,34.1828 L28.4473,34.1754 L28.4444,34.1688 L28.4412,34.1607 L28.4372,34.1512 L28.4327,34.1395 L28.4289,34.13 L28.4268,34.1245 L28.4248,34.1193 L28.4184,34.1017 L28.4144,34.0908 L28.4136,34.0883 L28.4132,34.0872 L28.4132,34.0871 C28.3998,34.0489 28.388,34.01 28.3778,33.9707 C28.3295,33.7849 28.314,33.5929 28.2833,33.4038 C28.2753,33.3609 28.2664,33.3187 28.2557,33.2764 C28.2377,33.2172 28.2174,33.1579 28.1774,33.1095 C28.1418,33.0664 28.0937,33.0383 28.0419,33.0193 L28.018,33.0112 L28.0162,33.0107 L27.9929,33.0041 L27.9887,33.003 L27.9661,32.9977 L27.9356,32.9916 C27.8943,32.9842 27.8525,32.9798 27.8107,32.9788 L27.7856,32.9787 C27.7688,32.9788 27.7521,32.9796 27.7353,32.9809 C27.5648,32.9943 27.406,33.0632 27.2553,33.1395 L27.1845,33.1775 C27.0295,33.2622 26.8787,33.3544 26.7237,33.4389 C26.6237,33.4909 26.5211,33.5369 26.4166,33.5778 L26.4166,33.5778 L26.4154,33.5783 L26.4126,33.5794 L26.3992,33.5845 L26.374,33.5942 L26.3669,33.5968 L26.3595,33.5996 L26.3468,33.6042 L26.3311,33.61 L26.3175,33.6148 L26.3061,33.619 L26.2972,33.6221 L26.2881,33.6253 L26.266,33.6328 L26.2524,33.6375 L26.2481,33.639 C26.2323,33.6443 26.2164,33.6495 26.2006,33.6546 L26.1984,33.6553 L26.1859,33.6592 L26.1578,33.6681 L26.1511,33.6701 L26.1442,33.6723 L26.1308,33.6763 L26.114,33.6814 L26.1011,33.6852 L26.0897,33.6886 L26.0798,33.6914 L26.0701,33.6942 L26.0497,33.6999 L26.035,33.7041 L26.0295,33.7056 L26.026,33.7066 L25.9881,33.7168 L25.98,33.719 L25.9635,33.7232 L25.9375,33.73 L25.9326,33.7312 L25.9249,33.7332 L25.9079,33.7374 L25.893,33.7411 L25.8875,33.7424 C25.8599,33.7491 25.8323,33.7556 25.8047,33.7618 L25.8037,33.7621 L25.8014,33.7626 L25.7584,33.7721 L25.7141,33.7815 L25.7025,33.784 C25.4813,33.8298 25.2572,33.8633 25.0347,33.8917 L25.0347,33.8918 C25.0137,33.8945 24.9927,33.8971 24.9718,33.8997 C24.8972,33.909 24.8226,33.9179 24.7479,33.9268 C24.7147,33.9307 24.6812,33.9346 24.6476,33.9382 L24.6453,33.9384 L24.629,33.9401 L24.6024,33.9428 L24.5983,33.9431 L24.5936,33.9436 L24.5768,33.9451 L24.5535,33.9471 L24.548,33.9476 L24.5418,33.9481 L24.5252,33.9492 L24.5044,33.9508 L24.4975,33.9511 L24.4898,33.9517 L24.4738,33.9524 L24.4554,33.9534 L24.4471,33.9537 L24.4378,33.9541 L24.4226,33.9545 L24.4063,33.955 L24.3967,33.9551 L24.3858,33.9553 L24.3716,33.9552 L24.3573,33.9553 L24.3573,33.9551 C24.211,33.9543 24.0664,33.9341 23.9298,33.875 C23.8271,33.8305 23.7364,33.7703 23.653,33.7009 L23.653,33.7009 L23.6489,33.6975 L23.6369,33.6874 L23.6244,33.6765 L23.6205,33.6732 L23.6182,33.6711 C23.5986,33.6538 23.5794,33.6361 23.5605,33.6179 L23.5577,33.6152 L23.5536,33.6112 L23.544,33.6019 L23.5309,33.5889 L23.5271,33.5851 L23.5252,33.5832 L23.5215,33.5795 L23.5152,33.573 L23.497,33.5545 L23.4832,33.5399 L23.4774,33.5339 L23.4732,33.5294 C23.4606,33.516 23.4481,33.5025 23.4357,33.489 L23.4341,33.4873 L23.4284,33.4809 L23.4091,33.4597 L23.4011,33.4507 L23.3914,33.44 L23.3553,33.3991 L23.3518,33.3952 L23.3502,33.3933 L23.3492,33.3922 L23.2846,33.3186 L23.2496,33.279 L23.2289,33.2557 L23.219,33.2447 L23.1806,33.2026 C23.1485,33.1697 23.1156,33.1379 23.0812,33.1073 L23.0597,33.0899 L23.0523,33.0843 L23.0378,33.0733 L23.0285,33.0667 L23.0155,33.0574 L23.005,33.0504 L22.9928,33.0422 L22.9811,33.0349 L22.9697,33.0277 L22.9568,33.02 L22.9463,33.0139 L22.9318,33.0058 L22.9226,33.0007 L22.9061,32.9921 C22.7091,32.8901 22.4812,32.8476 22.2652,32.8066 L22.1662,32.7878 L22.1208,32.7792 L22.1064,32.7764 C22.0631,32.7682 22.0199,32.7598 21.9766,32.7511 C21.8929,32.7329 21.8098,32.7137 21.7271,32.6913 C21.7122,32.687 21.6974,32.6826 21.6827,32.678 L21.6792,32.6769 L21.6686,32.6735 L21.6476,32.6668 L21.6386,32.6638 L21.6318,32.6616 L21.6222,32.6583 L21.6082,32.6536 L21.5943,32.6486 L21.5847,32.6453 L21.5779,32.6428 L21.5692,32.6397 L21.5493,32.6323 L21.5381,32.6282 L21.5343,32.6267 L21.5305,32.6253 L21.4972,32.6123 L21.4919,32.6102 L21.4848,32.6073 L21.4538,32.5946 L21.4506,32.5932 L21.4461,32.5913 L21.4317,32.5851 L21.4159,32.5783 L21.4159,32.5782 C21.2746,32.5164 21.1392,32.4422 21.0089,32.3569 C20.8548,32.2559 20.7099,32.1425 20.5688,32.0243 L20.5688,32.0244 L20.565,32.0212 L20.5576,32.015 L20.5257,31.9881 L20.5132,31.9775 L20.5097,31.9745 L20.5035,31.9693 L20.4707,31.9412 L20.458,31.9303 L20.4557,31.9284 L20.4497,31.9232 L20.3727,31.8565 L20.3481,31.8351 L20.3435,31.8312 L20.3426,31.8304 L20.2378,31.7391 L20.1286,31.6449 L20.0385,31.5699 L20.006,31.543 L19.9488,31.4959 L19.84,31.4066 L19.7589,31.3401 L19.7107,31.3004 L19.6025,31.2115 L19.5857,31.1975 L19.5739,31.1878 L19.5447,31.1635 L19.5151,31.1389 L19.5016,31.1276 L19.4818,31.1112 L19.4541,31.0878 L19.428,31.0659 L19.428,31.0658 L19.3902,31.034 C19.2249,30.8912 19.0622,30.7456 18.9077,30.5911 C18.8145,30.498 18.7201,30.4046 18.644,30.2966 C18.514,30.1117 18.4295,29.8976 18.3677,29.6814 C18.2859,29.3954 18.2419,29.0987 18.2147,28.8028 C18.2053,28.7003 18.2053,28.5972 18.1982,28.4946 C18.1939,28.4515 18.189,28.4089 18.1802,28.3666 C18.1704,28.3266 18.159,28.2822 18.1284,28.2526 C18.1172,28.2434 18.1055,28.2376 18.0916,28.2341 C18.0493,28.2262 18.005,28.234 17.9633,28.2412 C17.8991,28.2521 17.8355,28.2655 17.7711,28.2756 C17.7475,28.2782 17.7242,28.2806 17.701,28.2822 L17.6963,28.2826 L17.6853,28.2833 L17.6789,28.2837 L17.6762,28.2838 C17.6668,28.2844 17.6574,28.2848 17.6479,28.285 C17.6001,28.2843 17.5529,28.2814 17.5058,28.2718 C17.4435,28.259 17.3815,28.2353 17.3221,28.2147 C17.1662,28.1606 17.0116,28.0856 16.9097,27.9509 C16.8463,27.8669 16.8173,27.7634 16.7735,27.6691 L16.7672,27.6567 C16.7406,27.6459 16.7134,27.6369 16.6848,27.6331 L16.6732,27.632 L16.6702,27.6318 L16.6596,27.6316 L16.6588,27.6315 L16.6485,27.6321 L16.6336,27.6337 L16.6317,27.6341 L16.6189,27.6368 L16.6145,27.6379 L16.6037,27.6411 L16.6,27.6423 L16.5863,27.6476 L16.5832,27.649 L16.5727,27.6539 L16.5682,27.6562 L16.5585,27.6615 L16.5548,27.6635 L16.5429,27.6709 L16.5238,27.6841 L16.5211,27.6861 L16.5028,27.7002 C16.4841,27.7153 16.4663,27.7315 16.4491,27.7471 C16.3742,27.8218 16.3068,27.903 16.2345,27.9801 C16.1319,28.084 16.0239,28.1828 15.9243,28.2897 C15.901,28.3159 15.8786,28.3424 15.857,28.3701 C15.8226,28.4179 15.7907,28.4673 15.7594,28.5172 L15.7436,28.5427 L15.726,28.571 L15.6974,28.6173 L15.6826,28.641 L15.6739,28.655 L15.6708,28.6599 L15.6662,28.6672 L15.6492,28.6936 L15.6383,28.7107 L15.6358,28.7144 L15.6343,28.7167 L15.632,28.7201 L15.62,28.7382 L15.6014,28.7655 C15.5739,28.8033 15.5457,28.84 15.516,28.8761 C15.4765,28.921 15.4371,28.9647 15.3893,29.001 C15.3133,29.0588 15.2259,29.1006 15.1395,29.1404 C15.0976,29.1597 15.0554,29.1784 15.0134,29.1975 L14.9884,29.2088 L14.9261,29.2378 L14.9209,29.2402 C14.8971,29.2516 14.8734,29.2632 14.8499,29.2753 C14.82,29.292 14.7911,29.3093 14.7639,29.3302 C14.7564,29.3366 14.7565,29.3363 14.7495,29.3432 C14.742,29.3778 14.7361,29.4125 14.7303,29.4475 L14.7248,29.4844 C14.7432,29.5151 14.7585,29.5467 14.7734,29.5792 C14.7996,29.6425 14.8186,29.7087 14.8456,29.7716 C14.8634,29.7935 14.886,29.8111 14.9079,29.8286 C14.962,29.8696 15.0174,29.9087 15.0702,29.9514 C15.104,29.9811 15.1037,29.9809 15.1361,30.0124 C15.1701,30.0497 15.1698,30.0495 15.2012,30.0891 C15.2345,30.1387 15.2646,30.1897 15.2944,30.2415 C15.4413,30.5066 15.5581,30.7861 15.6895,31.0589 C15.7284,31.1353 15.7678,31.2107 15.8107,31.2849 C15.8961,31.4263 15.9926,31.5599 16.1098,31.6759 L16.1335,31.6987 L16.1401,31.705 L16.1636,31.7265 C16.3457,31.8894 16.5636,32.0092 16.7845,32.1106 L16.8701,32.1492 L16.8968,32.161 L16.9469,32.183 L17.0719,32.2371 L17.2195,32.3002 L17.224,32.3022 C17.2694,32.3216 17.3148,32.3412 17.3601,32.361 L17.3646,32.363 C17.4223,32.3882 17.4797,32.4138 17.5368,32.4402 C17.6015,32.4711 17.6656,32.5029 17.7293,32.5358 C17.8274,32.5888 17.9259,32.6422 18.0149,32.7099 C18.2029,32.853 18.3615,33.0357 18.5049,33.2222 C18.5298,33.2545 18.5544,33.2872 18.5785,33.3204 L18.5784,33.3201 L18.5928,33.3399 L18.6017,33.3525 L18.6124,33.3674 L18.6252,33.3858 L18.6353,33.4001 L18.648,33.4187 C18.658,33.4335 18.6679,33.4484 18.6777,33.4634 L18.6963,33.4923 L18.7114,33.5164 C18.7204,33.531 18.7292,33.5456 18.7378,33.5603 L18.7533,33.587 L18.7711,33.6191 L18.782,33.6394 L18.7954,33.6652 L18.8064,33.6872 C18.8113,33.6972 18.8161,33.7072 18.8209,33.7174 C18.882,33.8481 18.9257,33.9863 18.9566,34.1271 C18.9602,34.1437 18.9636,34.1602 18.9669,34.1768 L18.9746,34.2177 L18.9775,34.2337 L18.9824,34.2631 L18.9863,34.2873 L18.9895,34.3087 L18.9941,34.3409 L18.9958,34.3543 L19.0013,34.3979 L19.0069,34.4486 L19.0111,34.4918 L19.011,34.4916 C19.0264,34.6574 19.0315,34.8243 19.0361,34.9905 C19.0402,35.141 19.0497,35.291 19.0551,35.4413 C19.0591,35.5528 19.0542,35.6643 19.0594,35.7758 C19.0621,35.8107 19.0642,35.8459 19.0719,35.8801 C19.1533,35.9028 19.2489,35.8834 19.3274,35.8616 C19.3406,35.8573 19.3401,35.8574 19.353,35.8527 L19.3603,35.8498 C19.367,35.8327 19.3745,35.816 19.3832,35.7998 C19.4009,35.772 19.4182,35.7445 19.4435,35.7225 C19.4491,35.7176 19.4547,35.713 19.4605,35.7086 L19.4605,35.7085 L19.4746,35.698 L19.489,35.6882 L19.5047,35.6785 L19.5207,35.6697 L19.537,35.6617 L19.5536,35.6544 L19.5705,35.6479 L19.5876,35.6421 L19.6051,35.6371 L19.6228,35.6326 L19.6459,35.6278 L19.6629,35.625 L19.6802,35.6226 L19.697,35.6208 Z M20.3715,36.5608 L20.4383,36.7713 C20.431,36.6974 20.4089,36.6259 20.3715,36.5608 Z M15.4132,12.7255 C15.3424,12.6957 15.2651,12.6784 15.1923,12.6665 L15.1428,12.6592 L15.1266,12.6572 L15.0928,12.6533 L15.0739,12.6514 L15.0424,12.6486 L15.0229,12.6471 L14.9911,12.6451 L14.9724,12.6441 L14.9372,12.6428 L14.922,12.6423 L14.8723,12.6416 L14.8596,12.6416 L14.8222,12.6419 L14.8016,12.6423 L14.7721,12.6432 L14.7491,12.644 L14.7222,12.6453 L14.6978,12.6466 L14.6731,12.6482 L14.6469,12.6499 L14.6268,12.6515 C14.5868,12.6547 14.5469,12.6585 14.5071,12.6629 L14.5062,12.663 L14.4609,12.6682 C14.4185,12.6733 14.3762,12.6789 14.3343,12.6849 L14.2916,12.6917 C14.3081,12.5666 14.3228,12.4414 14.3368,12.3159 L14.3445,12.2371 L14.3523,12.1545 L14.3568,12.1051 L14.3619,12.0489 L14.3681,11.9765 L14.3715,11.9356 L14.3805,11.8202 C14.3877,11.7073 14.3945,11.5945 14.3986,11.4814 C14.4013,11.4054 14.4032,11.3285 14.4037,11.2525 C14.4042,11.1785 14.4035,11.1032 14.4012,11.0292 C14.3986,10.9469 14.3956,10.9002 14.3894,10.8185 C14.3775,10.6649 14.3571,10.5016 14.2947,10.3593 C14.2619,10.2847 14.2126,10.2127 14.13,10.1922 C14.1042,10.1884 14.0817,10.188 14.0558,10.1902 L14.0384,10.1938 L14.0328,10.1951 L14.0213,10.198 L14.0147,10.1999 L14.0044,10.2029 L13.9976,10.2051 L13.9876,10.2085 L13.9809,10.2109 L13.9709,10.2147 L13.9646,10.2172 L13.954,10.2216 L13.9485,10.224 L13.9342,10.2306 L13.9327,10.2313 L13.906,10.2449 L13.9026,10.2468 L13.8798,10.2598 L13.8601,10.2719 L13.8499,10.2783 L13.8235,10.2959 L13.8209,10.2977 L13.7907,10.3193 C13.6895,10.3932 13.5977,10.4787 13.5062,10.5641 C13.3068,10.7562 13.1135,10.9544 12.915,11.1475 C12.8218,11.2361 12.7279,11.3236 12.6313,11.4086 C12.5512,11.4791 12.4684,11.5468 12.3834,11.6113 C12.3169,11.6618 12.2487,11.7102 12.1786,11.7556 C12.1273,11.7888 12.0751,11.8204 12.0216,11.8499 C11.8535,11.9425 11.6721,12.0157 11.4815,12.0448 C11.445,12.0504 11.4082,12.0544 11.3715,12.0562 L11.3347,12.0571 C11.2858,12.0572 11.2369,12.0527 11.1886,12.0415 C11.1084,12.0229 11.0332,11.9878 10.9649,11.9422 C10.8122,11.8404 10.6939,11.6925 10.5871,11.5457 L10.5408,11.481 L10.536,11.4742 L10.5334,11.4705 L10.5238,11.4566 C10.423,11.3127 10.3276,11.1648 10.2265,11.0211 C10.1709,10.945 10.1141,10.8707 10.0547,10.7975 C9.9131,10.6311 9.7546,10.4786 9.5616,10.3729 C9.5198,10.35 9.4768,10.3294 9.4327,10.3113 C9.41,10.302 9.3863,10.2908 9.3615,10.2879 C9.3111,10.2819 9.2581,10.2962 9.2113,10.3136 C9.1098,10.3514 9.0173,10.4169 8.9475,10.4995 C8.8932,10.5637 8.8527,10.6393 8.8317,10.7209 C8.8191,10.7697 8.8142,10.8201 8.8099,10.8702 C8.802,10.9625 8.7999,11.0553 8.80072839,11.148 C8.8047,11.4503 8.8406,11.7524 8.8909,12.0502 C8.9293,12.277 8.9767,12.5026 9.0346,12.7254 L9.0396,12.744 L9.0633,12.8318 L9.0666,12.8438 L9.0916,12.9314 L9.0951,12.9434 L9.1171,13.0165 L9.124,13.0389 L9.1507,13.1229 C9.2071,13.2963 9.2708,13.4678 9.3478,13.6331 L9.3742,13.6882 L9.3831,13.706 L9.4017,13.7429 L9.4242,13.7852 L9.4281,13.7922 L9.4536,13.8373 L9.4688,13.8629 L9.4747,13.8724 C9.4874,13.8932 9.5006,13.9138 9.5143,13.9339 L9.5335,13.9616 L9.5507,13.9852 L9.568,14.0081 L9.5852,14.0299 C9.5957,14.043 9.6064,14.0558 9.6174,14.0683 L9.6459,14.374 L9.6548,14.4666 L9.6596,14.5171 L9.674,14.6602 C9.7181,15.0383 9.7707,15.4342 9.9472,15.7773 C9.9908,15.8619 10.0441,15.9403 10.1005,16.0168 C10.1773,16.121 10.2568,16.2228 10.3383,16.3233 L10.4406,16.4483 L10.4614,16.4736 L10.5148,16.538 L10.624,16.6694 L10.6771,16.7333 L10.6987,16.7592 L10.7536,16.8253 L10.7903,16.8697 C10.8242,16.9107 10.8579,16.9519 10.8915,16.9931 C10.9879,17.1141 11.0823,17.236 11.175,17.3598 C11.2366,17.4446 11.2975,17.5299 11.3557,17.6172 C11.4139,17.7044 11.4725,17.7888 11.505,17.8891 C11.544,18.0099 11.5571,18.1384 11.561,18.2646 C11.5657,18.4137 11.5565,18.5631 11.5402,18.7113 L11.5392,18.7207 L11.5391,18.7221 L11.5388,18.7244 L11.5311,18.7897 C11.4706,19.2739 11.349,19.7512 11.2031,20.2162 C11.1594,20.3555 11.1129,20.494 11.0633,20.6313 C11.0353,20.7088 10.9981,20.7855 10.9789,20.8658 C10.9764,20.88 10.9746,20.8938 10.9736,20.9082 C10.9744,21.0504 11.0601,21.1646 11.1481,21.2691 C11.2448,21.3779 11.3477,21.4808 11.4422,21.5916 C11.4752,21.6332 11.5086,21.6757 11.5321,21.7237 C11.5709,21.803 11.5804,21.8918 11.586,21.9787 C11.5907,22.0878 11.5892,22.197 11.594,22.3061 L11.597,22.3413 L11.5977,22.3481 L11.6014,22.3815 C11.6085,22.4391 11.6201,22.496 11.6414,22.5506 C11.6703,22.6249 11.7162,22.6849 11.7723,22.7345 C11.7935,22.7533 11.8162,22.7706 11.84,22.7867 L11.8658,22.8033 L11.8924,22.819 L11.9193,22.8337 L11.9437,22.8462 L11.9504,22.8494 L11.9804,22.8634 L11.9904,22.8679 L12.0255,22.8829 L12.0626,22.8975 L12.0722,22.9012 L12.0901,22.9078 L12.1275,22.9213 L12.1419,22.9263 L12.1898,22.9426 C12.2477,22.9619 12.2744,22.9694 12.3332,22.9872 C12.5516,23.0498 12.7718,23.1056 12.9901,23.1683 C13.015,23.1757 13.0399,23.1832 13.0647,23.1909 L13.1308,23.2114 L13.1476,23.2168 L13.1683,23.2235 L13.2008,23.234 L13.2259,23.2423 L13.2449,23.2488 L13.2704,23.2574 L13.2874,23.2633 L13.3037,23.269 L13.3203,23.2749 L13.3398,23.2818 L13.3607,23.2895 L13.3812,23.2969 L13.3947,23.3021 L13.4087,23.3072 L13.4334,23.3168 L13.458,23.3263 L13.4793,23.3348 C13.5231,23.3523 13.5667,23.3707 13.6099,23.3902 C13.7428,23.45 13.872,23.5184 13.9942,23.598 C14.0633,23.643 14.1301,23.6915 14.194,23.7437 C14.2454,23.7856 14.2965,23.8286 14.3376,23.8812 C14.4754,24.0576 14.5009,24.2968 14.5057,24.5129 C14.5068,24.5641 14.5064,24.6159 14.5054,24.6671 C14.5038,24.7482 14.5004,24.8152 14.4971,24.8998 C14.4927,25.013 14.4922,25.0126 14.4896,25.1258 C14.4892,25.1961 14.4905,25.2657 14.4943,25.3359 C14.5067,25.4824 14.5342,25.6481 14.654,25.7477 C14.6971,25.7835 14.7494,25.8007 14.7969,25.8289 C14.8215,25.8469 14.8211,25.8466 14.8441,25.8666 C14.9323,25.9566 14.9858,26.0703 15.0261,26.1886 C15.0672,26.3096 15.0957,26.4355 15.1163,26.5615 C15.1642,26.8536 15.1861,27.1494 15.1925,27.4457 L15.1941,27.5323 L15.1944,27.5601 L15.1944,27.5835 L15.1948,27.6299 L15.1947,27.6555 L15.1948,27.6716 L15.1946,27.6942 L15.1945,27.7274 L15.1942,27.7613 L15.194,27.7831 L15.1937,27.8016 L15.1935,27.8249 L15.1926,27.8683 L15.1922,27.8945 L15.1919,27.9075 L15.1916,27.9224 L15.1901,27.9793 L15.1895,28.0058 L15.1892,28.0125 C15.1883,28.0473 15.1871,28.0822 15.1859,28.117 L15.1814,28.2111 L15.3084,28.299 L15.3669,28.2051 C15.3866,28.1738 15.4064,28.1427 15.4268,28.1119 L15.4496,28.0808 L15.4729,28.0504 L15.4925,28.0257 C15.5018,28.0139 15.5114,28.0022 15.5212,27.9906 C15.6407,27.8561 15.7763,27.7378 15.8992,27.6067 C15.951,27.5487 16.0021,27.4904 16.0553,27.4338 C16.1051,27.3841 16.1553,27.3353 16.2114,27.2927 C16.2475,27.2653 16.2855,27.2405 16.3251,27.2191 L16.342,27.2102 L16.3591,27.2017 L16.3769,27.1933 L16.3939,27.1859 L16.4116,27.1787 L16.4287,27.1722 L16.4538,27.1636 L16.4656,27.1599 L16.4817,27.1552 L16.5067,27.1488 L16.521,27.1455 L16.536,27.1425 L16.5609,27.1383 L16.5778,27.1359 L16.5915,27.1345 C16.5998,27.1336 16.608,27.1329 16.6163,27.1324 C16.6274,27.1317 16.6386,27.1312 16.6497,27.1311 L16.6832,27.1315 C16.7055,27.1323 16.7277,27.1342 16.7499,27.1371 C16.8114,27.1452 16.8718,27.1612 16.9298,27.1831 C16.9923,27.2066 17.0527,27.2343 17.1027,27.2791 C17.1733,27.3423 17.217,27.4307 17.2529,27.5166 C17.2715,27.561 17.2862,27.6097 17.3106,27.6516 C17.322,27.6645 17.3362,27.674 17.3505,27.6833 C17.394,27.7084 17.4404,27.7264 17.4877,27.7429 C17.5033,27.7482 17.5212,27.7551 17.5399,27.7618 L17.5599,27.7687 L17.585,27.7764 C17.5948,27.7791 17.6046,27.7814 17.6141,27.7831 C17.6328,27.7852 17.6512,27.785 17.67,27.7838 C17.7588,27.7739 17.8459,27.7534 17.9342,27.7397 C17.9757,27.7352 18.0156,27.7317 18.0572,27.7308 C18.1182,27.7322 18.178,27.738 18.2368,27.7551 C18.276,27.7665 18.3141,27.7818 18.35,27.8012 C18.3902,27.823 18.4278,27.8491 18.4619,27.8796 C18.6098,28.0117 18.6637,28.1996 18.6902,28.3892 C18.7024,28.5122 18.7034,28.6356 18.7128,28.7587 C18.741,29.0386 18.7793,29.3195 18.8618,29.5892 C18.9137,29.7587 18.9831,29.9244 19.0949,30.0633 C19.1234,30.0954 19.1528,30.1266 19.1827,30.1574 L19.2612,30.2375 L19.3303,30.3045 L19.4003,30.3705 L19.4285,30.3966 L19.471,30.4357 L19.501,30.4628 L19.5425,30.5002 L19.573,30.5272 L19.6149,30.5642 L19.6448,30.5903 L19.6881,30.6279 L19.7164,30.6522 L19.7625,30.6916 L19.7875,30.7128 L19.8305,30.7491 L19.8906,30.7993 L19.992,30.8837 L20.0174,30.9046 C20.1619,31.024 20.3075,31.1426 20.4515,31.2631 C20.6108,31.3993 20.7677,31.5381 20.9282,31.6727 C21.0514,31.7728 21.1781,31.8705 21.3117,31.9564 L21.3629,31.9886 L21.4147,32.0194 L21.4672,32.0489 L21.4934,32.063 L21.5201,32.0768 L21.547,32.0902 L21.5741,32.1032 L21.6014,32.1158 L21.6289,32.1279 L21.6566,32.1396 L21.6846,32.1509 L21.7127,32.1616 L21.7411,32.1719 C21.7411,32.1719 21.7883,32.1878 21.7883,32.1878 L21.8357,32.2026 L21.8549,32.2082 L21.8834,32.2163 L21.9042,32.2219 L21.9313,32.229 L21.9534,32.2346 L21.9789,32.2409 L22.0028,32.2465 L22.0256,32.2517 L22.0528,32.2578 L22.1035,32.2686 C22.2534,32.2995 22.405,32.3237 22.554,32.3544 C22.621,32.3697 22.6874,32.3853 22.7538,32.403 C22.7977,32.4156 22.8414,32.4289 22.8848,32.4436 L22.9064,32.4509 L22.944,32.4643 L22.9814,32.4783 L23.0185,32.4931 L23.0446,32.5041 L23.0749,32.5174 L23.0915,32.5251 L23.1048,32.5313 L23.1274,32.5423 L23.1345,32.5459 L23.1634,32.5608 C23.1742,32.5665 23.1849,32.5724 23.1954,32.5784 L23.2214,32.5934 L23.2322,32.5999 L23.2496,32.6107 L23.266,32.6212 L23.2774,32.6287 L23.2992,32.6436 L23.3048,32.6475 L23.3317,32.6672 L23.3527,32.6833 L23.371,32.6979 C23.3822,32.7069 23.3932,32.7161 23.404,32.7255 L23.4135,32.7337 L23.4254,32.7444 L23.4429,32.76 L23.4526,32.7689 L23.4635,32.7793 L23.478,32.793 L23.4906,32.8052 L23.5,32.8147 L23.5123,32.8269 L23.5277,32.8425 L23.5459,32.8614 L23.564,32.8805 L23.579,32.8966 L23.6115,32.9323 L23.6349,32.9585 L23.635,32.9587 C23.7129,33.046 23.7883,33.136 23.8684,33.2209 C23.9,33.2526 23.9323,33.283 23.9663,33.3122 C24.023,33.3578 24.0838,33.4013 24.1531,33.4257 C24.2194,33.449 24.2911,33.4552 24.3609,33.4558 L24.4094,33.4553 L24.4491,33.4537 L24.489,33.4512 L24.5289,33.4479 L24.569,33.444 L24.6089,33.4397 L24.6894,33.4302 C24.7628,33.4215 24.8361,33.4127 24.9094,33.4036 L24.9973,33.3923 L25.072,33.3822 C25.2843,33.3531 25.4959,33.3175 25.7047,33.2702 C25.7291,33.2646 25.7535,33.2589 25.7778,33.253 L25.8248,33.2413 L25.8618,33.2318 L25.9056,33.22 L25.9499,33.2077 L25.994,33.1948 L26.0369,33.1816 L26.0821,33.1671 L26.127,33.1519 L26.147,33.1449 L26.1718,33.136 L26.1915,33.1288 L26.2163,33.1195 L26.2357,33.112 L26.2607,33.1021 L26.2797,33.0945 L26.305,33.0839 L26.3233,33.0762 L26.3495,33.0647 L26.3666,33.0571 L26.4096,33.0372 L26.4522,33.0165 C26.6468,32.9153 26.8319,32.7971 27.0261,32.6951 C27.1293,32.6428 27.2349,32.5949 27.3441,32.5577 L27.3663,32.5502 L27.4016,32.5391 L27.4371,32.5287 L27.4729,32.5193 L27.5089,32.5107 L27.5464,32.5029 C27.5581,32.5006 27.57,32.4984 27.5819,32.4964 L27.6118,32.4918 L27.6421,32.4878 L27.6727,32.4845 L27.6911,32.4828 L27.7035,32.4818 L27.731,32.4801 C27.7541,32.4789 27.7773,32.4782 27.8006,32.4782 L27.8033,32.4782 L27.8284,32.4784 L27.8599,32.4794 L27.8787,32.4804 L27.8914,32.4812 L27.9188,32.4834 C27.9426,32.4855 27.9663,32.4883 27.9898,32.4918 L28.0168,32.4961 L28.0478,32.5018 L28.0786,32.5084 L28.1039,32.5146 C28.128,32.5206 28.1518,32.5275 28.1753,32.5353 C28.3024,32.577 28.4197,32.6429 28.5143,32.7374 C28.564,32.787 28.6064,32.8436 28.6412,32.9045 C28.6837,32.979 28.714,33.0577 28.7369,33.139 L28.742,33.1573 L28.7481,33.1809 C28.751,33.1924 28.7537,33.2039 28.7563,33.2155 C28.7598,33.231 28.7631,33.2466 28.7663,33.2622 L28.7739,33.3016 L28.7767,33.3176 L28.7809,33.3424 L28.7865,33.3775 L28.7938,33.4262 L28.8049,33.5066 L28.8094,33.5404 L28.82,33.6178 L28.826,33.6594 L28.8302,33.6873 L28.8326,33.7022 L28.8408,33.7507 C28.8505,33.7976 28.8614,33.8436 28.8743,33.8897 L28.8827,33.9145 L28.8916,33.939 L28.9011,33.9632 L28.9112,33.9871 L28.9219,34.0108 L28.9332,34.0341 L28.945,34.0571 L28.9575,34.0798 L28.9705,34.1021 L28.9842,34.1241 L28.9984,34.1457 L29.0133,34.1669 L29.0288,34.1876 L29.045,34.208 L29.0617,34.2279 L29.0799,34.2482 C29.1284,34.3007 29.1831,34.3457 29.2392,34.3898 C29.3665,34.484 29.4992,34.5706 29.6269,34.6643 L29.663,34.6933 L29.6984,34.7231 L29.7161,34.7384 C29.7425,34.7612 29.7685,34.7844 29.7949,34.8073 L29.8055,34.8165 L29.8405,34.8464 L29.8752,34.875 L29.9105,34.9025 C29.9366,34.9206 29.9627,34.9382 29.9925,34.9499 C30.0265,34.9615 30.0638,34.9654 30.0992,34.97 L30.1255,34.9731 L30.1518,34.9757 L30.178,34.9777 L30.2041,34.9792 L30.2298,34.9802 L30.2527,34.9807 L30.3009,34.9809 L30.3191,34.9806 C30.5814,34.9751 30.8405,34.9198 31.1001,34.8875 C31.181,34.8793 31.1807,34.8794 31.262,34.8734 C31.2902,34.872 31.3184,34.8708 31.3466,34.8699 L31.3625,34.8693 C31.3897,34.8684 31.4169,34.8677 31.4441,34.8673 L31.4887,34.8666 L31.5442,34.8664 L31.5444,34.8664 C31.5729,34.8664 31.6014,34.8666 31.6299,34.8671 L31.6441,34.8674 C31.6721,34.8679 31.7,34.8686 31.7279,34.8695 L31.7392,34.8699 C31.7983,34.872 31.8573,34.875 31.9162,34.879 L31.923,34.8794 C31.9534,34.8815 31.9837,34.8838 32.014,34.8864 C32.0651,34.8907 32.1163,34.8957 32.1674,34.9015 C32.348,34.9218 32.5328,34.9442 32.7033,35.0104 L32.7357,35.0236 L32.7358,35.0235 L32.745,35.0274 L32.7859,35.0458 L32.8022,35.0537 L32.8133,35.059 L32.8262,35.0654 L32.8513,35.0784 L32.8658,35.0861 L32.8887,35.0987 L32.905,35.1078 L32.9257,35.1197 L32.9437,35.1303 L32.9623,35.1415 L32.982,35.1535 L32.9986,35.1639 L33.0346,35.1867 L33.0732,35.2117 L33.0952,35.226 L33.1706,35.2758 L33.2473,35.3259 L33.2838,35.3492 L33.321,35.3723 C33.321,35.3723 33.3571,35.3925 33.3571,35.3925 L33.3951,35.4127 C33.4172,35.4242 33.4397,35.4351 33.4626,35.4452 C33.5141,35.4658 33.5676,35.4752 33.6223,35.4831 C33.734,35.4956 33.8462,35.5012 33.9578,35.5148 C34.0213,35.5247 34.0837,35.537 34.1446,35.5551 L34.1675,35.562 L34.1792,35.5658 L34.2014,35.5736 L34.204,35.5746 C34.2144,35.5784 34.2248,35.5824 34.2351,35.5867 C34.3409,35.6303 34.4385,35.6912 34.5422,35.7394 C34.5649,35.749 34.5874,35.7577 34.6109,35.765 C34.6244,35.7683 34.6375,35.7715 34.6513,35.7729 C34.6806,35.7748472 34.7101,35.7748472 34.7395,35.7748472 L34.8277,35.7735 C34.9283,35.7692 35.0285,35.7616 35.1287,35.7523 C35.0964,35.2898 35.1306,34.8227 35.2205,34.3679 C35.2242,34.3491 35.228,34.3305 35.2319,34.3118 L35.2426,34.2621 L35.2544,34.2094 L35.26,34.1856 C35.2788,34.1058 35.2995,34.0266 35.3224,33.9479 C35.3587,33.8233 35.3989,33.7006 35.4573,33.5844 C35.5835,33.3332 35.7706,33.1193 35.9587,32.913 C36.02,32.8457 36.0819,32.7789 36.1427,32.7112 C36.1692,32.6817 36.194,32.6505 36.2231,32.6235 C36.2371,32.6121 36.2513,32.6028 36.2672,32.5944 C36.3581,32.5534 36.4593,32.5686 36.5539,32.5878 L36.5607,32.5892 C36.6694,32.6142 36.7758,32.6486 36.8847,32.6728 C36.9214,32.6799 36.9629,32.6882 37.0031,32.6878 L37.0165,32.6874 C37.043,32.6857 37.0687,32.6797 37.0917,32.6663 C37.1285,32.6448 37.1592,32.61 37.1832,32.5752 C37.2385,32.4947 37.2683,32.3912 37.2598,32.2935 C37.256,32.2504 37.244,32.2058 37.2166,32.1714 C37.2001,32.1506 37.1799,32.1389 37.1572,32.1255 C37.0969,32.0951 37.0347,32.071 36.9719,32.0462 C36.9289,32.029 36.8864,32.0113 36.8441,31.9926 C36.8033,31.9729 36.7644,31.9522 36.7257,31.9285 C36.687,31.902 36.6499,31.8727 36.623,31.8338 C36.5806,31.7727 36.5677,31.6964 36.5571,31.6244 C36.5421,31.4997 36.5382,31.3741 36.5291,31.2489 L36.5266,31.2172 L36.5232,31.178 L36.5177,31.1239 C36.5007,30.9987 36.4751,30.8746 36.4208,30.7597 L36.4102,30.7383 L36.4066,30.7314 L36.399,30.7172 L36.3945,30.7092 L36.3871,30.6964 L36.3823,30.6883 L36.3746,30.6758 L36.3697,30.6681 L36.3612,30.6551 L36.3566,30.6483 L36.3455,30.6324 L36.3431,30.629 L36.3291,30.6101 L36.3247,30.6044 L36.3146,30.5916 L36.3088,30.5845 L36.2996,30.5733 L36.2933,30.5659 L36.2841,30.5553 L36.2776,30.548 L36.2719,30.5417 L36.2451,30.5132 L36.2438,30.5119 L36.2158,30.4843 L36.2127,30.4813 L36.1839,30.4547 L36.1795,30.4507 L36.162,30.4355 L36.1408,30.4175 L36.1245,30.4041 L36.1039,30.3876 L36.0865,30.374 L36.0664,30.3588 L36.048,30.3451 L36.0296,30.3317 C35.9992,30.3097 35.9683,30.2885 35.9372,30.2679 L35.9287,30.2622 C35.9006,30.2436 35.8725,30.2255 35.8446,30.2077 C35.6822,30.1075 35.5176,30.0108 35.3576,29.9068 C35.2729,29.85 35.1899,29.7906 35.1106,29.7269 L35.107,29.7241 L35.0997,29.7181 L35.083,29.7046 L35.0725,29.6958 L35.066,29.6904 L35.0602,29.6855 L35.0504,29.6773 L35.0335,29.6626 L35.0257,29.6559 L35.0227,29.6532 C35.0105,29.6425 34.9983,29.6315 34.9863,29.6206 L34.9862,29.6204 L34.9852,29.6195 L34.9556,29.5917 L34.9511,29.5873 L34.9476,29.584 L34.9402,29.5767 L34.9251,29.5619 L34.9161,29.5527 L34.9099,29.5466 L34.9041,29.5406 L34.8952,29.5315 L34.8806,29.5159 L34.8731,29.508 L34.8701,29.5047 C34.859,29.4928 34.8481,29.4807 34.8374,29.4684 C34.7298,29.3451 34.6365,29.2084 34.5652,29.061 C34.5585,29.047 34.552,29.033 34.5457,29.0189 L34.5445,29.0164 L34.544,29.0152 C34.5381,29.0017 34.5323,28.9882 34.5268,28.9746 L34.5254,28.9714 L34.5245,28.9693 C34.5191,28.9559 34.5138,28.9424 34.5088,28.9289 L34.5077,28.9261 L34.5068,28.9235 L34.5037,28.9153 L34.4978,28.8983 L34.4914,28.8804 L34.4893,28.8738 L34.4866,28.866 L34.4812,28.8485 L34.4766,28.8345 L34.4745,28.8272 L34.4711,28.8164 L34.4661,28.7981 L34.4632,28.7882 L34.4614,28.7813 L34.4572,28.7664 L34.4524,28.747 L34.4511,28.7417 L34.4499,28.7369 L34.4448,28.7161 L34.4402,28.6949 L34.4339,28.6655 C34.352,28.2596 34.405,27.8284 34.4717,27.4223 C34.489,27.3164 34.4973,27.2732 34.5191,27.1511 C34.5255,27.1204 34.5329,27.0905 34.5417,27.0604 C34.6006,26.8845 34.7072,26.7349 34.829,26.5964 C34.9607,26.4466 35.107,26.3104 35.2433,26.165 C35.2847,26.1191 35.2844,26.1195 35.3243,26.0728 C35.4409,25.9266 35.5559,25.7495 35.5026,25.5538 C35.4906,25.5096 35.4733,25.4673 35.4502,25.4278 C35.4217,25.3792 35.3852,25.3356 35.3437,25.2975 C35.2818,25.2408 35.2094,25.1963 35.1338,25.1604 C35.1216,25.1546 35.1094,25.149 35.0971,25.1437 L35.0677,25.1314 L35.0392,25.1201 L35.0321,25.1174 L35.0064,25.108 L34.996,25.1044 L34.972,25.0962 L34.9596,25.0922 L34.9366,25.0851 L34.9228,25.081 L34.9007,25.0746 L34.8856,25.0705 L34.8642,25.0648 L34.8468,25.0605 L34.8282,25.0559 L34.8141,25.0527 L34.7917,25.0476 L34.775,25.0441 L34.7538,25.0398 L34.737,25.0366 L34.7158,25.0326 L34.699,25.0296 L34.6775,25.026 L34.6611,25.0233 L34.639,25.0199 L34.6232,25.0175 L34.6001,25.0142 L34.5853,25.0122 L34.5747,25.0109 L34.5099,25.003 L34.4607,24.9979 L34.4444,24.9964 L34.4114,24.9934 L34.392,24.9919 L34.362,24.9896 L34.3413,24.9882 L34.3125,24.9864 L34.2913,24.9852 L34.2629,24.9838 L34.2414,24.9829 L34.2132,24.9819 L34.1916,24.9812 L34.1634,24.9805 L34.1419,24.98 L34.1133,24.9797 L34.0921,24.9795 L34.0613,24.9795 L34.0441,24.9795 L34.0164,24.9798 L33.996,24.98 L33.9652,24.9807 L33.9476,24.9811 L33.9149,24.9821 L33.8996,24.9826 L33.8647,24.984 L33.8526,24.9845 L33.8145,24.9864 L33.807,24.9868 L33.7643,24.9893 L33.7317,24.9914 C33.7145,24.9926 33.6972,24.9939 33.68,24.9952 L33.6614,24.9969 C33.6008,24.5904 33.5534,24.1818 33.5182,23.7723 C33.4821,23.3528 33.4583,22.9317 33.4586,22.5106 C33.4587,22.4462 33.4594,22.3818 33.4609,22.3174 L33.4625,22.2512 L33.4656,22.1647 L33.4667,22.139 L33.4683,22.1028 L33.4695,22.0784 L33.4706,22.0589 L33.472,22.0319 L33.4743,21.992 L33.4763,21.9611 L33.4789,21.9246 L33.4807,21.899 C33.4826,21.8724 33.4847,21.846 33.4869,21.8195 C33.4924,21.7552 33.4997,21.691 33.5079,21.627 C33.5125,21.5918 33.5181,21.5585 33.5195,21.5233 C33.5188,21.503 33.5168,21.484 33.5132,21.464 C33.4701,21.2933 33.3053,21.1859 33.1662,21.097 C33.1369,21.0782 33.1074,21.0598 33.0779,21.0412 C33.0194,21.0042 32.9612,20.9674 32.9038,20.9286 C32.8632,20.8997 32.8635,20.9 32.824,20.8699 C32.8154,20.8627 32.8067,20.8555 32.7981,20.848 L32.7951,20.8455 L32.7901,20.841 L32.7782,20.8307 L32.7719,20.8248 L32.7667,20.8202 L32.7582,20.8121 L32.756,20.8101 L32.7551,20.8093 C32.7486,20.803 32.7422,20.7967 32.7359,20.7901 L32.7345,20.7888 L32.7329,20.787 C32.7244,20.7781 32.7162,20.7691 32.7083,20.7597 L32.7043,20.755 L32.7035,20.754 L32.7012,20.7513 L32.6972,20.7461 L32.695,20.7432 L32.6934,20.7411 L32.6897,20.7363 L32.6869,20.7324 L32.686,20.7312 L32.6841,20.7285 C32.664,20.7003 32.6475,20.6698 32.6363,20.6361 C32.6094,20.5555 32.624,20.47 32.646,20.3899 C32.6995,20.1951 32.8141,20.0187 32.9304,19.8565 C32.9817,19.785 33.0353,19.7152 33.0898,19.6462 C33.1478,19.5726 33.2022,19.5062 33.2626,19.432 C33.3605,19.3117 33.4586,19.1916 33.5541,19.0694 C33.6091,18.9972 33.6628,18.9244 33.7152,18.8503 C33.836,18.6709 33.9536,18.4814 34.009,18.27 C34.0674,18.0466 34.0968,17.8169 34.1055,17.5863 L34.1077,17.5103 L34.108,17.4855 L34.1085,17.434 L34.1084,17.4047 L34.108,17.3575 L34.1074,17.3268 L34.1061,17.2803 L34.105,17.2497 L34.1028,17.202 L34.1013,17.1731 L34.0978,17.1197 L34.0962,17.0967 L34.09,17.0215 L34.0879,17.0007 L34.0823,16.9459 L34.0787,16.9149 L34.0733,16.8704 L34.0688,16.8364 L34.063,16.7951 L34.0577,16.7595 L34.0515,16.7203 L34.0455,16.6835 L34.0388,16.6461 L34.0319,16.6081 L34.0254,16.5745 C34.0183,16.5381 34.0107,16.5019 34.0027,16.4658 C33.9904,16.4106 33.977,16.3556 33.9626,16.3009 C33.9048,16.082 33.8326,15.8626 33.7039,15.6742 C33.5503,15.4491 33.3347,15.2736 33.101,15.1369 C33.0325,15.0968 32.9621,15.06 32.8905,15.0258 C32.8511,15.007 32.8117,14.9881 32.7703,14.9742 C32.7097,14.9538 32.6469,14.9422 32.5838,14.9323 C32.4234,14.9115 32.2618,14.9033 32.1011,14.8854 C31.9909,14.8696 31.8511,14.8553 31.7728,14.7654 C31.7311,14.7174 31.708,14.657 31.6874,14.5978 C31.6572,14.4996 31.6329,14.3999 31.6021,14.3019 C31.5777,14.2336 31.5491,14.1632 31.495,14.1127 L31.4838,14.103 L31.48,14.1 L31.4721,14.0942 L31.4674,14.091 L31.46,14.0862 L31.4548,14.0832 L31.4474,14.0791 L31.442,14.0763 L31.4343,14.0727 L31.4289,14.0702 L31.4207,14.0669 L31.4155,14.0648 L31.4064,14.0616 L31.4019,14.06 L31.3882,14.0559 L31.3847,14.0549 L31.3744,14.0522 L31.353,14.0475 L31.3356,14.0443 L31.3239,14.0422 L31.3064,14.0396 L31.2943,14.0379 L31.2669,14.0343 C31.1555,14.02 31.0428,14.0157 30.9306,14.0136 C30.5726,14.0067 30.2141,14.0241 29.8566,14.0488 L29.687,14.061 L29.4994,14.0753 L29.4309,14.0811 C29.41,14.0462 29.388,14.0123 29.3655,13.9784 C29.3223,13.9167 29.2774,13.8571 29.2309,13.7979 C29.0573,13.5869 28.8596,13.3967 28.634,13.2416 C28.5373,13.1751 28.4357,13.1106 28.3278,13.0636 L28.3023,13.053 L28.2943,13.0498 L28.2763,13.0428 L28.2676,13.0396 L28.2488,13.0329 L28.2419,13.0305 L28.2166,13.0221 L28.2112,13.0204 C28.1241,12.993 28.0341,12.9746 27.9442,12.961 C27.7597,12.933 27.5724,12.9253 27.386,12.9261 C27.1068,12.9272 26.8281,12.9483 26.5504,12.9777 L26.5142,12.9816 L26.4013,12.9942 L26.2508,13.0121 C26.111,13.0292 25.9714,13.0482 25.8313,13.0638 C25.7736,13.0702 25.7163,13.0747 25.659,13.0831 C25.6222,13.0899 25.5862,13.0981 25.55,13.1077 C25.3053,13.1818 25.0947,13.3265 24.8974,13.4859 C24.693,13.651 24.5012,13.831 24.2999,13.9999 C24.2327,14.0546 24.2329,14.0544 24.1646,14.1077 C23.988,14.2392 23.8065,14.3554 23.5967,14.4253 L23.5593,14.4364 L23.5229,14.4459 L23.5226,14.4547 C23.5171,14.598 23.5026,14.7458 23.4712,14.8891 C23.4642,14.95 23.457,15.0109 23.4497,15.0718 C23.4373,15.1616 23.4255,15.2513 23.4096,15.3406 C23.399,15.4005 23.387,15.4601 23.3724,15.5192 C23.3594,15.5721 23.3444,15.6245 23.326,15.6758 C23.3001,15.7478 23.2665,15.82 23.2205,15.8819 L23.2127,15.8924 L23.2063,15.9002 L23.205,15.9019 L23.203,15.9042 L23.1956,15.9133 L23.1906,15.9187 L23.1885,15.9211 L23.1846,15.9252 L23.1773,15.9332 L23.1735,15.9369 L23.1711,15.9394 L23.1653,15.9449 L23.158,15.9521 L23.1535,15.956 L23.1527,15.9567 L23.1519,15.9574 C23.1462,15.9625 23.1404,15.9674 23.1343,15.9721 L23.1333,15.973 L23.132,15.9739 C23.1261,15.9786 23.12,15.9831 23.1137,15.9874 L23.1128,15.988 L23.1083,15.991 L23.1044,15.9936 L23.1033,15.9943 L23.1022,15.9951 L23.0967,15.9985 L23.0928,16.0009 L23.092,16.0013 L23.0913,16.0018 L23.0844,16.0057 L23.0808,16.0078 L23.0804,16.008 L23.08,16.0082 L23.0685,16.0143 C23.0377,16.0299 23.0049,16.0413 22.9712,16.0488 C22.9488,16.0539 22.9272,16.0573 22.9062,16.0582 L22.8937,16.0584 C22.8521,16.0581 22.813,16.0469 22.7754,16.0175 C22.7341,15.9852 22.7016,15.9412 22.674,15.8972 C22.6611,15.8768 22.6488,15.8561 22.6367,15.8353 C22.5365,15.8755 22.4329,15.907 22.3278,15.9315 C22.077,15.9899 21.8199,16.0068 21.5632,16.0135 C21.3822,16.0163 21.2014,16.0139 21.0204,16.0123 C20.8651,16.0109 20.7097,16.0146 20.5544,16.0101 C20.4307,16.0045 20.308,15.9928 20.1849,15.9784 C20.0944,15.9661 20.0041,15.9523 19.9139,15.9379 C19.9009,15.939 19.888,15.94 19.875,15.9409 C19.8338,15.9438 19.7924,15.946 19.751,15.9469 L19.7097,15.9475 C19.5445,15.9479 19.3809,15.9269 19.2282,15.8567 C19.2059,15.8465 19.1841,15.8355 19.1627,15.8239 C19.1091,15.8181 19.0555,15.8137 19.0017,15.8119 C18.8764,15.8077 18.7509,15.8173 18.6256,15.818 C18.5705,15.8169 18.5164,15.8141 18.4616,15.8089 C18.3942,15.7998 18.3273,15.7863 18.2654,15.7572 C18.2101,15.7312 18.161,15.6931 18.1152,15.6532 C18.0504,15.5967 17.991,15.5335 17.9348,15.4686 C17.8094,15.3239 17.6916,15.1729 17.5643,15.0299 C17.5266,14.989 17.4883,14.9492 17.4487,14.9102 C17.3265,14.7969 17.1907,14.6911 17.0194,14.6771 L16.9977,14.6765 L16.8851,14.6425 C16.8566,14.6451 16.8281,14.6475 16.7995,14.6497 L16.7875,14.6507 L16.7385,14.6541 C16.7055,14.6555 16.6725,14.6567 16.6395,14.657 L16.6065,14.657 C16.5625,14.6566 16.5185,14.6544 16.4747,14.649 C16.4041,14.6403 16.3338,14.6239 16.2691,14.5937 C16.1747,14.5494 16.1057,14.4773 16.0535,14.392 L15.7214,14.292 C15.6633,14.1555 15.5952,14.0235 15.5368,13.8872 C15.5146,13.8324 15.4935,13.7774 15.477,13.7206 C15.4446,13.6088 15.426,13.4917 15.409,13.3767 C15.3776,13.1653 15.3598,12.9364 15.4132,12.7255 Z M17.6673,33.0762 L18.5405,35.134 C18.5388,35.0908 18.5374,35.0476 18.5362,35.0044 C18.5332,34.8973 18.5294,34.7905 18.5241,34.6835 C18.5182,34.5977 18.5114,34.5126 18.5011,34.4273 C18.4794,34.271 18.4478,34.1159 18.386,33.97 C18.3088,33.7875 18.186,33.6222 18.0627,33.4687 C17.9497,33.3279 17.8255,33.1817 17.6739,33.0805 L17.6673,33.0762 Z M17.0859,18.1141 C18.3095,18.6434 19.2934,19.5871 19.5493,21.3584 C19.779,21.371 19.9788,21.4503 20.1655,21.5954 C20.0502,21.8335 19.9572,22.0819 19.8879,22.3377 L19.1132,22.3377 C18.9459,23.0712 18.9459,23.833 19.1132,24.5665 L19.8879,24.5665 C19.9832,24.918 20.1231,25.2558 20.3043,25.5717 L19.7565,26.1195 C20.1569,26.7565 20.6956,27.2952 21.3326,27.6956 L21.8804,27.1478 C22.1963,27.329 22.5341,27.4689 22.8856,27.5641 L22.8856,28.3389 C23.6191,28.5061 24.3809,28.5061 25.1144,28.3389 L25.1144,27.5641 C25.4659,27.4689 25.8037,27.329 26.1196,27.1478 L27.3526,28.3808 C26.3971,29.0324 25.2427,29.4135 24,29.4135 C20.7098,29.4135 18.0386,26.7423 18.0386,23.4521 C18.0386,22.9966 18.0793,22.5224 18.1011,22.0228 C18.1202,21.586 17.976,20.849 17.5779,20.4507 C16.8799,19.7521 16.1724,19.2889 16.1724,19.2889 L17.0859,18.1141 Z M30.9141,28.7901 C29.6905,28.2608 28.7066,27.3171 28.4507,25.5458 C28.221,25.5331 28.0212,25.4539 27.8345,25.3088 C27.9498,25.0707 28.0428,24.8223 28.1121,24.5665 L28.8868,24.5665 C29.0541,23.833 29.0541,23.0712 28.8868,22.3377 L28.1121,22.3377 C28.0168,21.9862 27.8769,21.6484 27.6957,21.3325 L28.2435,20.7847 C27.8431,20.1477 27.3044,19.609 26.6674,19.2086 L26.1196,19.7564 C25.8037,19.5752 25.4659,19.4353 25.1144,19.34 L25.1144,18.5653 C24.3809,18.398 23.6191,18.398 22.8856,18.5653 L22.8856,19.34 C22.5341,19.4353 22.1963,19.5752 21.8804,19.7564 L20.6474,18.5234 C21.6029,17.8718 22.7573,17.4907 24,17.4907 C27.2902,17.4907 29.9614,20.1619 29.9614,23.4521 C29.9614,23.9076 29.9207,24.3818 29.8989,24.8814 C29.8798,25.3182 30.024,26.0552 30.4221,26.4535 C31.1201,27.1521 31.8276,27.6153 31.8276,27.6153 L30.9141,28.7901 Z M35.6434,26.4702 C35.5148,26.6141 35.371,26.747 35.2425,26.8844 C35.2065,26.9244 35.1715,26.9648 35.1377,27.0067 C35.0901,27.0699 35.0442,27.1343 35.0189,27.2099 C34.9993,27.2771 34.9904,27.3554 34.9792,27.4192 C34.9684,27.4808 34.9618,27.5239 34.9519,27.5855 C34.941,27.6579 34.9301,27.7319 34.9207,27.8066 L35.6434,26.4702 Z M24.8122,19.3689 C24.276,19.2622 23.724,19.2622 23.1878,19.3689 L23.2077,20.0032 C22.8231,20.0916 22.456,20.2437 22.1215,20.4531 L21.6871,19.9905 C21.2325,20.2943 20.8422,20.6846 20.5384,21.1392 L21.0011,21.5736 C20.7916,21.908 20.6395,22.2752 20.5511,22.6598 L19.9168,22.6399 C19.8102,23.1761 19.8102,23.7281 19.9168,24.2643 L20.5511,24.2444 C20.6395,24.629 20.7916,24.9961 21.0011,25.3306 L20.5384,25.765 C20.8422,26.2196 21.2325,26.6099 21.6871,26.9137 L22.1215,26.451 C22.456,26.6605 22.8231,26.8126 23.2077,26.901 L23.1878,27.5353 C23.724,27.6419 24.276,27.6419 24.8122,27.5353 L24.7923,26.901 C25.1769,26.8126 25.544,26.6605 25.8785,26.451 L26.3129,26.9137 C26.7675,26.6099 27.1578,26.2196 27.4616,25.765 L26.9989,25.3306 C27.2084,24.9961 27.3605,24.629 27.4489,24.2444 L28.0832,24.2643 C28.1898,23.7281 28.1898,23.1761 28.0832,22.6399 L27.4489,22.6598 C27.3605,22.2752 27.2084,21.908 26.9989,21.5736 L27.4616,21.1392 C27.1578,20.6846 26.7675,20.2943 26.3129,19.9905 L25.8785,20.4531 C25.544,20.2437 25.1769,20.0916 24.7923,20.0032 L24.8122,19.3689 Z M23.8196,21.1832 L23.8196,20.8071 L24.1804,20.8071 L24.1804,21.1819 C24.5959,21.104 24.7831,20.7836 24.7778,20.8101 C24.7096,21.1319 24.5512,21.4803 24.1804,21.5671 L24.1804,22.3393 C24.9224,22.2551 25.2555,21.6922 25.2465,21.7363 C25.1308,22.2742 24.8529,22.8592 24.1804,22.951 L24.1804,23.653 C25.0926,23.5721 25.5017,22.9248 25.4908,22.9749 C25.3504,23.5855 25.0104,24.2504 24.1804,24.3383 L24.1804,25.1866 C25.3463,25.1021 25.8687,24.25 25.8549,24.3149 C25.6683,25.1515 25.1974,26.0676 24,26.0721111 C22.7999,26.0758 22.3296,25.1532 22.1516,24.3112 C22.1402,24.2505 22.6545,25.1082 23.8196,25.1875 L23.8196,24.3399 C22.9838,24.2592 22.6433,23.588 22.5091,22.972 C22.5001,22.9251 22.9045,23.5793 23.8196,23.6543 L23.8196,22.9528 C23.1422,22.867 22.8641,22.2764 22.7535,21.7337 C22.746,21.6924 23.0753,22.2614 23.8196,22.3406 L23.8196,21.569 C23.4459,21.4852 23.2874,21.1333 23.2222,20.8085 C23.2178,20.7836 23.4029,21.1076 23.8196,21.1832 Z M13.8679,24.1224 L14.0021,24.4387 C13.9995,24.3963 13.995,24.354 13.9871,24.3121 C13.9794,24.2713 13.9692,24.2281 13.9462,24.1929 C13.9259,24.1653 13.8959,24.1435 13.8679,24.1224 Z M18.5064,15.3102 C18.5215,15.3125 18.5366,15.3138 18.5521,15.3153 C18.6858,15.3223 18.8196,15.3124 18.9534,15.3111 C19.0192,15.3121 19.0187,15.3121 19.0842,15.3155 C19.4434,15.3474 19.796,15.4157 20.1522,15.4694 C20.2469,15.4823 20.3413,15.4933 20.4365,15.5023 C20.5125,15.5079 20.5883,15.5114 20.6645,15.5123 C20.9606,15.5109 21.2567,15.5182 21.5528,15.5136 C21.7545,15.5083 21.9566,15.4972 22.1549,15.4574 C22.2778,15.4327 22.399,15.397 22.513,15.3444 C22.6324,15.2893 22.7593,15.2152 22.842,15.1106 C22.9058,15.0299 22.9445,14.9317 22.9704,14.8329 C23.0114,14.6766 23.0232,14.513 23.025,14.352 C23.026,14.264 23.0235,14.176 23.0189,14.0881 C23.0142,13.9956 23.0065,13.9033 22.9985,13.811 C22.9716,13.5316 22.936,13.2531 22.9118,12.9735 C22.896,12.7538 22.8936,12.5336 22.8815,12.3137 C22.8763,12.2399 22.8698,12.1667 22.8615,12.0932 C22.8469,11.9898 22.8298,11.887 22.7961,11.7879 C22.7853,11.7562 22.7752,11.7141 22.7528,11.6882 C22.7365,11.6718 22.7175,11.659 22.6983,11.6463 C22.6756,11.6325 22.6527,11.6196 22.6293,11.6071 C22.5126,11.549 22.3934,11.4962 22.2774,11.4366 C22.1295,11.3567 21.9889,11.2651 21.8726,11.1422 C21.7664,11.0301 21.6883,10.8958 21.614,10.7614 C21.5294,10.6085 21.4572,10.4489 21.4023,10.2828 C21.3523,10.1316 21.3182,9.9769 21.2883,9.8208 L21.2844,9.7874 C21.2669,9.789 21.2493,9.7906 21.2317,9.7922 L21.1982,9.7953 C21.1982,9.7953 21.1892,9.7961 21.1892,9.7961 L21.1658,9.7983 L21.1566,9.799 L21.1373,9.8006 L21.1278,9.8014 L21.0881,9.8042 C20.9845,9.8077 20.8808,9.8059 20.7771,9.8066 C20.5499,9.8082 20.4863,9.8099 20.259,9.8138 L20.1739,9.8159 L20.1608,9.8163 L20.1516,9.8165 L20.1302,9.8171 L20.0888,9.8183 L20.0611,9.8191 L20.0442,9.8196 L20.0276,9.8201 L20.0037,9.8208 L19.9566,9.8223 L19.9368,9.8229 L19.9289,9.8232 C19.8962,9.8242 19.8635,9.8253 19.8308,9.8264 L19.8294,9.8265 L19.821,9.8268 L19.7485,9.8293 L19.7316,9.83 L19.7221,9.8303 L19.7033,9.831 L19.6634,9.8325 L19.6294,9.8338 L19.6148,9.8343 L19.6023,9.8348 L19.5784,9.8357 L19.515,9.8382 L19.5074,9.8385 L19.505,9.8386 C19.47,9.84 19.4351,9.8414 19.4001,9.8429 C19.2328,9.8497 19.0654,9.857 18.898,9.8642 C18.5934,9.8725 18.2887,9.8606 17.9841,9.868 C17.8615,9.8723 17.7374,9.8781 17.6146,9.8928 C17.5889,9.8958 17.5633,9.8993 17.5377,9.9032 L17.5359,9.9034 L17.5358,9.9035 L17.5343,9.9037 L17.5237,9.9054 L17.5163,9.9065 L17.5152,9.9067 L17.5131,9.9071 L17.5046,9.9085 L17.4968,9.9098 L17.4947,9.9102 L17.4919,9.9107 L17.4847,9.912 L17.4773,9.9133 L17.4742,9.9139 L17.4708,9.9145 L17.4645,9.9157 L17.4578,9.917 L17.4538,9.9178 L17.4497,9.9186 L17.4443,9.9197 L17.4384,9.9209 L17.4334,9.922 L17.4287,9.9229 L17.4241,9.9239 L17.419,9.925 L17.413,9.9264 L17.4077,9.9275 L17.4039,9.9284 L17.3996,9.9294 L17.3926,9.931 L17.3868,9.9324 L17.3838,9.9331 L17.3804,9.9339 L17.3722,9.936 L17.366,9.9375 L17.3637,9.9381 L17.3611,9.9387 L17.3516,9.9412 L17.3452,9.9429 L17.3437,9.9433 L17.342,9.9438 L17.3304,9.947 L17.3245,9.9486 L17.3237,9.9488 C17.3171,9.9507 17.3105,9.9526 17.3038,9.9546 C17.238,9.9743 17.1726,9.9989 17.1136,10.0346 C17.0941,10.0464 17.0675,10.0597 17.0546,10.0797 C17.044,10.0981 17.0404,10.1203 17.0368,10.141 C17.0247,10.2252 17.0299,10.3107 17.0352,10.3953 L17.0368,10.4147 C17.0418,10.4777 17.0476,10.5407 17.0532,10.6037 C17.0598,10.6773 17.0662,10.7508 17.071,10.8246 C17.072,10.8455 17.0728,10.8665 17.0733,10.8875 C17.0801,11.1251 17.0614,11.363 16.9668,11.5843 C16.9227,11.6875 16.8651,11.7851 16.7994,11.876 C16.7244,11.9797 16.6373,12.0725 16.5456,12.1614 C16.5456,12.1614 16.5327,12.1733 16.5327,12.1733 L16.5283,12.1773 L16.52,12.1849 L16.4971,12.2056 L16.4942,12.2082 L16.4824,12.2187 L16.4672,12.2322 L16.4548,12.243 L16.4408,12.2552 L16.4268,12.2673 L16.4147,12.2777 L16.398,12.2921 L16.3907,12.2983 L16.3411,12.3404 C16.2624,12.4071 16.1836,12.4735 16.1081,12.5439 C16.0332,12.6168 15.9567,12.6968 15.9155,12.7947 C15.8652,12.9146 15.8766,13.0643 15.8892,13.1891 C15.8969,13.2663 15.909,13.3431 15.923,13.4194 C15.9345,13.4825 15.9453,13.5462 15.9653,13.6072 C15.9912,13.6861 16.0274,13.7612 16.0625,13.8363 L16.0826,13.8786 L17.0781,14.1785 L17.0467,14.1776 C17.0948,14.1816 17.0944,14.1815 17.1422,14.188 C17.188,14.1966 17.1877,14.1965 17.2329,14.2074 C17.3026,14.2277 17.3696,14.2522 17.4345,14.2849 C17.6489,14.3933 17.8191,14.5593 17.976,14.7391 L17.9759,14.739 L18.0007,14.7676 L18.0251,14.7962 L18.049,14.8246 L18.0721,14.8522 L18.0919,14.8761 C18.1182,14.9079 18.1443,14.9398 18.1705,14.9716 L18.2125,15.0225 L18.2495,15.0669 L18.2723,15.0938 L18.2969,15.1226 L18.3198,15.149 L18.3412,15.1731 C18.3742,15.2088 18.4076,15.2434 18.4436,15.276 C18.4542,15.2849 18.4692,15.3018 18.4834,15.3058 C18.4911,15.3076 18.4987,15.309 18.5064,15.3102 Z M22.8382,0.0278 C23.2231,0.0093 23.6105,0 24,0 C24.4089,0 24.8154,0.0102 25.2194,0.0305 L22.8382,0.0278 Z" id="Shape"></path>
                </g>
            </g>
        </g>
    </g>
</svg>