<?xml version="1.0" encoding="UTF-8"?>
<svg width="48px" height="48px" viewBox="0 0 48 48" version="1.1" xmlns="http://www.w3.org/2000/svg" xmlns:xlink="http://www.w3.org/1999/xlink">
    <!-- Generator: Sketch 56 (81588) - https://sketch.com -->
    <title>Bank/Color/Tosee_Saderat</title>
    <desc>Created with Sketch.</desc>
    <g id="Ready-For-Export" stroke="none" stroke-width="1" fill="none" fill-rule="evenodd">
        <g id="Artboard" transform="translate(-4240.000000, -80.000000)" fill="#006D08">
            <g id="Banks_(Color)" transform="translate(80.000000, 80.000000)">
                <g id="Bank-/-Tosee-Saderat-/-Color" transform="translate(4160.000000, 0.000000)">
                    <path d="M33.9411,48 L14.0589,48 L0,33.9411 L0,14.0589 L14.0589,0 L33.9411,0 L48,14.0589 L48,33.9411 L33.9411,48 Z M31.0416,41 L41,31.0416 L41,16.9584 L31.0416,7 L16.9584,7 L7,16.9584 L7,31.0416 L16.9584,41 L31.0416,41 Z M16.893,24 L28.6352,35.804 L23.9392,40.5 L12.1971,28.7578 L12.196,28.7589 L7.5,24 L13.3119,18.2511 L22.7038,18.2511 L16.893,24 Z M34.6881,29.7489 L25.2962,29.7489 L31.107,24 L19.3648,12.196 L24.0608,7.5 L35.8029,19.2422 L35.804,19.2411 L40.5,24 L34.6881,29.7489 Z" id="Shape"></path>
                </g>
            </g>
        </g>
    </g>
</svg>