<?xml version="1.0" encoding="UTF-8"?>
<svg width="48px" height="48px" viewBox="0 0 48 48" version="1.1" xmlns="http://www.w3.org/2000/svg" xmlns:xlink="http://www.w3.org/1999/xlink">
    <!-- Generator: Sketch 56 (81588) - https://sketch.com -->
    <title>Bank/Color/Tosee_Taavon</title>
    <desc>Created with Sketch.</desc>
    <g id="Ready-For-Export" stroke="none" stroke-width="1" fill="none" fill-rule="evenodd">
        <g id="Artboard" transform="translate(-4344.000000, -80.000000)">
            <g id="Banks_(Color)" transform="translate(80.000000, 80.000000)">
                <g id="Bank-/-Tosee-Taavon-/-Color" transform="translate(4264.000000, 0.000000)">
                    <path d="M31.2681,25.0021 C31.2681,20.9686 27.9909,17.6913 24.0077,17.6913 C19.9741,17.6913 16.6969,20.9181 16.6969,24.9517 C16.6969,28.9853 19.9741,32.2121 23.9573,32.2625 C28.0413,32.313 31.2681,29.0357 31.2681,25.0021 Z" id="Shape" fill="#CDCCCC"></path>
                    <path d="M22.0414,34.3298 C22.6968,34.4306 23.201,35.086 23.1506,35.7919 L22.4447,45.5733 C22.3943,45.9767 22.0918,46.3296 21.6884,46.4305 L16.0414,47.4388 C14.1759,47.7918 12.2599,46.8842 11.3524,45.2204 L8.6802,40.1784 C8.4785,39.8255 8.5289,39.3717 8.8314,39.0692 L16.0918,32.3634 C16.5456,31.96 17.3523,31.8592 17.8565,32.313 C19.0162,33.2709 20.4783,33.9768 22.0414,34.3298 Z M31.974,32.2625 L39.2849,38.7667 C39.5874,39.0692 39.6378,39.5734 39.4361,39.9263 L36.8143,44.9683 C35.9067,46.6826 34.0412,47.6405 32.1757,47.2876 L26.5287,46.3296 C26.1253,46.2792 25.7724,45.9263 25.722,45.5229 L24.9153,35.7415 C24.8649,35.0356 25.369,34.3802 26.0245,34.2793 C27.5875,33.9264 28.9993,33.2205 30.1589,32.2121 C30.7135,31.8088 31.4698,31.8088 31.974,32.2625 Z M15.4868,29.2374 C15.7389,29.8928 15.5876,30.6491 14.9826,31.0525 L6.9155,36.5482 C6.5121,36.8003 6.1088,36.7499 5.7558,36.4474 L1.5206,32.7163 C0.0584,31.4558 -0.3954,29.3886 0.3609,27.6239 L2.6298,22.4307 C2.7811,22.0778 3.1844,21.8761 3.5878,21.8761 L13.2683,23.3887 C13.9742,23.4895 14.4784,24.0946 14.428,24.8004 C14.428,24.8509 14.428,24.9013 14.428,25.0021 C14.428,26.5147 14.8313,27.9769 15.4868,29.2374 Z M47.6041,27.5231 C48.4108,29.2878 47.957,31.3046 46.4949,32.6155 L42.2596,36.397 C41.9571,36.6995 41.4529,36.7499 41.1,36.4978 L32.9824,31.0021 C32.4278,30.6491 32.2261,29.8928 32.5286,29.2878 C33.1841,28.0273 33.537,26.5651 33.537,25.0525 C33.537,24.9517 33.537,24.8509 33.537,24.75 C33.4866,24.0442 33.9908,23.4391 34.6967,23.3383 L44.3772,21.7753 C44.7806,21.6744 45.184,21.9265 45.3352,22.3299 L47.6041,27.5231 Z M4.2432,19.1534 C3.8399,18.9518 3.5878,18.5988 3.6382,18.1955 L3.8399,12.4981 C3.8903,10.5821 5.2012,8.9687 6.9659,8.4141 L12.4616,6.8511 C12.865,6.7502 13.2683,6.9015 13.5204,7.2544 L18.4616,15.7249 C18.8145,16.2795 18.6632,17.0862 18.159,17.4896 C16.8986,18.4476 15.9406,19.7081 15.2851,21.1702 C14.9826,21.7753 14.2263,22.0778 13.6213,21.8761 L4.2432,19.1534 Z M29.7556,17.4392 C29.2514,17.0358 29.1505,16.1787 29.4026,15.7249 L34.3437,7.204 C34.5454,6.8511 34.9488,6.6998 35.4025,6.8006 L40.8983,8.3132 C42.7134,8.8174 44.0243,10.4309 44.1251,12.3468 L44.3268,18.0442 C44.3268,18.4476 44.0747,18.9014 43.6714,19.0022 L34.3437,21.8257 C33.7387,22.0274 32.932,21.6744 32.6295,21.0694 C32.0244,19.6576 31.016,18.3972 29.7556,17.4392 Z M20.1254,14.9182 L16.4952,5.7923 C16.3439,5.3889 16.4952,4.9351 16.8481,4.683 L21.4363,1.3553 C22.9993,0.1957 25.1169,0.1957 26.6295,1.3553 L31.2177,4.7334 C31.5707,4.9351 31.6715,5.3889 31.5707,5.7923 L27.9404,14.9182 C27.6883,15.5737 27.0329,15.9266 26.327,15.7753 C25.6211,15.5737 24.8144,15.4728 24.0077,15.4728 C23.2514,15.4728 22.4447,15.5737 21.6884,15.7249 C21.033,15.9266 20.3775,15.5232 20.1254,14.9182 Z" id="Shape" fill="#51B5D1"></path>
                </g>
            </g>
        </g>
    </g>
</svg>