<?xml version="1.0" encoding="UTF-8"?>
<svg width="48px" height="48px" viewBox="0 0 48 48" version="1.1" xmlns="http://www.w3.org/2000/svg" xmlns:xlink="http://www.w3.org/1999/xlink">
    <!-- Generator: Sketch 56 (81588) - https://sketch.com -->
    <title>Gateway/Color/Asan_Pardakht</title>
    <desc>Created with Sketch.</desc>
    <g id="Ready-For-Export" stroke="none" stroke-width="1" fill="none" fill-rule="evenodd">
        <g id="Artboard" transform="translate(-80.000000, -288.000000)">
            <g id="Gateway_(Color)" transform="translate(80.000000, 288.000000)">
                <g id="Gateway-/-Asan-Pardakht-/-Color">
                    <path d="M18.2018,39.566 C16.7921,39.3953 14.7052,37.0501 12.9282,37.0907 C11.2298,37.1296 11.7109,38.6066 11.7109,38.6066 C13.2189,41.1219 15.6256,40.7543 18.2018,39.566 Z M35.4577,28.7516 C34.5139,30.2495 30.7581,31.3517 29.8568,33.3762 C28.9954,35.3112 30.9166,35.5562 30.9166,35.5562 C34.5554,35.1973 35.4238,32.2886 35.4577,28.7516 Z M18.1808,26.9077 C21.0135,26.667 25.3567,22.1242 28.909,22.3328 C32.3042,22.5322 31.2359,25.4528 31.2359,25.4528 C28.0389,30.3773 23.25,29.4695 18.1808,26.9077 Z M34.7855,13.2089 C37.6182,13.4496 41.9614,17.9924 45.5137,17.7839 C48.9089,17.5845 47.8406,14.6638 47.8406,14.6638 C44.6436,9.7394 39.8547,10.6472 34.7855,13.2089 Z" id="Shape" fill="#B20C0C"></path>
                    <path d="M26.6857,36.0827 C24.0385,34.0812 20.8466,36 19.3415,37.6162 C14.7944,42.4992 11.6962,38.5536 11.6962,38.5536 C11.6962,38.5536 13.2861,43.6289 19.5116,43.7131 C21.3842,43.7384 23.0335,43.4158 25.2362,41.5363 C26.9392,40.0831 28.1889,37.2192 26.6857,36.0827 Z M36.0537,17.3325 C32.3867,19.2494 32.848,23.8698 33.8675,26.4277 C36.9475,34.1557 30.849,35.5446 30.849,35.5446 C30.849,35.5446 37.4169,36.4578 40.8301,29.4858 C41.8567,27.3886 42.3723,25.3578 41.4279,21.8732 C40.6978,19.1791 38.1358,16.2441 36.0537,17.3325 Z M1.4562,19.3312 C6.8958,15.5163 13.1446,19.5837 16.0402,22.925 C24.7882,33.02 31.2692,25.3478 31.2692,25.3478 C31.2692,25.3478 27.725,35.3883 15.2634,35.111 C11.5151,35.0276 8.2385,34.2642 3.966,30.3462 C0.6626,27.3169 -1.6325,21.4974 1.4562,19.3312 Z M18.0609,20.7855 C23.5005,24.6004 29.7493,20.533 32.6449,17.1916 C41.393,7.0967 47.8739,14.7688 47.8739,14.7688 C47.8739,14.7688 44.3297,4.7284 31.8681,5.0056 C28.1198,5.089 24.8432,5.8524 20.5707,9.7705 C17.2674,12.7998 14.9722,18.6193 18.0609,20.7855 Z" id="Shape" fill="#F04E23"></path>
                </g>
            </g>
        </g>
    </g>
</svg>