<?xml version="1.0" encoding="UTF-8"?>
<svg width="48px" height="48px" viewBox="0 0 48 48" version="1.1" xmlns="http://www.w3.org/2000/svg" xmlns:xlink="http://www.w3.org/1999/xlink">
    <!-- Generator: Sketch 56.2 (81672) - https://sketch.com -->
    <title>Gateway/Color/Hesabit</title>
    <desc>Created with Sketch.</desc>
    <g id="Ready-For-Export" stroke="none" stroke-width="1" fill="none" fill-rule="evenodd">
        <g id="Artboard" transform="translate(-392.000000, -288.000000)" fill="#00BBBC">
            <g id="Gateway_(Color)" transform="translate(80.000000, 288.000000)">
                <g id="Gateway-/-Hesabit-/-Color" transform="translate(312.000000, 0.000000)">
                    <path d="M24,48.0045 C10.7452,48.0045 0,37.2584 0,24.0023 C0,10.7462 10.7452,7.10542736e-15 24,7.10542736e-15 C37.2548,7.10542736e-15 48,10.7462 48,24.0023 C48,37.2584 37.2548,48.0045 24,48.0045 Z M15.5096,14.9379 L13.2602,14.9379 C12.4215,14.9379 11.7417,15.6178 11.7417,16.4564 C11.7417,17.2951 12.4215,17.9751 13.2602,17.9751 L15.5096,17.9751 C16.348,17.9751 17.0279,17.2951 17.0279,16.4564 C17.0279,15.6178 16.348,14.9379 15.5096,14.9379 Z M15.5096,24.0495 L13.2602,24.0495 C12.4215,24.0495 11.7417,24.7294 11.7417,25.568 C11.7417,26.4066 12.4215,27.0868 13.2602,27.0868 L15.5096,27.0868 C16.348,27.0868 17.0279,26.4066 17.0279,25.568 C17.0279,24.7294 16.348,24.0495 15.5096,24.0495 Z M15.5096,33.1611 L13.2602,33.1611 C12.4215,33.1611 11.7417,33.8409 11.7417,34.6796 C11.7417,35.5182 12.4215,36.1983 13.2602,36.1983 L15.5096,36.1983 C16.348,36.1983 17.0279,35.5182 17.0279,34.6796 C17.0279,33.8409 16.348,33.1611 15.5096,33.1611 Z M35.3618,14.9362 L20.2335,14.9362 C19.3951,14.9362 18.7153,15.616 18.7153,16.4546 C18.7153,17.2933 19.3951,17.9734 20.2335,17.9734 L35.3618,17.9734 C36.2005,17.9734 36.8803,17.2933 36.8803,16.4546 C36.8803,15.616 36.2005,14.9362 35.3618,14.9362 Z M35.3618,24.0477 L20.2335,24.0477 C19.3951,24.0477 18.7153,24.7276 18.7153,25.5662 C18.7153,26.4048 19.3951,27.0849 20.2335,27.0849 L35.3618,27.0849 C36.2005,27.0849 36.8803,26.4048 36.8803,25.5662 C36.8803,24.7276 36.2005,24.0477 35.3618,24.0477 Z" id="Shape"></path>
                </g>
            </g>
        </g>
    </g>
</svg>