<?xml version="1.0" encoding="UTF-8"?>
<svg width="48px" height="48px" viewBox="0 0 48 48" version="1.1" xmlns="http://www.w3.org/2000/svg" xmlns:xlink="http://www.w3.org/1999/xlink">
    <!-- Generator: Sketch 56 (81588) - https://sketch.com -->
    <title>Gateway/Color/Pay.ir</title>
    <desc>Created with Sketch.</desc>
    <g id="Ready-For-Export" stroke="none" stroke-width="1" fill="none" fill-rule="evenodd">
        <g id="Artboard" transform="translate(-392.000000, -288.000000)">
            <g id="Gateway_(Color)" transform="translate(80.000000, 288.000000)">
                <g id="Gateway-/-Pay.ir-/-Color" transform="translate(312.000000, 0.000000)">
                    <path d="M32.0793,27.6494 C33.1213,27.6494 33.9673,28.4953 33.9673,29.5373 C33.9673,30.5793 33.1213,31.4253 32.0793,31.4253 C31.0373,31.4253 30.1914,30.5793 30.1914,29.5373 C30.1914,28.4953 31.0373,27.6494 32.0793,27.6494 Z" id="Shape" fill="#FF9700"></path>
                    <path d="M25.1261,35.2763 L21.3028,35.2763 L24.1972,29.7267 L20.9202,17.3386 L24.7677,17.3386 L26.3294,25.1973 L30.3235,17.3386 L34.173,17.3386 L25.1261,35.2763 Z M3.6677,31.4253 L0,31.4253 C0,31.4253 1.0193,22.4262 1.5202,17.976 C1.7248,16.1575 3.8156,12.4831 8.0206,12.5617 C15.0429,12.6931 13.8384,18.1056 13.7835,19.293 C13.5911,23.4504 9.515,24.7459 8.4243,24.9446 C6.9779,25.208 4.3515,25.1576 4.3515,25.1576 L3.6677,31.4253 Z M39.0123,31.4253 L35.4957,31.4253 C35.4957,31.4253 35.9512,23.0365 36.1452,19.4631 C36.1934,18.5762 36.9266,17.8818 37.8148,17.8818 C38.7508,17.8818 39.7545,17.8818 39.7545,17.8818 L39.0123,31.4253 Z M43.6322,31.4253 L40.1156,31.4253 C40.1156,31.4253 40.4708,24.8849 40.6875,20.8942 C40.7792,19.2047 42.1759,17.8818 43.8679,17.8818 C45.8202,17.8818 48,17.8818 48,17.8818 L47.9553,20.7255 C47.9553,20.7255 46.5988,20.7433 45.5198,20.7574 C44.7858,20.7671 44.1847,21.3437 44.1445,22.0767 L43.6322,31.4253 Z M14.8141,17.3547 L14.8158,19.5379 C14.8158,19.5379 17.6449,19.7469 17.464,23.0881 C10.0966,23.9037 9.5345,25.933 9.4215,27.2046 C9.208,29.6061 10.9519,31.2986 13.8949,31.2857732 C19.799,31.2598 21.1056,25.3592 21.1086072,22.978 C21.1164,16.7484 14.8141,17.3547 14.8141,17.3547 Z M16.9493,25.4582 C11.3693,26.0989 12.7887,28.0321 13.0359,28.2964 C13.5732,28.8706 16.3111,28.7997 16.9493,25.4582 Z M4.898,21.8772 C4.898,21.8772 4.6336,15.8688 7.8228,15.9603 C9.8467,16.0184 9.7923,17.7817 9.7738,18.7545 C9.7383,20.6293 8.7006,21.248 8.1409,21.5987 C7.3224,22.1117 4.898,21.8772 4.898,21.8772 Z M38.3277,12 C39.4248,12 40.3156,12.8908 40.3156,13.988 C40.3156,15.0851 39.4248,15.9759 38.3277,15.9759 C37.2305,15.9759 36.3397,15.0851 36.3397,13.988 C36.3397,12.8908 37.2305,12 38.3277,12 Z" id="Shape" fill="#025577"></path>
                </g>
            </g>
        </g>
    </g>
</svg>