<?xml version="1.0" encoding="UTF-8"?>
<svg width="48px" height="48px" viewBox="0 0 48 48" version="1.1" xmlns="http://www.w3.org/2000/svg" xmlns:xlink="http://www.w3.org/1999/xlink">
    <!-- Generator: Sketch 56 (81588) - https://sketch.com -->
    <title>Gateway/Color/Zarrinpal</title>
    <desc>Created with Sketch.</desc>
    <g id="Ready-For-Export" stroke="none" stroke-width="1" fill="none" fill-rule="evenodd">
        <g id="Artboard" transform="translate(-912.000000, -288.000000)" fill="#FFD23F" fill-rule="nonzero">
            <g id="Gateway_(Color)" transform="translate(80.000000, 288.000000)">
                <g id="Gateway-/-Zarrinpal-/-Color" transform="translate(832.000000, 0.000000)">
                    <path d="M1.2888864,0 L14.712966,0 C15.8489337,0 16.4278403,1.36731484 15.6304783,2.17034101 L2.23916706,15.6156036 C1.43088236,16.4294814 0.0436910645,15.8651928 0.0436910645,14.7257638 L0,1.2805012 C0,0.57514037 0.567983839,0 1.2888864,0 L1.2888864,0 Z M46.7315421,48 L33.287865,48 C32.1511638,48 31.5718835,46.6326851 32.3697603,45.829659 L45.7587882,32.3843963 C46.5675947,31.5705186 47.9555723,32.1348072 47.9555723,33.2742362 L47.999401,46.7194989 C48.0212607,47.4248597 47.4419802,48 46.7315421,48 L46.7315421,48 Z M1.99756632,36.3679045 L36.3767339,1.99716424 C39.0401557,-0.665721413 43.3506936,-0.665721413 46.0024338,1.99716424 C48.6658554,4.6599331 48.6658554,8.9692975 46.0024338,11.6205043 L11.623266,46.0029234 C8.97152592,48.6656922 4.6493064,48.6656922 1.99756632,46.0029234 C-0.66585544,43.3400378 -0.66585544,39.0306733 1.99756632,36.3679045 Z" id="Shape"></path>
                </g>
            </g>
        </g>
    </g>
</svg>