<?xml version="1.0" encoding="UTF-8"?>
<svg width="48px" height="48px" viewBox="0 0 48 48" version="1.1" xmlns="http://www.w3.org/2000/svg" xmlns:xlink="http://www.w3.org/1999/xlink">
    <!-- Generator: Sketch 56 (81588) - https://sketch.com -->
    <title>Gateway/Color/IDpay</title>
    <desc>Created with Sketch.</desc>
    <g id="Ready-For-Export" stroke="none" stroke-width="1" fill="none" fill-rule="evenodd">
        <g id="Artboard" transform="translate(-288.000000, -288.000000)" fill="#1471EA">
            <g id="Gateway_(Color)" transform="translate(80.000000, 288.000000)">
                <g id="Gateway-/-IDpay-/-Color" transform="translate(208.000000, 0.000000)">
                    <path d="M16.2168221,25.1089286 C16.2168221,24.4821429 15.7847245,24.0482143 15.3526269,23.8071429 C14.3443992,23.3732143 5.99051258,23.9035714 5.12631741,23.6142857 C4.69421983,23.5178571 4.35814393,22.9392857 4.5501873,22.3125 C4.64620898,21.8785714 5.12631741,21.4446429 5.75045837,21.4446429 L47.1838157,21.4446429 C47.1838157,21.8785714 47.1358048,22.1196429 47.1358048,22.6017857 C47.087794,23.4696429 46.8477398,24.675 46.8477398,25.8803571 C46.8477398,26.2178571 46.7997289,26.6517857 46.7517181,27.0375 C46.7037072,27.375 46.6556964,27.8571429 46.6556964,28.1464286 C46.4156422,30.0267857 46.3196205,32.8714286 46.0795663,34.8 C45.9355338,35.7642857 46.0795663,36.0535714 45.5994579,36.6803571 C45.3113928,37.1142857 44.7832735,37.5 44.0631109,37.5 L9.39928242,37.5 C8.87116315,37.5 8.4870764,37.3071429 8.19901135,37.0660714 C7.47884871,36.4875 7.76691376,35.4267857 7.81492461,34.3178571 L8.24702219,29.4964286 L1.09340662,29.4964286 C-0.44294035,29.4964286 -0.298907821,27.1339286 1.14141746,27.0375 C5.2223391,26.8446429 10.1194451,26.9410714 14.2963884,26.9892857 C15.4486486,26.9892857 16.2168221,26.3142857 16.2168221,25.1089286 Z M9.44729326,16.0446429 L9.78336916,12.3803571 C9.92740169,11.2714286 10.6475643,10.5 11.7518137,10.5 L46.4156422,10.5 C47.2318265,10.5 48,11.175 48,11.9946429 L47.7599458,15.225 C47.7119349,15.7553571 47.7599458,16.0446429 47.4718807,16.0446429 L9.44729326,16.0446429 Z M1.28544999,16.0446429 C-0.298907821,16.0446429 0.0851789209,13.875 1.23743915,13.7785714 L6.66266438,13.7785714 C7.47884871,13.7785714 7.86293545,15.0321429 7.09476196,15.7071429 C6.90271859,15.8517857 6.61465354,16.0446429 6.23056679,16.0446429 L1.28544999,16.0446429 Z M41.6625688,27.8571429 L41.902623,24.5785714 L38.7339073,24.5785714 L38.4458423,27.8571429 L41.6625688,27.8571429 Z" id="Shape"></path>
                </g>
            </g>
        </g>
    </g>
</svg>