<?xml version="1.0" encoding="UTF-8"?>
<svg width="48px" height="48px" viewBox="0 0 48 48" version="1.1" xmlns="http://www.w3.org/2000/svg" xmlns:xlink="http://www.w3.org/1999/xlink">
    <!-- Generator: Sketch 56 (81588) - https://sketch.com -->
    <title>Gateway/Color/Sedad</title>
    <desc>Created with Sketch.</desc>
    <g id="Ready-For-Export" stroke="none" stroke-width="1" fill="none" fill-rule="evenodd">
        <g id="Artboard" transform="translate(-600.000000, -288.000000)" fill="#FDB913">
            <g id="Gateway_(Color)" transform="translate(80.000000, 288.000000)">
                <g id="Gateway-/-Sedad-/-Color" transform="translate(520.000000, 0.000000)">
                    <path d="M9.94406473,11.7139604 C1.95138861,17.0148244 1.61954891,22.9508314 1,27.6874231 C8.67020069,30.8097156 10.652951,32.5074871 14.4381623,35.712067 C15.9819758,32.6233788 16.1568832,30.3434558 15.8395742,26.855178 C17.670774,29.4906388 17.6620555,41.4163982 9.4192349,45.5069686 C14.0182769,46.2599421 18.7451898,48.2154542 23.5132193,47.9805472 C22.8346862,33.6835301 20.288465,24.7442459 9.94406473,11.7139604 Z M18.4426269,0.11788945 C33.313523,-0.817645844 36.6504332,4.00295664 41.5681835,7.92227437 C36.1478839,17.5479697 34.8325803,23.3306031 33.5367586,29.8179577 C29.3648135,27.8744009 27.2615117,25.909626 24.7015132,22.0040947 C24.9740458,26.2756114 35.0036128,37.5345622 47,34.9642635 C42.8225655,39.5674073 38.1040483,43.7635298 32.9313099,47.4755132 C23.6524994,34.5754444 18.4426269,22.3075028 18.4426269,0.11788945 Z" id="Shape"></path>
                </g>
            </g>
        </g>
    </g>
</svg>