<?xml version="1.0" encoding="UTF-8"?>
<svg width="48px" height="48px" viewBox="0 0 48 48" version="1.1" xmlns="http://www.w3.org/2000/svg" xmlns:xlink="http://www.w3.org/1999/xlink">
    <!-- Generator: Sketch 56 (81588) - https://sketch.com -->
    <title>Gateway/Color/Shaparak</title>
    <desc>Created with Sketch.</desc>
    <g id="Ready-For-Export" stroke="none" stroke-width="1" fill="none" fill-rule="evenodd">
        <g id="Artboard" transform="translate(-704.000000, -288.000000)" fill="#1D93D1" fill-rule="nonzero">
            <g id="Gateway_(Color)" transform="translate(80.000000, 288.000000)">
                <g id="Gateway-/-Shaparak-/-Color" transform="translate(624.000000, 0.000000)">
                    <path d="M11.8378378,37.027027 C11.9027027,36.9297297 11.9675676,36.8 12.0324324,36.6702703 C12.0648649,36.5405405 12.0972973,36.4432432 12.1297297,36.3783784 C12.1297297,36.3135135 12.1297297,36.3135135 12.0972973,36.3135135 C12.0972973,36.3135135 12.0648649,36.3459459 12,36.4432432 C11.9675676,36.5081081 11.9027027,36.572973 11.8054054,36.6378378 C11.7405405,36.7027027 11.6108108,36.7675676 11.4162162,36.8324324 C11.2540541,36.8972973 11.027027,36.9621622 10.8324324,37.027027 C10.6054054,37.0918919 10.3783784,37.1243243 10.1513514,37.1243243 C9.92432432,37.1567568 9.6972973,37.1567568 9.5027027,37.1567568 C8.95135135,37.1567568 8.56216216,37.0918919 8.3027027,36.9621622 C8.17297297,36.8972973 8.10810811,36.8324324 8.10810811,36.7351351 C8.10810811,36.6378378 8.10810811,36.572973 8.07567568,36.5405405 C8.07567568,36.5081081 8.04324324,36.4756757 8.04324324,36.4756757 C8.01081081,36.4756757 8.01081081,36.5081081 7.97837838,36.5081081 C7.97837838,36.5405405 7.94594595,36.6054054 7.94594595,36.7027027 C7.91351351,36.8 7.91351351,36.8972973 7.88108108,37.027027 C7.88108108,37.1243243 7.84864865,37.2216216 7.84864865,37.2540541 C7.84864865,37.3837838 7.88108108,37.5135135 7.97837838,37.5783784 C8.07567568,37.6756757 8.23783784,37.7405405 8.4972973,37.8054054 C8.65945946,37.8378378 8.85405405,37.8378378 9.11351351,37.8378378 C9.34054054,37.8378378 9.6,37.8378378 9.85945946,37.8054054 C10.1189189,37.772973 10.3783784,37.7405405 10.6378378,37.6432432 C10.8,37.6108108 10.9621622,37.5459459 11.0918919,37.4810811 C11.2540541,37.4162162 11.4162162,37.3189189 11.5459459,37.2540541 C11.7081081,37.1891892 11.772973,37.1243243 11.8378378,37.027027 Z M13.1351351,36.0216216 C13.1027027,36.0216216 13.0702703,36.0540541 13.0702703,36.0864865 C13.0378378,36.1513514 13.0054054,36.2486486 12.9405405,36.3783784 C12.8756757,36.5081081 12.8108108,36.6702703 12.7459459,36.8 C12.6810811,36.9297297 12.6162162,37.027027 12.5513514,37.1243243 C12.4864865,37.1891892 12.3891892,37.2864865 12.2594595,37.3837838 C12.1297297,37.4810811 12,37.5459459 11.9027027,37.6108108 C11.8054054,37.6756757 11.7405405,37.7081081 11.7081081,37.772973 C11.6756757,37.8054054 11.6756757,37.8054054 11.6756757,37.8378378 C11.6756757,37.8378378 11.7081081,37.8702703 11.7081081,37.8702703 C11.7405405,37.8702703 11.772973,37.8702703 11.8702703,37.8378378 C11.9675676,37.8054054 12.0648649,37.8054054 12.227027,37.7405405 C12.3567568,37.7081081 12.4864865,37.6432432 12.5513514,37.6108108 C12.6162162,37.5459459 12.6810811,37.4810811 12.7135135,37.3837838 C12.7783784,37.2864865 12.8432432,37.1567568 12.9081081,36.9621622 C12.972973,36.7675676 13.0378378,36.6054054 13.0702703,36.4432432 C13.1027027,36.2810811 13.1351351,36.1837838 13.1351351,36.1189189 C13.2,36.0540541 13.1675676,36.0540541 13.1351351,36.0216216 Z M14.5945946,36.0540541 C14.5297297,36.0216216 14.4324324,35.9891892 14.3027027,35.9891892 C14.2702703,35.9891892 14.2378378,35.9891892 14.2054054,35.9891892 C15.6324324,34.6594595 16.3783784,33.9135135 16.4108108,33.8162162 C16.572973,33.4594595 16.6054054,33.3297297 16.5081081,33.3621622 C16.4108108,33.5243243 15.9567568,33.9783784 15.1459459,34.7567568 C14.3675676,35.5027027 13.9459459,35.9243243 13.8162162,36.0540541 C13.8162162,35.9243243 13.8486486,35.7621622 13.8810811,35.5675676 C13.9459459,35.1783784 13.9459459,34.9189189 13.9783784,34.7891892 C13.9783784,34.7567568 13.9783784,34.7567568 13.9459459,34.7567568 C13.9459459,34.7567568 13.9135135,34.7567568 13.9135135,34.7891892 C13.8162162,35.0810811 13.7189189,35.2756757 13.6864865,35.372973 C13.6216216,35.7621622 13.5567568,36.0864865 13.5243243,36.4108108 C13.4918919,36.7351351 13.4594595,36.9621622 13.4594595,37.1567568 C13.4594595,37.1567568 13.4594595,37.1567568 13.4594595,37.1567568 C13.4594595,37.3837838 13.4918919,37.5783784 13.5891892,37.7081081 C13.6540541,37.8378378 13.7837838,37.9027027 13.9135135,37.9027027 C14.0108108,37.9027027 14.1081081,37.8702703 14.172973,37.8054054 C14.2702703,37.7405405 14.3351351,37.6756757 14.4,37.5783784 C14.4972973,37.4486486 14.5621622,37.2540541 14.6594595,37.0594595 C14.7243243,36.8648649 14.7567568,36.6702703 14.7567568,36.4756757 C14.7891892,36.2486486 14.7243243,36.1189189 14.5945946,36.0540541 Z M14.4,37.0918919 C14.3351351,37.1567568 14.2054054,37.1567568 14.1081081,37.1567568 C14.0108108,37.1567568 13.9459459,37.1243243 13.8810811,37.0918919 C13.8162162,37.027027 13.7837838,36.9621622 13.7837838,36.8972973 C13.7837838,36.8324324 13.8162162,36.7675676 13.9135135,36.7027027 C14.0108108,36.6378378 14.0756757,36.6378378 14.172973,36.6378378 C14.2702703,36.6378378 14.3351351,36.6378378 14.4324324,36.7027027 C14.5297297,36.7675676 14.5621622,36.8324324 14.5621622,36.8972973 C14.5297297,36.9621622 14.4972973,37.027027 14.4,37.0918919 Z M9.5027027,36.1837838 C9.53513514,36.2162162 9.56756757,36.2162162 9.56756757,36.2162162 C9.63243243,36.2162162 9.72972973,36.0864865 9.85945946,35.8594595 C9.92432432,35.8918919 9.95675676,35.9567568 10.0216216,36.0216216 C10.0864865,36.0864865 10.1189189,36.1189189 10.1513514,36.1189189 C10.1837838,36.1189189 10.2486486,36.0540541 10.3135135,35.9567568 C10.4108108,35.827027 10.4432432,35.7297297 10.4432432,35.6648649 C10.4432432,35.6 10.4108108,35.5027027 10.3135135,35.4378378 C10.2486486,35.3405405 10.1837838,35.3081081 10.1189189,35.3081081 C10.0864865,35.3081081 10.0540541,35.372973 10.0216216,35.4378378 C9.95675676,35.5351351 9.92432432,35.6 9.85945946,35.6972973 C9.82702703,35.6324324 9.76216216,35.5675676 9.6972973,35.5027027 C9.63243243,35.4378378 9.56756757,35.4054054 9.53513514,35.4054054 C9.5027027,35.4054054 9.47027027,35.5027027 9.37297297,35.6648649 C9.27567568,35.827027 9.24324324,35.9243243 9.24324324,35.9567568 C9.24324324,35.9567568 9.27567568,35.9891892 9.34054054,36.0540541 C9.40540541,36.0864865 9.47027027,36.1513514 9.5027027,36.1837838 Z M16.6378378,35.827027 C16.7027027,35.8918919 16.7675676,35.9243243 16.8,35.9567568 C16.8324324,35.9891892 16.8648649,35.9891892 16.8648649,35.9891892 C16.9297297,35.9891892 17.027027,35.8594595 17.1567568,35.6324324 C17.2216216,35.6648649 17.2540541,35.7297297 17.3189189,35.7945946 C17.3837838,35.8594595 17.4162162,35.8918919 17.4486486,35.8918919 C17.4810811,35.8918919 17.5459459,35.827027 17.6108108,35.7297297 C17.7081081,35.6 17.7405405,35.5027027 17.7405405,35.4378378 C17.7405405,35.372973 17.7081081,35.2756757 17.6108108,35.2108108 C17.5459459,35.1459459 17.4810811,35.0810811 17.4162162,35.0810811 C17.3837838,35.0810811 17.3513514,35.1135135 17.3189189,35.2108108 C17.2540541,35.3081081 17.2216216,35.372973 17.1567568,35.4702703 C17.1243243,35.4054054 17.0594595,35.3405405 16.9945946,35.2756757 C16.9297297,35.2108108 16.8648649,35.1783784 16.8324324,35.1783784 C16.8,35.1783784 16.7675676,35.2756757 16.6702703,35.4378378 C16.572973,35.6 16.5405405,35.6972973 16.5405405,35.7297297 C16.5405405,35.7297297 16.572973,35.7621622 16.6378378,35.827027 Z M22.1513514,34.7567568 C22.1189189,34.8216216 22.0864865,34.8540541 22.0540541,34.9189189 C22.0216216,34.9837838 21.9891892,35.0486486 21.9567568,35.1135135 C21.9243243,35.1783784 21.8918919,35.2432432 21.8918919,35.3405405 C21.8594595,35.4054054 21.8594595,35.4702703 21.8594595,35.5675676 C21.8594595,35.6972973 21.827027,35.8594595 21.8594595,36.0864865 C21.8594595,36.3135135 21.8594595,36.4756757 21.8594595,36.6054054 C21.8594595,36.7351351 21.827027,36.8648649 21.7945946,36.9945946 C21.7621622,37.1243243 21.7621622,37.1891892 21.7621622,37.1891892 C21.7621622,37.2216216 21.7621622,37.2216216 21.7621622,37.2216216 C21.7621622,37.2216216 21.7945946,37.2216216 21.827027,37.1891892 C21.8594595,37.1567568 21.8594595,37.1243243 21.8918919,37.0918919 C21.9243243,37.027027 21.9567568,36.9297297 22.0216216,36.8 C22.0864865,36.6378378 22.1189189,36.4756757 22.1189189,36.2810811 C22.1189189,36.1837838 22.1513514,36.0864865 22.1513514,35.9567568 C22.1513514,35.827027 22.1513514,35.6972973 22.1513514,35.5351351 C22.1513514,35.5027027 22.1513514,35.4702703 22.1513514,35.4378378 C22.1513514,35.4054054 22.1513514,35.3405405 22.1513514,35.2756757 C22.1513514,35.2108108 22.1513514,35.1783784 22.1513514,35.1135135 C22.1513514,35.0486486 22.1513514,35.0162162 22.1513514,34.9513514 C22.1513514,34.8864865 22.1513514,34.8540541 22.1513514,34.8216216 C22.1513514,34.7891892 22.1513514,34.7567568 22.1513514,34.7567568 C22.1513514,34.7243243 22.1513514,34.7243243 22.1189189,34.7243243 C22.1837838,34.6918919 22.1513514,34.7243243 22.1513514,34.7567568 Z M24.5189189,38.9081081 C24.4864865,38.9081081 24.4540541,38.972973 24.3567568,39.1351351 C24.2594595,39.2972973 24.227027,39.3945946 24.227027,39.3945946 C24.227027,39.427027 24.227027,39.427027 24.2594595,39.4594595 C24.2918919,39.4918919 24.3243243,39.5243243 24.3567568,39.5567568 C24.3891892,39.5891892 24.4216216,39.6216216 24.4540541,39.6540541 C24.4864865,39.6864865 24.4864865,39.6864865 24.5189189,39.7189189 C24.5513514,39.7189189 24.5837838,39.6540541 24.6810811,39.5567568 C24.7459459,39.427027 24.7783784,39.3621622 24.7783784,39.2648649 C24.7783784,39.2 24.7459459,39.1351351 24.6810811,39.0378378 C24.6162162,38.972973 24.5837838,38.9081081 24.5189189,38.9081081 Z M25.3945946,35.7621622 C25.3621622,35.8594595 25.2972973,35.9243243 25.2648649,35.9243243 C25.2324324,35.9567568 25.1675676,35.9891892 25.1027027,36.0216216 C25.0054054,36.0540541 24.9405405,36.1189189 24.9081081,36.1189189 C24.8108108,36.1837838 24.7459459,36.2486486 24.6810811,36.3135135 C24.6486486,36.3783784 24.5513514,36.5081081 24.4864865,36.7027027 C24.3891892,36.8972973 24.3567568,37.027027 24.3243243,37.027027 C24.2594595,37.0918919 24.1945946,37.1891892 24.0648649,37.2864865 C24.0648649,37.2864865 24.0324324,37.3189189 23.9027027,37.3837838 C23.7405405,37.4810811 23.6432432,37.5459459 23.5783784,37.5783784 C23.5135135,37.6108108 23.4810811,37.6432432 23.4810811,37.6756757 C23.4162162,37.7081081 23.4162162,37.7405405 23.4162162,37.772973 C23.4162162,37.8054054 23.4810811,37.8054054 23.5135135,37.8054054 C23.5783784,37.8054054 23.6756757,37.8054054 23.8054054,37.772973 C23.9027027,37.7405405 24,37.7405405 24.0648649,37.7081081 C24.1945946,37.6432432 24.3243243,37.5459459 24.3891892,37.3837838 C24.4216216,37.2864865 24.4864865,37.1243243 24.5513514,36.9621622 C24.5837838,36.8648649 24.6486486,36.7675676 24.6810811,36.7351351 C24.6810811,36.7027027 24.7135135,36.7027027 24.7783784,36.6702703 C24.8108108,36.6378378 24.9405405,36.572973 25.1351351,36.4756757 C25.2648649,36.4108108 25.3945946,36.1837838 25.5243243,35.7621622 C25.5567568,35.6972973 25.5243243,35.6324324 25.5243243,35.6324324 C25.4594595,35.6324324 25.427027,35.6648649 25.3945946,35.7621622 Z M24.7783784,38.0972973 C24.7459459,38.0972973 24.7135135,38.1621622 24.6486486,38.2594595 C24.6162162,38.3243243 24.5513514,38.4216216 24.5189189,38.4864865 C24.4864865,38.4216216 24.4540541,38.3567568 24.3567568,38.2918919 C24.2918919,38.227027 24.227027,38.1945946 24.1945946,38.1945946 C24.1621622,38.1945946 24.1297297,38.2918919 24.0324324,38.4540541 C23.9351351,38.6162162 23.9027027,38.7459459 23.9027027,38.7459459 C23.9027027,38.7459459 23.9675676,38.8108108 24.0648649,38.9081081 C24.1621622,39.0054054 24.227027,39.0378378 24.227027,39.0378378 C24.2918919,39.0378378 24.3891892,38.9081081 24.4864865,38.6486486 C24.5189189,38.6810811 24.5837838,38.7459459 24.6810811,38.8108108 C24.7459459,38.8756757 24.7783784,38.9081081 24.8108108,38.9081081 C24.8432432,38.9081081 24.9081081,38.8432432 24.972973,38.7459459 C25.0378378,38.6162162 25.1027027,38.5189189 25.1027027,38.4216216 C25.1027027,38.3567568 25.0702703,38.2594595 24.972973,38.1945946 C24.8756757,38.1297297 24.8108108,38.0972973 24.7783784,38.0972973 Z M28.5405405,37.9675676 C28.5081081,37.9675676 28.4756757,38 28.4432432,38.0972973 C28.3783784,38.1945946 28.3459459,38.2594595 28.2810811,38.3567568 C28.2486486,38.2918919 28.1837838,38.227027 28.1189189,38.1621622 C28.0540541,38.0972973 27.9891892,38.0648649 27.9567568,38.0648649 C27.9243243,38.0648649 27.8918919,38.1621622 27.7945946,38.3243243 C27.6972973,38.4864865 27.6648649,38.5837838 27.6648649,38.6162162 C27.6648649,38.6162162 27.6972973,38.6486486 27.7621622,38.7135135 C27.827027,38.7783784 27.8918919,38.8108108 27.9243243,38.8432432 C27.9567568,38.8756757 27.9891892,38.8756757 27.9891892,38.8756757 C28.0540541,38.8756757 28.1513514,38.7459459 28.2810811,38.5189189 C28.3459459,38.5513514 28.3783784,38.6162162 28.4432432,38.6810811 C28.5081081,38.7459459 28.5405405,38.7783784 28.572973,38.7783784 C28.6054054,38.7783784 28.6702703,38.7135135 28.7351351,38.6162162 C28.8324324,38.4864865 28.8648649,38.3891892 28.8648649,38.3243243 C28.8648649,38.2594595 28.8324324,38.1621622 28.7351351,38.0972973 C28.6378378,38.0324324 28.572973,37.9675676 28.5405405,37.9675676 Z M23.5135135,36.572973 C23.5135135,36.2810811 23.3837838,36.0540541 23.0918919,35.8594595 C23.027027,35.827027 22.9945946,35.827027 22.9945946,35.8918919 C22.8972973,36.1189189 22.8,36.3135135 22.7351351,36.4432432 C22.7027027,36.5081081 22.7351351,36.5405405 22.7675676,36.572973 C23.027027,36.7675676 23.1567568,36.9297297 23.1567568,37.0594595 C23.1567568,37.0918919 23.0918919,37.1891892 22.9621622,37.3189189 C22.8324324,37.4486486 22.6702703,37.5783784 22.5081081,37.7081081 C22.4108108,37.772973 22.3783784,37.8054054 22.3783784,37.8378378 C22.3783784,37.8378378 22.3783784,37.8702703 22.4108108,37.8702703 C22.4432432,37.8702703 22.4432432,37.8702703 22.5081081,37.8702703 C22.7675676,37.8054054 22.9945946,37.6756757 23.1243243,37.5459459 C23.2216216,37.4486486 23.2864865,37.3513514 23.3837838,37.1891892 C23.4486486,36.9621622 23.5135135,36.8 23.5135135,36.572973 Z M20.8540541,34.3027027 C20.8864865,34.3027027 20.9513514,34.2378378 21.0162162,34.1081081 C21.0810811,33.9783784 21.1135135,33.8810811 21.1135135,33.8162162 C21.1135135,33.7513514 21.0486486,33.6864865 20.9837838,33.5891892 C20.8864865,33.4918919 20.8216216,33.4594595 20.7891892,33.4918919 C20.7567568,33.4918919 20.7243243,33.5891892 20.627027,33.7513514 C20.5297297,33.9135135 20.4972973,34.0108108 20.4972973,34.0756757 C20.4972973,34.1081081 20.4972973,34.1405405 20.5297297,34.1405405 C20.5621622,34.172973 20.627027,34.2054054 20.6918919,34.2702703 C20.7891892,34.2702703 20.8216216,34.3027027 20.8540541,34.3027027 Z M7.97837838,31.5783784 C7.97837838,31.5783784 8.04324324,31.5135135 8.10810811,31.3837838 C8.23783784,31.3837838 8.36756757,31.2864865 8.4972973,31.0918919 C8.62702703,30.8972973 8.69189189,30.7027027 8.69189189,30.4756757 C8.69189189,30.4108108 8.69189189,30.3783784 8.65945946,30.3783784 C8.62702703,30.3783784 8.62702703,30.4108108 8.59459459,30.5081081 C8.56216216,30.6054054 8.52972973,30.6702703 8.4972973,30.7027027 C8.46486486,30.7675676 8.4,30.8 8.36756757,30.8 C8.33513514,30.8 8.3027027,30.8 8.20540541,30.7675676 C8.17297297,30.7675676 8.17297297,30.7675676 8.14054054,30.7675676 C8.10810811,30.7675676 8.07567568,30.8324324 8.04324324,30.9621622 C7.97837838,31.0918919 7.94594595,31.1567568 7.88108108,31.1567568 C7.81621622,31.1567568 7.78378378,31.1567568 7.75135135,31.1567568 C7.71891892,31.1567568 7.65405405,31.1567568 7.62162162,31.1567568 C7.55675676,31.1891892 7.45945946,31.2540541 7.32972973,31.4162162 C7.23243243,31.5135135 7.07027027,31.5783784 6.87567568,31.5783784 C6.74594595,31.5783784 6.61621622,31.5459459 6.55135135,31.4810811 C6.45405405,31.4162162 6.38918919,31.3513514 6.35675676,31.2540541 C6.32432432,31.1243243 6.29189189,31.027027 6.29189189,30.9621622 C6.29189189,30.8972973 6.29189189,30.8324324 6.29189189,30.7027027 C6.29189189,30.7027027 6.29189189,30.7027027 6.29189189,30.7027027 C6.29189189,30.7027027 6.29189189,30.7027027 6.29189189,30.7027027 C6.29189189,30.6702703 6.29189189,30.572973 6.32432432,30.3783784 C6.35675676,30.1837838 6.38918919,29.827027 6.45405405,29.2756757 C6.51891892,28.7243243 6.55135135,28.3675676 6.58378378,28.172973 C6.58378378,28.1405405 6.58378378,28.1405405 6.55135135,28.1405405 C6.55135135,28.1405405 6.51891892,28.1405405 6.48648649,28.172973 C6.32432432,28.5621622 6.22702703,28.8216216 6.19459459,28.9837838 C6.0972973,29.5027027 6.03243243,29.9891892 5.96756757,30.4108108 C5.9027027,30.8648649 5.9027027,31.1891892 5.9027027,31.4162162 L5.9027027,31.4162162 L5.9027027,31.4162162 C5.9027027,31.7081081 5.96756757,31.9351351 6.03243243,32.1297297 C6.12972973,32.3243243 6.29189189,32.4216216 6.51891892,32.4216216 C6.71351351,32.4216216 6.90810811,32.2918919 7.07027027,32.0648649 C7.23243243,31.8378378 7.36216216,31.7081081 7.42702703,31.6756757 C7.49189189,31.6432432 7.52432432,31.6432432 7.58918919,31.6432432 C7.62162162,31.6432432 7.68648649,31.6432432 7.75135135,31.6756757 C7.84864865,31.7405405 7.91351351,31.6756757 7.97837838,31.5783784 Z M21.3405405,35.372973 C21.2756757,35.4054054 21.2432432,35.4054054 21.1783784,35.4054054 C21.1459459,35.4054054 21.0486486,35.372973 20.9189189,35.3081081 C20.7891892,35.2432432 20.6594595,35.2432432 20.5945946,35.2432432 C20.4972973,35.2432432 20.4,35.2756757 20.3351351,35.3081081 C20.2702703,35.3405405 20.2054054,35.4054054 20.172973,35.5027027 C20.1405405,35.5351351 20.1081081,35.6 20.1081081,35.6648649 C20.0756757,35.7297297 20.0756757,35.7621622 20.1081081,35.7621622 C20.1081081,35.7621622 20.1405405,35.7621622 20.172973,35.7297297 C20.2054054,35.6648649 20.2378378,35.6 20.3027027,35.5675676 C20.3351351,35.5351351 20.4,35.5027027 20.4648649,35.5027027 C20.4972973,35.5027027 20.5621622,35.5027027 20.5945946,35.5351351 C20.627027,35.5351351 20.627027,35.5351351 20.6594595,35.5675676 C20.6918919,35.5675676 20.6918919,35.5675676 20.7243243,35.6 C20.7891892,35.6324324 20.8216216,35.6324324 20.8540541,35.6648649 C20.8864865,35.6648649 20.9189189,35.6972973 20.9513514,35.7297297 C20.9189189,35.7621622 20.8864865,35.827027 20.8216216,35.8918919 C20.7891892,35.9243243 20.6918919,36.0216216 20.4972973,36.1837838 C20.3027027,36.3459459 20.1081081,36.4756757 19.9459459,36.5405405 C19.7513514,36.6054054 19.6540541,36.6378378 19.5891892,36.6378378 L19.5891892,36.6378378 C19.5567568,36.6378378 19.5243243,36.6378378 19.4918919,36.6378378 C19.4918919,36.5405405 19.4918919,36.4756757 19.4594595,36.5081081 C19.427027,36.5405405 19.3297297,36.6378378 19.1675676,36.7351351 C19.0054054,36.8324324 18.8432432,36.8972973 18.6486486,36.9621622 C18.4540541,37.027027 18.2918919,37.0594595 18.0972973,37.0918919 C17.9027027,37.1243243 17.7081081,37.1567568 17.5459459,37.1567568 C17.3513514,37.1567568 17.1891892,37.1891892 17.027027,37.1891892 C16.8324324,37.1891892 16.6054054,37.1891892 16.3459459,37.1567568 C16.0864865,37.1243243 15.8594595,37.0918919 15.7297297,37.027027 C15.6,36.9621622 15.5351351,36.8648649 15.5027027,36.7027027 C15.5027027,36.6054054 15.4702703,36.5405405 15.4378378,36.5405405 C15.4054054,36.5405405 15.372973,36.6378378 15.372973,36.8 C15.3405405,36.9621622 15.3405405,37.1243243 15.3405405,37.2540541 C15.3405405,37.4810811 15.4054054,37.6432432 15.5675676,37.7405405 C15.6324324,37.8054054 15.7945946,37.8378378 15.9891892,37.8378378 C16.1837838,37.8702703 16.3459459,37.8702703 16.5081081,37.8702703 C16.7351351,37.8702703 16.9945946,37.8702703 17.2864865,37.8378378 C17.5459459,37.8054054 17.8054054,37.772973 18,37.7081081 C18.227027,37.6432432 18.3891892,37.5783784 18.5837838,37.5135135 C18.7459459,37.4486486 18.9405405,37.3513514 19.1027027,37.1891892 C19.2324324,37.1243243 19.3297297,36.9945946 19.4594595,36.8324324 L19.6864865,36.8972973 C19.6864865,36.8972973 19.6864865,36.8972973 19.6864865,36.8972973 L19.9459459,36.9621622 C20.0108108,36.9621622 20.0756757,36.9621622 20.1405405,36.8972973 C20.172973,36.8648649 20.2054054,36.8324324 20.2702703,36.8 C20.3027027,36.7675676 20.3351351,36.7351351 20.3675676,36.7027027 L20.8864865,36.2162162 C20.9837838,36.1189189 21.0486486,36.0864865 21.0810811,36.0216216 C21.1459459,35.9567568 21.2108108,35.8918919 21.3081081,35.827027 L21.5027027,35.6972973 C21.5675676,35.6648649 21.6,35.6 21.6,35.5675676 C21.6,35.5351351 21.6324324,35.5027027 21.6324324,35.4702703 C21.6324324,35.4378378 21.6324324,35.4054054 21.6648649,35.372973 C21.6972973,35.3081081 21.6648649,35.3081081 21.6648649,35.3081081 C21.4378378,35.3081081 21.372973,35.3405405 21.3405405,35.372973 Z M29.2216216,35.6972973 C29.3189189,35.6972973 29.3837838,35.6648649 29.4486486,35.6 C29.5135135,35.5027027 29.5459459,35.4378378 29.5783784,35.3405405 C29.6108108,35.2432432 29.6432432,35.1783784 29.6432432,35.1459459 C29.6432432,35.1135135 29.6432432,35.0810811 29.6432432,35.0486486 C29.6432432,35.0162162 29.6432432,35.0162162 29.6108108,35.0162162 C29.6108108,35.0162162 29.5783784,35.0486486 29.5783784,35.0810811 C29.5135135,35.1783784 29.4486486,35.2432432 29.4486486,35.2432432 C29.4162162,35.2756757 29.3189189,35.2756757 29.2216216,35.2432432 C29.1891892,35.2432432 29.1243243,35.2756757 29.0594595,35.3081081 C28.9945946,35.3405405 28.9297297,35.4054054 28.8648649,35.5351351 C28.7675676,35.6648649 28.6378378,35.7297297 28.4756757,35.7297297 C28.3783784,35.7297297 28.2810811,35.6972973 28.1837838,35.6324324 C28.0864865,35.5351351 28.0216216,35.372973 28.0216216,35.1459459 C28.0216216,35.0486486 28.0540541,34.8540541 28.0864865,34.5621622 C28.0864865,34.4648649 28.1189189,34.3351351 28.1513514,34.1081081 C28.1513514,34.0756757 28.1837838,34.0432432 28.1513514,34.0108108 C28.1513514,34.0108108 28.1189189,34.0108108 28.1189189,34.0108108 C28.0540541,34.1081081 27.9891892,34.2378378 27.9567568,34.3351351 C27.9243243,34.4 27.9243243,34.4648649 27.8918919,34.5945946 C27.8594595,34.6918919 27.8594595,34.7891892 27.827027,34.8864865 C27.7945946,35.0162162 27.7945946,35.1459459 27.7621622,35.2756757 L27.7297297,35.6324324 L27.7297297,35.6648649 C27.7297297,35.6648649 27.7297297,35.6648649 27.7297297,35.6648649 C27.7297297,35.6648649 27.7297297,35.6648649 27.7297297,35.6972973 L27.7297297,35.7945946 C27.7297297,35.8594595 27.6972973,35.9243243 27.6324324,36.0216216 C27.6,36.0864865 27.5675676,36.1513514 27.5027027,36.2486486 L27.4054054,36.4108108 C27.3405405,36.5081081 27.3081081,36.6054054 27.2756757,36.7027027 C27.2432432,36.8 27.2108108,36.8972973 27.2108108,36.9621622 C27.2108108,37.0594595 27.3081081,37.1567568 27.4702703,37.2540541 C27.6324324,37.3189189 27.6972973,37.3837838 27.6972973,37.4162162 C27.6972973,37.6108108 27.6,37.8054054 27.372973,37.9675676 C27.1459459,38.1621622 26.8216216,38.2594595 26.4648649,38.2594595 C26.2702703,38.2594595 26.1081081,38.227027 25.9783784,38.1297297 C25.8162162,38 25.7189189,37.8054054 25.7189189,37.5459459 C25.7189189,37.3837838 25.7837838,37.1891892 25.8810811,36.9297297 C25.9459459,36.7675676 26.0432432,36.5405405 26.2054054,36.1513514 C26.2378378,36.1189189 26.2378378,36.0540541 26.2378378,36.0216216 C26.2378378,35.9891892 26.2378378,35.9567568 26.2054054,35.9567568 C26.172973,35.9567568 26.172973,35.9891892 26.1405405,36.0540541 C26.1081081,36.0864865 26.1081081,36.1189189 26.0756757,36.1513514 C26.0432432,36.1837838 26.0432432,36.2486486 26.0108108,36.2810811 C25.9783784,36.3459459 25.9459459,36.4432432 25.9135135,36.4756757 C25.8810811,36.5405405 25.8810811,36.572973 25.8486486,36.572973 C25.8162162,36.6702703 25.7513514,36.8 25.6864865,36.9621622 C25.6216216,37.0918919 25.5567568,37.2864865 25.5243243,37.4810811 C25.4594595,37.6756757 25.4594595,37.8378378 25.4594595,37.9675676 C25.4594595,38.2594595 25.5243243,38.4864865 25.6540541,38.6810811 C25.8162162,38.9081081 26.0432432,39.0054054 26.3027027,39.0054054 C26.4324324,39.0054054 26.5297297,38.972973 26.6594595,38.9405405 C26.7567568,38.9081081 26.8540541,38.8432432 26.9513514,38.7783784 C27.2432432,38.5837838 27.4378378,38.2918919 27.6,37.9675676 C27.6972973,37.7405405 27.7621622,37.5459459 27.7945946,37.4162162 C27.827027,37.2540541 27.8594595,37.1243243 27.8594595,36.9621622 C27.8594595,36.8648649 27.8594595,36.7675676 27.827027,36.7351351 C27.7945946,36.7027027 27.7621622,36.6378378 27.7297297,36.6054054 C27.6648649,36.572973 27.6324324,36.5405405 27.5675676,36.5081081 C27.5027027,36.4756757 27.5027027,36.4432432 27.5027027,36.4108108 L27.5027027,36.4108108 C27.5027027,36.3783784 27.5675676,36.2810811 27.6324324,36.1513514 C27.6648649,36.1189189 27.6972973,36.0864865 27.6972973,36.0540541 C27.7297297,36.0864865 27.7297297,36.1513514 27.7621622,36.1837838 C27.8594595,36.3135135 27.9891892,36.4108108 28.1513514,36.4108108 C28.3135135,36.4108108 28.4756757,36.3135135 28.6054054,36.0864865 C28.7351351,35.8594595 28.8324324,35.7297297 28.9621622,35.6972973 C29.0918919,35.6648649 29.1567568,35.6648649 29.2216216,35.6972973 C29.2216216,35.6972973 29.2216216,35.6972973 29.2216216,35.6972973 Z M7.88108108,23.0162162 C7.58918919,23.3081081 7.32972973,23.5675676 7.07027027,23.7945946 C6.81081081,24.0216216 6.55135135,24.2486486 6.29189189,24.4432432 C6.03243243,24.6702703 5.80540541,24.8648649 5.57837838,25.027027 C5.38378378,25.1891892 5.09189189,25.4162162 4.76756757,25.6756757 C4.44324324,25.9351351 4.18378378,26.1621622 4.05405405,26.2918919 C3.95675676,26.3891892 3.89189189,26.4864865 3.82702703,26.5837838 C3.76216216,26.7459459 3.6972973,26.8756757 3.66486486,26.972973 C3.66486486,27.0054054 3.72972973,26.972973 3.79459459,26.9081081 C3.82702703,26.8756757 3.89189189,26.8432432 3.92432432,26.8108108 C3.95675676,26.7783784 4.02162162,26.7459459 4.05405405,26.7135135 L4.7027027,26.1945946 C4.83243243,26.0972973 4.96216216,26 5.09189189,25.9027027 C5.22162162,25.8054054 5.35135135,25.7081081 5.44864865,25.6432432 C5.54594595,25.5459459 5.74054054,25.4162162 6,25.2216216 C6.25945946,25.027027 6.48648649,24.8 6.74594595,24.6054054 C6.97297297,24.4108108 7.2,24.2162162 7.39459459,23.9891892 C7.62162162,23.7621622 7.81621622,23.5351351 8.01081081,23.3081081 C8.20540541,23.0810811 8.33513514,22.8216216 8.43243243,22.5297297 C8.46486486,22.4648649 8.46486486,22.4 8.43243243,22.4324324 C8.36756757,22.5297297 8.17297297,22.7243243 7.88108108,23.0162162 Z M7.1027027,36.4432432 C7.03783784,36.3459459 6.94054054,36.2810811 6.84324324,36.1837838 L6.81081081,36.2486486 C6.87567568,36.2810811 6.90810811,36.3459459 6.94054054,36.4108108 C6.97297297,36.4756757 7.00540541,36.5405405 7.03783784,36.6054054 C7.07027027,36.6702703 7.1027027,36.7675676 7.1027027,36.8324324 C7.1027027,36.9297297 7.13513514,36.9945946 7.13513514,37.0918919 C7.13513514,37.2216216 7.13513514,37.3189189 7.1027027,37.4486486 C7.07027027,37.5459459 7.03783784,37.6432432 6.97297297,37.7405405 C6.90810811,37.8378378 6.87567568,37.9027027 6.77837838,37.9675676 L6.81081081,38 C6.90810811,37.9351351 7.00540541,37.8378378 7.07027027,37.7405405 C7.13513514,37.6432432 7.2,37.5459459 7.23243243,37.4162162 C7.26486486,37.3189189 7.26486486,37.1891892 7.26486486,37.0594595 L7.26486486,37.0594595 C7.26486486,36.9297297 7.23243243,36.8 7.23243243,36.7027027 C7.23243243,36.6378378 7.16756757,36.5405405 7.1027027,36.4432432 Z M5.80540541,29.4054054 C5.77297297,29.4054054 5.74054054,29.4702703 5.67567568,29.5675676 C5.61081081,29.6972973 5.54594595,29.7621622 5.51351351,29.827027 C5.48108108,29.8594595 5.38378378,29.9243243 5.25405405,29.9567568 C5.12432432,30.0216216 5.02702703,30.0864865 4.96216216,30.1189189 C4.83243243,30.2162162 4.73513514,30.3135135 4.67027027,30.3783784 C4.60540541,30.4756757 4.50810811,30.6378378 4.37837838,30.9297297 C4.24864865,31.2216216 4.18378378,31.3837838 4.15135135,31.3837838 C4.08648649,31.4810811 3.95675676,31.5783784 3.76216216,31.7081081 C3.76216216,31.7081081 3.6972973,31.7405405 3.53513514,31.8702703 C3.34054054,32 3.17837838,32.0972973 3.11351351,32.1621622 C3.04864865,32.227027 2.98378378,32.2594595 2.95135135,32.2918919 C2.88648649,32.3567568 2.85405405,32.3891892 2.85405405,32.4216216 C2.88648649,32.4540541 2.91891892,32.4864865 3.01621622,32.4864865 C3.11351351,32.4864865 3.24324324,32.4540541 3.40540541,32.4216216 C3.56756757,32.3891892 3.6972973,32.3567568 3.79459459,32.3243243 C3.98918919,32.227027 4.15135135,32.0648649 4.24864865,31.8702703 C4.31351351,31.7405405 4.37837838,31.5135135 4.50810811,31.2540541 C4.57297297,31.1243243 4.63783784,30.9945946 4.7027027,30.9297297 C4.73513514,30.8972973 4.76756757,30.8648649 4.83243243,30.8324324 C4.8972973,30.8 5.05945946,30.7027027 5.31891892,30.572973 C5.51351351,30.4756757 5.67567568,30.1513514 5.83783784,29.6 C5.83783784,29.4702703 5.83783784,29.4054054 5.80540541,29.4054054 Z M4.92972973,33.6540541 C4.8972973,33.6540541 4.83243243,33.7513514 4.7027027,33.9783784 C4.57297297,34.2054054 4.50810811,34.3351351 4.50810811,34.3675676 C4.50810811,34.4 4.54054054,34.4324324 4.57297297,34.4648649 C4.60540541,34.4972973 4.67027027,34.5297297 4.7027027,34.5945946 C4.73513514,34.627027 4.8,34.6918919 4.83243243,34.7243243 C4.86486486,34.7567568 4.8972973,34.7891892 4.92972973,34.7891892 C4.96216216,34.7891892 5.02702703,34.7243243 5.12432432,34.5621622 C5.22162162,34.4 5.28648649,34.2702703 5.28648649,34.172973 C5.28648649,34.0756757 5.25405405,33.9783784 5.15675676,33.8486486 C5.05945946,33.7189189 4.99459459,33.6540541 4.92972973,33.6540541 Z M0.291891892,30.7351351 C0.259459459,30.7351351 0.227027027,30.7675676 0.227027027,30.8324324 C0.162162162,31.0918919 0.0972972973,31.4486486 0.0648648649,31.8378378 C0.0648648649,32.0648649 0.12972973,32.227027 0.259459459,32.3243243 C0.421621622,32.4540541 0.681081081,32.5189189 1.07027027,32.5189189 C1.49189189,32.5189189 1.84864865,32.4216216 2.14054054,32.2594595 C2.33513514,32.1621622 2.46486486,32.0324324 2.62702703,31.9027027 C2.78918919,31.7405405 2.95135135,31.4810811 3.11351351,31.1891892 C3.27567568,30.8972973 3.40540541,30.4756757 3.5027027,29.9567568 C3.56756757,29.5675676 3.6,29.2108108 3.6,28.8864865 C3.6,28.7567568 3.6,28.4972973 3.63243243,28.0756757 C3.63243243,27.9459459 3.63243243,27.7837838 3.66486486,27.6216216 C3.6972973,27.427027 3.6972973,27.3297297 3.6972973,27.2648649 C3.6972973,27.2 3.6972973,27.1351351 3.72972973,27.1027027 C3.72972973,27.0378378 3.72972973,27.0378378 3.72972973,27.0054054 C3.72972973,27.0054054 3.6972973,27.0054054 3.66486486,27.0054054 C3.63243243,27.0702703 3.56756757,27.2324324 3.43783784,27.4918919 C3.34054054,27.7189189 3.27567568,27.8810811 3.21081081,27.9783784 C3.21081081,28.0108108 3.17837838,28.1405405 3.17837838,28.3351351 C3.17837838,28.4324324 3.17837838,28.7891892 3.14594595,29.3405405 C3.14594595,29.827027 3.11351351,30.1513514 3.08108108,30.3783784 C3.04864865,30.6054054 2.98378378,30.7351351 2.91891892,30.8324324 C2.75675676,31.0918919 2.52972973,31.2540541 2.20540541,31.3837838 C1.97837838,31.4810811 1.68648649,31.5135135 1.39459459,31.5135135 C1.2972973,31.5135135 1.16756757,31.5135135 1.00540541,31.4810811 C0.875675676,31.4486486 0.745945946,31.4162162 0.648648649,31.3837838 C0.421621622,31.2864865 0.324324324,31.1243243 0.324324324,30.8972973 C0.324324324,30.8648649 0.324324324,30.8 0.324324324,30.7675676 C0.356756757,30.7675676 0.324324324,30.7351351 0.291891892,30.7351351 Z M1.58918919,30.1513514 L1.49189189,30.1513514 C1.42702703,30.1513514 1.42702703,30.1837838 1.42702703,30.2162162 C1.42702703,30.3135135 1.49189189,30.3459459 1.58918919,30.3459459 C1.75135135,30.3459459 1.84864865,30.3135135 1.91351351,30.2162162 C1.97837838,30.1189189 1.97837838,30.0540541 1.94594595,29.9891892 C1.91351351,29.9243243 1.91351351,29.8594595 1.91351351,29.827027 C1.94594595,29.7621622 2.01081081,29.7297297 2.10810811,29.7297297 C2.20540541,29.7297297 2.27027027,29.6972973 2.27027027,29.6 C2.27027027,29.5351351 2.23783784,29.5027027 2.17297297,29.5027027 C2.07567568,29.5027027 1.97837838,29.5351351 1.91351351,29.6 C1.84864865,29.6648649 1.81621622,29.7621622 1.84864865,29.8594595 C1.88108108,29.9567568 1.88108108,30.0216216 1.81621622,30.0540541 C1.75135135,30.1189189 1.68648649,30.1513514 1.58918919,30.1513514 Z M7.26486486,27.2648649 C7.13513514,27.4918919 7.07027027,27.6540541 7.07027027,27.6864865 C7.07027027,27.7189189 7.13513514,27.7837838 7.26486486,27.8810811 C7.39459459,27.9783784 7.49189189,28.0432432 7.49189189,28.0432432 C7.58918919,28.0432432 7.71891892,27.8810811 7.88108108,27.5243243 C7.94594595,27.5567568 8.04324324,27.6540541 8.14054054,27.7513514 C8.20540541,27.8162162 8.27027027,27.8486486 8.3027027,27.8486486 C8.33513514,27.8486486 8.43243243,27.7513514 8.52972973,27.6216216 C8.62702703,27.4594595 8.69189189,27.3297297 8.69189189,27.2 C8.69189189,27.1027027 8.62702703,27.0054054 8.52972973,26.8756757 C8.43243243,26.7783784 8.33513514,26.7135135 8.27027027,26.7135135 C8.23783784,26.7135135 8.20540541,26.7783784 8.10810811,26.9405405 C8.04324324,27.0378378 7.97837838,27.1351351 7.91351351,27.2648649 C7.88108108,27.2 7.81621622,27.1027027 7.71891892,27.0054054 C7.62162162,26.9081081 7.55675676,26.8756757 7.49189189,26.8756757 C7.45945946,26.9081081 7.39459459,27.0378378 7.26486486,27.2648649 Z M5.54594595,33.427027 C5.64324324,33.2648649 5.70810811,33.1027027 5.70810811,33.0054054 C5.70810811,32.9081081 5.64324324,32.8108108 5.54594595,32.6810811 C5.44864865,32.5837838 5.35135135,32.5189189 5.28648649,32.5189189 C5.25405405,32.5189189 5.22162162,32.5837838 5.12432432,32.7459459 C5.05945946,32.8432432 4.99459459,32.972973 4.92972973,33.0702703 C4.8972973,33.0054054 4.83243243,32.9081081 4.73513514,32.8108108 C4.63783784,32.7135135 4.54054054,32.6810811 4.50810811,32.6810811 C4.47567568,32.6810811 4.41081081,32.8108108 4.28108108,33.0702703 C4.15135135,33.3297297 4.08648649,33.4594595 4.08648649,33.4918919 C4.08648649,33.5243243 4.15135135,33.5891892 4.28108108,33.6864865 C4.41081081,33.8162162 4.50810811,33.8486486 4.50810811,33.8486486 C4.60540541,33.8486486 4.73513514,33.6864865 4.8972973,33.3297297 C4.96216216,33.3945946 5.05945946,33.4594595 5.15675676,33.5567568 C5.22162162,33.6216216 5.28648649,33.6864865 5.31891892,33.6864865 C5.35135135,33.6864865 5.41621622,33.5891892 5.54594595,33.427027 Z M4.99459459,36.3135135 C4.96216216,36.3135135 4.96216216,36.3135135 4.92972973,36.3459459 C4.92972973,36.3459459 4.8972973,36.3783784 4.8972973,36.4432432 L4.83243243,36.572973 C4.83243243,36.572973 4.83243243,36.6054054 4.86486486,36.6054054 C4.8972973,36.6054054 4.8972973,36.6378378 4.8972973,36.6378378 C4.8972973,36.6378378 4.8972973,36.6702703 4.86486486,36.6702703 C4.86486486,36.6702703 4.83243243,36.7027027 4.8,36.7351351 C4.76756757,36.7675676 4.73513514,36.8 4.7027027,36.8324324 C4.67027027,36.8648649 4.63783784,36.9297297 4.60540541,36.9621622 C4.57297297,36.9945946 4.54054054,37.0594595 4.54054054,37.1243243 C4.50810811,37.1891892 4.50810811,37.2216216 4.50810811,37.2540541 C4.50810811,37.2864865 4.50810811,37.3189189 4.54054054,37.3513514 C4.54054054,37.3837838 4.57297297,37.3837838 4.60540541,37.4162162 C4.67027027,37.4486486 4.7027027,37.4810811 4.73513514,37.4810811 C4.73513514,37.4810811 4.76756757,37.5135135 4.76756757,37.5135135 C4.76756757,37.5459459 4.73513514,37.6108108 4.7027027,37.6756757 C4.67027027,37.7405405 4.60540541,37.8054054 4.54054054,37.8378378 C4.47567568,37.8702703 4.44324324,37.9027027 4.37837838,37.9027027 C4.31351351,37.9027027 4.24864865,37.9351351 4.18378378,37.9351351 C4.08648649,37.9351351 3.98918919,37.9027027 3.95675676,37.8378378 C3.89189189,37.772973 3.85945946,37.6756757 3.85945946,37.5783784 C3.85945946,37.5135135 3.85945946,37.4486486 3.89189189,37.3837838 C3.89189189,37.3513514 3.92432432,37.2540541 3.98918919,37.0918919 C4.02162162,36.9945946 4.05405405,36.9297297 4.05405405,36.8972973 C4.05405405,36.8648649 4.05405405,36.8648649 4.05405405,36.8324324 C4.05405405,36.8324324 4.02162162,36.8648649 3.98918919,36.9297297 C3.95675676,36.9621622 3.95675676,37.027027 3.92432432,37.0594595 C3.85945946,37.1891892 3.82702703,37.3189189 3.76216216,37.4162162 C3.72972973,37.5459459 3.6972973,37.6756757 3.6972973,37.772973 C3.6972973,37.9351351 3.72972973,38.0648649 3.79459459,38.1297297 C3.85945946,38.227027 3.95675676,38.2594595 4.05405405,38.2594595 C4.28108108,38.2594595 4.47567568,38.1621622 4.60540541,37.9351351 C4.67027027,37.8378378 4.7027027,37.7405405 4.76756757,37.6108108 C4.8,37.4810811 4.83243243,37.3837838 4.83243243,37.2864865 L4.83243243,37.2540541 C4.83243243,37.2216216 4.83243243,37.2216216 4.83243243,37.1891892 C4.83243243,37.1567568 4.8,37.1567568 4.76756757,37.1243243 C4.73513514,37.0918919 4.7027027,37.0918919 4.67027027,37.0594595 C4.63783784,37.027027 4.60540541,37.027027 4.60540541,36.9945946 C4.60540541,36.9621622 4.60540541,36.9621622 4.67027027,36.9297297 C4.7027027,36.8972973 4.73513514,36.8648649 4.73513514,36.8648649 C4.76756757,36.8324324 4.83243243,36.8 4.8972973,36.7675676 C4.92972973,36.7675676 4.96216216,36.7351351 5.05945946,36.6702703 C5.09189189,36.6378378 5.12432432,36.6054054 5.18918919,36.572973 C5.22162162,36.5081081 5.25405405,36.4756757 5.25405405,36.4432432 C5.25405405,36.4108108 5.22162162,36.3783784 5.18918919,36.3459459 C5.12432432,36.3459459 5.05945946,36.3459459 4.99459459,36.3135135 Z M6.68108108,36.7027027 C6.64864865,36.7675676 6.61621622,36.8 6.61621622,36.8 L6.58378378,36.8 C6.55135135,36.8324324 6.55135135,36.8324324 6.55135135,36.8648649 C6.48648649,36.8648649 6.48648649,36.8972973 6.45405405,36.8972973 L6.38918919,36.8972973 C6.35675676,36.8972973 6.29189189,36.9297297 6.22702703,37.027027 C6.19459459,37.0594595 6.16216216,37.0918919 6.12972973,37.1567568 C6.12972973,37.1567568 6.12972973,37.1567568 6.12972973,37.1567568 C6.12972973,37.1243243 6.0972973,37.1243243 6.0972973,37.0918919 C6.06486486,37.0594595 6.03243243,37.027027 5.96756757,37.027027 C5.93513514,37.027027 5.9027027,37.027027 5.87027027,37.0594595 C5.83783784,37.0918919 5.83783784,37.0918919 5.80540541,37.1243243 C5.77297297,37.1567568 5.74054054,37.1891892 5.74054054,37.1891892 C5.70810811,37.2216216 5.67567568,37.2216216 5.61081081,37.2216216 C5.54594595,37.2216216 5.48108108,37.1891892 5.44864865,37.1567568 C5.41621622,37.0918919 5.41621622,37.027027 5.41621622,36.9621622 C5.41621622,36.9297297 5.41621622,36.8972973 5.41621622,36.8324324 C5.41621622,36.7675676 5.41621622,36.7027027 5.44864865,36.6378378 L5.51351351,36.2486486 L5.51351351,36.1513514 C5.51351351,36.1189189 5.51351351,36.1189189 5.51351351,36.0864865 C5.51351351,36.0864865 5.51351351,36.0864865 5.51351351,36.0864865 C5.48108108,36.1189189 5.48108108,36.1837838 5.44864865,36.2486486 C5.41621622,36.3135135 5.41621622,36.3783784 5.38378378,36.3783784 C5.38378378,36.4756757 5.35135135,36.6378378 5.31891892,36.8324324 C5.28648649,37.027027 5.28648649,37.1567568 5.28648649,37.1567568 C5.28648649,37.2540541 5.31891892,37.3513514 5.35135135,37.4162162 C5.38378378,37.4810811 5.44864865,37.5135135 5.51351351,37.5135135 C5.54594595,37.5135135 5.57837838,37.5135135 5.61081081,37.4810811 C5.64324324,37.4810811 5.67567568,37.4486486 5.67567568,37.4162162 C5.70810811,37.3837838 5.74054054,37.3513514 5.77297297,37.2864865 C5.80540541,37.2216216 5.87027027,37.1891892 5.9027027,37.1891892 C5.93513514,37.1891892 5.96756757,37.1891892 6,37.2216216 C6.03243243,37.2540541 6.03243243,37.2864865 6.03243243,37.3189189 L6.03243243,37.4486486 C6.03243243,37.4810811 6.03243243,37.5135135 6.03243243,37.5135135 C6.03243243,37.5135135 6.03243243,37.5459459 6.06486486,37.5459459 C6.06486486,37.5459459 6.0972973,37.5135135 6.0972973,37.4486486 C6.12972973,37.3513514 6.16216216,37.2864865 6.19459459,37.1891892 C6.19459459,37.1567568 6.22702703,37.1243243 6.25945946,37.0918919 C6.29189189,37.027027 6.32432432,37.027027 6.35675676,36.9945946 C6.35675676,36.9945946 6.38918919,36.9945946 6.42162162,36.9945946 C6.45405405,36.9945946 6.45405405,36.9945946 6.48648649,36.9945946 C6.48648649,36.9945946 6.51891892,36.9621622 6.51891892,36.9621622 C6.55135135,36.9297297 6.55135135,36.9297297 6.55135135,36.9297297 C6.58378378,36.8972973 6.58378378,36.8972973 6.61621622,36.8972973 C6.64864865,36.8972973 6.68108108,36.8648649 6.71351351,36.8 C6.74594595,36.7351351 6.77837838,36.7027027 6.77837838,36.6378378 L6.77837838,36.6378378 C6.77837838,36.6378378 6.77837838,36.6378378 6.77837838,36.6054054 C6.68108108,36.6702703 6.68108108,36.6702703 6.68108108,36.7027027 Z M3.76216216,36.8972973 C3.76216216,36.8648649 3.79459459,36.8324324 3.79459459,36.8324324 C3.79459459,36.8324324 3.79459459,36.8324324 3.79459459,36.8 C3.79459459,36.8 3.76216216,36.8 3.76216216,36.8 C3.76216216,36.8 3.72972973,36.8 3.72972973,36.8 C3.72972973,36.8 3.66486486,36.8 3.6,36.7675676 C3.56756757,36.7675676 3.53513514,36.7351351 3.53513514,36.7351351 C3.5027027,36.7351351 3.47027027,36.7675676 3.40540541,36.8 C3.37297297,36.8324324 3.34054054,36.8648649 3.30810811,36.9297297 L3.14594595,37.1891892 C3.08108108,37.1891892 3.01621622,37.1567568 2.98378378,37.1243243 C2.95135135,37.0918919 2.91891892,37.027027 2.91891892,36.9297297 C2.91891892,36.8972973 2.91891892,36.8648649 2.91891892,36.8 C2.91891892,36.7351351 2.91891892,36.6702703 2.95135135,36.6054054 L3.01621622,36.2162162 L3.01621622,36.1189189 C3.01621622,36.0864865 3.01621622,36.0864865 3.01621622,36.0540541 C3.01621622,36.0540541 3.01621622,36.0540541 3.01621622,36.0540541 C2.98378378,36.0864865 2.98378378,36.1513514 2.95135135,36.2162162 C2.91891892,36.2810811 2.88648649,36.3459459 2.88648649,36.3459459 C2.88648649,36.4432432 2.85405405,36.6054054 2.82162162,36.8 C2.78918919,36.9945946 2.78918919,37.1243243 2.78918919,37.1243243 C2.78918919,37.2216216 2.82162162,37.2864865 2.85405405,37.3513514 C2.91891892,37.4162162 2.98378378,37.4486486 3.08108108,37.4486486 C3.17837838,37.4486486 3.24324324,37.4162162 3.34054054,37.3837838 C3.40540541,37.3513514 3.47027027,37.2864865 3.5027027,37.1891892 C3.5027027,37.1891892 3.53513514,37.1243243 3.6,37.0594595 C3.63243243,37.027027 3.63243243,36.9945946 3.66486486,36.9621622 C3.66486486,36.9621622 3.6972973,36.9297297 3.6972973,36.9297297 C3.6972973,36.8972973 3.72972973,36.8972973 3.72972973,36.8972973 C3.72972973,36.9621622 3.76216216,36.9297297 3.76216216,36.8972973 Z M3.43783784,37.1243243 C3.40540541,37.1567568 3.37297297,37.1567568 3.34054054,37.1891892 C3.34054054,37.1891892 3.30810811,37.1891892 3.27567568,37.2216216 L3.17837838,37.2216216 L3.30810811,37.027027 C3.34054054,36.9945946 3.34054054,36.9621622 3.37297297,36.9621622 C3.40540541,36.9297297 3.43783784,36.9297297 3.47027027,36.9297297 C3.47027027,36.9297297 3.5027027,36.9297297 3.53513514,36.9297297 C3.56756757,36.9297297 3.6,36.9621622 3.6,36.9621622 C3.56756757,37.027027 3.5027027,37.0918919 3.43783784,37.1243243 Z M3.56756757,35.9567568 C3.53513514,35.9567568 3.53513514,35.9567568 3.56756757,35.9567568 C3.53513514,35.9243243 3.53513514,35.9243243 3.53513514,35.9243243 C3.53513514,35.9243243 3.53513514,35.9567568 3.5027027,35.9567568 C3.47027027,35.9891892 3.47027027,36.0216216 3.43783784,36.0540541 C3.43783784,36.0864865 3.40540541,36.1189189 3.37297297,36.1513514 C3.37297297,36.1513514 3.37297297,36.1837838 3.34054054,36.2162162 C3.34054054,36.2162162 3.34054054,36.2486486 3.37297297,36.2486486 C3.37297297,36.2486486 3.40540541,36.2810811 3.43783784,36.2810811 C3.43783784,36.2810811 3.47027027,36.3135135 3.5027027,36.3459459 C3.53513514,36.3783784 3.53513514,36.3783784 3.53513514,36.3783784 C3.53513514,36.3783784 3.56756757,36.3783784 3.56756757,36.3459459 C3.6,36.3135135 3.63243243,36.2810811 3.63243243,36.2486486 C3.63243243,36.2162162 3.66486486,36.1837838 3.66486486,36.1513514 C3.66486486,36.1189189 3.66486486,36.0864865 3.66486486,36.0864865 C3.66486486,36.0540541 3.66486486,36.0540541 3.63243243,36.0216216 C3.63243243,36.0216216 3.6,35.9891892 3.56756757,35.9567568 Z M0.421621622,36.4756757 C0.486486486,36.3783784 0.518918919,36.3135135 0.616216216,36.2486486 L0.583783784,36.2162162 C0.486486486,36.2810811 0.389189189,36.3783784 0.324324324,36.4756757 C0.259459459,36.572973 0.194594595,36.6702703 0.162162162,36.8 C0.12972973,36.9297297 0.12972973,37.027027 0.12972973,37.1567568 C0.12972973,37.2864865 0.12972973,37.4162162 0.162162162,37.5135135 C0.194594595,37.6432432 0.227027027,37.7405405 0.324324324,37.8378378 C0.389189189,37.9351351 0.486486486,38 0.583783784,38.0972973 L0.616216216,38.0648649 C0.551351351,38.0324324 0.518918919,37.9675676 0.486486486,37.9027027 C0.454054054,37.8378378 0.421621622,37.772973 0.389189189,37.7081081 C0.356756757,37.6432432 0.324324324,37.5459459 0.324324324,37.4810811 C0.324324324,37.3837838 0.291891892,37.3189189 0.291891892,37.2216216 C0.291891892,37.0918919 0.291891892,36.9945946 0.324324324,36.8648649 C0.356756757,36.6702703 0.389189189,36.572973 0.421621622,36.4756757 Z M2.59459459,36.3459459 C2.56216216,36.3459459 2.52972973,36.3459459 2.52972973,36.3783784 C2.4972973,36.4108108 2.46486486,36.4432432 2.43243243,36.4756757 C2.4,36.5081081 2.36756757,36.572973 2.3027027,36.6054054 C2.27027027,36.6702703 2.23783784,36.7027027 2.20540541,36.7675676 C2.17297297,36.7675676 2.17297297,36.7675676 2.14054054,36.7675676 C2.10810811,36.7675676 2.10810811,36.7675676 2.07567568,36.7675676 C2.04324324,36.7675676 2.01081081,36.8 1.97837838,36.8324324 C1.97837838,36.8648649 1.94594595,36.9297297 1.94594595,36.9621622 C1.94594595,36.9945946 1.94594595,37.027027 1.94594595,37.0918919 C1.94594595,37.1567568 1.94594595,37.1891892 1.94594595,37.1891892 C1.94594595,37.2216216 1.94594595,37.2864865 1.91351351,37.2864865 C1.91351351,37.3189189 1.91351351,37.3513514 1.88108108,37.4162162 C1.84864865,37.4810811 1.81621622,37.5783784 1.78378378,37.6108108 C1.75135135,37.6432432 1.71891892,37.6756757 1.65405405,37.7405405 C1.68648649,37.772973 1.62162162,37.8054054 1.58918919,37.8378378 C1.55675676,37.8702703 1.49189189,37.8702703 1.45945946,37.9027027 C1.39459459,37.9027027 1.32972973,37.9351351 1.2,37.9351351 C1.1027027,37.9351351 1.00540541,37.9027027 0.940540541,37.8702703 C0.875675676,37.8054054 0.843243243,37.7405405 0.843243243,37.6432432 C0.843243243,37.5783784 0.843243243,37.5135135 0.875675676,37.4486486 C0.875675676,37.4162162 0.908108108,37.3837838 0.908108108,37.3189189 L1.00540541,37.1243243 C1.00540541,37.0918919 1.03783784,37.0594595 1.03783784,37.027027 C1.03783784,36.9945946 1.03783784,36.9945946 1.03783784,36.9945946 C1.03783784,36.9945946 1.03783784,36.9945946 1.00540541,37.027027 C1.00540541,37.027027 1.00540541,37.0594595 0.972972973,37.0918919 C0.940540541,37.1567568 0.908108108,37.1891892 0.875675676,37.2540541 C0.875675676,37.2864865 0.843243243,37.3189189 0.810810811,37.3837838 C0.778378378,37.4486486 0.778378378,37.5459459 0.745945946,37.6108108 C0.745945946,37.6756757 0.713513514,37.7405405 0.713513514,37.8054054 C0.713513514,37.9675676 0.745945946,38.1297297 0.875675676,38.1945946 C0.940540541,38.2594595 1.03783784,38.2918919 1.13513514,38.2918919 C1.2,38.2918919 1.26486486,38.2918919 1.32972973,38.2594595 C1.42702703,38.227027 1.49189189,38.1945946 1.55675676,38.1297297 C1.65405405,38.0648649 1.75135135,37.9351351 1.81621622,37.8054054 C1.88108108,37.7081081 1.91351351,37.6108108 1.97837838,37.4486486 C2.01081081,37.3513514 2.04324324,37.2540541 2.04324324,37.1891892 C2.04324324,37.1567568 2.07567568,37.1243243 2.07567568,37.0918919 C2.07567568,37.0594595 2.07567568,37.0594595 2.07567568,37.027027 C2.07567568,36.9945946 2.07567568,36.9945946 2.10810811,36.9945946 L2.17297297,36.9945946 C2.20540541,36.9945946 2.23783784,36.9945946 2.3027027,36.9621622 C2.4,36.9297297 2.46486486,36.8972973 2.52972973,36.8 C2.56216216,36.7351351 2.59459459,36.7027027 2.62702703,36.6054054 C2.65945946,36.5405405 2.69189189,36.4756757 2.69189189,36.4108108 C2.69189189,36.3783784 2.69189189,36.3459459 2.65945946,36.3135135 C2.65945946,36.3783784 2.62702703,36.3459459 2.59459459,36.3459459 Z M2.56216216,36.6378378 C2.52972973,36.6702703 2.4972973,36.7027027 2.46486486,36.7027027 C2.43243243,36.7351351 2.4,36.7351351 2.36756757,36.7351351 C2.33513514,36.7351351 2.3027027,36.7351351 2.3027027,36.7351351 C2.3027027,36.7351351 2.3027027,36.7027027 2.33513514,36.7027027 C2.36756757,36.6702703 2.4,36.6378378 2.4,36.6054054 C2.43243243,36.5405405 2.4972973,36.5081081 2.52972973,36.5081081 C2.56216216,36.5081081 2.59459459,36.5081081 2.59459459,36.5405405 C2.62702703,36.5405405 2.62702703,36.572973 2.62702703,36.572973 C2.62702703,36.6054054 2.59459459,36.6054054 2.56216216,36.6378378 Z M7.55675676,26.6486486 C7.62162162,26.6810811 7.68648649,26.7459459 7.75135135,26.8108108 C7.84864865,26.9081081 7.91351351,26.9405405 7.91351351,26.9405405 C7.94594595,26.9405405 8.01081081,26.8432432 8.10810811,26.6810811 C8.20540541,26.5189189 8.23783784,26.3567568 8.23783784,26.2594595 C8.23783784,26.1621622 8.17297297,26.0324324 8.07567568,25.9351351 C7.97837838,25.8378378 7.88108108,25.772973 7.81621622,25.772973 C7.78378378,25.772973 7.71891892,25.9027027 7.58918919,26.1297297 C7.49189189,26.3567568 7.42702703,26.4864865 7.42702703,26.5189189 C7.49189189,26.5837838 7.52432432,26.6162162 7.55675676,26.6486486 Z M16.6702703,18.0864865 L13.1027027,18.0864865 L12.7135135,18.2810811 L9.85945946,18.2810811 L9.43783784,18.0864865 L3.79459459,18.0864865 C2.98378378,18.0864865 3.04864865,18.6702703 3.04864865,18.6702703 C3.04864865,19.1891892 3.76216216,19.1891892 3.76216216,19.1891892 L10.4756757,19.1891892 L10.572973,19.027027 L11.5135135,19.027027 L11.6432432,19.1567568 L16.6054054,19.1567568 C17.8054054,19.1567568 18.8108108,18.9621622 18.8108108,18.9621622 L48,18.9621622 L48,18.4432432 L18.8432432,18.4432432 C17.4486486,18.0540541 16.6702703,18.0864865 16.6702703,18.0864865 Z M18.3891892,21.0702703 L8.04324324,21.0702703 C7.26486486,21.0378378 7.32972973,21.6216216 7.32972973,21.6216216 C7.36216216,22.1405405 8.01081081,22.0756757 8.01081081,22.0756757 L18.2918919,22.0756757 C19.0054054,22.0756757 20.3351351,21.9135135 20.3351351,21.9135135 L48,21.9135135 L48,21.3621622 L20.4648649,21.3621622 C19.3297297,21.1675676 18.3891892,21.0702703 18.3891892,21.0702703 Z M13.6540541,19.5783784 L5.35135135,19.5783784 C4.57297297,19.5459459 4.60540541,20.1621622 4.60540541,20.1621622 C4.57297297,20.7459459 5.22162162,20.6810811 5.22162162,20.6810811 L13.5891892,20.6810811 C14.5297297,20.6486486 15.5675676,20.4540541 15.5675676,20.4540541 L48,20.4540541 L48,19.9351351 L15.6648649,19.9351351 C14.4972973,19.5459459 13.6540541,19.5783784 13.6540541,19.5783784 Z M21.6324324,24.0216216 L16.4756757,24.0216216 L15.5675676,24.1837838 L14.1081081,24.1837838 L13.427027,24.0216216 L9.72972973,24.0216216 C8.95135135,23.9891892 9.01621622,24.5405405 9.01621622,24.5405405 C9.01621622,25.1567568 9.66486486,25.0918919 9.66486486,25.0918919 L13.3945946,25.0918919 L14.3675676,24.8648649 L15.4702703,24.8648649 L16.4108108,25.0594595 L21.2108108,25.0594595 C21.9891892,25.0594595 23.1567568,24.8324324 23.1567568,24.8324324 L48,24.8324324 L48,24.2810811 L23.1891892,24.2810811 C22.2486486,24.0216216 21.6324324,24.0216216 21.6324324,24.0216216 Z M20.4,22.5297297 L14.9189189,22.5297297 L14.5945946,22.7243243 L13.1675676,22.7243243 L12.972973,22.5297297 L10.0540541,22.5297297 C9.30810811,22.4972973 9.37297297,23.0162162 9.37297297,23.0162162 C9.37297297,23.6648649 10.0864865,23.5675676 10.0864865,23.5675676 L12.8108108,23.5675676 L12.972973,23.4702703 L14.8864865,23.4702703 L15.0162162,23.6 L20.2378378,23.6 C21.0810811,23.6324324 22.2162162,23.4054054 22.2162162,23.4054054 L48,23.4054054 L48,22.8540541 L22.2810811,22.8540541 C21.0162162,22.5621622 20.4,22.5297297 20.4,22.5297297 Z M12.9081081,28.4324324 C12.3243243,28.4648649 12.3564324,28.8540541 12.3564324,28.8540541 C12.3564324,29.5027027 13.0702703,29.372973 13.0702703,29.372973 C13.3297297,29.372973 13.7189189,29.1459459 13.7189189,29.1459459 L48,29.1459459 L48,28.627027 L13.6540541,28.627027 C13.2648649,28.4324324 12.9081081,28.4324324 12.9081081,28.4324324 Z M22.0216216,25.4810811 L18.5837838,25.4810811 C17.5783784,25.4810811 16.6702703,25.772973 16.6702703,25.772973 L15.5027027,25.772973 C14.5945946,25.6108108 13.7189189,25.5459459 13.7189189,25.5459459 L10.0540541,25.5459459 C9.34054054,25.5459459 9.37274775,26.0648649 9.37274775,26.0648649 C9.37274775,26.6162162 10.0216216,26.5513514 10.0216216,26.5513514 L13.6540541,26.5513514 C14.2378378,26.5513514 15.6,26.2594595 15.6,26.2594595 L16.572973,26.2594595 C17.2216216,26.5189189 18.4864865,26.5513514 18.4864865,26.5513514 L21.6324324,26.5513514 C22.3459459,26.5189189 23.7081081,26.3567568 23.7081081,26.3567568 L48,26.3567568 L48,25.8054054 L23.8054054,25.8054054 C23.1567568,25.6108108 22.0216216,25.4810811 22.0216216,25.4810811 Z M22.1189189,27.0054054 C21.1783784,26.972973 19.9459459,27.2972973 19.9459459,27.2972973 L15.5027027,27.2972973 L13.5243243,26.9405405 L11.1243243,26.9405405 C10.3783784,26.9405405 10.4756757,27.4918919 10.4756757,27.4918919 C10.4756757,28.0432432 11.1567568,27.9783784 11.0918919,27.9783784 L13.3945946,27.9783784 L15.4054054,27.6540541 L19.9783784,27.6540541 C20.9837838,28.0108108 22.0216216,27.9783784 22.0216216,27.9783784 C22.7351351,27.9783784 24,27.7189189 24,27.7189189 L48,27.7189189 L48,27.1675676 L23.5783784,27.1675676 C22.9297297,27.0054054 22.1189189,27.0054054 22.1189189,27.0054054 Z M0,8.06486486 L0,8.58378378 L48,8.58378378 L48,8.06486486 L0,8.06486486 Z M22.6054054,9.36216216 L19.427027,9.36216216 C18.7459459,9.39459459 17.9027027,9.58918919 17.9027027,9.58918919 L0,9.58918919 L0,10.1081081 L17.8702703,10.1081081 C18.4864865,10.3027027 19.1675676,10.3675676 19.1675676,10.3675676 L22.6378378,10.3675676 C23.3837838,10.3351351 24.227027,10.1405405 24.227027,10.1405405 L48,10.1405405 L48,9.58918919 L24.0972973,9.58918919 C23.5783784,9.45945946 22.6054054,9.36216216 22.6054054,9.36216216 Z M47.4810811,30.9945946 C47.2216216,31.2216216 47.0594595,31.4162162 46.9297297,31.5135135 C46.7351351,31.7081081 46.5405405,31.8702703 46.3135135,32.0324324 C45.9891892,32.2918919 45.6972973,32.5189189 45.4378378,32.7459459 C45.0810811,33.0378378 44.8864865,33.2 44.7891892,33.2972973 C44.7243243,33.3621622 44.6918919,33.427027 44.627027,33.5243243 C44.5621622,33.6216216 44.5297297,33.7189189 44.4972973,33.7837838 C44.4972973,33.8162162 44.5297297,33.7837838 44.5945946,33.7189189 C44.627027,33.6864865 44.6594595,33.6864865 44.6918919,33.6540541 C44.7243243,33.6216216 44.7567568,33.5891892 44.7891892,33.5567568 L45.2756757,33.2 C45.4378378,33.0702703 45.6324324,32.9405405 45.827027,32.7783784 C45.9567568,32.6810811 46.1189189,32.5513514 46.2810811,32.3891892 C46.4108108,32.2918919 46.5081081,32.1945946 46.6054054,32.1297297 C46.7027027,32.0648649 46.7675676,31.9675676 46.8324324,31.9351351 C46.9945946,31.772973 47.1243243,31.6756757 47.1891892,31.6108108 C47.2216216,31.5783784 47.2864865,31.5135135 47.3837838,31.3837838 C47.4810811,31.2864865 47.5459459,31.1891892 47.6108108,31.0918919 C47.6756757,31.027027 47.7405405,30.9297297 47.8054054,30.8 C47.8702703,30.6702703 47.9027027,30.572973 47.9351351,30.5081081 C47.9351351,30.4756757 47.9351351,30.4432432 47.9351351,30.4432432 C48,30.5081081 47.8378378,30.6702703 47.4810811,30.9945946 Z M22.5081081,10.8216216 L16.1837838,10.8216216 C15.4378378,10.8216216 14.5945946,11.0810811 14.5945946,11.0810811 L0,11.0810811 L0,11.5675676 L14.4324324,11.5675676 C14.9189189,11.7297297 15.8918919,11.8594595 15.8918919,11.8594595 L22.4108108,11.8594595 C23.1243243,11.8594595 23.9351351,11.5675676 23.9351351,11.5675676 L48,11.5675676 L48,11.1135135 L23.7405405,11.1135135 C23.027027,10.8864865 22.5081081,10.8216216 22.5081081,10.8216216 Z M22.0864865,12.3135135 L14.2054054,12.3135135 C13.4918919,12.3459459 12.7783784,12.6054054 12.7783784,12.6054054 L6.03243243,12.6054054 C5.35135135,12.4108108 4.67027027,12.3135135 4.67027027,12.3135135 L0.778378378,12.3135135 C0.389189189,12.3135135 0.389189189,12.8324324 0.389189189,12.8324324 C0.389189189,13.3513514 0.778378378,13.3189189 0.778378378,13.3189189 L4.44324324,13.3189189 C5.22162162,13.2540541 6.06486486,13.027027 6.06486486,13.027027 L12.7459459,13.027027 C13.3297297,13.1567568 14.0756757,13.2864865 14.0756757,13.2864865 L21.8918919,13.2864865 C22.6378378,13.2540541 23.3513514,13.0594595 23.3513514,13.0594595 L48,13.0594595 L48,12.5405405 L23.4162162,12.5405405 C22.6054054,12.3135135 22.0864865,12.3135135 22.0864865,12.3135135 Z M30.5513514,32.1621622 C30.7135135,32 30.8432432,31.9027027 30.9081081,31.8378378 C30.9405405,31.8054054 31.0054054,31.7405405 31.1027027,31.6108108 C31.2,31.5135135 31.2648649,31.4162162 31.3297297,31.3189189 C31.3945946,31.2540541 31.4594595,31.1567568 31.5243243,31.027027 C31.5891892,30.8972973 31.6540541,30.8 31.6540541,30.7351351 C31.6540541,30.7027027 31.6540541,30.7027027 31.6540541,30.6702703 C31.6540541,30.6702703 31.4918919,30.8324324 31.1351351,31.1891892 C30.9081081,31.4162162 30.7135135,31.5783784 30.5837838,31.7081081 C30.3891892,31.9027027 30.1945946,32.0648649 29.9675676,32.227027 C29.8054054,32.3567568 29.6756757,32.4540541 29.5135135,32.5837838 C29.3837838,32.7135135 29.2216216,32.8108108 29.0594595,32.9405405 C28.7351351,33.2 28.5081081,33.3945946 28.4108108,33.4918919 C28.3459459,33.5567568 28.3135135,33.6216216 28.2486486,33.7189189 C28.2162162,33.7837838 28.1513514,33.8810811 28.1189189,33.9783784 C28.1189189,33.9783784 28.1513514,33.9783784 28.2162162,33.9135135 C28.2486486,33.8810811 28.3135135,33.8162162 28.4108108,33.7513514 L28.8972973,33.3621622 C28.9945946,33.2972973 29.0918919,33.2324324 29.1567568,33.1675676 C29.2540541,33.1027027 29.3513514,33.0378378 29.4162162,32.972973 C29.5783784,32.8432432 29.7405405,32.7135135 29.8702703,32.5837838 C30.2594595,32.3891892 30.4540541,32.227027 30.5513514,32.1621622 Z M20.5297297,15.2648649 L12.4864865,15.2648649 C11.8702703,15.2324324 11.1243243,15.4918919 11.1243243,15.4918919 L9.66486486,15.4918919 C9.04864865,15.2648649 8.52972973,15.2648649 8.52972973,15.2648649 L1.71891892,15.2648649 C1.16756757,15.2648649 1.23243243,15.7837838 1.23243243,15.7837838 C1.23243243,16.2702703 1.65405405,16.2378378 1.65405405,16.2378378 L8.33513514,16.2378378 C8.95135135,16.2702703 9.6972973,16.0108108 9.6972973,16.0108108 L11.1891892,16.0108108 C11.6432432,16.2378378 12.4216216,16.2702703 12.4216216,16.2702703 L20.3351351,16.2702703 C21.3081081,16.2702703 21.8594595,16.0432432 21.8594595,16.0432432 L48,16.0432432 L48,15.5567568 L21.9243243,15.5567568 C20.9513514,15.2324324 20.5297297,15.2648649 20.5297297,15.2648649 Z M21.5351351,13.8054054 L13.2648649,13.8054054 C12.3891892,13.772973 11.8054054,14.0324324 11.8054054,14.0324324 L8.3027027,14.0324324 C7.36216216,13.8054054 6.94054054,13.772973 6.94054054,13.772973 L1.36216216,13.772973 C0.843243243,13.772973 0.875275275,14.2594595 0.875275275,14.2594595 C0.875275275,14.7783784 1.2972973,14.7135135 1.2972973,14.7135135 L6.71351351,14.7135135 C7.52432432,14.6486486 8.10810811,14.4864865 8.10810811,14.4864865 L11.7081081,14.4864865 C12.1945946,14.6810811 13.0054054,14.7783784 13.0054054,14.7783784 L21.4054054,14.7783784 C22.0864865,14.7459459 22.7351351,14.5189189 22.7351351,14.5189189 L48,14.5189189 L48,14.0648649 L22.7675676,14.0648649 C22.0540541,13.8054054 21.5351351,13.8054054 21.5351351,13.8054054 Z M19.3945946,16.7567568 C19.3945946,16.7567568 12.972973,16.7243243 12.3891892,16.7567568 C11.8054054,16.7891892 11.3189189,16.9189189 11.3189189,16.9189189 L10.3783784,16.9189189 C10.0540541,16.8216216 9.6,16.7243243 9.6,16.7243243 L2.62702703,16.7243243 C1.91351351,16.7243243 2.01081081,17.2432432 2.01081081,17.2432432 C2.01081081,17.7297297 2.56216216,17.7297297 2.56216216,17.7297297 L9.37297297,17.7297297 C9.72972973,17.6972973 10.3459459,17.5675676 10.3459459,17.5675676 L11.3189189,17.5675676 C11.7081081,17.7297297 12.1945946,17.7621622 12.1945946,17.7621622 L19.2,17.7621622 C19.8162162,17.7621622 20.6918919,17.5351351 20.6918919,17.5351351 L48,17.5351351 L48,17.0162162 L20.7243243,17.0162162 C20.172973,16.7891892 19.3945946,16.7567568 19.3945946,16.7567568 Z M40.3459459,32.0972973 C40.4108108,32.0324324 40.4756757,31.9351351 40.5405405,31.8054054 C40.6054054,31.6756757 40.6378378,31.5783784 40.6702703,31.5135135 C40.6702703,31.4810811 40.6702703,31.4810811 40.6702703,31.4486486 C40.6702703,31.4486486 40.5081081,31.6432432 40.1513514,31.9675676 C40.0540541,32.0648649 39.9243243,32.1621622 39.8594595,32.2594595 C39.7621622,32.3567568 39.6972973,32.4216216 39.6324324,32.4864865 C39.4378378,32.6810811 39.2432432,32.8432432 39.0162162,33.0054054 C38.8540541,33.1351351 38.7243243,33.2324324 38.5621622,33.3621622 C38.4,33.4918919 38.2702703,33.5891892 38.1081081,33.7189189 C37.7837838,33.9783784 37.5891892,34.172973 37.4594595,34.2702703 C37.3945946,34.3351351 37.3297297,34.4324324 37.2972973,34.4972973 C37.2648649,34.5621622 37.2,34.6594595 37.1675676,34.7567568 C37.1675676,34.7567568 37.2,34.7567568 37.2648649,34.6918919 C37.2972973,34.6594595 37.3297297,34.6594595 37.3621622,34.627027 C37.3945946,34.5945946 37.427027,34.5621622 37.4594595,34.5621622 L37.9459459,34.2054054 C38.0432432,34.1405405 38.1405405,34.0756757 38.2054054,34.0108108 C38.3027027,33.9459459 38.4,33.8810811 38.4972973,33.7837838 C38.6594595,33.6540541 38.8216216,33.5243243 38.9513514,33.3945946 C39.0810811,33.2972973 39.1783784,33.2 39.2756757,33.1351351 C39.372973,33.0702703 39.4378378,32.972973 39.5027027,32.9405405 C39.6648649,32.7783784 39.7945946,32.6810811 39.8594595,32.6162162 C39.8918919,32.5837838 39.9567568,32.5189189 40.0540541,32.3891892 C40.1837838,32.2918919 40.2810811,32.1945946 40.3459459,32.0972973 Z M39.6,33.427027 C39.5027027,33.5891892 39.4702703,33.6864865 39.4702703,33.7189189 C39.4702703,33.7513514 39.5027027,33.7513514 39.5351351,33.7837838 C39.5675676,33.8162162 39.6324324,33.8486486 39.6972973,33.9135135 C39.7621622,33.9783784 39.827027,34.0108108 39.827027,34.0108108 C39.8594595,34.0108108 39.9243243,33.9459459 39.9891892,33.8162162 C40.0540541,33.6864865 40.0864865,33.5891892 40.0864865,33.5243243 C40.0864865,33.4594595 40.0540541,33.3621622 39.9567568,33.2648649 C39.8918919,33.2 39.827027,33.1351351 39.7621622,33.1351351 C39.7297297,33.1675676 39.6972973,33.2324324 39.6,33.427027 Z M31.9135135,33.8810811 C31.9459459,33.9135135 31.9783784,33.9135135 31.9783784,33.9135135 C32.0432432,33.9135135 32.1405405,33.7837838 32.2702703,33.5567568 C32.3351351,33.5891892 32.3675676,33.6540541 32.4324324,33.7189189 C32.4972973,33.7837838 32.5297297,33.8162162 32.5621622,33.8162162 C32.5945946,33.8162162 32.6594595,33.7513514 32.7243243,33.6540541 C32.8216216,33.5243243 32.8540541,33.427027 32.8540541,33.3621622 C32.8540541,33.2972973 32.8216216,33.2 32.7243243,33.1351351 C32.6594595,33.0378378 32.5945946,33.0054054 32.5297297,33.0054054 C32.4972973,33.0054054 32.4648649,33.0702703 32.4324324,33.1351351 C32.3675676,33.2324324 32.3351351,33.2972973 32.2702703,33.3945946 C32.2378378,33.3297297 32.172973,33.2648649 32.1081081,33.2 C32.0432432,33.1351351 31.9783784,33.1027027 31.9459459,33.1027027 C31.9135135,33.1027027 31.8810811,33.2 31.7837838,33.3621622 C31.6864865,33.5243243 31.6540541,33.6216216 31.6540541,33.6540541 C31.6540541,33.6540541 31.6864865,33.6864865 31.7513514,33.7513514 C31.8486486,33.8162162 31.8810811,33.8486486 31.9135135,33.8810811 Z M34.8972973,35.1783784 C34.8648649,35.2432432 34.8324324,35.2756757 34.8,35.3405405 C34.7675676,35.4054054 34.7351351,35.4702703 34.7027027,35.5351351 C34.6702703,35.6 34.6378378,35.6648649 34.6378378,35.7621622 C34.6054054,35.827027 34.6054054,35.9243243 34.6054054,35.9891892 C34.6054054,36.1189189 34.572973,36.2810811 34.6054054,36.5081081 C34.6054054,36.7351351 34.6054054,36.8972973 34.6054054,37.027027 C34.6054054,37.1567568 34.572973,37.2864865 34.5405405,37.4162162 C34.5081081,37.5459459 34.5081081,37.6108108 34.5081081,37.6108108 C34.5081081,37.6432432 34.5081081,37.6432432 34.5081081,37.6432432 C34.5081081,37.6432432 34.5405405,37.6432432 34.572973,37.6108108 C34.6054054,37.5783784 34.6054054,37.5459459 34.6378378,37.5135135 C34.6702703,37.4486486 34.7027027,37.3513514 34.7675676,37.2216216 C34.8324324,37.0594595 34.8648649,36.8972973 34.8648649,36.7027027 C34.8648649,36.6054054 34.8648649,36.5081081 34.8972973,36.3783784 C34.8972973,36.2486486 34.8972973,36.1189189 34.8972973,35.9567568 C34.8972973,35.9243243 34.8972973,35.8918919 34.8972973,35.8594595 C34.8972973,35.827027 34.8972973,35.7621622 34.8972973,35.6972973 C34.8972973,35.6324324 34.8972973,35.6 34.8972973,35.5351351 C34.8972973,35.4702703 34.8972973,35.4378378 34.8972973,35.372973 C34.8972973,35.3081081 34.8972973,35.2756757 34.8972973,35.2432432 C34.8972973,35.2108108 34.8972973,35.1783784 34.8972973,35.1783784 C34.8972973,35.1459459 34.8972973,35.1459459 34.8648649,35.1459459 C34.9297297,35.1459459 34.8972973,35.1459459 34.8972973,35.1783784 Z M34.1189189,32.9405405 C34.0540541,33.0054054 34.0216216,33.0702703 33.9567568,33.1675676 C33.8918919,33.2648649 33.8594595,33.3621622 33.827027,33.427027 C33.827027,33.4594595 33.8594595,33.427027 33.9243243,33.3621622 C33.9567568,33.3297297 34.0216216,33.2648649 34.1189189,33.2 C35.1243243,32.4540541 36.0972973,31.6432432 36.972973,30.7675676 C37.0378378,30.7027027 37.1027027,30.572973 37.2,30.4108108 C37.2972973,30.2486486 37.3297297,30.1513514 37.2648649,30.1837838 C36.4540541,30.9621622 35.3837838,31.8702703 34.1189189,32.9405405 Z M29.5135135,33.4594595 C29.4810811,33.4594595 29.4486486,33.5567568 29.3513514,33.7189189 C29.2864865,33.8810811 29.2216216,33.9783784 29.2216216,34.0432432 C29.2216216,34.0756757 29.2216216,34.1081081 29.2540541,34.1081081 C29.2864865,34.1405405 29.3513514,34.172973 29.4162162,34.2378378 C29.4810811,34.3027027 29.5459459,34.3027027 29.5459459,34.3027027 C29.5783784,34.3027027 29.6432432,34.2378378 29.7081081,34.1081081 C29.772973,33.9783784 29.8054054,33.8810811 29.8054054,33.8162162 C29.8054054,33.7513514 29.7405405,33.6864865 29.6756757,33.5891892 C29.6432432,33.4594595 29.5783784,33.427027 29.5135135,33.4594595 Z M29.8378378,37.6432432 C29.9027027,37.6108108 29.9675676,37.5783784 30,37.5783784 C30.0324324,37.5459459 30.0972973,37.4810811 30.1621622,37.3837838 C30.227027,37.2864865 30.2918919,37.1243243 30.3891892,36.8972973 C30.4216216,36.8648649 30.4216216,36.8 30.4540541,36.7351351 C30.4540541,36.6702703 30.4864865,36.6378378 30.4864865,36.6054054 C30.4864865,36.572973 30.4864865,36.5081081 30.5189189,36.4756757 C30.5189189,36.4108108 30.5189189,36.3783784 30.5189189,36.3135135 C30.5189189,36.2162162 30.4864865,36.1189189 30.4216216,36.0216216 C30.3567568,35.9567568 30.2918919,35.8918919 30.1945946,35.8918919 C30.1297297,35.8918919 30.0972973,35.9243243 30.0324324,35.9891892 C29.9675676,36.0540541 29.9351351,36.1513514 29.8702703,36.2486486 C29.8054054,36.3459459 29.772973,36.4432432 29.772973,36.4756757 C29.7405405,36.5405405 29.7405405,36.572973 29.7405405,36.6054054 C29.7405405,36.6702703 29.7405405,36.7351351 29.8054054,36.7675676 C29.8702703,36.8324324 29.9351351,36.8324324 30,36.8324324 C30,36.8324324 30.0324324,36.8324324 30.0324324,36.8324324 C30.0648649,36.8324324 30.0648649,36.8324324 30.0648649,36.8 C30.0648649,36.8 30.0972973,36.8 30.0972973,36.8 C30.0972973,36.8 30.1297297,36.8 30.1297297,36.8 C30.0972973,36.8972973 30.0648649,36.9945946 30,37.0918919 C29.9351351,37.1891892 29.8702703,37.2216216 29.8054054,37.2864865 C29.7405405,37.3189189 29.6108108,37.4162162 29.4162162,37.5459459 C29.2864865,37.7405405 29.1891892,37.8054054 29.1891892,37.8378378 C29.1891892,37.8378378 29.1891892,37.8378378 29.2216216,37.8378378 C29.2540541,37.8378378 29.3513514,37.8054054 29.5135135,37.772973 C29.6756757,37.7081081 29.772973,37.6756757 29.8378378,37.6432432 Z M34.5081081,33.3621622 C34.5081081,33.3297297 34.5081081,33.3297297 34.5081081,33.3297297 C34.5081081,33.3297297 34.4756757,33.3621622 34.4432432,33.3621622 C34.3783784,33.427027 34.3459459,33.5243243 34.2810811,33.6540541 C34.2162162,33.7837838 34.1837838,33.8810811 34.1837838,33.9135135 C34.1513514,33.9783784 34.1513514,34.0432432 34.1513514,34.1405405 C34.1513514,34.2378378 34.1189189,34.3351351 34.1189189,34.3675676 L34.1189189,34.9189189 C34.1189189,35.0162162 34.0864865,35.1135135 34.0216216,35.1459459 C33.9567568,35.2108108 33.8918919,35.2432432 33.7945946,35.2432432 C33.6972973,35.2432432 33.6324324,35.2108108 33.6,35.1459459 C33.5675676,35.0810811 33.5351351,34.9513514 33.5351351,34.7243243 C33.5351351,34.6594595 33.5351351,34.5945946 33.5675676,34.5297297 C33.5675676,34.4648649 33.6,34.3675676 33.6324324,34.172973 L33.7621622,33.5243243 C33.7621622,33.4918919 33.7621622,33.4594595 33.7621622,33.4594595 C33.7621622,33.4594595 33.7297297,33.427027 33.7297297,33.4594595 C33.6972973,33.5243243 33.6324324,33.6540541 33.5351351,33.8486486 C33.5351351,33.8810811 33.5027027,33.9135135 33.4702703,33.9783784 C33.4378378,34.0432432 33.4054054,34.1081081 33.372973,34.2054054 C33.3405405,34.2378378 33.3405405,34.3027027 33.3405405,34.4 C33.3405405,34.4972973 33.3081081,34.5945946 33.3081081,34.6918919 C33.3081081,34.7567568 33.2756757,34.8540541 33.2756757,35.0162162 C33.2756757,35.1135135 33.2756757,35.2108108 33.2756757,35.3405405 L33.2756757,35.6324324 C33.2756757,35.6972973 33.2432432,35.7621622 33.2108108,35.7945946 C33.1783784,35.827027 33.1459459,35.8594595 33.1459459,35.8594595 C33.1135135,35.8918919 33.0162162,35.8918919 32.8864865,35.8918919 C32.7243243,35.8918919 32.5945946,35.8918919 32.4324324,35.9243243 C32.4,35.9243243 32.4,35.9243243 32.3675676,35.9243243 C32.3351351,35.9243243 32.3027027,35.9243243 32.3027027,35.9567568 C32.172973,36.0216216 32.0108108,36.0864865 31.8486486,36.2162162 C31.6864865,36.3459459 31.5243243,36.4756757 31.3621622,36.7027027 C31.2972973,36.7675676 31.1675676,36.9621622 30.972973,37.2540541 C30.9081081,37.3513514 30.8756757,37.4162162 30.8108108,37.5135135 C30.6810811,37.7081081 30.5513514,37.9027027 30.4216216,38.0324324 C30.2918919,38.1945946 30.1297297,38.3243243 30,38.4216216 C29.8702703,38.5189189 29.7405405,38.6162162 29.6432432,38.6810811 C29.5459459,38.7459459 29.4810811,38.8108108 29.4486486,38.8432432 C29.4162162,38.8756757 29.4162162,38.9081081 29.4162162,38.9081081 C29.4486486,38.9405405 29.4810811,38.9405405 29.5135135,38.9081081 C29.5459459,38.9081081 29.5459459,38.9081081 29.5783784,38.8756757 C29.5783784,38.8756757 29.6108108,38.8756757 29.6108108,38.8756757 C29.7081081,38.8432432 29.8054054,38.7783784 29.9027027,38.7459459 C30,38.6810811 30.0972973,38.6162162 30.1945946,38.5513514 C30.2918919,38.4864865 30.4216216,38.3567568 30.5837838,38.1945946 C30.7459459,38.0324324 30.9081081,37.8378378 31.0702703,37.6432432 C31.2324324,37.4162162 31.3621622,37.2540541 31.4594595,37.0918919 C31.5567568,36.9621622 31.7189189,36.8324324 31.8810811,36.7351351 C32.0108108,36.6702703 32.0756757,36.6378378 32.1405405,36.6378378 C32.2054054,36.6054054 32.2702703,36.6054054 32.3351351,36.6054054 C32.4,36.6054054 32.4324324,36.6054054 32.4648649,36.6054054 C32.4972973,36.6054054 32.5297297,36.6054054 32.5621622,36.6054054 C32.5945946,36.6054054 32.627027,36.6054054 32.6918919,36.6054054 C32.7243243,36.6054054 32.7567568,36.6054054 32.7891892,36.572973 C32.8540541,36.5405405 32.8864865,36.5081081 32.9837838,36.4108108 C33.0486486,36.3459459 33.1135135,36.2486486 33.1783784,36.1837838 C33.2108108,36.1513514 33.2756757,36.0864865 33.3405405,35.9891892 C33.4054054,35.9243243 33.4378378,35.8918919 33.4702703,35.8918919 C33.5351351,35.9891892 33.6,36.0216216 33.6972973,36.0216216 C33.7945946,36.0216216 33.8918919,35.9567568 33.9891892,35.827027 C34.0864865,35.6972973 34.1513514,35.5675676 34.2486486,35.372973 C34.3135135,35.2108108 34.3459459,35.0486486 34.3783784,34.9513514 C34.4432432,34.6918919 34.4756757,34.4324324 34.4756757,34.172973 C34.4756757,33.9135135 34.4756757,33.6864865 34.5405405,33.4918919 C34.5081081,33.427027 34.5081081,33.3621622 34.5081081,33.3621622 Z M39.2432432,35.4054054 C39.2432432,35.4054054 39.2108108,35.4378378 39.1783784,35.5027027 C39.1459459,35.5675676 39.1135135,35.6324324 39.1135135,35.6648649 C39.0810811,35.6972973 39.0486486,35.6972973 39.0162162,35.6972973 C38.9837838,35.6972973 38.9513514,35.6648649 38.9513514,35.6972973 C38.8864865,35.8918919 38.8216216,35.9567568 38.7567568,35.9567568 C38.7567568,35.9567568 38.7243243,35.9567568 38.6918919,35.9243243 C38.6594595,35.9243243 38.627027,35.9567568 38.5945946,36.0540541 C38.5297297,36.1513514 38.4972973,36.1837838 38.4,36.1837838 L38.2702703,36.1513514 C38.2378378,36.1513514 38.172973,36.1837838 38.1081081,36.2162162 C38.0432432,36.2486486 37.9783784,36.3135135 37.9135135,36.4432432 C37.8162162,36.572973 37.6864865,36.6378378 37.5243243,36.6378378 C37.427027,36.6378378 37.3297297,36.6054054 37.2324324,36.5405405 C37.1351351,36.4432432 37.0702703,36.2810811 37.0702703,36.0540541 C37.0702703,36.0540541 37.0702703,36.0540541 37.0702703,36.0540541 C37.0702703,36.0216216 37.0702703,35.9891892 37.0702703,35.9243243 C37.0702703,35.827027 37.0702703,35.7297297 37.1027027,35.5675676 C37.1351351,35.2756757 37.1351351,35.0810811 37.1675676,34.9513514 C37.1675676,34.9189189 37.1675676,34.8864865 37.1675676,34.8864865 C37.1351351,34.8864865 37.1351351,34.8864865 37.1351351,34.9189189 L37.0054054,35.2432432 L36.8756757,35.5675676 C36.8432432,35.6 36.8432432,35.6972973 36.8432432,35.7945946 C36.8432432,35.9243243 36.8432432,36.0216216 36.8108108,36.0864865 C36.8108108,36.1513514 36.8108108,36.2162162 36.8108108,36.3135135 C36.8108108,36.6378378 36.7783784,36.8324324 36.7783784,36.8972973 C36.7783784,36.9621622 36.7459459,37.027027 36.7459459,37.0594595 C36.7135135,37.1567568 36.6810811,37.2216216 36.6162162,37.2864865 C36.5513514,37.3513514 36.4864865,37.3513514 36.3891892,37.3513514 C36.2918919,37.3513514 36.2594595,37.3189189 36.227027,37.3189189 C36.1621622,37.3189189 36.1297297,37.2864865 36.0972973,37.2864865 C36.0324324,37.2864865 35.9351351,37.3189189 35.8378378,37.3513514 C35.8378378,37.3513514 35.8378378,37.3513514 35.8378378,37.3513514 C35.8378378,37.3513514 35.8378378,37.3513514 35.8378378,37.3513514 C35.7081081,37.4162162 35.5783784,37.5135135 35.4810811,37.6432432 C35.3837838,37.772973 35.3189189,37.8702703 35.2864865,37.9351351 C35.2540541,38 35.2540541,38.0324324 35.2864865,38.0324324 C35.2864865,38.0324324 35.3189189,38.0324324 35.3513514,38.0324324 C35.5135135,37.9351351 35.6756757,37.9027027 35.8702703,37.9027027 C35.8702703,37.9027027 35.8702703,37.9027027 35.8702703,37.9027027 L35.8702703,37.9027027 C35.9027027,37.9027027 35.9675676,37.9351351 36.0648649,37.9351351 C36.1297297,37.9351351 36.227027,37.9351351 36.3243243,37.9027027 C36.4216216,37.8702703 36.5189189,37.8054054 36.6162162,37.7081081 C36.6810811,37.6108108 36.7459459,37.5135135 36.8108108,37.4162162 C36.9081081,37.2540541 36.9405405,37.1567568 36.972973,37.1567568 C36.972973,37.1567568 36.972973,37.1567568 37.0054054,37.1567568 C37.1027027,37.2864865 37.2,37.3513514 37.3621622,37.3513514 C37.5243243,37.3513514 37.6864865,37.2540541 37.8162162,37.027027 C37.9459459,36.8 38.0432432,36.7027027 38.172973,36.6378378 C38.2054054,36.6378378 38.2702703,36.6378378 38.3351351,36.6378378 C38.3351351,36.6378378 38.3351351,36.6378378 38.3351351,36.6378378 C38.4,36.6378378 38.4972973,36.5405405 38.6594595,36.3783784 C38.6918919,36.3459459 38.7567568,36.3459459 38.7891892,36.3135135 C38.8216216,36.3135135 38.8864865,36.2810811 38.9189189,36.2162162 C38.9513514,36.1837838 39.0162162,36.1189189 39.0810811,36.0864865 C39.1459459,36.0540541 39.1783784,35.9567568 39.2108108,35.8918919 C39.2432432,35.7945946 39.2756757,35.6972973 39.3081081,35.6 C39.2756757,35.4702703 39.2756757,35.4378378 39.2432432,35.4054054 C39.2756757,35.4054054 39.2756757,35.4054054 39.2432432,35.4054054 Z M37.3621622,38.8108108 C37.3297297,38.8108108 37.2972973,38.9081081 37.2,39.0702703 C37.1351351,39.2324324 37.0702703,39.3297297 37.0702703,39.3621622 C37.0702703,39.3945946 37.0702703,39.427027 37.1027027,39.427027 C37.1351351,39.4594595 37.2,39.4918919 37.2648649,39.5567568 C37.3297297,39.6216216 37.3945946,39.6216216 37.3945946,39.6216216 C37.427027,39.6216216 37.4918919,39.5567568 37.5567568,39.427027 C37.6216216,39.2972973 37.6540541,39.2 37.6540541,39.1351351 C37.6540541,39.0702703 37.5891892,39.0054054 37.5243243,38.9081081 C37.4918919,38.8432432 37.427027,38.8108108 37.3621622,38.8108108 Z M40.9945946,36.1189189 C41.027027,36.1513514 41.0594595,36.1513514 41.0594595,36.1513514 C41.1243243,36.1513514 41.2216216,36.0216216 41.3513514,35.7945946 C41.4162162,35.827027 41.4486486,35.8918919 41.5135135,35.9567568 C41.5783784,36.0216216 41.6108108,36.0540541 41.6432432,36.0540541 C41.6756757,36.0540541 41.7405405,35.9891892 41.8054054,35.8918919 C41.9027027,35.7621622 41.9351351,35.6648649 41.9351351,35.6 C41.9351351,35.5351351 41.9027027,35.4378378 41.8054054,35.372973 C41.7405405,35.3081081 41.6756757,35.2432432 41.6108108,35.2432432 C41.5783784,35.2432432 41.5459459,35.2756757 41.5135135,35.372973 C41.4486486,35.4702703 41.4162162,35.5351351 41.3513514,35.6324324 C41.3189189,35.5675676 41.2540541,35.5027027 41.1891892,35.4378378 C41.1243243,35.372973 41.0594595,35.3405405 41.027027,35.3405405 C40.9945946,35.3405405 40.9621622,35.4378378 40.8648649,35.6 C40.7675676,35.7621622 40.7351351,35.8594595 40.7351351,35.8918919 C40.7351351,35.8918919 40.7675676,35.9243243 40.8324324,35.9891892 C40.9297297,36.0540541 40.9621622,36.0864865 40.9945946,36.1189189 Z M47.2540541,33.0702703 C47.2540541,33.0702703 47.1891892,33.1351351 47.1243243,33.2324324 C47.0594595,33.2972973 47.027027,33.3945946 46.9621622,33.4594595 C46.9297297,33.3945946 46.8648649,33.3297297 46.8,33.2648649 C46.7027027,33.2 46.6702703,33.1675676 46.6054054,33.1675676 C46.572973,33.1675676 46.5081081,33.2648649 46.4108108,33.427027 C46.3135135,33.6216216 46.2486486,33.7189189 46.2486486,33.7513514 C46.2486486,33.7513514 46.3135135,33.8162162 46.4108108,33.9135135 C46.5081081,34.0108108 46.572973,34.0432432 46.6054054,34.0432432 C46.6702703,34.0432432 46.8,33.9135135 46.9297297,33.6540541 C46.9945946,33.6864865 47.0594595,33.7513514 47.1243243,33.8162162 C47.1891892,33.8810811 47.2216216,33.9135135 47.2540541,33.9135135 C47.2864865,33.9135135 47.3513514,33.8486486 47.4486486,33.7189189 C47.5459459,33.5891892 47.5783784,33.4918919 47.5783784,33.3945946 C47.5783784,33.3297297 47.5459459,33.2324324 47.4486486,33.1675676 C47.3837838,33.1027027 47.2864865,33.0702703 47.2540541,33.0702703 Z M47.2864865,35.0486486 C47.2540541,35.0486486 47.2540541,35.0810811 47.2216216,35.1135135 C47.1891892,35.1459459 47.1567568,35.2108108 47.1243243,35.2432432 C47.0594595,35.2432432 46.9945946,35.2432432 46.9297297,35.2756757 C46.8648649,35.3081081 46.7675676,35.3405405 46.7027027,35.4378378 C46.6378378,35.5351351 46.572973,35.6 46.5405405,35.6324324 C46.4756757,35.6972973 46.4432432,35.7621622 46.4432432,35.7945946 C46.3783784,35.8594595 46.3459459,35.8918919 46.2810811,35.8918919 C46.2810811,35.8918919 46.2486486,35.8918919 46.1513514,35.8918919 C46.0540541,35.8918919 45.9567568,35.8918919 45.8918919,35.9243243 C45.8594595,35.9243243 45.8594595,35.9243243 45.827027,35.9243243 C45.7945946,35.9243243 45.7621622,35.9243243 45.7621622,35.9567568 C45.6324324,36.0216216 45.4702703,36.0864865 45.3081081,36.2162162 C45.1459459,36.3459459 44.9837838,36.4756757 44.8216216,36.7027027 C44.7567568,36.7675676 44.627027,36.9621622 44.4324324,37.2540541 C44.3675676,37.3513514 44.3351351,37.4162162 44.2702703,37.5135135 C44.1405405,37.7081081 44.0108108,37.9027027 43.8810811,38.0324324 C43.7513514,38.1945946 43.5891892,38.3243243 43.4594595,38.4216216 C43.3297297,38.5189189 43.2,38.6162162 43.1027027,38.6810811 C43.0054054,38.7459459 42.9405405,38.8108108 42.9081081,38.8432432 C42.8756757,38.8756757 42.8756757,38.9081081 42.8756757,38.9081081 C42.9081081,38.9405405 42.9405405,38.9405405 42.972973,38.9081081 C43.0054054,38.9081081 43.0054054,38.9081081 43.0378378,38.8756757 C43.0378378,38.8756757 43.0702703,38.8756757 43.0702703,38.8756757 C43.1675676,38.8432432 43.2648649,38.7783784 43.3621622,38.7459459 C43.4594595,38.6810811 43.5567568,38.6162162 43.6540541,38.5513514 C43.7513514,38.4864865 43.8810811,38.3567568 44.0432432,38.1945946 C44.2054054,38.0324324 44.3675676,37.8378378 44.5297297,37.6432432 C44.6918919,37.4162162 44.8216216,37.2540541 44.9189189,37.0918919 C45.0162162,36.9621622 45.1783784,36.8324324 45.3405405,36.7351351 C45.4702703,36.6702703 45.5351351,36.6378378 45.6,36.6378378 C45.6648649,36.6054054 45.7297297,36.6054054 45.7945946,36.6054054 C45.8594595,36.6054054 45.8918919,36.6054054 45.9243243,36.6054054 C46.0540541,36.6054054 46.1513514,36.572973 46.2162162,36.5081081 C46.2810811,36.4432432 46.4108108,36.2486486 46.6054054,35.9243243 C46.6702703,35.827027 46.7027027,35.7945946 46.7675676,35.7621622 C46.8,35.7297297 46.8648649,35.6972973 46.8972973,35.6972973 C46.9297297,35.6972973 46.9945946,35.6648649 47.027027,35.6648649 C47.0918919,35.6648649 47.1891892,35.5351351 47.2864865,35.3081081 C47.3189189,35.2108108 47.3189189,35.1783784 47.3189189,35.1459459 C47.3189189,35.0486486 47.3189189,35.0162162 47.2864865,35.0486486 Z M46.8324324,33.1351351 C46.8972973,33.2 46.9621622,33.2324324 46.9621622,33.2324324 C46.9945946,33.2324324 47.0594595,33.1675676 47.1243243,33.0378378 C47.1891892,32.9081081 47.2540541,32.8108108 47.2540541,32.7135135 C47.2540541,32.6162162 47.2216216,32.5513514 47.1243243,32.4540541 C47.027027,32.3891892 46.9621622,32.3243243 46.8972973,32.3243243 C46.8648649,32.3243243 46.8,32.4216216 46.7351351,32.5837838 C46.6378378,32.7459459 46.6054054,32.8756757 46.6054054,32.8756757 C46.6054054,32.9081081 46.6378378,32.9405405 46.6702703,32.9405405 C46.7027027,33.0378378 46.7675676,33.0702703 46.8324324,33.1351351 Z M43.1351351,37.1891892 C43.1675676,37.1567568 43.2,37.1243243 43.2324324,37.0594595 C43.2648649,37.027027 43.2972973,36.9945946 43.3297297,36.9297297 C43.3945946,36.8648649 43.427027,36.8 43.4918919,36.7351351 C43.5567568,36.6702703 43.5891892,36.6702703 43.6540541,36.6378378 C43.7189189,36.6378378 43.7837838,36.6054054 43.8486486,36.6054054 C43.8486486,36.6054054 43.8810811,36.6054054 43.9135135,36.6054054 C43.9783784,36.6054054 44.0108108,36.572973 44.0756757,36.5081081 C44.1405405,36.4432432 44.2054054,36.3459459 44.2378378,36.2486486 C44.3027027,36.1513514 44.3351351,36.0540541 44.3675676,35.9567568 C44.4,35.8594595 44.4324324,35.7297297 44.4324324,35.6 C44.4324324,35.4702703 44.4648649,35.1135135 44.4972973,34.5297297 C44.4972973,34.4324324 44.4972973,34.3027027 44.5297297,34.2054054 C44.5297297,34.1081081 44.5297297,34.0108108 44.5297297,33.9135135 C44.5297297,33.8486486 44.5297297,33.8486486 44.5297297,33.8162162 C44.5297297,33.7837838 44.4972973,33.7837838 44.4972973,33.8162162 L44.3675676,34.172973 L44.2054054,34.6594595 L44.2054054,35.6 C44.2054054,35.6648649 44.2054054,35.7621622 44.172973,35.8594595 C44.172973,35.9567568 44.1405405,36.0216216 44.1405405,36.0864865 C44.1081081,36.1837838 44.0756757,36.2162162 44.0108108,36.1837838 C43.9459459,36.1513514 43.9135135,36.1513514 43.8486486,36.1513514 L43.8486486,36.1513514 C43.7513514,36.1837838 43.6540541,36.2162162 43.5891892,36.2810811 C43.5567568,36.3135135 43.5243243,36.3783784 43.4594595,36.4432432 C43.3945946,36.5081081 43.3621622,36.5405405 43.3621622,36.572973 C43.2972973,36.6378378 43.2324324,36.7027027 43.1027027,36.7351351 C43.0054054,36.8 42.8756757,36.8324324 42.7135135,36.8972973 C42.4540541,36.9621622 42.2594595,37.027027 42.0972973,37.0594595 C41.9351351,37.0918919 41.7081081,37.0918919 41.4486486,37.1243243 C41.1891892,37.1243243 40.9297297,37.1243243 40.7351351,37.1243243 C40.4756757,37.1243243 40.2810811,37.0918919 40.1513514,37.0594595 C40.0216216,37.027027 39.9243243,36.9945946 39.8594595,36.9297297 C39.7945946,36.8648649 39.7621622,36.8 39.7621622,36.7027027 C39.7621622,36.6054054 39.7297297,36.5405405 39.6972973,36.5405405 C39.6648649,36.5405405 39.6324324,36.6378378 39.6324324,36.8 C39.6,36.9621622 39.6,37.0918919 39.6,37.2540541 C39.6,37.4810811 39.6648649,37.6432432 39.827027,37.7405405 C39.9243243,37.8054054 40.0540541,37.8378378 40.2486486,37.8378378 C40.4108108,37.8702703 40.572973,37.8702703 40.7675676,37.8702703 C41.2540541,37.8702703 41.7081081,37.8378378 42.0972973,37.7405405 C42.4864865,37.6432432 42.8108108,37.5135135 43.0054054,37.3837838 C43.0054054,37.3189189 43.0702703,37.2540541 43.1351351,37.1891892 Z M39.7945946,34.4324324 C39.8594595,34.4648649 39.8918919,34.5297297 39.9891892,34.5945946 C40.0540541,34.6594595 40.0864865,34.6918919 40.1189189,34.6918919 C40.1513514,34.6918919 40.2162162,34.627027 40.2810811,34.5297297 C40.3459459,34.4 40.4108108,34.3027027 40.4108108,34.2054054 C40.4108108,34.1405405 40.3783784,34.0432432 40.2810811,33.9783784 C40.1837838,33.9135135 40.1189189,33.8486486 40.0864865,33.8486486 C40.0864865,33.8486486 40.0216216,33.9135135 39.9567568,34.0108108 C39.9243243,34.0756757 39.8594595,34.172973 39.827027,34.2378378 C39.7945946,34.172973 39.7621622,34.1081081 39.6648649,34.0432432 C39.6,33.9783784 39.5351351,33.9459459 39.5027027,33.9459459 C39.4702703,33.9459459 39.4054054,34.0432432 39.3405405,34.2054054 C39.2432432,34.3675676 39.2108108,34.4972973 39.2108108,34.4972973 C39.2108108,34.4972973 39.2756757,34.5621622 39.372973,34.6594595 C39.4702703,34.7567568 39.5351351,34.7891892 39.5675676,34.7891892 C39.5675676,34.8216216 39.6648649,34.6918919 39.7945946,34.4324324 Z" id="Shape"></path>
                </g>
            </g>
        </g>
    </g>
</svg>