<?xml version="1.0" encoding="UTF-8"?>
<svg width="49px" height="48px" viewBox="0 0 49 48" version="1.1" xmlns="http://www.w3.org/2000/svg" xmlns:xlink="http://www.w3.org/1999/xlink">
    <!-- Generator: Sketch 56 (81588) - https://sketch.com -->
    <title>Bank/Mono/Ayandeh</title>
    <desc>Created with Sketch.</desc>
    <g id="Ready-For-Export" stroke="none" stroke-width="1" fill="none" fill-rule="evenodd">
        <g id="Artboard" transform="translate(-184.000000, -184.000000)" fill="#FFFFFF">
            <g id="Banks_(Mono)" transform="translate(80.000000, 184.000000)">
                <g id="Bank-/-Ayandeh-/-Mono" transform="translate(104.000000, 0.000000)">
                    <path d="M6.67899314,-2.58347613e-07 L41.3210177,-2.58347613e-07 C44.981063,-2.58347613e-07 48,3.01925688 48,6.6787103 L48,41.32129 C48,44.9807434 44.981063,47.9999997 41.3210177,47.9999997 L6.67899314,47.9999997 C3.01894778,47.9999997 -1.07426144e-05,44.9807434 -1.07426144e-05,41.32129 L-1.07426144e-05,6.67963277 C-0.00317862193,4.908868 0.699148645,3.2095651 1.95209991,1.95649187 C3.20505117,0.703418636 4.90570409,-0.00049258001 6.67899314,-2.58347613e-07 Z M46.0000122,22 C43.1112782,27.7660998 38.9042937,33.2421637 31.8438279,33.2795877 C22.9654035,33.2795877 3.85412428,12.8105416 1.99998971,33.0269758 L1.99998971,40.9187577 C1.99730101,42.2659258 2.52586777,43.5588133 3.46906778,44.5121089 C4.4122678,45.4654044 5.69256996,46.000747 7.02744024,46 L40.9716307,46 C42.3068226,46.0009964 43.5875043,45.4656352 44.5309317,44.51211 C45.4743592,43.5585848 46.0029442,42.2653144 46.0000122,40.9178221 L46.0000122,22 Z M7.05943033,2 L7.05943033,2.00092861 C4.31574072,2.00092861 2.03612556,4.28903076 2,7.04329658 L2,26 C4.92153849,20.2769588 9.12599735,14.6616367 16.1445443,14.6616367 C25.0870087,14.6616367 44.4317804,35.5851422 46,14.6263494 L46,7.04329658 C46,4.25374347 43.7546578,2 40.9757689,2 L7.05943033,2 Z" id="Shape"></path>
                </g>
            </g>
        </g>
    </g>
</svg>