<?xml version="1.0" encoding="UTF-8"?>
<svg width="49px" height="48px" viewBox="0 0 49 48" version="1.1" xmlns="http://www.w3.org/2000/svg" xmlns:xlink="http://www.w3.org/1999/xlink">
    <!-- Generator: Sketch 56 (81588) - https://sketch.com -->
    <title>Bank/Mono/Eghtesad_Novin</title>
    <desc>Created with Sketch.</desc>
    <g id="Ready-For-Export" stroke="none" stroke-width="1" fill="none" fill-rule="evenodd">
        <g id="Artboard" transform="translate(-600.000000, -184.000000)" fill="#FFFFFF">
            <g id="Banks_(Mono)" transform="translate(80.000000, 184.000000)">
                <g id="Bank-/-Eghtesad-Novin-/-Mono" transform="translate(520.000000, 0.000000)">
                    <path d="M40.5,33 C44.6394,33 48,36.3606 48,40.5 C48,44.6394 44.6394,48 40.5,48 C36.3606,48 33,44.6394 33,40.5 C33,36.3606 36.3606,33 40.5,33 Z M34.138,0.4193 C34.1912,0.1745 34.4074,0 34.6575,0 C36.7606,0 45.9644,0 47.7988,0 C47.8678,0 47.9321,0.0355 47.9689,0.0939 C48.0058,0.1524 48.0101,0.2257 47.9805,0.2882 C46.18,4.0741 27.2139,43.9549 25.4254,47.7158 C25.3428,47.8894 25.1679,48 24.9758,48 C24.8142,48 24.6113,48 24.4199,48 C24.2693,48 24.1268,47.9317 24.0322,47.8142 C23.9377,47.6968 23.9014,47.5427 23.9334,47.3953 C25.0675,42.1745 33.1859,4.802 34.138,0.4193 Z M26.5596,0.4193 C26.6127,0.1745 26.829,0 27.0791,0 C27.9665,0 30.0107,0 31.0677,0 C31.2286,0 31.3808,0.0729 31.4817,0.1984 C31.5826,0.3238 31.6214,0.4882 31.5872,0.6457 C30.4178,6.0289 22.3078,43.3628 21.3858,47.6074 C21.336,47.8365 21.1335,48 20.8993,48 C20.0156,48 17.8962,48 16.8415,48 C16.6909,48 16.5483,47.9317 16.4538,47.8142 C16.3593,47.6968 16.323,47.5428 16.355,47.3953 C17.4891,42.1745 25.6075,4.802 26.5596,0.4193 Z M22.5655,0.3035 C22.6536,0.1181 22.8404,0 23.0454,0 C23.1708,0 23.3178,0 23.4623,0 C23.6231,0 23.7753,0.0729 23.8762,0.1984 C23.9772,0.3238 24.016,0.4882 23.9818,0.6457 C22.8124,6.0289 14.7023,43.3628 13.7803,47.6074 C13.7305,47.8365 13.528,48 13.2938,48 C11.2516,48 2.037,48 0.2012,48 C0.1322,48 0.0679,47.9645 0.0311,47.9061 C-0.0058,47.8476 -0.0101,47.7743 0.0195,47.7118 C1.817,43.9322 20.7223,4.1791 22.5655,0.3035 Z M7.5,0 C11.6394,0 15,3.3606 15,7.5 C15,11.6394 11.6394,15 7.5,15 C3.3606,15 0,11.6394 0,7.5 C0,3.3606 3.3606,0 7.5,0 Z" id="Shape"></path>
                </g>
            </g>
        </g>
    </g>
</svg>