<?xml version="1.0" encoding="UTF-8"?>
<svg width="49px" height="48px" viewBox="0 0 49 48" version="1.1" xmlns="http://www.w3.org/2000/svg" xmlns:xlink="http://www.w3.org/1999/xlink">
    <!-- Generator: Sketch 56 (81588) - https://sketch.com -->
    <title>Bank/Mono/Gardeshgari</title>
    <desc>Created with Sketch.</desc>
    <g id="Ready-For-Export" stroke="none" stroke-width="1" fill="none" fill-rule="evenodd">
        <g id="Artboard" transform="translate(-808.000000, -184.000000)" fill="#FFFFFF">
            <g id="Banks_(Mono)" transform="translate(80.000000, 184.000000)">
                <g id="Bank-/-Gardeshgari-/-Mono" transform="translate(728.000000, 0.000000)">
                    <path d="M4.3103,31.4657 L12,44.7846 L17.7339,44.7846 L10.0742,31.5793 L11.5354,29.0485 L20.6206,44.7846 L36,44.7846 L38.8706,39.8126 L23.5832,39.8189 L14.4502,24 L17.7754,18.2405 L11.9459,18.2405 L4.3103,31.4657 Z M40.3103,37.3189 L48,24 L45.1331,19.0343 L37.5268,32.2704 L34.6045,32.2704 L43.6897,16.5343 L36,3.2154 L30.2589,3.2154 L37.908,16.4515 L28.7749,32.2704 L22.1244,32.2704 L25.0392,37.3189 L40.3103,37.3189 Z M24,18.2604 C27.2169,18.2604 29.8287,20.8722 29.8287,24.0891 C29.8287,27.306 27.2169,29.9178 24,29.9178 C20.7831,29.9178 18.1713,27.306 18.1713,24.0891 C18.1713,20.8722 20.7831,18.2604 24,18.2604 Z M25.8601,10.6811 L24.399,8.1502 L9.1331,8.1811 L12,3.2154 L27.3794,3.2154 L35.015,16.4406 L32.1002,21.4891 L28.7749,15.7296 L10.5088,15.7296 L2.8706,28.972 L0,24 L7.6897,10.6811 L25.8601,10.6811 Z" id="Shape"></path>
                </g>
            </g>
        </g>
    </g>
</svg>