<?xml version="1.0" encoding="UTF-8"?>
<svg width="48px" height="48px" viewBox="0 0 48 48" version="1.1" xmlns="http://www.w3.org/2000/svg" xmlns:xlink="http://www.w3.org/1999/xlink">
    <!-- Generator: Sketch 56 (81588) - https://sketch.com -->
    <title>Bank/Mono/Keshavarzi</title>
    <desc>Created with Sketch.</desc>
    <g id="Ready-For-Export" stroke="none" stroke-width="1" fill="none" fill-rule="evenodd">
        <g id="Artboard" transform="translate(-1536.000000, -184.000000)" fill="#FFFFFF">
            <g id="Banks_(Mono)" transform="translate(80.000000, 184.000000)">
                <g id="Bank-/-Keshavarzi-/-Mono" transform="translate(1456.000000, 0.000000)">
                    <path d="M25.9,2.6 L28.724,2.6 L28.724,8.1 L33.715,8.094 L36.619,11 L34.879,11 L33.579,13.245 L34.696,13.25 L34.703,14.891 L36.536,14.902 L36.528,17.36 L38.402,17.354 L38.383,20.829 C38.7988,20.9185 39.184,21.1154 39.5,21.4 C39.5799,21.469 39.6535,21.545 39.72,21.627 C39.8211,21.7542 39.9058,21.8936 39.972,22.042 L39.995,22.096 L40.009,22.133 L40.174,22.133 C40.3553,22.1445 40.5342,22.1781 40.707,22.233 C40.8032,22.2641 40.8971,22.3018 40.988,22.346 C41.6681,22.7275 42.201,23.3263 42.501,24.046 C42.558,24.165 42.611,24.286 42.662,24.407 L42.692,24.482 C42.692,24.482 42.919,25.038 43.019,25.32 C43.124,25.568 43.2064,25.8251 43.265,26.088 L42.629,26.288 C42.629,26.288 42.2921,25.6482 41.776,25.648 L38.066,25.648 L37.426,26.634 L39.648,26.634 L39.648,28.264 L41.077,28.264 L41.077,30.1 L39.642,30.1 L39.642,31.344 L37.373,31.344 L37.367,32.158 L35.525,32.158 L35.534,41.411 L27.712,41.419 L27.712,45.05 L25.94,45.05 L25.94,48 L22.06,48 L22.06,45.058 L20.293,45.058 L20.293,41.427 L12.471,41.419 L12.48,32.166 L10.637,32.166 L10.631,31.352 L8.355,31.352 L8.355,30.108 L6.927,30.108 L6.927,28.254 L8.355,28.254 L8.355,26.624 L10.577,26.624 L9.937,25.638 L6.227,25.638 C5.7109,25.6382 5.374,26.278 5.374,26.278 L4.738,26.078 C4.7966,25.8151 4.879,25.558 4.984,25.31 C5.084,25.027 5.311,24.472 5.311,24.472 L5.341,24.397 C5.392,24.275 5.441,24.154 5.502,24.036 C5.802,23.3163 6.3349,22.7175 7.015,22.336 C7.1059,22.2918 7.1998,22.2541 7.296,22.223 C7.4689,22.168 7.6479,22.1345 7.829,22.123 C7.884,22.123 7.939,22.123 7.994,22.123 L8.009,22.086 L8.032,22.032 C8.0982,21.8836 8.1829,21.7442 8.284,21.617 C8.3497,21.5386 8.4219,21.466 8.5,21.4 C8.8146,21.117 9.1975,20.9209 9.611,20.831 L9.592,17.356 L11.465,17.362 L11.46,14.9 L13.293,14.889 L13.3,13.248 L14.417,13.243 L13.121,11 L11.381,11 L14.281,8.093 L19.272,8.099 L19.272,2.599 L22.1,2.599 L22.1,0 L25.9,0 L25.9,2.6 Z M26.89,44.258 L26.89,41.419 L25.122,41.419 L25.122,43.047 L22.879,43.047 L22.879,41.419 L21.111,41.419 L21.111,44.258 L22.875,44.258 L22.875,47.2 L25.125,47.2 L25.125,44.258 L26.89,44.258 Z M34.695,40.619 L34.694,31.719 L13.306,31.719 L13.306,40.619 L34.695,40.619 Z M31.172,39.55 C31.1812,39.5994 31.1774,39.6505 31.161,39.698 C31.1403,39.76 31.1138,39.8199 31.082,39.877 C31.0445,39.9458 30.9951,40.0075 30.936,40.059 C30.9124,40.0876 30.8795,40.1071 30.843,40.114 C30.8053,40.1013 30.7711,40.0801 30.743,40.052 C30.701,40.0173 30.657,39.9817 30.611,39.945 C30.5759,39.9185 30.5425,39.8897 30.511,39.859 C30.4885,39.8423 30.4731,39.8176 30.468,39.79 C30.496,39.731 30.518,39.685 30.532,39.653 C30.58,39.5517 30.6157,39.4783 30.639,39.433 C30.6817,39.3663 30.7247,39.2953 30.768,39.22 L30.811,39.158 C30.8242,39.1707 30.8386,39.182 30.854,39.192 L30.911,39.226 C30.9834,39.2789 31.0504,39.3389 31.111,39.405 C31.1444,39.4467 31.1664,39.4963 31.175,39.549 L31.172,39.55 Z M25.816,38.558019 C26.1386,38.5589 26.4605,38.5278 26.777,38.465 C27.0574,38.4103 27.3334,38.3355 27.603,38.241 C27.8468,38.1533 28.0776,38.0329 28.289,37.883 C28.4888,37.7452 28.6691,37.581 28.825,37.395 C28.8677,37.3397 28.9343,37.2527 29.025,37.134 C29.068,37.074 29.099,37.034 29.118,37.01 C29.137,36.986 29.142,36.991 29.147,36.996 C29.1527,37.0038 29.1552,37.0134 29.154,37.023 L29.147,37.099 C29.1423,37.1403 29.1317,37.2287 29.115,37.364 C29.0995,37.4827 29.0911,37.6023 29.09,37.722 C29.0841,37.9005 29.1143,38.0785 29.179,38.245 C29.2305,38.3769 29.3627,38.4607 29.504,38.451 C29.604,38.451 29.7017,38.3767 29.797,38.228 C29.9102,38.0329 29.9899,37.8203 30.033,37.599 L30.051,37.51 C30.0571,37.4827 30.0607,37.4549 30.062,37.427 C30.062,37.381 30.05,37.358 30.026,37.358 C30.002,37.358 29.991,37.379 29.98,37.42 C29.969,37.461 29.957,37.498 29.948,37.53 C29.896,37.672 29.8363,37.743 29.769,37.743 C29.6905,37.7452 29.6131,37.7236 29.547,37.681 C29.4322,37.5852 29.3731,37.4376 29.39,37.289 L29.39,37.182 C29.39,37.0993 29.3973,36.9767 29.412,36.814 C29.428,36.6333 29.4493,36.4533 29.476,36.274 L29.626,35.552 C29.6327,35.5167 29.6397,35.4813 29.647,35.446 L29.814,35.333 L30.482,34.827 C30.6733,34.7037 30.864,34.579 31.054,34.453 C31.2187,34.3437 31.3807,34.231 31.54,34.115 C31.7973,33.927 31.9903,33.7837 32.119,33.685 C32.2903,33.5517 32.412,33.4557 32.484,33.397 C32.556,33.3383 32.6263,33.274 32.695,33.204 C32.781,33.122 32.8633,33.037 32.942,32.949 C33.0125,32.8678 33.077,32.7816 33.135,32.691 C33.193,32.6123 33.2389,32.5253 33.271,32.433 C33.2806,32.4163 33.2854,32.3973 33.2850231,32.378 C33.2850231,32.386 33.1063,32.5373 32.749,32.832 C32.563,32.9893 32.3747,33.1447 32.184,33.298 C31.9793,33.4607 31.7697,33.6183 31.555,33.771 C31.251,33.983 30.946,34.1937 30.64,34.403 C30.3448,34.6124 30.0619,34.8388 29.793,35.081 C29.7291,35.136 29.6735,35.2 29.628,35.271 C29.6193,35.2829 29.6113,35.2952 29.604,35.308 C29.5714,35.3629 29.542,35.4197 29.516,35.478 L29.484,35.541 C29.4234,35.6541 29.3709,35.7714 29.327,35.892 L29.227,36.284 C29.1771,36.4656 29.0973,36.6376 28.991,36.793 C28.8436,36.9884 28.656,37.15 28.441,37.267 C27.8523,37.5922 27.1968,37.778 26.525,37.81 C26.363,37.824 26.1463,37.831 25.875,37.831 C25.5485,37.8757 25.2165,37.8027 24.939,37.625 C24.88,37.5595 24.8448,37.476 24.839,37.388 C24.832,37.298 24.821,37.254 24.807,37.254 C24.769,37.254 24.7393,37.332 24.718,37.488 C24.697,37.6384 24.6864,37.7901 24.686,37.942 C24.6752,38.0807 24.7146,38.2188 24.797,38.331 C24.9129,38.4354 25.0596,38.4993 25.215,38.513 C25.3804,38.5389 25.5476,38.5506 25.715,38.548 L25.816,38.558019 Z M23.701,37.479 L23.701,37.485 C23.801,37.387 23.8603,37.327 23.879,37.305 C23.9535,37.2205 24.014,37.1247 24.058,37.021 C24.1158,36.8766 24.1577,36.7264 24.183,36.573 C24.2129,36.4311 24.2306,36.2869 24.236,36.142 C24.236,36.022 24.236,35.896 24.236,35.764 C24.236,35.632 24.2443,35.4987 24.261,35.364 C24.261,35.239 24.268,35.164 24.268,35.13 C24.268,35.124 24.268,35.118 24.268,35.113 C24.283,35.105 24.302,35.093 24.324,35.079 L24.535,34.935 L25.046,34.589 C25.246,34.4603 25.4433,34.3303 25.638,34.199 C25.8087,34.085 25.9753,33.967 26.138,33.845 C26.4047,33.645 26.6047,33.4943 26.738,33.393 C26.9167,33.255 27.0433,33.155 27.118,33.093 C27.1927,33.031 27.2667,32.9623 27.34,32.887 C27.4307,32.7997 27.5177,32.709 27.601,32.615 C27.6765,32.527 27.7456,32.4337 27.808,32.336 C27.8709,32.2498 27.9214,32.1552 27.958,32.055 C27.9686,32.0364 27.9744,32.0154 27.975,31.994 C27.975,32.0033 27.788,32.1637 27.414,32.475 C27.2193,32.6417 27.0227,32.8063 26.824,32.969 C26.6107,33.141 26.3923,33.3077 26.169,33.469 C25.8537,33.691 25.5373,33.9113 25.22,34.13 C24.9761,34.2919 24.7423,34.4685 24.52,34.659 C24.4526,34.7172 24.3937,34.7845 24.345,34.859 C24.297,34.9335 24.2546,35.0113 24.218,35.092 L24.206,35.12 L24.206,35.126 L23.964,35.687 C23.9414,35.7433 23.9292,35.8033 23.928,35.864 C23.9233,35.942 23.921,36.0323 23.921,36.135 L23.928,36.583 C23.9347,36.7291 23.9105,36.8749 23.857,37.011 C23.8348,37.0573 23.8073,37.101 23.775,37.141 C23.7524,37.1713 23.7246,37.1973 23.693,37.218 L23.65,37.238 C23.6161,37.2419 23.5818,37.2374 23.55,37.225 C23.526,37.261 23.502,37.294 23.478,37.325 C23.44,37.3751 23.3877,37.4124 23.328,37.432 C23.2997,37.4474 23.2644,37.442 23.242,37.419 C23.209,37.45 23.178,37.482 23.149,37.513 C23.1041,37.5608 23.0425,37.5894 22.977,37.593 C22.9124,37.5933 22.8479,37.5887 22.784,37.579 C22.6787,37.6503 22.576,37.7217 22.476,37.793 C22.3908,37.8477 22.2912,37.8755 22.19,37.873 C22.0201,37.8878 21.8551,37.8082 21.761,37.666 C21.704,37.5617 21.677,37.4437 21.683,37.325 C21.683,37.271 21.683,37.185 21.697,37.064 C21.709,36.9207 21.7257,36.778 21.747,36.636 L21.869,35.82 L21.898,35.646 C21.9064,35.611 21.9088,35.5748 21.905,35.539 L21.876,35.552 C21.8333,35.6367 21.7763,35.7613 21.705,35.926 C21.6337,36.0907 21.5957,36.182 21.591,36.2 C21.5577,36.4187 21.5147,36.734 21.462,37.146 C21.4093,37.558 21.383,37.7913 21.383,37.846 C21.3841,37.9076 21.3888,37.969 21.397,38.03 C21.4019,38.0882 21.4136,38.1456 21.432,38.201 C21.4819,38.4086 21.6695,38.5558 21.883,38.5550032 C22.0805,38.5456 22.2595,38.4341 22.355,38.261 C22.4883,38.065 22.5957,37.967 22.677,37.967 L22.777,37.977 C22.8042,37.9806 22.8318,37.9806 22.859,37.977 C22.9105,37.9572 22.9577,37.9276 22.998,37.89 C23.0388,37.8539 23.0818,37.8205 23.127,37.79 C23.1577,37.7728 23.1919,37.7626 23.227,37.76 C23.2574,37.7579 23.2869,37.7487 23.313,37.733 C23.351,37.697 23.383,37.669 23.413,37.649 C23.4372,37.63 23.4638,37.6142 23.492,37.602 C23.518,37.591 23.572,37.565 23.653,37.525 L23.696,37.491 L23.701,37.479 Z M18.472,36.7 C18.4674,36.7925 18.4553,36.8844 18.436,36.975 C18.412,37.103 18.388,37.2153 18.364,37.312 L18.278,37.649 C18.23,37.777 18.192,37.871 18.164,37.931 C18.1288,38.0042 18.0894,38.0753 18.046,38.144 C18.0163,38.1922 17.9788,38.2351 17.935,38.271 C17.8742,38.3143 17.8096,38.3522 17.742,38.384 L17.485,38.484 C17.4299,38.5011 17.3738,38.5148 17.317,38.525 C17.2618,38.5385 17.2056,38.5479 17.149,38.553 C17.125,38.553 17.111,38.545 17.106,38.529 C17.1021,38.5086 17.1072,38.4874 17.12,38.471 C17.1698,38.4041 17.2307,38.3463 17.3,38.3 C17.398,38.2267 17.4947,38.1557 17.59,38.087 C17.6993,37.9903 17.7803,37.9147 17.833,37.86 C17.9149,37.7746 17.9868,37.6799 18.047,37.578 C18.0713,37.5328 18.0918,37.4857 18.108,37.437 C18.134,37.3663 18.1757,37.2507 18.233,37.09 L18.319,36.842 C18.3283,36.8053 18.3427,36.7607 18.362,36.708 C18.381,36.656 18.405,36.629 18.434,36.629 C18.4519,36.6484 18.4643,36.6722 18.47,36.698 L18.472,36.7 Z M17.786,34.785 C17.791,34.7698 17.7884,34.753 17.779,34.74 C17.7654,34.7235 17.7483,34.7102 17.729,34.701 C17.6407,34.7202 17.5562,34.754 17.479,34.801 C17.3871,34.8478 17.2985,34.9009 17.214,34.96 C17.1233,35.0227 17.0493,35.0777 16.992,35.125 C16.8623,35.2398 16.7404,35.3631 16.627,35.494 C16.4751,35.6646 16.3475,35.8554 16.248,36.061 C16.1696,36.2083 16.1232,36.3705 16.112,36.537 C16.108,36.6063 16.1281,36.6749 16.169,36.731 C16.2133,36.7828 16.2696,36.823 16.333,36.848 C16.3651,36.8629 16.3986,36.8746 16.433,36.883 C16.4617,36.8897 16.5093,36.9027 16.576,36.922 C16.6427,36.9413 16.676,36.9703 16.676,37.009 C16.6715,37.0878 16.6455,37.1639 16.601,37.229 C16.5395,37.325 16.4663,37.4131 16.383,37.491 C16.2786,37.5898 16.1578,37.6697 16.026,37.727 C15.84,37.8126 15.6377,37.857 15.433,37.857 C15.23,37.8695 15.0283,37.8161 14.858,37.705 C14.7273,37.6098 14.6522,37.4556 14.658,37.294 C14.682,37.0372 14.7521,36.7869 14.865,36.555 L14.951,36.374 C15.0083,36.2533 15.0513,36.167 15.08,36.115 C15.132,36.015 15.167,35.945 15.18,35.904 C15.193,35.863 15.219,35.81 15.248,35.745 C15.2585,35.7229 15.2633,35.6985 15.262,35.674 C15.262,35.635 15.245,35.616 15.212,35.616 C15.198,35.616 15.18,35.633 15.158,35.668 C15.136,35.703 15.116,35.737 15.097,35.768 L14.933,36.086 L14.726,36.494 C14.6396,36.6635 14.5654,36.8389 14.504,37.019 C14.4668,37.128 14.438,37.2396 14.418,37.353 C14.3986,37.4653 14.3889,37.579 14.3889992,37.693 C14.3901,37.7905 14.4045,37.8874 14.432,37.981 C14.4625,38.0859 14.5135,38.1838 14.582,38.269 C14.7463,38.462 14.9946,38.5635 15.247,38.541 C15.4903,38.546 15.7302,38.4833 15.94,38.36 C16.046,38.2985 16.1444,38.2247 16.233,38.14 C16.318,38.0597 16.3969,37.9731 16.469,37.881 C16.6101,37.6802 16.7188,37.4585 16.791,37.224 C16.8657,37.0079 16.9069,36.7816 16.913,36.553 C16.9278,36.4447 16.8844,36.3362 16.799,36.268 C16.7761,36.2513 16.7508,36.2382 16.724,36.229 L16.635,36.197 L16.506,36.138 C16.4768,36.1084 16.4591,36.0694 16.456,36.028 C16.4743,35.964 16.5087,35.9058 16.556,35.859 C16.6418,35.7556 16.7387,35.6621 16.845,35.58 C16.9329,35.5017 17.0316,35.4364 17.138,35.386 C17.2092,35.3493 17.2871,35.3272 17.367,35.321 C17.3835,35.3218 17.3995,35.3274 17.413,35.337 L17.467,35.373 C17.496,35.373 17.529,35.347 17.567,35.295 C17.577,35.282 17.604,35.231 17.649,35.143 C17.6858,35.0757 17.7192,35.0067 17.749,34.936 C17.7681,34.8868 17.7825,34.8359 17.792,34.784 L17.786,34.785 Z M20.771,37.563 L20.671,37.817 C20.6285,37.908 20.5769,37.9944 20.517,38.075 C20.4769,38.135 20.4277,38.1883 20.371,38.233 C20.3031,38.2715 20.2314,38.3026 20.157,38.326 L20.007,38.381 C19.9303,38.405 19.854,38.4303 19.778,38.457 C19.7038,38.482 19.627,38.4981 19.549,38.505 L19.52,38.491 C19.52,38.459 19.6057,38.3903 19.777,38.285 L20.056,38.093 C20.1033,38.061 20.1557,38.022 20.213,37.976 C20.2795,37.9219 20.342,37.8631 20.4,37.8 C20.4591,37.7395 20.5042,37.6668 20.532,37.587 C20.5327,37.5731 20.5351,37.5594 20.539,37.546 L20.353,37.56 C20.2741,37.5629 20.1971,37.5345 20.139,37.481 C20.0861,37.4393 20.0588,37.3728 20.067,37.306 C20.074,37.2611 20.086,37.2171 20.103,37.175 C20.122,37.125 20.165,37.033 20.232,36.9 C20.2689,36.8233 20.3121,36.7497 20.361,36.68 C20.423,36.597 20.483,36.556 20.54,36.556 C20.6364,36.5566 20.7278,36.5994 20.79,36.673 C20.8611,36.7494 20.8995,36.8507 20.897,36.955 C20.897,37.0103 20.8923,37.0655 20.883,37.12 L20.858,37.264 C20.851,37.305 20.84,37.355 20.826,37.412 C20.814,37.4628 20.7972,37.5123 20.776,37.56 L20.771,37.563 Z M19.694,36.646 C19.6893,36.7387 19.6772,36.8305 19.658,36.921 C19.634,37.049 19.61,37.1613 19.586,37.258 L19.5,37.6 C19.452,37.7287 19.414,37.8227 19.386,37.882 C19.3508,37.9552 19.3114,38.0263 19.268,38.095 C19.2381,38.143 19.2006,38.1859 19.157,38.222 C19.0961,38.2653 19.0315,38.3031 18.964,38.335 L18.707,38.435 C18.6519,38.4521 18.5958,38.4658 18.539,38.476 C18.4838,38.4895 18.4276,38.4989 18.371,38.504 C18.347,38.504 18.333,38.496 18.328,38.48 C18.3241,38.4596 18.3292,38.4384 18.342,38.422 C18.3922,38.3545 18.4538,38.2963 18.524,38.25 C18.622,38.1767 18.7187,38.1057 18.814,38.037 C18.9233,37.941 19.0043,37.8653 19.057,37.81 C19.1389,37.7245 19.2108,37.6299 19.271,37.528 C19.2953,37.4828 19.3157,37.4357 19.332,37.387 C19.358,37.3157 19.3997,37.2 19.457,37.04 L19.543,36.792 C19.553,36.755 19.567,36.711 19.586,36.658 C19.605,36.605 19.629,36.579 19.658,36.579 C19.6754,36.5978 19.6878,36.6208 19.694,36.646 Z M30.764,37.19 C30.764,37.135 30.764,37.046 30.778,36.922 C30.79,36.7747 30.8067,36.628 30.828,36.482 L30.95,35.643 L30.979,35.464 C30.9876,35.428 30.99,35.3908 30.986,35.354 L30.957,35.368 C30.9143,35.4553 30.857,35.5837 30.785,35.753 C30.713,35.9223 30.675,36.0163 30.671,36.035 C30.6377,36.2597 30.5947,36.584 30.542,37.008 C30.4893,37.432 30.463,37.6707 30.463,37.724 C30.4571,37.9025 30.4873,38.0805 30.552,38.247 C30.6035,38.3789 30.7357,38.4627 30.877,38.453 C30.977,38.453 31.0747,38.3787 31.17,38.23 C31.2832,38.0349 31.3629,37.8223 31.406,37.601 L31.424,37.512 C31.4301,37.4847 31.4337,37.4569 31.435,37.429 C31.435,37.383 31.423,37.36 31.399,37.36 C31.375,37.36 31.365,37.381 31.353,37.422 L31.321,37.532 C31.2683,37.674 31.2087,37.745 31.142,37.745 C31.0635,37.7472 30.9861,37.7256 30.92,37.683 C30.8052,37.5872 30.7461,37.4396 30.763,37.291 L30.763,37.191 L30.764,37.19 Z M18.8,35.143 C18.8092,35.1926 18.8054,35.2435 18.789,35.291 C18.7681,35.3529 18.7417,35.4129 18.71,35.47 C18.6725,35.5388 18.6231,35.6005 18.564,35.652 C18.5404,35.6807 18.5075,35.7002 18.471,35.707 C18.4333,35.6944 18.399,35.6732 18.371,35.645 C18.327,35.6083 18.2817,35.5727 18.235,35.538 C18.1999,35.5115 18.1665,35.4828 18.135,35.452 C18.1125,35.4353 18.0971,35.4106 18.092,35.383 C18.1207,35.3237 18.142,35.278 18.156,35.246 C18.204,35.146 18.239,35.072 18.263,35.026 C18.306,34.957 18.349,34.886 18.392,34.813 L18.435,34.751 C18.4482,34.764 18.4626,34.7757 18.478,34.786 L18.535,34.82 C18.6075,34.8728 18.6745,34.9328 18.735,34.999 C18.7687,35.0405 18.7911,35.09 18.8,35.143 Z M22.547,34.229 C22.5384,34.1763 22.5163,34.1267 22.483,34.085 C22.4224,34.0188 22.3554,33.9589 22.283,33.906 L22.226,33.872 C22.2106,33.8621 22.1962,33.8507 22.183,33.838 L22.14,33.9 C22.0973,33.9733 22.0543,34.0443 22.011,34.113 C21.987,34.159 21.9513,34.2323 21.904,34.333 C21.89,34.365 21.868,34.411 21.84,34.47 C21.8452,34.4976 21.8605,34.5222 21.883,34.539 C21.9145,34.5697 21.9479,34.5985 21.983,34.625 C22.029,34.659 22.0743,34.6943 22.119,34.731 C22.1469,34.7593 22.1812,34.7806 22.219,34.793 C22.2555,34.7862 22.2885,34.7668 22.312,34.738 C22.3714,34.6865 22.4211,34.6249 22.459,34.556 C22.4908,34.4989 22.5172,34.439 22.538,34.377 C22.5544,34.3295 22.5582,34.2784 22.549,34.229 L22.547,34.229 Z M23.283,34.188 C23.2922,34.2376 23.2884,34.2885 23.272,34.336 C23.2512,34.398 23.2248,34.4579 23.193,34.515 C23.1556,34.5839 23.1062,34.6456 23.047,34.697 C23.0235,34.7258 22.9905,34.7452 22.954,34.752 C22.9163,34.7393 22.8821,34.7181 22.854,34.69 C22.81,34.6533 22.7647,34.6177 22.718,34.583 C22.6829,34.5565 22.6495,34.5278 22.618,34.497 C22.5955,34.4802 22.5802,34.4556 22.575,34.428 C22.604,34.369 22.625,34.322 22.639,34.291 C22.6737,34.217 22.7093,34.1437 22.746,34.071 C22.7827,33.9983 22.8257,33.9273 22.875,33.858 L22.918,33.796 C22.9311,33.8088 22.9455,33.8202 22.961,33.83 L23.018,33.865 C23.0904,33.9179 23.1574,33.9779 23.218,34.044 C23.252,34.0854 23.2747,34.1349 23.284,34.188 L23.283,34.188 Z M29.85,34.137 C29.8591,34.1866 29.8553,34.2375 29.839,34.285 C29.8183,34.347 29.7918,34.4069 29.76,34.464 C29.7224,34.5328 29.673,34.5944 29.614,34.646 C29.5904,34.6747 29.5575,34.6942 29.521,34.701 C29.4833,34.6884 29.4491,34.6671 29.421,34.639 C29.377,34.6023 29.3317,34.5667 29.285,34.532 C29.2498,34.5056 29.2164,34.4769 29.185,34.446 C29.1625,34.4293 29.1471,34.4046 29.142,34.377 C29.1707,34.3177 29.192,34.272 29.206,34.24 C29.254,34.14 29.289,34.066 29.313,34.02 C29.356,33.951 29.399,33.88 29.442,33.807 L29.485,33.745 C29.4982,33.758 29.5126,33.7697 29.528,33.78 L29.585,33.814 C29.6575,33.8668 29.7246,33.9267 29.785,33.993 C29.8191,34.0343 29.8418,34.0839 29.851,34.137 L29.85,34.137 Z M22.911,33.337 C22.9021,33.2842 22.8797,33.2346 22.846,33.193 C22.7856,33.1266 22.7186,33.0667 22.646,33.014 L22.589,32.98 C22.5735,32.9702 22.5591,32.9588 22.546,32.946 L22.503,33.008 C22.46,33.081 22.417,33.152 22.374,33.221 C22.35,33.267 22.314,33.34 22.267,33.441 C22.253,33.473 22.231,33.519 22.202,33.578 C22.2071,33.6056 22.2225,33.6303 22.245,33.647 C22.274,33.675 22.308,33.704 22.345,33.737 L22.481,33.844 C22.5095,33.8707 22.5437,33.8906 22.581,33.902 C22.6175,33.8952 22.6504,33.8757 22.674,33.847 C22.7331,33.7955 22.7825,33.7338 22.82,33.665 C22.8517,33.6079 22.8782,33.5479 22.899,33.486 C22.9154,33.4384 22.9191,33.3875 22.91,33.338 L22.911,33.337 Z M19.561,30.927 L19.561,24.427 L16.761,21.627 L10.531,21.631 C8.989,21.631 8.659,22.2 8.647,23.114 C7.507,22.539 6.599,23.402 6.047,24.839 L12.972,24.839 L16.931,30.927 L19.561,30.927 Z M23.6,30.923 L23.6,23.506 L20.815,21.48 L20.815,11.049 L19.544,8.849 L14.679,8.841 L13.579,9.941 L15.287,9.941 L17.157,13.18 L17.157,20.891 L20.357,24.091 L20.357,30.923 L23.6,30.923 Z M15.976,30.923 L12.537,25.635 L10.909,25.635 L14.34,30.923 L15.976,30.923 Z M34.418,9.95 L33.318,8.85 L28.456,8.85 L27.185,11.05 L27.185,21.481 L24.4,23.506 L24.4,30.923 L27.643,30.923 L27.64,24.1 L30.84,20.9 L30.84,13.189 L32.71,9.95 L34.418,9.95 Z M31.069,30.923 L35.028,24.835 L41.954,24.831 C41.405,23.394 40.497,22.528 39.354,23.106 C39.343,22.192 39.012,21.623 37.47,21.623 L31.243,21.623 L28.443,24.423 L28.443,30.923 L31.069,30.923 Z M33.66,30.923 L37.096,25.635 L35.467,25.635 L32.028,30.923 L33.66,30.923 Z M37.467,29.492 L37.466,28.582 L36.133,28.582 L35.542,29.492 L37.467,29.492 Z M12.458,29.492 L11.867,28.582 L10.534,28.582 L10.534,29.492 L12.458,29.492 Z M25.079,3.4 L25.08,0.8 L22.921,0.8 L22.921,3.4 L20.1,3.4 L20.091,8.2 L21.615,10.836 L21.615,21.072 L23.6,22.516 L23.6,20.142 L22.888,19.624 L22.888,4.836 L25.112,4.836 L25.112,19.625 L24.4,20.143 L24.4,22.517 L26.385,21.077 L26.385,10.84 L27.909,8.2 L27.9,3.4 L25.079,3.4 Z M32.442,20.827 L32.442,13.585 L34.081,10.746 L33.174,10.746 L31.642,13.4 L31.642,20.827 L32.442,20.827 Z M13.942,20.827 L14.742,20.827 L14.742,18.442 L13.942,18.442 L13.942,20.827 Z M14.83,10.746 L13.923,10.746 L15.562,13.585 L15.562,20.827 L16.362,20.827 L16.362,13.4 L14.83,10.746 Z M33.262,20.827 L34.062,20.827 L34.062,18.442 L33.262,18.442 L33.262,20.827 Z" id="Shape"></path>
                </g>
            </g>
        </g>
    </g>
</svg>