<?xml version="1.0" encoding="UTF-8"?>
<svg width="48px" height="48px" viewBox="0 0 48 48" version="1.1" xmlns="http://www.w3.org/2000/svg" xmlns:xlink="http://www.w3.org/1999/xlink">
    <!-- Generator: Sketch 56 (81588) - https://sketch.com -->
    <title>Bank/Mono/Khavar_Mianeh</title>
    <desc>Created with Sketch.</desc>
    <g id="Ready-For-Export" stroke="none" stroke-width="1" fill="none" fill-rule="evenodd">
        <g id="Artboard" transform="translate(-1640.000000, -184.000000)" fill="#FFFFFF">
            <g id="Banks_(Mono)" transform="translate(80.000000, 184.000000)">
                <g id="Bank-/-Khavar-Mianeh-/-Mono" transform="translate(1560.000000, 0.000000)">
                    <path d="M0,25.8410054 L25.9013568,15.6953825 C26.4253562,17.7587729 27.6812957,19.5512969 29.3957346,20.7551797 L13.3511146,47.9965677 L6.58974955,47.9965677 L20.9805681,27.1286938 L0,48 L0,37.5351722 L17.9715762,23.469279 L0,32.509126 L0,25.8410054 Z M29.89771,21.0829654 C31.0420994,21.775434 32.3615367,22.218202 33.7862314,22.3277499 C34.710667,22.3989703 35.6127925,22.3248896 36.470584,22.1249575 L43.2960189,47.9965677 L38.0022525,47.9965677 L34.3631456,30.550993 L34.124314,47.9965677 L28.7178534,47.9965677 L29.9729348,30.9036629 L25.1116395,47.9965677 L18.5613615,47.9965677 L29.89771,21.0829654 Z M37.1393125,21.9407569 C39.3751765,21.2291246 41.2466437,19.6462575 42.3200987,17.5631313 L47.9965677,20.9579721 L47.9965677,24.1388655 L44.3651835,22.3331844 L47.9965677,27.1936216 L47.9965677,31.3258371 L42.1928172,25.9416865 L47.9965677,35.9485869 L47.9965677,47.9965677 L47.9508036,47.88988 L37.1393125,21.9407569 Z M42.5966857,16.973346 C42.9616547,16.1138383 43.1953378,15.18168 43.2708486,14.1994673 C43.3786803,12.802231 43.1541501,11.4559073 42.6650459,10.2377232 L47.9965677,8.9483187 L47.9965677,11.2759971 L44.8156742,12.138079 L47.9965677,12.747028 L47.9965677,15.0809989 L45.4841166,15.1791058 L47.9965677,16.1092619 L47.9965677,19.2412449 L42.5966857,16.973346 Z M42.4668299,9.78093995 C41.5306673,7.78333542 39.8642807,6.17844438 37.7854449,5.33495415 L40.7097731,0 L43.9587408,0 L40.5241424,5.60238832 L45.6923434,0 L47.9965677,0 L47.9965677,2.4741236 L42.2251381,7.11203275 L47.9965677,4.2246018 L47.9965677,7.70753857 L42.4668299,9.78093995 Z M37.3687052,5.17821198 C36.6653676,4.93365988 35.9199843,4.77462951 35.142852,4.7148501 C33.8666047,4.61645721 32.6326892,4.79493734 31.5003128,5.19937789 L30.2449454,0 L32.8211802,0 L33.4175441,2.21469815 L33.5007776,0 L35.8676415,0 L35.69574,2.84967554 L36.5784158,0 L39.3540106,0 L37.3687052,5.17821198 Z M31.0526824,5.37242353 C29.3156474,6.10178945 27.8491929,7.37346038 26.8809954,8.99093656 L11.1987701,0 L19.1485726,0 L24.2930335,3.64883176 L20.9576861,0 L24.9926527,0 L27.0134253,2.51102093 L25.8942062,0 L28.9486762,0 L31.0526824,5.37242353 Z M26.6215699,9.45429843 C26.0904199,10.4774129 25.7520513,11.6215163 25.6579488,12.8431327 C25.5970253,13.6337081 25.6427895,14.4076941 25.7820841,15.1516473 L0,22.086058 L0,15.9639607 L16.8457784,13.6954897 L0,12.6197465 L0,7.56538372 L18.0227748,9.9065053 L0,4.7148501 L0,0 L5.74311303,0 L26.6215699,9.45429843 Z" id="Shape"></path>
                </g>
            </g>
        </g>
    </g>
</svg>