<?xml version="1.0" encoding="UTF-8"?>
<svg width="48px" height="48px" viewBox="0 0 48 48" version="1.1" xmlns="http://www.w3.org/2000/svg" xmlns:xlink="http://www.w3.org/1999/xlink">
    <!-- Generator: Sketch 56.2 (81672) - https://sketch.com -->
    <title>Bank/Mono/Kosar</title>
    <desc>Created with Sketch.</desc>
    <g id="Ready-For-Export" stroke="none" stroke-width="1" fill="none" fill-rule="evenodd">
        <g id="Artboard" transform="translate(-1744.000000, -184.000000)" fill="#FFFFFF">
            <g id="Banks_(Mono)" transform="translate(80.000000, 184.000000)">
                <g id="Bank-/-Kosar-/-Mono" transform="translate(1664.000000, 0.000000)">
                    <path d="M37.1744082,37.7029012 C33.8627082,40.8891012 29.4415082,42.6707012 24.8459082,42.6707012 C17.5069082,42.6707012 10.8889082,38.1271012 8.25190815,31.2782012 C8.20180815,31.1429012 8.08590815,31.0422012 7.94500815,31.0115012 C7.80510815,30.9760012 7.65640815,31.0144012 7.55120815,31.1131012 L0.14230815,37.8743012 C0.0544081503,37.9525012 0.00300815029,38.0638012 0.00040815029,38.1813012 C-0.00479184971,38.2985012 0.0389081503,38.4129012 0.12110815,38.4967012 C4.88080815,43.5224012 11.5060082,46.3728012 18.4279082,46.3728012 C26.0847082,46.3728012 33.3390082,42.8850012 38.1206082,36.9048012 C38.1301082,36.8936012 38.1353082,36.8793012 38.1353082,36.8646012 C38.1353082,36.8304012 38.1072082,36.8023012 38.0730082,36.8023012 C38.0547082,36.8023012 38.0372082,36.8104012 38.0254082,36.8244012 C37.7530082,37.1207012 37.4693082,37.4136012 37.1744082,37.7029012 Z M27.7481082,14.2101012 C35.3329082,16.4027012 40.5915082,23.3968012 40.5915082,31.2922012 C40.5915082,35.3597012 39.1958082,39.3066012 36.6388082,42.4700012 C36.5461082,42.5811012 36.5165082,42.7323012 36.5605082,42.8701012 C36.5999082,43.0091012 36.7079082,43.1186012 36.8463082,43.1601012 L46.4060082,46.1935012 C46.4483082,46.2068012 46.4924082,46.2135012 46.5367082,46.2135012 C46.7296082,46.2135012 46.9008082,46.0861012 46.9564082,45.9014012 C47.6485082,43.5709012 48.0000082,41.1525012 48.0000082,38.7214012 C48.0000082,26.3138012 38.8436082,15.6571012 26.5775082,13.7888012 C26.5463082,13.7834012 26.5158082,13.8028012 26.5076082,13.8333012 C26.5061082,13.8387012 26.5054082,13.8443012 26.5054082,13.8498012 C26.5054082,13.8791012 26.5257082,13.9048012 26.5542082,13.9116012 C26.9550082,13.9963012 27.3529082,14.0958012 27.7481082,14.2101012 Z M24.2645082,20.0007012 C29.0545082,19.2198012 33.5773082,22.4746012 34.3583082,27.2645012 C35.1392082,32.0545012 31.8844082,36.5774012 27.0945082,37.3583012 C22.3045082,38.1393012 17.7816082,34.8845012 17.0007082,30.0945012 C16.2197082,25.3045012 19.4745082,20.7817012 24.2645082,20.0007012 Z M12.1173082,34.1212012 C11.7725082,32.7257012 11.5982082,31.2935012 11.5982082,29.8560012 C11.5982082,20.1013012 19.6250082,12.0745012 29.3797082,12.0745012 C30.3042082,12.0745012 31.2273082,12.1466012 32.1405082,12.2901012 C32.1618082,12.2932012 32.1833082,12.2948012 32.2047082,12.2948012 C32.4463082,12.2948012 32.6450082,12.0961012 32.6450082,11.8545012 C32.6450082,11.8245012 32.6420082,11.7945012 32.6359082,11.7651012 L30.4830082,1.97050116 C30.4590082,1.85580116 30.3885082,1.75610116 30.2883082,1.69530116 C30.1894082,1.63120116 30.0681082,1.61120116 29.9538082,1.64020116 C18.6456082,4.34300116 10.6028082,14.5345012 10.6028082,26.1613012 C10.6028082,29.3020012 11.1897082,32.4153012 12.3332082,35.3405012 C12.3449082,35.3697012 12.3767082,35.3861012 12.4073082,35.3786012 C12.4343082,35.3716012 12.4533082,35.3470012 12.4533082,35.3191012 C12.4533082,35.3120012 12.4521082,35.3049012 12.4496082,35.2981012 C12.3268082,34.9129012 12.2146082,34.5170012 12.1173082,34.1212012 Z" id="Shape"></path>
                </g>
            </g>
        </g>
    </g>
</svg>