<?xml version="1.0" encoding="UTF-8"?>
<svg width="48px" height="48px" viewBox="0 0 48 48" version="1.1" xmlns="http://www.w3.org/2000/svg" xmlns:xlink="http://www.w3.org/1999/xlink">
    <!-- Generator: Sketch 56 (81588) - https://sketch.com -->
    <title>Bank/Mono/Mehr_Eghtesad</title>
    <desc>Created with Sketch.</desc>
    <g id="Ready-For-Export" stroke="none" stroke-width="1" fill="none" fill-rule="evenodd">
        <g id="Artboard" transform="translate(-1952.000000, -184.000000)" fill="#FFFFFF">
            <g id="Banks_(Mono)" transform="translate(80.000000, 184.000000)">
                <g id="Bank-/-Mehr-Eghtesad-/-Mono" transform="translate(1872.000000, 0.000000)">
                    <path d="M23.9782082,48 L18.6821942,42.6991802 L31.9632138,29.3482558 C35.8677496,25.4224787 42.5220542,27.0441084 45.0435087,32.7740537 C42.4012995,32.5378746 39.826665,32.1275634 37.6378858,34.3580549 L23.9782082,48 Z M5.29521429,18.7097883 L18.6306135,32.0062714 C22.5523429,35.915636 20.9325503,42.5766873 15.2086967,45.1014019 C15.4446083,42.4561959 15.8548544,39.8786413 13.6268899,37.6873796 L3.33955086e-13,24.011809 L5.29521429,18.7097883 Z M24.0561789,1.56319402e-13 L29.3513932,5.30122009 L16.0699738,18.6517442 C12.1662377,22.5775213 5.51193303,20.9558916 2.98927902,15.2263466 C5.63268774,15.4621254 8.20732225,15.8728369 10.3953018,13.6423454 L24.0561789,1.56319402e-13 Z M48,23.9765822 L42.7047857,29.2786029 L29.3693865,15.9825201 C25.448057,12.0735558 27.0678496,5.41170388 32.7909034,2.8873896 C32.5553917,5.53219525 32.1451456,8.1101502 34.3731101,10.3014119 L48,23.9765822 Z M16.5,24.0015571 C16.5,19.8599346 19.8582903,16.5 24.0005839,16.5 C28.1413204,16.5 31.5,19.8599346 31.5,24.0015571 C31.5,28.1443476 28.1413204,31.5 24.0001946,31.5 C19.8582903,31.5 16.5,28.1424011 16.5,24.0015571 Z" id="Shape"></path>
                </g>
            </g>
        </g>
    </g>
</svg>