<?xml version="1.0" encoding="UTF-8"?>
<svg width="48px" height="48px" viewBox="0 0 48 48" version="1.1" xmlns="http://www.w3.org/2000/svg" xmlns:xlink="http://www.w3.org/1999/xlink">
    <!-- Generator: Sketch 56 (81588) - https://sketch.com -->
    <title>Bank/Mono/Melall</title>
    <desc>Created with Sketch.</desc>
    <g id="Ready-For-Export" stroke="none" stroke-width="1" fill="none" fill-rule="evenodd">
        <g id="Artboard" transform="translate(-2160.000000, -184.000000)" fill="#FFFFFF">
            <g id="Banks_(Mono)" transform="translate(80.000000, 184.000000)">
                <g id="Bank-/-Melall-/-Mono" transform="translate(2080.000000, 0.000000)">
                    <path d="M23.2192562,15.0272799 C30.6441706,14.4725897 35.5316148,22.4896491 31.6137878,28.7962884 C27.5690569,35.3068653 17.6335546,33.9953369 15.393111,26.6549795 C13.7216617,21.1778343 17.5777169,15.4485768 23.2192562,15.0272799 Z M23.2884993,28.8267824 C23.255683,28.7409554 21.6105081,28.7035895 21.5585668,28.7875912 C21.4656946,28.9385937 23.134177,31.1489794 23.2750582,31.0616492 C23.3237464,31.0314415 23.335972,28.9511564 23.2884993,28.8267824 Z M29.7133752,28.8001538 C29.6930706,28.7669755 29.3419937,28.7481494 28.7425426,28.7481494 L27.803704,28.7481494 L27.6735471,29.0327959 C27.4956314,29.4224176 27.095902,30.0808662 26.7209457,30.6032728 C26.3242191,31.1555292 26.3618256,31.1695951 27.1770848,30.7733878 C28.2192338,30.2665503 29.8402434,29.0055947 29.7133752,28.8001538 Z M19.9130702,28.7481494 L19.1034949,28.7481494 C18.4508871,28.7481494 18.2935978,28.7612847 18.2935978,28.8162956 C18.2935978,29.1341562 20.7256841,30.9408543 21.1534396,30.9408543 C21.2194296,30.9408543 21.1495788,30.8155497 20.7510291,30.2175165 C20.5154883,29.8640796 20.2304014,29.3889172 20.1178681,29.1616796 L19.9130702,28.7481494 Z M25.4301365,28.7481494 L24.7118605,28.7481494 L24.7118605,29.7680879 C24.7118605,30.5652627 24.7253016,30.7823714 24.773954,30.7611473 C24.9626297,30.6795078 26.2355294,28.8886652 26.1749372,28.7903113 C26.1606025,28.7669755 25.8254689,28.7481494 25.4301365,28.7481494 Z M23.2944691,24.7735497 L23.267015,24.6614162 L21.8030445,24.6614162 C20.9101416,24.6614162 20.3277421,24.6802423 20.3095108,24.7098415 C20.2360853,24.8288827 20.4784896,26.1849352 20.7083465,26.9390533 L20.8346427,27.3544088 L22.064252,27.3409514 L23.2938614,27.3277803 L23.3079102,26.1065885 C23.3153814,25.4349689 23.3094116,24.8351461 23.2944691,24.7735497 Z M18.3150821,27.3526193 C18.8778204,27.3526193 19.3381062,27.3358691 19.3381062,27.3152176 C19.3381062,27.2946019 19.2718659,27.0158968 19.1912552,26.6959603 C19.0589891,26.1720862 18.9148192,25.3252334 18.8790001,24.8608799 L18.865559,24.6862194 L17.7427992,24.6730841 C17.1254385,24.6656038 16.6048108,24.6748737 16.5860076,24.6936998 C16.4433391,24.8369357 16.7648527,26.2061593 17.1257603,26.9913799 L17.2920222,27.3526193 L18.3150821,27.3526193 Z M26.8881371,27.3526193 L27.0472496,26.8074853 C27.2520117,26.1050853 27.3899258,25.4188271 27.4087648,25.0103793 L27.4233856,24.6862194 L26.1015117,24.6730841 C25.3745848,24.6658901 24.7644094,24.67516 24.7456062,24.6936998 C24.7270889,24.7125617 24.7118605,25.3183615 24.7118605,26.0401961 L24.7118605,27.3526193 L26.8881371,27.3526193 Z M30.7220646,27.3526193 L30.900588,26.9253096 C31.1761303,26.2659662 31.5080822,24.9119896 31.4403406,24.7236211 C31.4152458,24.6539359 28.9159898,24.6297053 28.8748086,24.6987821 C28.8625829,24.7194335 28.8372022,24.8817819 28.8183989,25.0600215 C28.7589865,25.6251627 28.5912231,26.5856164 28.4905937,26.9375501 C28.437151,27.1244511 28.3935747,27.2942798 28.3935747,27.3149313 C28.3935747,27.3358691 28.9174912,27.3526193 29.5578375,27.3526193 L30.7220646,27.3526193 Z M23.2884993,20.5041388 C23.255683,20.4185981 21.0752239,20.382127 20.945067,20.4649475 C20.7537459,20.5869593 20.1895062,23.073008 20.3089389,23.2667809 C20.3662422,23.3591935 23.2526802,23.330489 23.2884993,23.2368953 C23.3049074,23.1935165 23.3186702,22.5787331 23.3186702,21.8706423 C23.3186702,21.1622652 23.3049074,20.5474818 23.2884993,20.5041388 Z M18.3703121,20.4251837 L17.3989075,20.4251837 L17.2054416,20.8115126 C16.8600485,21.5010636 16.4695778,22.9788416 16.5663107,23.2314909 C16.5964817,23.310446 16.6964676,23.3164231 17.7308595,23.3041468 L18.8625562,23.2910114 L18.920503,22.76771 C18.9894601,22.1439788 19.1026012,21.5698541 19.2706505,20.9888574 C19.3384279,20.7544258 19.3822902,20.5316621 19.3676695,20.4939741 C19.3467929,20.4389632 19.1491803,20.4251837 18.3703121,20.4251837 Z M26.8615409,20.6246474 L26.7764617,20.450309 L25.7677723,20.4368515 C24.9823266,20.4260784 24.7536494,20.43746 24.7345602,20.4873886 C24.7211191,20.5223922 24.7160429,21.1676697 24.7235142,21.9211793 L24.7366335,23.2910114 L26.0689814,23.3041468 C27.2006782,23.3155283 27.4051543,23.3065448 27.4290337,23.244662 C27.5084648,23.0368232 27.085428,21.0833459 26.8615409,20.6246474 Z M31.45346,23.2910114 L31.4373378,23.0915477 C31.3883994,22.4914387 31.0788254,21.4032824 30.7922371,20.8235026 L30.6077438,20.450309 L28.3323749,20.4233941 L28.3595431,20.5612614 C28.3744855,20.63721 28.4446223,20.9236461 28.5150808,21.1978773 C28.633298,21.6559674 28.7336057,22.2294837 28.8294449,22.9919769 L28.8667297,23.2910114 L31.45346,23.2910114 Z M23.3186702,17.9322632 C23.3186702,17.3763919 23.2983656,16.9299339 23.2723771,16.9140784 C23.1494054,16.8378434 21.5728659,18.9019868 21.6540844,19.0332684 C21.7087067,19.1217798 23.2538599,19.0909637 23.2884993,19.0009491 C23.3049074,18.9576061 23.3186702,18.4767887 23.3186702,17.9322632 Z M28.6449517,19.0796179 C29.2315337,19.0796179 29.5435028,19.0613644 29.5655948,19.025466 C29.6790218,18.8415714 28.0538655,17.5830138 27.2224842,17.2107149 C26.3065956,16.8004775 26.3116717,16.7968626 26.8054172,17.5004795 C27.0203674,17.8069586 27.3227561,18.2878118 27.4774001,18.5688792 L27.7580186,19.0796179 L28.6449517,19.0796179 Z M19.9838147,19.0796179 L20.1647331,18.7183785 C20.3289218,18.391248 20.9429936,17.4260341 21.1110787,17.231939 C21.1486851,17.188596 21.1791421,17.1269996 21.1791421,17.094716 C21.1791421,17.0049878 21.143895,17.0181589 20.5471607,17.3306151 C19.7103815,17.7686979 18.3252344,18.8795457 18.4213596,19.0353443 C18.4362664,19.0598612 18.7939209,19.0796179 19.2163142,19.0796179 L19.9838147,19.0796179 Z M25.0766645,17.5333715 C24.6972397,17.0710939 24.707678,17.0534489 24.7232282,18.1203453 L24.7366335,19.0547789 L25.3793749,19.0688448 C25.7328112,19.0766115 26.0423852,19.0625456 26.067194,19.0377423 C26.1191353,18.9857021 25.5110333,18.0620416 25.0766645,17.5333715 Z M36.1144704,37.505664 C35.267136,43.4354304 30.162432,48 24,48 C17.837568,48 12.732864,43.4354304 11.8855296,37.505664 C15.0931968,40.418496 19.3421952,42.1928832 24,42.1928832 C28.6578048,42.1928832 32.9068032,40.418496 36.1144704,37.505664 Z M37.4884608,11.8830336 C43.42656,12.7229184 48,17.8315776 48,24 C48,30.1684224 43.42656,35.2770816 37.4884608,36.1169664 C40.349184,32.8987392 42.089088,28.6521216 42.089088,24 C42.089088,19.3478784 40.349184,15.1012608 37.4884608,11.8830336 Z M10.5115392,11.8830336 C7.6509696,15.1012608 5.9110656,19.3478784 5.9110656,24 C5.9110656,28.6521216 7.6509696,32.8987392 10.5115392,36.1169664 C4.57344,35.2770816 3.21520588e-13,30.1684224 3.21520588e-13,24 C3.21520588e-13,17.8315776 4.57344,12.7229184 10.5115392,11.8830336 Z M11.8855296,10.494336 C12.732864,4.564608 17.837568,-1.20792265e-13 24,-1.20792265e-13 C30.162432,-1.20792265e-13 35.267136,4.564608 36.1144704,10.494336 C32.9068032,7.581696 28.6578048,5.807232 24,5.807232 C19.3421952,5.807232 15.0931968,7.581696 11.8855296,10.494336 Z M16.2753124,10.5664974 C17.0788381,9.67236079 17.9534043,9.19225192 19.0388615,9.04973142 C20.3775542,8.87394353 21.4289467,9.16465512 22.1699385,9.91430541 C22.7161832,10.4673379 22.8036323,10.6659971 23.1954328,12.2470674 C23.6535479,14.0940878 23.6409202,14.1291319 22.4588645,14.3189451 C21.0933283,14.5381318 19.6719125,15.0936971 18.6097826,15.8229711 C18.3682674,15.9887788 18.0557117,16.2028998 17.915521,16.2986191 C17.3336237,16.6959376 17.1669299,16.5831687 16.374444,15.2538342 C15.3783263,13.5833578 15.3265298,13.4440884 15.3672864,12.5385729 C15.402939,11.7524419 15.6056258,11.3118758 16.2753124,10.5664974 Z M24.847324,12.1564138 C25.4187864,9.94492652 26.0401549,9.2489577 27.6162795,9.05351181 C29.5466239,8.81496953 31.1900084,9.57974136 32.2407582,11.2057604 C33.0471194,12.4539301 32.7774754,13.6351491 31.1110661,16.1545865 C30.8427075,16.5601083 30.4398293,16.5746628 29.9476117,16.1959439 C28.7026819,15.2386749 27.1493174,14.5735162 25.5643458,14.3189451 C24.3724601,14.1275442 24.3529136,14.0684946 24.847324,12.1564138 Z M9.36653429,21.4117029 C8.37136173,19.2996776 9.65984592,16.1915586 11.8383596,15.4490155 C12.8509237,15.104131 13.4340687,15.2563671 15.2416139,16.3374437 C16.7125955,17.2170636 16.7589855,17.3118 16.1363694,18.159816 C15.1623691,19.486353 14.517333,21.0500335 14.3067445,22.5945097 C14.1703345,23.5950641 14.0484805,23.627273 12.1755659,23.1538554 C10.3885503,22.702175 9.80381739,22.3392959 9.36653429,21.4117029 Z M32.7815964,16.3374437 C33.9924237,15.6132354 34.2361317,15.4887851 34.6412405,15.388983 C37.1259961,14.7747082 39.5272346,17.8149315 38.8776994,20.7528574 C38.5797752,22.1014719 37.8998805,22.6380597 35.831198,23.1566907 C33.9763176,23.6216024 33.8604372,23.5925312 33.7186586,22.623543 C33.4837598,21.0168795 32.8396689,19.4547489 31.8745156,18.1487772 C31.2629393,17.3212888 31.3169286,17.2135857 32.7815964,16.3374437 Z M9.93769423,25.8296117 C10.4580029,25.3065955 10.629763,25.2314036 12.2507275,24.8138601 C14.0213347,24.3577945 14.1735104,24.3988495 14.3026235,25.369123 C14.5050077,26.8905011 15.1911029,28.5615823 16.1319459,29.8243064 C16.5250318,30.3523884 16.5866205,30.6461243 16.3640091,30.9341518 C16.234896,31.1012448 14.0702577,32.3686944 13.6730885,32.5101942 C10.4005353,33.673721 7.42605744,28.3534344 9.93769423,25.8296117 Z M33.7227796,25.3286729 C33.7915895,24.8501896 33.8957874,24.6654422 34.1632008,24.548893 C34.2522378,24.5100306 34.3387794,24.4771791 34.355188,24.4761518 C34.4833558,24.4673879 37.1285292,25.175832 37.3703846,25.2835351 C39.4591808,26.2152487 39.5608834,29.7112351 37.55447,31.6223708 C36.0651517,33.0404687 35.1204901,33.0543806 32.8339978,31.6921567 C31.3052461,30.7809706 31.2572682,30.6900145 31.8672566,29.8584055 C32.8545273,28.5126264 33.4875405,26.9672429 33.7227796,25.3286729 Z M15.8651752,33.5900233 C16.4805323,32.5190025 17.0437904,31.6469811 17.1574401,31.5891791 C17.4229632,31.4546352 17.7229289,31.5415084 18.1914789,31.8889258 C19.4442727,32.8184468 20.9588088,33.4422102 22.5977697,33.7043421 C23.2488172,33.8082649 23.5108619,33.993655 23.511467,34.3508635 C23.5118071,34.5852096 22.8693042,37.0430645 22.7291135,37.3443612 C21.7576085,39.4282604 18.3865663,39.5741833 16.4521009,37.6159818 C15.1752993,36.3238841 14.9972253,35.1009674 15.8651752,33.5900233 Z M25.5113017,33.6869901 C27.0425865,33.4602049 28.7108862,32.7508535 29.9532829,31.7982721 C30.5058036,31.3747556 30.841422,31.4218214 31.1871728,31.9710357 C32.3897581,33.8802812 32.6780413,34.5207918 32.6761601,35.2797418 C32.6688918,38.2915744 28.0058872,40.2257326 25.8668069,38.1042563 C25.3326228,37.5742842 25.2255894,37.3333224 24.8299703,35.768659 C24.3636509,33.9235288 24.3866758,33.8534405 25.5113017,33.6869901 Z" id="Shape"></path>
                </g>
            </g>
        </g>
    </g>
</svg>