<?xml version="1.0" encoding="UTF-8"?>
<svg width="48px" height="48px" viewBox="0 0 48 48" version="1.1" xmlns="http://www.w3.org/2000/svg" xmlns:xlink="http://www.w3.org/1999/xlink">
    <!-- Generator: Sketch 56 (81588) - https://sketch.com -->
    <title>Bank/Mono/Mellat</title>
    <desc>Created with Sketch.</desc>
    <g id="Ready-For-Export" stroke="none" stroke-width="1" fill="none" fill-rule="evenodd">
        <g id="Artboard" transform="translate(-2264.000000, -184.000000)" fill="#FFFFFF">
            <g id="Banks_(Mono)" transform="translate(80.000000, 184.000000)">
                <g id="Bank-/-Mellat-/-Mono" transform="translate(2184.000000, 0.000000)">
                    <path d="M23.1842583,0.256947118 L14.1159978,5.46578697 L11.4970039,6.97005975 L11.4316898,7.00697744 C10.2976006,7.67198808 9.53659309,8.89913208 9.53659309,10.303481 L9.53659309,12.3014663 L9.53659309,33.7737789 L9.53659309,33.9475382 L9.6875081,33.8609047 L15.7607241,30.3729214 L15.8393978,30.3276357 L15.8027824,30.2454323 L15.8022876,30.2444478 L15.8027824,30.2444478 L15.8008032,30.2395255 L15.7607241,30.1445239 L15.723119,30.0509991 L15.7176762,30.0372165 L15.7171814,30.0372165 L15.6800711,29.9412305 L15.6439505,29.8447523 L15.6439505,29.8442601 L15.6429609,29.8408144 L15.6419713,29.8398299 L15.6063455,29.7413828 L15.5717092,29.6404744 L15.5707196,29.637521 L15.5702248,29.637521 L15.537073,29.5375971 L15.5039212,29.4337354 L15.5034264,29.4317664 L15.5024368,29.4297975 L15.4935303,29.4007556 L15.4846238,29.3726981 L15.4851186,29.3722059 C15.4707693,29.3239668 15.4559252,29.2747432 15.4420707,29.2255196 L15.4415759,29.2255196 L15.4410811,29.2240429 L15.4123825,29.1201811 L15.3841788,29.0143504 L15.3831892,29.0109048 L15.3831892,29.0094281 L15.3683451,28.9498675 L15.3678502,28.9498675 L15.3530061,28.8907992 C15.328266,28.7903831 15.3059998,28.6889825 15.2847233,28.5870897 L15.2842285,28.585613 L15.2842285,28.5846285 L15.2629519,28.4778133 L15.2436546,28.3739516 L15.2441494,28.3739516 L15.2436546,28.3709981 L15.2436546,28.3700137 L15.242665,28.3670603 L15.242665,28.3645991 L15.2233677,28.2577839 L15.2065444,28.1509687 L15.2060496,28.1504765 L15.2065444,28.1504765 C15.1837834,28.0018212 15.1644861,27.8546427 15.1501368,27.7084487 L15.149642,27.7040186 L15.1392511,27.5976956 L15.1298499,27.4844814 L15.121933,27.3717594 L15.1159954,27.2644519 L15.1159954,27.2639597 L15.1155006,27.260514 L15.1155006,27.2590373 L15.1100577,27.1453309 L15.1065941,27.03507 L15.1070889,27.03507 L15.1065941,27.0326088 L15.1065941,27.0316244 L15.1046149,26.9174257 L15.1036253,26.8042114 L15.1046149,26.6944428 L15.1065941,26.5851664 L15.1090681,26.5113311 L15.1100577,26.4901649 L15.1145109,26.3661215 L15.1189642,26.2903172 L15.1204486,26.2735812 L15.1214382,26.260783 L15.1283654,26.15003 L15.1367771,26.0515828 L15.1362823,26.0515828 L15.1466732,25.9344306 L15.1575588,25.8330301 L15.1709185,25.7173546 L15.1832886,25.6223531 L15.1996171,25.505201 L15.2001119,25.505201 L15.214956,25.407246 L15.2342534,25.2910784 L15.2347482,25.2910784 L15.2510767,25.1990303 L15.2505819,25.1990303 L15.2733428,25.0813859 L15.272848,25.0813859 L15.2921453,24.9868766 L15.2926401,24.9868766 C15.3035258,24.9337151 15.3104531,24.9007353 15.3178751,24.86874 L15.3183699,24.86874 L15.3371724,24.7845677 L15.3668606,24.6639699 L15.3673554,24.6639699 L15.3896216,24.574383 L15.416341,24.4759358 L15.4158462,24.4759358 L15.4247526,24.4444327 L15.4435552,24.3765042 L15.4623577,24.3125135 L15.4628525,24.3125135 L15.4826446,24.2470461 L15.4821498,24.2470461 L15.5108484,24.1545058 L15.5400418,24.0624577 L15.56973,23.9728708 L15.56973,23.973363 L15.5821001,23.937922 L15.5821001,23.9374298 C15.599913,23.8862372 15.6177259,23.8360292 15.6390025,23.7774531 L15.6672063,23.7031255 L15.6677011,23.7011566 L15.6726491,23.6878662 L15.6726491,23.687374 C15.6835348,23.6593165 15.6949152,23.6287979 15.7137178,23.581051 L15.7518176,23.487034 L15.7884331,23.397447 L15.8423666,23.2734036 L15.874034,23.2015372 L15.9180715,23.1050589 L15.9586454,23.0179332 L16.0066413,22.919486 L16.0066413,22.9199783 L16.052658,22.8284224 L16.052658,22.8279301 L16.1011488,22.7339131 L16.1446915,22.6512175 L16.1446915,22.6507252 L16.1724005,22.6005172 L16.1991198,22.5508014 L16.1996146,22.5508014 L16.2446417,22.4705669 L16.2486002,22.4631834 C16.2634443,22.4370949 16.2777936,22.4110064 16.3015441,22.3716275 L16.3465712,22.2953309 L16.347066,22.2938542 L16.3554777,22.2795794 L16.3554777,22.2800716 L16.4054528,22.1978682 L16.4519643,22.1235406 L16.4514695,22.1235406 L16.485611,22.0703792 L16.5192576,22.0172177 L16.5197524,22.0172177 L16.5360809,21.9926059 L16.5360809,21.9916214 L16.5924885,21.9069569 L16.5924885,21.9074491 L16.6503805,21.8222923 C16.7488463,21.6780672 16.8517654,21.53778 16.9576533,21.4019229 L16.9848675,21.3669741 L16.9843727,21.3669741 L17.0293998,21.3098748 L17.0298946,21.3098748 L17.0773957,21.2517909 L17.1105476,21.2104431 L17.1100527,21.2104431 L17.1550799,21.1562972 L17.2010966,21.1021512 L17.2015914,21.1021512 L17.2436496,21.0524354 L17.2832339,21.0066575 L17.2832339,21.0071497 L17.3243026,20.9608795 L17.3802154,20.8983656 L17.4232633,20.8511109 L17.4663111,20.8043485 L17.5143071,20.753156 L17.5632926,20.7014712 L17.6127729,20.6502787 L17.6469144,20.6158222 L17.7038167,20.5582306 L17.7612139,20.5016235 L17.7829853,20.4804573 L17.8418669,20.4238502 L17.9017381,20.3677353 L17.9329107,20.3386934 L17.9324159,20.3386934 L17.9932767,20.2825785 L17.9937715,20.2825785 L18.0556219,20.2264636 L18.0660128,20.2176034 L18.1342956,20.1565661 L18.2050525,20.0960211 L18.2124746,20.0896221 L18.213959,20.0886376 C18.2584913,20.0502432 18.3015392,20.01431 18.3391442,19.9837914 C18.3762545,19.9532727 18.4188075,19.9193085 18.4663087,19.8814063 C18.6864961,19.707647 18.9136109,19.5442247 19.1491372,19.3926161 L19.149632,19.3926161 L19.1585385,19.3857248 L19.2372122,19.336009 L19.3153912,19.2867854 L19.3262768,19.2803863 L19.4034662,19.2336239 L19.4034662,19.2331317 L19.4796659,19.187846 L19.4796659,19.1883382 L19.5029216,19.1745556 L19.5034164,19.1745556 L19.5241982,19.1622497 L19.5459695,19.1499438 C19.5840694,19.1277932 19.62019,19.1071193 19.6523522,19.0893988 L19.6775872,19.0756162 L19.7508181,19.0352529 L19.8255334,18.9953818 L19.8596748,18.9776613 L19.9368641,18.9377902 L19.9368641,18.9372979 L20.0130638,18.8989035 L20.0130638,18.8984113 L20.0254339,18.8929967 L20.0259287,18.8929967 L20.1120245,18.8506644 L20.1120245,18.8501722 L20.1976255,18.8093166 L20.1981203,18.8088244 L20.2005943,18.8083321 C20.2758044,18.7728911 20.3520041,18.7379424 20.4286986,18.7049626 C20.5019295,18.6729673 20.5796136,18.6404797 20.6612562,18.6079921 L20.6612562,18.6074999 C21.0615521,18.4465388 21.4757025,18.3136351 21.9012333,18.2122345 L21.9086554,18.2102656 L21.9086554,18.2107578 L22.002668,18.1881149 L22.095691,18.167441 L22.1115247,18.1639954 L22.1115247,18.1644876 L22.2070218,18.144306 L22.304498,18.125601 L22.3099409,18.1246165 L22.3099409,18.1241243 L22.4034587,18.106896 L22.4034587,18.1073883 L22.4989557,18.0906522 L22.5236959,18.0862221 L22.6157293,18.0714551 L22.6157293,18.0719473 L22.7092472,18.0581647 L22.7092472,18.0576724 L22.7211224,18.0557035 L22.7216172,18.0557035 L22.8176091,18.0429054 L22.9121165,18.0305995 L22.9131061,18.0305995 L22.9200334,18.029615 L23.0076136,18.0182936 L23.0071188,17.9306756 L23.0071188,8.45316639 L23.0076136,8.45316639 C23.0076136,8.28974408 23.0407654,8.15930158 23.0956885,8.06134665 C23.1431897,7.97717431 23.2070193,7.91466036 23.2817346,7.87429702 C23.3574395,7.83344144 23.4445249,7.81276754 23.5360635,7.81276754 C23.6558059,7.81276754 23.7829704,7.84771628 23.9027128,7.91367589 L38.3059427,16.1960364 L38.4573525,16.2831622 L38.4573525,10.303481 C38.4573525,8.94195659 37.7408773,7.74582346 36.6622061,7.06850692 L24.830469,0.273683137 L24.830469,0.273190901 C24.5192377,0.0959859923 24.2609504,0.00393788686 24.0011786,0 L24.0006838,0 C23.9947462,0 23.9893033,0 23.9833657,0 C23.7290368,0 23.4791611,0.0851568034 23.1842583,0.256947118 Z M24.9947437,10.9207447 L24.9947437,17.8967113 L24.9947437,17.9872827 L25.0847979,17.9971274 L25.0857875,17.9971274 L25.0852927,17.9971274 L25.0912303,17.9981119 L25.1931598,18.0114023 L25.1936546,18.0114023 L25.2940997,18.0251849 L25.2936049,18.0251849 L25.308449,18.0281383 L25.308449,18.0276461 L25.4108733,18.0433976 L25.4113681,18.0429054 L25.5132976,18.0601336 L25.5132976,18.0606259 L25.5167612,18.0611181 L25.5177508,18.0611181 L25.6221543,18.0798231 L25.7270526,18.1000047 L25.7300214,18.100497 L25.8339301,18.1221553 L25.9403129,18.1447982 L25.9403129,18.1452904 L25.9432817,18.1457827 L25.9447661,18.1462749 L25.9744543,18.1531662 L26.0031529,18.1595653 C26.053128,18.1708867 26.1031031,18.1836848 26.1530783,18.1959907 L26.1530783,18.1954985 L26.1545627,18.1959907 L26.2599558,18.2230637 L26.3658437,18.2516134 L26.3663385,18.2516134 L26.3693073,18.2525978 L26.3702969,18.2535823 L26.4301681,18.2698261 L26.4885549,18.2865621 C26.5880104,18.3160963 26.6879607,18.3471071 26.7869213,18.3795947 L26.7884057,18.3800869 L26.7889005,18.3800869 L26.7898902,18.3805792 L26.8933041,18.4155279 L26.9937491,18.4509689 L26.9962231,18.4519534 L26.9967179,18.4524456 L27.0001816,18.4539223 L27.0021608,18.4544145 L27.1045851,18.4918245 L27.1050799,18.4918245 L27.2060198,18.5302189 L27.2070094,18.5307111 L27.2065146,18.5307111 C27.3475335,18.5853493 27.4850888,18.6429409 27.6191805,18.7025014 L27.6236338,18.7039781 L27.6236338,18.7044704 L27.7216048,18.7492638 L27.8245239,18.7975029 L27.9264534,18.8472188 L28.02294,18.8954579 L28.0234348,18.8959501 L28.0268985,18.8969346 L28.0283829,18.8979191 L28.1298176,18.9500961 L28.2272938,19.0027653 L28.2272938,19.0032575 L28.229273,19.0037498 L28.2302626,19.0037498 L28.3312025,19.0593724 L28.4301632,19.1149951 L28.5246706,19.1706177 L28.619178,19.2272248 L28.6820181,19.2661115 L28.7003258,19.2774329 L28.8057189,19.344377 L28.8700433,19.3857248 L28.883403,19.394585 L28.8932991,19.4019686 L28.8937939,19.4019686 L28.9066588,19.4103366 L28.9071536,19.4108288 L28.9868169,19.4634981 L29.0689543,19.5196129 L29.1654409,19.5870493 L29.2485679,19.647102 L29.3425805,19.7169995 L29.3425805,19.7165073 L29.4187802,19.7745911 L29.5127928,19.8479343 L29.590477,19.909956 L29.590477,19.9094637 L29.6820156,19.9842836 L29.6815208,19.9842836 L29.7537621,20.0448286 L29.8448059,20.1226019 L29.8453007,20.1221096 L29.917542,20.1865925 C29.9581158,20.2225258 29.9833508,20.2451686 30.0075962,20.2678114 L30.0714258,20.3258953 L30.16148,20.4125288 L30.2282784,20.4765195 L30.3000249,20.5483859 L30.3232807,20.571521 L30.3737506,20.621729 L30.3732558,20.621729 L30.4202621,20.6699681 L30.4197673,20.6704604 L30.4662788,20.7201762 L30.4667736,20.719684 L30.5335721,20.7905659 L30.5983913,20.8619401 L30.5988861,20.8619401 L30.6617262,20.9323299 L30.6612314,20.9323299 L30.6859715,20.9608795 L30.6864663,20.9608795 C30.7220922,21.0017351 30.7572232,21.0420985 30.7973023,21.0898453 L30.8477722,21.1513748 L30.848267,21.1518671 L30.8492566,21.1523593 L30.8581631,21.1636807 L30.8586579,21.1641729 C30.87845,21.1878003 30.8982421,21.2124121 30.9308992,21.2522832 L30.9937392,21.3320254 L31.0531156,21.4088142 L31.1223881,21.5013545 L31.1342633,21.5171061 L31.1812696,21.5801122 L31.2431201,21.6662535 L31.2436149,21.6662535 L31.298538,21.7450113 L31.2980432,21.7450113 L31.3598936,21.8350904 L31.416796,21.9207395 L31.4172908,21.9202472 L31.474688,22.0093419 L31.5246632,22.0885919 L31.5558358,22.1378155 L31.5850292,22.1855624 L31.6320355,22.2648123 L31.6364887,22.2721959 C31.6518276,22.2977921 31.6671665,22.3233884 31.6899275,22.3632595 L31.733965,22.4405405 L31.733965,22.441525 L31.7344598,22.441525 L31.7428714,22.4557998 L31.7893829,22.5394799 L31.7888881,22.5394799 L31.8304516,22.6172532 L31.8304516,22.616761 L31.8601398,22.6723836 L31.889828,22.7284985 L31.8893332,22.7289907 L31.9021981,22.7540948 L31.9026929,22.7550792 L31.9036825,22.7555715 L31.9487096,22.8461429 L31.9482148,22.8461429 L31.9937367,22.9386832 C32.0699364,23.0961987 32.1406933,23.2546986 32.2060073,23.4136908 L32.2228306,23.4540542 L32.2500448,23.5219827 L32.277259,23.591388 L32.2960615,23.6411038 L32.2960615,23.6406115 L32.3208017,23.7065712 L32.3450471,23.7735152 L32.3445523,23.7735152 L32.3668184,23.8345525 L32.3871053,23.8916518 L32.3866105,23.8916518 L32.4068975,23.9502279 L32.4331221,24.0294779 L32.4331221,24.0289856 L32.4529142,24.0905151 L32.4722115,24.1510601 L32.4924985,24.2180042 L32.5127854,24.2849483 L32.5325775,24.3538613 L32.5459372,24.4001315 L32.5672138,24.4788892 L32.5879955,24.555678 L32.5954175,24.5852122 L32.6157045,24.6649544 L32.6340122,24.7437121 L32.6439083,24.7845677 L32.6627108,24.8652944 L32.662216,24.8657866 L32.6800289,24.9474978 L32.6825029,24.9607881 L32.7013055,25.050375 L32.7191184,25.1409464 L32.7210976,25.1507912 L32.7210976,25.1527601 L32.7215924,25.1527601 L32.7210976,25.1527601 C32.7319833,25.2103517 32.7418793,25.2654821 32.7497962,25.3127368 C32.757713,25.3599914 32.7666195,25.4136451 32.7750312,25.4736979 C32.8160998,25.7498422 32.8447984,26.0279555 32.8601373,26.3060687 L32.8596425,26.306561 L32.8606321,26.3178824 L32.8650854,26.410915 L32.8680542,26.5024708 L32.868549,26.515269 L32.8705282,26.6053481 L32.8720126,26.6934583 L32.8720126,26.7200391 L32.8720126,26.7210235 L32.8720126,26.7446509 L32.8720126,26.7692627 C32.8725074,26.8135639 32.8720126,26.8549117 32.8715178,26.8913372 L32.871023,26.9198868 L32.8695386,27.0030747 L32.8665698,27.0877393 L32.8670646,27.0877393 L32.8655802,27.1256414 L32.8611269,27.2122749 L32.8616217,27.2122749 L32.8566737,27.2974317 L32.8561789,27.3107221 L32.8561789,27.3112143 L32.8497465,27.4072003 L32.8502413,27.4072003 L32.8428192,27.5007251 L32.8428192,27.5017096 L32.8428192,27.5041708 C32.8353972,27.5868664 32.8274803,27.669562 32.818079,27.7527499 C32.8091726,27.8319999 32.7982869,27.9146955 32.7864116,28.001329 L32.7869064,28.001329 C32.7265404,28.4266208 32.6350018,28.8499436 32.511301,29.2673596 L32.5108062,29.2678519 L32.508827,29.2747432 L32.4806232,29.366299 L32.481118,29.366299 L32.4524194,29.4573627 L32.4474714,29.472622 L32.4469765,29.472622 L32.4167935,29.5646701 L32.4162987,29.5646701 L32.3846313,29.6581949 L32.3831469,29.6631173 L32.3514795,29.752212 L32.3509847,29.752212 L32.3173381,29.8432756 L32.3089264,29.8664107 L32.2757746,29.9535364 L32.2757746,29.9530442 L32.2411384,30.0406622 L32.2411384,30.0411544 L32.2371799,30.0524758 L32.2366851,30.0524758 L32.2000697,30.1410783 L32.2005645,30.1415705 L32.1634542,30.2296807 L32.1629594,30.2296807 L32.1604854,30.236572 L32.126344,30.317791 L32.2030385,30.3616 L40.4538839,35.0998623 L40.4533891,35.1003546 C40.5958925,35.1820657 40.6923791,35.2750983 40.7507659,35.372561 C40.8002462,35.4547644 40.8220176,35.5413979 40.8200384,35.6260625 C40.818554,35.7112193 40.7918346,35.7963761 40.7463127,35.875626 C40.6859467,35.9789956 40.5929237,36.0710437 40.4756553,36.1414334 L26.0635189,44.4085346 L25.9116143,44.4951681 L26.0635189,44.5827861 L29.3782063,46.4867544 L31.11744,47.4850087 C32.3034836,48.1667554 33.7022926,48.147066 34.8314338,47.5563829 L46.6621812,40.7605747 L46.662676,40.7605747 C46.9729177,40.5809086 47.1822195,40.4046882 47.3153216,40.1826898 L47.3158164,40.1821976 C47.4494133,39.9597069 47.5028521,39.6983297 47.5,39.350319 L47.5,25.8502583 C47.488008,24.5409109 46.8002313,23.2709424 45.5780671,22.5690141 L43.8388335,21.5702675 L25.1461535,10.8341112 L24.9947437,10.7469855 L24.9947437,10.9207447 Z M7.47326323,19.6682682 L7.62467305,19.5811424 L7.62467305,19.7558862 L7.61576659,36.3053479 C7.6182406,36.4416973 7.65188723,36.5686941 7.71175843,36.6715714 C7.75826994,36.7508214 7.81913075,36.8157965 7.89186684,36.8596055 C7.96509773,36.9039067 8.05168832,36.9280263 8.14817496,36.9270418 C8.26148492,36.9250729 8.39112339,36.8881552 8.53313195,36.8069363 L8.53313195,36.8074285 L16.7839774,32.0681817 L16.8601771,32.0243727 L16.9141106,32.0942702 L16.9185639,32.0991925 L16.9185639,32.0996848 L16.9764559,32.1754891 L17.0358323,32.2517856 L17.0363271,32.2522779 L17.0432543,32.2616304 L17.0437491,32.2611381 L17.1026307,32.3349735 L17.1615123,32.4068399 L17.177346,32.4265294 L17.2396912,32.5003648 L17.2391964,32.5003648 L17.3010468,32.5722312 L17.3015416,32.5722312 L17.3050053,32.5766613 L17.3055001,32.5766613 L17.3703193,32.6504967 L17.4351385,32.7233476 L17.4346437,32.7233476 L17.4460242,32.7351613 L17.5108434,32.8050588 L17.5771471,32.8749562 L17.5820951,32.8803708 L17.5820951,32.8808631 C17.8834303,33.1963863 18.2060421,33.4868054 18.5464668,33.7511361 C18.6157393,33.8047898 18.6830325,33.8554901 18.7473569,33.9027447 C18.8146502,33.9519683 18.8829331,34.0006996 18.9517107,34.0479543 L18.9512159,34.0479543 L18.9531951,34.0489388 L18.9536899,34.049431 L19.0323637,34.1025925 L19.1125218,34.1557539 L19.1130166,34.1562462 L19.1239023,34.1636297 L19.1956488,34.2103921 L19.1961436,34.2103921 L19.2693745,34.2566623 L19.3020315,34.2773362 L19.373778,34.3216374 L19.4455244,34.3644619 L19.4455244,34.3649542 L19.4702646,34.3797213 C19.5014372,34.397934 19.5375579,34.4191001 19.5766473,34.4407585 L19.5974291,34.4530644 L19.6187056,34.4648781 L19.6192004,34.4653703 L19.6192004,34.4648781 L19.6424562,34.4781684 L19.6424562,34.4786607 L19.7196455,34.5219774 L19.7201403,34.5219774 L19.7998036,34.5648019 L19.7993088,34.5648019 L19.8106893,34.571201 L19.8923318,34.6140255 L19.8928266,34.6140255 L19.974964,34.6563578 L19.9853549,34.6612802 L19.9858497,34.6617724 C20.2357253,34.788277 20.4915387,34.902968 20.7527948,35.0048608 C20.8096972,35.0275036 20.8601671,35.0471931 20.905689,35.0634369 C20.9507161,35.0806651 21.0031653,35.0993701 21.0590781,35.1190595 L21.0590781,35.1195518 L21.0605625,35.120044 L21.0704585,35.1229974 L21.1580387,35.1530238 L21.2456189,35.1825579 L21.2584838,35.1864958 L21.3381471,35.2115999 L21.3381471,35.2120921 L21.4178105,35.2362117 L21.4583844,35.2490098 L21.5365633,35.2716526 L21.6157318,35.2942955 L21.64542,35.3021713 L21.7231041,35.3233374 L21.8017779,35.3440113 L21.8487842,35.355825 L21.9185514,35.3730532 L21.9868343,35.3897892 L22.055612,35.4050486 L22.118452,35.4188312 L22.181292,35.4326138 L22.2634294,35.4493498 L22.3242902,35.4611634 L22.3836666,35.4729771 L22.447991,35.4842985 L22.447991,35.4847908 L22.5182531,35.4970967 L22.5875255,35.5089103 L22.6404695,35.5167861 L22.71469,35.5281075 L22.71469,35.5285998 L22.7874261,35.5389367 L22.830474,35.5448435 C23.0016759,35.5679786 23.1753519,35.5861913 23.3500175,35.5989895 L23.4529365,35.6068653 L23.554866,35.6127721 L23.5558556,35.6122798 L23.55734,35.6122798 L23.585049,35.6142488 L23.585049,35.614741 L23.6488787,35.6172022 L23.7122135,35.6196634 L23.7997937,35.6226168 L23.8962803,35.6245857 L23.8957855,35.6245857 L23.9126088,35.6245857 L23.9131036,35.6245857 L23.9140932,35.6245857 L24.0031578,35.6255702 C24.0486797,35.6255702 24.0788627,35.6255702 24.1095406,35.625078 L24.1090458,35.6245857 L24.1174574,35.6245857 L24.1174574,35.625078 L24.2099856,35.6236013 L24.2663932,35.6221246 L24.3242852,35.6206479 L24.4187926,35.61671 L24.5246805,35.6117876 L24.5246805,35.6112954 L24.6275996,35.6048963 L24.737446,35.5970205 L24.7369512,35.5975128 L24.832943,35.5891448 L24.9388309,35.5788078 L24.9388309,35.5783156 L25.0175047,35.5699476 L25.0372968,35.5679786 L25.1520912,35.554196 L25.2490726,35.5409056 L25.2485778,35.5413979 L25.3500125,35.527123 L25.3500125,35.5266308 C25.4009772,35.5192473 25.4326446,35.5138327 25.4628276,35.5089103 L25.4633224,35.5084181 L25.4776717,35.5059569 L25.4786614,35.5059569 L25.4791562,35.5054647 L25.5578299,35.4926665 C25.6196803,35.4823296 25.6726243,35.4724849 25.7255682,35.4616557 L25.726063,35.4616557 L25.7626785,35.4547644 L25.8552067,35.4360594 L25.8552067,35.4355672 L25.9502089,35.4153855 L26.0452112,35.3932349 L26.0452112,35.3927427 L26.1120096,35.3774833 L26.1773236,35.3617318 L26.2461013,35.3440113 L26.2777687,35.3356433 L26.3767294,35.3090626 L26.465794,35.2844508 L26.5860312,35.249502 L26.6681685,35.2239058 C26.7003308,35.2135688 26.732493,35.2042163 26.7844473,35.1869881 L26.8764807,35.1559772 L26.8759859,35.1559772 L26.9897907,35.1165983 L27.0778657,35.0850952 L27.1887016,35.0437474 L27.1887016,35.0432552 L27.2812299,35.007322 L27.3925606,34.9630208 L27.4811304,34.9261031 L27.4811304,34.9256108 L27.5880079,34.8803251 L27.5885027,34.8803251 L27.6820205,34.8384851 L27.7884033,34.7892615 L27.7884033,34.7887693 L27.8789523,34.746437 L27.9645532,34.7041047 L27.965048,34.7041047 L27.9793973,34.6972134 L27.9793973,34.6967212 L27.990283,34.6913066 L28.0051271,34.6844153 L28.07341,34.650451 L28.1847407,34.5923672 L28.2030484,34.5825224 L28.2683625,34.5480659 L28.3648491,34.4953967 L28.460841,34.4407585 L28.558812,34.3836591 L28.6572779,34.3240986 L28.6577727,34.3236064 L28.6592571,34.3226219 L28.6597519,34.3226219 L28.7542593,34.2645381 L28.850746,34.2030086 L28.8522304,34.2025164 L28.8547044,34.2000552 L28.8551992,34.2000552 L28.9452534,34.1414791 L29.0397609,34.0779807 L29.1332787,34.0134978 L29.2213537,33.9514761 L29.2218485,33.9509838 L29.2248173,33.9485226 C29.3440649,33.8628736 29.4633125,33.7732867 29.5810757,33.6792696 L29.5815705,33.6792696 L29.6661819,33.6108488 L29.6656871,33.6108488 L29.7498036,33.5409514 L29.751288,33.5394747 L29.7542569,33.5375057 L29.7547517,33.5370135 L29.7567309,33.5350445 L29.7567309,33.5355368 L29.8378786,33.4666237 L29.9205108,33.3947573 L29.9215004,33.3942651 L29.9210056,33.3942651 L29.9219952,33.3927884 L29.9219952,33.3932806 C30.0006689,33.3238753 30.0773634,33.2539779 30.1525735,33.1826037 L30.196611,33.1402714 L30.2406485,33.0969546 L30.2416381,33.0964624 L30.2441122,33.0944934 L30.2441122,33.0940012 L30.3222911,33.0167202 L30.3227859,33.0167202 L30.397996,32.9399314 L30.3994804,32.9389469 C30.435601,32.901537 30.4707321,32.8651115 30.5053683,32.8281938 L30.5058631,32.8281938 L30.52615,32.8065355 L30.546437,32.7843848 L30.5479214,32.7824159 L30.5494058,32.7809392 L30.5499006,32.7814314 L30.6236263,32.7007047 L30.6236263,32.701197 L30.6938884,32.621947 L30.6958676,32.6194858 L30.7661297,32.5392514 L30.8344125,32.4590169 L30.8349073,32.4580325 L30.8373813,32.4550791 L30.9031902,32.3763213 L30.9031902,32.3758291 L30.9680094,32.2955946 L30.9680094,32.2951024 L30.9774107,32.283781 L31.0397559,32.204531 L31.1025959,32.1228199 L31.1060595,32.1183897 L31.1060595,32.118882 L31.1065543,32.1178975 L31.1599931,32.0455388 L31.2386668,32.0903323 L37.3118828,35.5783156 L37.4627978,35.6649491 L37.3118828,35.7525671 L18.6192029,46.4882311 L16.8799692,47.4874699 C15.657805,48.1893983 14.2080313,48.147066 13.0620668,47.5027292 L12.9977423,47.4653193 L10.3787483,45.9610465 L1.30999304,40.7526989 C1.005689,40.5804164 0.804798847,40.4041959 0.678129196,40.1777674 L0.677634393,40.1772752 C0.551459546,39.9518312 0.502474017,39.6830704 0.500989607,39.3261994 L0.50148441,39.3257072 L0.5,25.7350751 C0.550964742,24.4675678 1.23379333,23.2522375 2.41934209,22.570983 L4.15857577,21.5722365 L7.47326323,19.6682682 Z M17,26.7164746 C17,22.8512874 20.1344928,19.7164746 23.9994203,19.7164746 C27.8655072,19.7164746 31,22.8512874 31,26.7164746 C31,30.5816617 27.8655072,33.7164746 23.9994203,33.7164746 C20.1344928,33.7164746 17,30.5816617 17,26.7164746 Z" id="Shape"></path>
                </g>
            </g>
        </g>
    </g>
</svg>