<?xml version="1.0" encoding="UTF-8"?>
<svg width="48px" height="48px" viewBox="0 0 48 48" version="1.1" xmlns="http://www.w3.org/2000/svg" xmlns:xlink="http://www.w3.org/1999/xlink">
    <!-- Generator: Sketch 56 (81588) - https://sketch.com -->
    <title>Bank/Mono/Noor</title>
    <desc>Created with Sketch.</desc>
    <g id="Ready-For-Export" stroke="none" stroke-width="1" fill="none" fill-rule="evenodd">
        <g id="Artboard" transform="translate(-2472.000000, -184.000000)" fill="#FFFFFF">
            <g id="Banks_(Mono)" transform="translate(80.000000, 184.000000)">
                <g id="Bank-/-Noor-/-Mono" transform="translate(2392.000000, 0.000000)">
                    <path d="M24.0000036,14.7728246 C27.3199739,14.7728246 30.0153577,17.5122518 30.0153577,20.8864123 C30.0153577,24.2605728 27.3199739,27 24.0000036,27 C20.6800333,27 17.9846495,24.2605728 17.9846495,20.8864123 C17.9846495,17.5122518 20.6800333,14.7728246 24.0000036,14.7728246 Z M31.1295496,18.5190169 C33.4384657,17.1480371 38.2546398,14.3963887 40.8541674,13.6907503 C41.0727238,13.6314057 41.2922583,13.60344 41.508315,13.6039826 L41.5237476,13.6041007 C42.6182684,13.6140098 43.6173678,14.3578533 43.9143914,15.4805549 C44.271298,16.830065 43.479561,18.2192114 42.1475734,18.5807837 C39.7949678,19.2193705 35.0429152,19.3263888 32.1776639,19.3278201 L32.0784386,19.3278201 C31.8145625,19.32771 31.5676405,19.3268292 31.3412592,19.3252878 C31.2849627,19.0508056 31.214103,18.7817183 31.1295496,18.5190169 Z M16.658748,19.3252878 C13.9831441,19.3430141 8.45239613,19.2865322 5.85243379,18.5807837 C4.52033754,18.2192114 3.72870916,16.830065 4.08561575,15.4805549 C4.44252234,14.131155 5.81374355,13.329178 7.14583979,13.6907503 C9.74525874,14.3963887 14.5614328,17.1480371 16.8703489,18.5190169 C16.7859042,18.7817183 16.7150445,19.0508056 16.658748,19.3252878 Z M17.5400378,17.0156955 C14.999415,16.1605397 9.7843837,14.3067663 7.54752273,12.7924348 C6.40105269,12.0162216 6.09218286,10.4429859 6.85838001,9.28141859 C7.62468585,8.11985124 9.17762076,7.80705382 10.3241995,8.58326707 C12.5606257,10.0973784 16.2452189,14.2681208 17.9975825,16.3194157 C17.8330403,16.5423706 17.6801269,16.7747942 17.5400378,17.0156955 Z M29.9575397,16.2591904 C31.7032737,14.2058036 35.382759,10.0203075 37.6176637,8.49959018 C38.7625035,7.7207345 40.3160905,8.02989858 41.0850047,9.18959422 C41.8539188,10.3493999 41.5487441,11.9232962 40.4039043,12.702262 C38.1704124,14.2219884 32.9592937,16.0880932 30.4208444,16.9493045 C30.2785817,16.710385 30.1238208,16.4800533 29.9575397,16.2591904 Z M19.1239466,15.0977331 C16.9928317,13.4520509 12.6594163,9.98826811 11.0299703,7.82235788 C10.1940003,6.71121686 10.4058185,5.12157616 11.5026216,4.27478806 C12.5994247,3.42788985 14.168553,3.64247703 15.0044143,4.75361805 C16.6332081,6.91864747 18.779973,12.0665378 19.7818981,14.5856526 C19.5532344,14.7440882 19.3335912,14.9151854 19.1239466,15.0977331 Z M28.1826793,14.5612101 C29.1818873,12.051564 31.3404984,6.87901105 32.9759218,4.70803616 C33.8125438,3.59744565 35.3817808,3.38395948 36.4780405,4.2315183 C37.5743002,5.07907711 37.7851402,6.66882791 36.9485182,7.77941842 C35.3136382,9.9496226 30.9606602,13.4222135 28.8342186,15.06162 C28.6264216,14.8832561 28.408952,14.7161225 28.1826793,14.5612101 Z M21.2093071,13.8108707 C19.710169,11.5564391 16.7087411,6.87559791 15.8522304,4.2976891 C15.4124007,2.97361242 16.1163239,1.53679214 17.423315,1.0912127 C18.7303061,0.645523164 20.1485859,1.35864845 20.5884157,2.68272513 C21.4447089,5.26008343 21.8479134,10.8249269 21.9995226,13.5395814 C21.7297777,13.615331 21.466119,13.7061644 21.2093071,13.8108707 Z M25.9991804,13.539141 C26.1502463,10.8244865 26.5524726,5.25964303 27.4083311,2.68217462 C27.8480522,1.35798784 29.2661147,0.644642355 30.5732144,1.09000159 C31.8802055,1.53547093 32.5844548,2.972071 32.1448424,4.29625778 C31.2887665,6.8743868 28.288208,11.5556684 26.789396,13.8104303 C26.5326927,13.705724 26.2689253,13.6150007 25.9991804,13.539141 Z M23.5824533,13.2765497 C22.8713572,10.6546004 21.5013314,5.25061473 21.5013314,2.53133602 C21.5013314,1.13426226 22.6209574,0 24.0000036,0 C25.3790498,0 26.4985671,1.13426226 26.4985671,2.53133602 C26.4985671,5.25061473 25.12865,10.6546004 24.4175539,13.2765497 C24.2793123,13.2688426 24.1400927,13.2648789 24.0000036,13.2648789 C23.8599145,13.2648789 23.7206948,13.2688426 23.5824533,13.2765497 Z M31.6216677,45.8424753 C31.6216677,46.2159035 31.6216677,46.6407039 31.6216677,47.0141321 C31.6216677,47.2755645 31.5178606,47.5263306 31.3332905,47.7112488 C31.1486118,47.8961671 30.8981704,48.0001088 30.6369679,48 C27.9655933,48 20.6028999,48 17.9315253,48 C17.6704315,48.0001088 17.4199901,47.8961671 17.2353114,47.7112488 C17.0506326,47.5263306 16.9469342,47.2755645 16.9469342,47.0141321 C16.9469342,46.6407039 16.9469342,46.2159035 16.9469342,45.8424753 C16.9469342,45.5810429 17.0506326,45.3302768 17.2353114,45.1453586 C17.4199901,44.9604403 17.6704315,44.8566075 17.9315253,44.8566075 C20.6028999,44.8566075 27.9655933,44.8566075 30.6369679,44.8566075 C30.8981704,44.8566075 31.1486118,44.9604403 31.3332905,45.1453586 C31.5178606,45.3302768 31.6216677,45.5810429 31.6216677,45.8424753 Z M24.7296387,30.993399 C24.7296387,30.993399 29.364217,25.771064 33.7567238,23.3034558 C38.9396861,20.3918914 46.75,21.0680022 46.75,21.0680022 C46.75,21.0680022 40.538315,22.9403674 36.7921296,28.4319712 C33.4356284,33.3522766 31.3535085,43.5296368 31.3535085,43.5296368 C31.3535085,43.5296368 28.2177739,35.8893244 24.7296387,30.993399 Z M29.5433522,43.4202531 L16.9762828,43.4202531 C16.9762828,43.4202531 15.2265629,41.1120947 14.5823069,37.9351797 C13.8846798,34.4948733 12.7489978,30.4091488 10.9929734,28.1585664 C7.66886433,23.89859 1.25,21.249111 1.25,21.249111 C1.25,21.249111 13.3368394,19.2478799 20.7146419,28.5491913 C24.293649,33.0613487 29.5388956,43.4107841 29.5433522,43.4202531 Z" id="Shape"></path>
                </g>
            </g>
        </g>
    </g>
</svg>