<?xml version="1.0" encoding="UTF-8"?>
<svg width="48px" height="48px" viewBox="0 0 48 48" version="1.1" xmlns="http://www.w3.org/2000/svg" xmlns:xlink="http://www.w3.org/1999/xlink">
    <!-- Generator: Sketch 56 (81588) - https://sketch.com -->
    <title>Bank/Mono/Parsian</title>
    <desc>Created with Sketch.</desc>
    <g id="Ready-For-Export" stroke="none" stroke-width="1" fill="none" fill-rule="evenodd">
        <g id="Artboard" transform="translate(-2576.000000, -184.000000)" fill="#FFFFFF">
            <g id="Banks_(Mono)" transform="translate(80.000000, 184.000000)">
                <g id="Bank-/-Parsian-/-Mono" transform="translate(2496.000000, 0.000000)">
                    <path d="M44.8426,48 L24.7592,48 L24.7592,28.3586 C25.028,25.1931 25.5042,22.2777 26.6721,20.1967 C27.3663,20.5863 28.6054,22.309 28.975,25.6423 C29.881,24.0063 30.9843,22.1722 32.9861,21.009 C33.121,24.6194 32.9061,25.9932 31.8943,28.5066 C30.4739,32.0352 26.565,32.8567 26.565,32.8567 L26.565,46.1942 L43.0368,46.1942 C43.0368,35.3391 43.2416,24.482 43.0351,13.6288 C43.0316,13.5199 43.0255,13.4114 43.0165,13.3028 C42.9666,12.7787 42.8427,12.2655 42.6374,11.7802 C42.1323,10.586 41.167,9.6126 39.9816,9.0935 L39.98,9.0928 C40.3378,8.5447 40.7035,8.0514 41.0653,7.6093 C41.7131,7.9387 42.3083,8.3703 42.8227,8.8847 C43.5496,9.6115 44.1111,10.4997 44.4527,11.4694 C44.7123,12.2065 44.8377,12.9804 44.8426,13.7611 L44.8426,48 Z M23.2408,48 L3.1574,48 L3.1574,13.7611 C3.1623,12.9804 3.2877,12.2065 3.5473,11.4694 C3.8889,10.4997 4.4504,9.6115 5.1773,8.8847 C5.6917,8.3703 6.2869,7.9387 6.9347,7.6093 C7.2965,8.0514 7.6622,8.5447 8.02,9.0928 L8.0184,9.0935 C6.833,9.6126 5.8677,10.586 5.3626,11.7802 C5.1573,12.2655 5.0334,12.7787 4.9835,13.3028 C4.9745,13.4114 4.9684,13.5199 4.9649,13.6288 C4.7584,24.482 4.9632,35.3391 4.9632,46.1942 L21.435,46.1942 L21.435,32.8567 C21.435,32.8567 17.5261,32.0352 16.1057,28.5066 C15.0939,25.9932 14.879,24.6194 15.0139,21.009 C17.0157,22.1722 18.119,24.0063 19.025,25.6423 C19.3946,22.309 20.6337,20.5863 21.3279,20.1967 C22.4958,22.2777 22.972,25.1931 23.2408,28.3586 L23.2408,48 Z M42.9816,4.5552 C39.8092,6.8414 36.0985,11.8376 35.6612,17.095 C35.3051,21.3773 34.5734,23.2484 34.027,24.0496 C34.2691,22.6058 34.2676,20.6425 33.9965,19.0596 C33.3902,19.3279 32.384,19.9462 31.4627,20.8622 C31.3482,20.4876 30.4081,18.5632 27.3112,19.4166 C27.4602,18.9371 27.6245,18.4628 27.8073,17.9947 C28.2446,16.875 28.774,15.7915 29.383,14.7543 C29.3871,14.7476 29.391,14.7409 29.3948,14.7341 C30.0504,13.6199 30.7978,12.5594 31.6213,11.565 C32.3216,10.7192 33.0792,9.9189 33.8903,9.1774 C33.9146,9.1586 33.9375,9.1377 33.9589,9.1149 C34.5498,8.5791 35.1689,8.0745 35.8145,7.6063 C37.6222,6.2954 39.6634,5.25 41.8507,4.7554 C42.2248,4.6709 42.6019,4.6051 42.9816,4.5552 Z M5.0184,4.5552 C8.1908,6.8414 11.9015,11.8376 12.3388,17.095 C12.6949,21.3773 13.4266,23.2484 13.973,24.0496 C13.7309,22.6058 13.7324,20.6425 14.0035,19.0596 C14.6098,19.3279 15.616,19.9462 16.5373,20.8622 C16.6518,20.4876 17.5919,18.5632 20.6888,19.4166 C20.5398,18.9371 20.3755,18.4628 20.1927,17.9947 C19.7554,16.875 19.226,15.7915 18.617,14.7543 C18.6129,14.7476 18.609,14.7409 18.6052,14.7341 C17.9496,13.6199 17.2022,12.5594 16.3787,11.565 C15.6784,10.7192 14.9208,9.9189 14.1097,9.1774 C14.0854,9.1586 14.0625,9.1377 14.0411,9.1149 C13.4502,8.5791 12.8311,8.0745 12.1855,7.6063 C10.3778,6.2954 8.3366,5.25 6.1493,4.7554 C5.7752,4.6709 5.3981,4.6051 5.0184,4.5552 Z M25.9178,19.8861 C25.5705,19.6322 25.021,19.176 23.9873,19.1792 C22.9535,19.1825 22.4173,19.6411 22.0822,19.8861 C21.8242,18.2621 20.7575,16.314 19.8203,14.4305 C20.2411,13.635 21.4992,10.869 21.8349,9.8218 C22.7264,7.0411 23.5043,3.6325 24,1.7946 C24.4764,3.6376 25.2548,7.1637 26.1651,9.8218 C26.5214,10.8622 27.7589,13.635 28.1797,14.4305 C27.2425,16.314 26.1758,18.2621 25.9178,19.8861 Z M31.5896,1.2286 C31.573,1.3929 31.5505,1.5567 31.5218,1.7198 C31.4816,1.9483 31.4301,2.1746 31.3682,2.3981 C30.8588,4.2377 29.6748,5.8026 28.3902,7.1779 C28.1517,7.4332 27.908,7.6836 27.662,7.9316 C27.4303,8.1651 27.1963,8.3964 26.9626,8.6278 C27.3445,9.7484 27.7852,10.8487 28.2797,11.9243 C28.4813,12.3627 28.6923,12.7964 28.9111,13.2262 C29.5316,12.2664 30.2176,11.3488 30.9598,10.4814 C31.5255,9.8204 32.125,9.1871 32.7568,8.5879 C32.2781,7.679 32.0036,6.6723 31.8289,5.6626 C31.5762,4.2012 31.5271,2.7101 31.5896,1.2286 Z M16.4104,1.2286 C16.427,1.3929 16.4495,1.5567 16.4782,1.7198 C16.5184,1.9483 16.5699,2.1746 16.6318,2.3981 C17.1412,4.2377 18.3252,5.8026 19.6098,7.1779 C19.8483,7.4332 20.092,7.6836 20.338,7.9316 C20.5697,8.1651 20.8037,8.3964 21.0374,8.6278 C20.6555,9.7484 20.2148,10.8487 19.7203,11.9243 C19.5187,12.3627 19.3077,12.7964 19.0889,13.2262 C18.4684,12.2664 17.7824,11.3488 17.0402,10.4814 C16.4745,9.8204 15.875,9.1871 15.2432,8.5879 C15.7219,7.679 15.9964,6.6723 16.1711,5.6626 C16.4238,4.2012 16.4729,2.7101 16.4104,1.2286 Z M32.9307,3.2274 C33.1706,1.3232 35.3218,1.1827 36.6483,1.6269 C38.5545,2.2653 39.212,4.0459 37.6809,5.0347 C36.942,5.5119 36.1482,5.9012 35.4297,6.4026 C34.8262,6.8238 34.2441,7.2752 33.6843,7.753 L33.6753,7.7333 C33.0306,5.6607 32.7967,4.2907 32.9307,3.2274 Z M15.0693,3.2274 C14.8294,1.3232 12.6782,1.1827 11.3517,1.6269 C9.4455,2.2653 8.788,4.0459 10.3191,5.0347 C11.058,5.5119 11.8518,5.9012 12.5703,6.4026 C13.1738,6.8238 13.7559,7.2752 14.3157,7.753 L14.3247,7.7333 C14.9694,5.6607 15.2033,4.2907 15.0693,3.2274 Z M25.4581,2.3388 C25.2372,0.8346 26.8115,-0.1467 27.9376,0.018 C28.6777,0.1262 30.6863,0.6391 30.1217,2.3619 C29.9016,3.0336 29.5741,3.6685 29.1897,4.2609 C28.5167,5.2979 27.6728,6.2065 26.8074,7.0836 C26.7224,7.1688 26.6372,7.2538 26.552,7.3387 C26.2173,6.2104 25.9412,5.0649 25.7213,3.9087 C25.6221,3.3872 25.5352,2.8638 25.4581,2.3388 Z M22.5419,2.3388 C22.7628,0.8346 21.1885,-0.1467 20.0624,0.018 C19.3223,0.1262 17.3137,0.6391 17.8783,2.3619 C18.0984,3.0336 18.4259,3.6685 18.8103,4.2609 C19.4833,5.2979 20.3272,6.2065 21.1926,7.0836 C21.2776,7.1688 21.3628,7.2538 21.448,7.3387 C21.7827,6.2104 22.0588,5.0649 22.2787,3.9087 C22.3779,3.3872 22.4648,2.8638 22.5419,2.3388 Z" id="Shape"></path>
                </g>
            </g>
        </g>
    </g>
</svg>