<?xml version="1.0" encoding="UTF-8"?>
<svg width="48px" height="48px" viewBox="0 0 48 48" version="1.1" xmlns="http://www.w3.org/2000/svg" xmlns:xlink="http://www.w3.org/1999/xlink">
    <!-- Generator: Sketch 56 (81588) - https://sketch.com -->
    <title>Bank/Mono/Pasargad</title>
    <desc>Created with Sketch.</desc>
    <g id="Ready-For-Export" stroke="none" stroke-width="1" fill="none" fill-rule="evenodd">
        <g id="Artboard" transform="translate(-2680.000000, -184.000000)" fill="#FFFFFF">
            <g id="Banks_(Mono)" transform="translate(80.000000, 184.000000)">
                <g id="Bank-/-Pasargad-/-Mono" transform="translate(2600.000000, 0.000000)">
                    <path d="M3,48 L45,48 L45,47.5571 L3,47.5571 L3,48 Z M3,47.3603 L45,47.3603 L45,46.3061 L3,46.3061 L3,47.3603 Z M28.0712,11.5505 L25.0679,30.5504 C25.0679,30.5504 24.8608,33.904 26.5941,35.8015 C27.4322,36.719 28.4585,36.9738 29.4113,37.5214 C30.2523,38.0047 31.2096,38.882 31.3573,39.9219 C31.5897,41.558 29.8575,41.7769 28.9365,41.4276 C27.9568,41.056 27.2128,40.9211 26.2336,40.9624 C24.0542,41.0543 23.5628,42.6295 23.57,43.2044 C23.5947,45.1689 25.4499,45.8938 25.4499,45.8938 C25.4499,45.8938 23.6215,45.9039 22.2039,45.9167 C13.8603,45.9922 11.0012,40.2683 9.9355,33.6626 L6.368,11.5505 L28.0712,11.5505 Z M42.4112,45.8725 L27.8226,45.8725 C27.8226,45.8725 24.7105,45.8127 24.7483,43.5914 C24.779,41.7914 26.7594,41.2118 29.0796,41.9869 C29.7088,42.1971 30.7177,42.2009 31.9595,42.3631 C33.2179,42.5274 34.7199,42.3045 36.6128,43.1365 C36.7613,43.2018 37.1014,43.133 37.5027,43.1457 C37.8665,43.1572 38.2959,43.2551 38.3932,43.2218 C38.9391,43.0347 39.2183,42.7443 39.7517,42.7562 C39.9595,42.7608 40.1423,42.9359 40.2649,43.0855 C40.4196,42.9588 40.5161,42.8629 40.7101,42.8621 C41.1632,42.86 41.3399,43.5314 41.6219,43.9509 C42.3915,44.124 42.9591,45.0668 43.0838,45.5559 C43.1092,45.6555 42.8516,45.7932 42.7726,45.7275 C42.41,45.4263 40.9271,43.4741 40.7023,43.4757 C40.603,43.4764 40.8566,43.9972 40.9084,44.1721 C40.5124,43.9181 39.8015,42.9299 39.5163,43.2194 C39.1652,43.5759 40.3901,44.4377 39.878,44.6123 C39.6011,44.7067 39.004,44.1454 38.283,43.9148 C37.6862,43.724 36.4727,43.8347 36.3037,43.7307 C34.9295,42.885 31.4875,43.0049 28.9547,42.8105 C28.5241,42.7774 28.0157,42.5219 27.3895,42.4679 C26.5472,42.3953 25.6756,42.6937 25.6849,43.6786 C25.6894,44.166 26.1388,45.0984 27.4582,45.1383 C30.7075,45.2364 36.1993,45.0934 36.1993,45.0934 L35.5015,44.5822 C35.5015,44.5822 29.2431,44.5423 27.8225,44.4802 C27.1621,44.4513 26.9897,43.7318 27.0601,43.5176 C27.2179,43.037 27.9747,43.1722 27.9747,43.1722 C27.9747,43.1722 28.7868,43.2727 29.2033,43.2944 C30.5032,43.362 34.0778,43.6465 35.7393,44.1404 C36.215,44.2818 37.0611,44.2252 37.6447,44.3317 C38.712,44.5266 39.1513,44.7636 39.9515,45.384 L40.5825,45.3799 C40.5825,45.3799 40.4857,44.8133 40.5694,44.6827 C40.653,44.552 40.7919,44.5892 40.9415,44.645 C41.0911,44.7007 41.2433,44.9047 41.3649,44.9389 C41.4865,44.9731 41.5293,44.8066 41.6638,44.8335 C41.9431,44.8893 42.1641,45.2609 42.3219,45.5121 C42.3926,45.6245 42.4109,45.8691 42.4112,45.8725 Z M21.0658,42.5031 C20.8863,43.0934 21.1266,43.4731 21.6201,43.6861 L18.8041,44.508 C18.4296,44.6173 18.0375,44.4024 17.9282,44.0279 C17.8376,43.7175 18.0152,43.3935 18.3246,43.3032 L21.0658,42.5031 Z M23.5368,41.795 C23.4742,42.3165 23.3875,42.7743 23.3144,43.1916 L22.1671,43.5265 C21.8304,43.4601 21.4802,43.2973 21.4291,42.911 C21.3953,42.6558 21.5505,42.454 21.7516,42.3029 L23.5368,41.795 Z M21.0825,40.903 C20.7159,41.4046 20.8917,41.8626 21.5109,42.1228 L18.7024,42.9426 C18.3279,43.0519 17.9357,42.8369 17.8264,42.4625 C17.7358,42.152 17.9134,41.828 18.2228,41.7377 L21.0825,40.903 Z M31.6833,22.9316 C30.2009,23.6229 28.0856,25.7913 27.2259,27.5008 C27.1648,27.6222 27.0252,27.8889 26.9155,28.0936 C26.7048,28.4865 26.3109,29.4096 26.215,29.7351 C25.9642,30.587 25.9043,30.8305 25.8102,31.38 C25.5272,33.0327 25.774,34.3444 26.5283,35.1971 C27.0851,35.8266 27.5371,36.0885 29.4965,36.9167 C29.7465,37.0224 29.9369,37.1174 30.3611,37.3481 C31.9162,38.1941 32.558,39.9735 31.9286,41.5704 C31.8277,41.8263 31.7757,41.8372 33.0945,41.9471 C34.6027,42.0728 35.7549,42.2724 36.1647,42.4763 C35.9928,40.2965 35.5607,34.4168 35.4153,33.0601 C35.3956,32.8758 35.2991,32.8519 35.1985,32.8503 C34.87,32.845 34.2819,32.837 33.9316,32.6513 C34.0774,32.4673 34.2208,32.3428 34.4599,32.1957 L33.8069,32.169 C32.8474,32.0742 32.6243,31.6366 33.5133,31.1808 C33.5133,31.1808 32.2749,31.3303 32.2768,30.2733 C32.2771,30.0714 32.3049,29.9968 32.4837,30.0424 C32.6524,30.0854 33.0447,30.078 33.0429,30.0317 C33.0388,29.921 32.8095,29.8668 32.6912,29.8199 C32.4155,29.7109 32.2885,29.5073 32.2068,29.2623 C32.1256,29.0194 32.2268,28.9599 32.5844,28.7981 C33.0622,28.582 33.0788,28.3856 32.6613,28.3856 C31.7928,28.3856 31.806,27.0392 32.611,26.3394 C33.0139,25.9892 33.0396,25.8707 32.764,25.7808 C32.3529,25.6466 31.781,24.953 31.8099,24.3132 C31.8519,23.3816 33.9698,22.8923 34.3135,23.7448 C34.4042,23.9698 34.8028,24.0143 34.792,23.732 C34.7865,23.5878 35.0542,23.3366 35.3628,23.2061 C35.4993,23.1484 35.136,22.9098 34.8717,22.7797 C34.4309,22.5626 33.4846,22.4948 32.7876,22.6243 C32.113,22.7496 31.9786,22.7939 31.6833,22.9316 Z M23.619,40.1627 C23.6298,40.6616 23.6069,41.1116 23.5665,41.5228 L22.1151,41.9465 C21.3526,41.8578 21.0863,41.3377 21.5081,40.7788 L23.619,40.1627 Z M24.1023,41.5255 C24.1023,41.5255 24.3322,37.6253 23.0564,34.9211 C21.6859,32.0161 18.5627,28.9202 16.7691,26.8751 C16.5846,26.6646 16.3258,26.0816 16.3637,25.6385 C16.5278,23.7215 19.2463,24.1656 19.2463,24.1656 C19.2463,24.1656 19.3185,24.7883 19.4335,25.0759 C20.3303,27.3198 23.1055,30.1082 24.4183,32.699 C25.7578,35.3424 27.1774,40.687 27.1774,40.687 C25.6673,40.5067 24.6295,40.7742 24.1023,41.5255 Z M20.8274,39.3775 C20.625,40.0884 20.9476,40.377 21.3326,40.5749 L18.5314,41.3925 C18.157,41.5018 17.7648,41.2868 17.6555,40.9124 C17.5649,40.602 17.7425,40.278 18.0519,40.1876 L20.8274,39.3775 Z M23.4836,38.6023 C23.5535,39.0723 23.5933,39.5066 23.6108,39.9099 L22.083,40.3559 C21.7482,40.3477 21.4811,40.2397 21.3381,40.0485 C21.1703,39.8241 21.1731,39.4759 21.4742,39.1888 L23.4836,38.6023 Z M20.4932,37.8847 C20.1838,38.3346 20.4204,38.8709 20.9945,39.0832 L18.1266,39.9203 C17.9468,39.9728 17.7535,39.9517 17.5892,39.8616 C17.425,39.7716 17.3032,39.62 17.2507,39.4402 C17.2506,39.4398 17.2505,39.4395 17.2504,39.4392 C17.1601,39.1298 17.3377,38.8057 17.6471,38.7154 L20.4932,37.8847 Z M23.181,37.1002 C23.2937,37.5492 23.3808,37.9708 23.4466,38.3675 L21.5932,38.9085 C20.8525,38.8441 20.6844,38.3962 20.9325,37.7565 L23.181,37.1002 Z M19.9786,36.4397 C19.7556,37.2764 20.1494,37.47 20.6014,37.6028 L17.6715,38.458 C17.2971,38.5672 16.9049,38.3523 16.7956,37.9778 C16.705,37.6674 16.8826,37.3434 17.192,37.2531 L19.9786,36.4397 Z M22.7495,35.631 C22.8943,36.0646 23.0172,36.4762 23.1209,36.8674 L21.0162,37.4817 C20.6623,37.3915 20.4302,37.0796 20.3762,36.8821 C20.3035,36.6167 20.4057,36.4159 20.5355,36.2772 L22.7495,35.631 Z M19.3729,35.0687 C19.1273,35.5599 19.3545,36.0872 19.9271,36.2044 L17.0272,37.0509 C16.8484,37.103 16.6562,37.0821 16.4928,36.9925 C16.3295,36.903 16.2084,36.7522 16.1562,36.5734 C16.1124,36.4232 16.1304,36.2632 16.2058,36.1278 C16.2811,35.9923 16.4077,35.8927 16.557,35.8512 L19.3729,35.0687 Z M22.1455,34.2191 C22.3548,34.6067 22.5334,35.0015 22.6722,35.4032 L20.4304,36.0575 C20.1377,36.0256 19.7913,35.889 19.7048,35.438 C19.6652,35.2609 19.7642,35.0643 19.8924,34.9129 L22.1455,34.2191 Z M18.5525,33.7442 C18.3649,34.372 18.6891,34.7168 19.1514,34.8357 L16.2338,35.6873 C15.8771,35.7914 15.5031,35.5892 15.3948,35.2337 C15.3509,35.0897 15.3667,34.9349 15.4384,34.8035 C15.51,34.6721 15.6315,34.5749 15.7755,34.534 L18.5525,33.7442 Z M21.2947,32.8818 C21.5595,33.2465 21.8049,33.6186 22.0223,33.9977 L19.6773,34.6822 C19.1533,34.637 18.7801,34.191 18.9873,33.6108 L21.2947,32.8818 Z M17.4051,32.4868 C17.5758,33.1283 17.776,33.4551 18.0338,33.5667 L15.3061,34.3629 C15.1359,34.4126 14.953,34.3926 14.7975,34.3074 C14.6421,34.2222 14.5268,34.0787 14.4772,33.9085 C14.4366,33.7694 14.4528,33.6206 14.5221,33.4942 C14.5914,33.3677 14.7081,33.274 14.8466,33.2336 L17.4051,32.4868 Z M20.3069,31.6398 C20.593,31.9736 20.8709,32.3145 21.1325,32.6623 L18.6633,33.383 C18.2267,33.2969 17.7938,32.8097 18.1054,32.2824 L20.3069,31.6398 Z M16.2514,31.2493 C16.3034,31.2742 16.3518,31.3012 16.387,31.3285 C16.6657,31.5441 16.2972,31.9377 17.1138,32.2745 L14.2151,33.1205 C13.8576,33.2249 13.4831,33.0196 13.3788,32.6621 C13.3377,32.5213 13.3541,32.3706 13.4243,32.2425 C13.4945,32.1144 13.6127,32.0195 13.7529,31.9786 L16.2514,31.2493 Z M33.2908,28.023 C33.4741,27.9879 33.4743,28.2629 33.3097,28.6834 C33.1323,29.1367 32.539,29.1793 32.595,29.2709 C32.8403,29.6725 33.6194,29.5133 33.8285,29.5813 C33.9801,29.6306 33.7469,30.1624 33.2494,30.4888 C32.8858,30.7275 33.0059,30.8396 33.4854,30.8739 C33.7051,30.8896 34.0146,30.6717 34.3087,30.6746 C34.4132,30.6756 34.3901,31.2301 34.0902,31.457 C33.3882,31.9884 33.9589,31.9664 34.8381,31.7184 C35.3289,31.58 35.2405,31.7333 35.0526,32.0916 C34.9389,32.3085 34.7081,32.4211 34.7769,32.4884 C34.8689,32.5784 35.6048,32.6942 36.1534,32.0007 C36.2553,31.8719 36.2825,31.6848 36.0094,31.481 C35.0487,30.7641 34.6568,29.906 34.335,28.6148 C34.2269,28.1805 34.1688,26.4488 34.2565,26.0598 C34.3111,25.8178 34.2487,25.8251 33.6415,26.132 C32.1766,26.8726 31.9266,28.2845 33.2908,28.023 Z M37.2857,28.9973 C35.261,29.0151 34.7272,30.3592 36.2875,31.3072 C36.5327,31.456 36.4796,31.5016 36.4797,31.7072 C36.4798,31.9995 36.7664,32.1792 37.0058,32.2001 C37.5401,32.2466 37.8321,32.0518 37.9303,31.3868 C37.9783,31.0609 38.0702,30.8908 38.4019,30.4454 C38.5594,30.2339 38.6311,30.0961 38.589,30.0807 C38.5107,30.052 38.3052,30.0993 38.1425,30.3746 C37.5966,31.2987 36.1992,31.0854 35.8854,30.4179 C35.6671,29.9536 36.0556,29.3202 37.4565,29.315 C38.4435,29.3115 38.4799,29.3514 38.571,29.6844 C38.6437,29.9504 38.8137,29.8422 39.1712,29.3021 C39.7605,28.4118 39.6833,28.2583 39.0816,28.5861 C38.5117,28.8965 38.0165,28.9908 37.2857,28.9973 Z M19.1826,30.3938 C19.4899,30.7219 19.799,31.0583 20.101,31.4026 L17.7116,32.1 C17.4816,32.0432 17.2634,31.9075 17.0991,31.6902 C16.9609,31.5075 16.9704,31.213 17.1733,30.9803 L19.1826,30.3938 Z M15.5005,29.8986 C15.3421,30.491 15.5143,30.7548 16.0942,30.9425 L13.1841,31.7919 C13.0136,31.8417 12.8304,31.8217 12.6748,31.7363 C12.5191,31.651 12.4037,31.5073 12.3539,31.3369 C12.3125,31.195 12.3297,31.0434 12.4015,30.9152 C12.4732,30.787 12.5934,30.693 12.7351,30.6543 L15.5005,29.8986 Z M17.9899,29.132 C18.2893,29.451 18.6035,29.7795 18.9223,30.1171 L16.5992,30.7951 C15.9849,30.6699 15.7895,30.1658 16.0797,29.7227 L17.9899,29.132 Z M14.3441,28.6528 C14.2998,29.3162 14.7351,29.5318 15.1854,29.6126 L12.1999,30.484 C11.8047,30.5994 11.3893,30.3806 11.2608,29.9895 C11.2449,29.9411 11.2292,29.8931 11.2139,29.8466 C11.1758,29.7306 11.1884,29.6039 11.2486,29.4977 C11.3088,29.3915 11.411,29.3156 11.53,29.2887 L14.3441,28.6528 Z M36.8197,29.8497 C37.2142,29.8471 37.5586,29.874 37.9256,30.255 C37.9601,30.2909 38.0023,30.1704 38.0287,30.1144 C38.0883,29.9879 38.2058,29.854 38.0835,29.7676 C37.8421,29.5971 37.1499,29.5544 36.6203,29.7161 C36.3047,29.8126 36.4438,29.8522 36.8197,29.8497 Z M16.8805,27.8902 C17.1392,28.2042 17.4306,28.5298 17.7421,28.8664 L15.6794,29.4684 C14.8678,29.4475 14.7257,28.7951 14.7867,28.4248 L15.0686,28.2504 L16.8805,27.8902 Z M13.5,27.3198 C13.603,27.806 13.9019,28.0357 14.2183,28.2338 L11.0936,29.0136 C10.8541,29.0734 10.6034,28.9726 10.4718,28.7637 C10.3868,28.6287 10.2869,28.4701 10.1905,28.317 C10.1064,28.1834 10.0973,28.0159 10.1665,27.874 C10.2357,27.7322 10.3733,27.6362 10.5304,27.6203 L13.5,27.3198 Z M36.7915,28.0751 C36.691,28.242 36.5435,28.4669 36.2999,28.6774 C36.1315,28.8229 38.0477,28.6614 38.5392,28.3798 C38.8842,28.1822 39.2648,28.2173 39.3624,28.2425 C39.5053,28.2795 39.4809,28.0692 39.3507,27.6873 C39.0845,26.907 38.6223,26.6725 37.9815,26.8942 C37.5663,27.0379 37.2112,27.3778 36.7915,28.0751 Z M36.7309,26.441 C36.5469,26.6099 36.2907,26.8632 36.1067,26.9916 C35.3609,27.5116 35.0265,28.0268 35.3144,28.3114 C35.8051,28.7968 36.7196,27.9814 36.7334,27.0052 C36.7393,26.5939 37.0927,26.1959 38.0697,26.0797 C38.3304,26.0487 38.4029,25.9481 38.1158,25.9532 C37.8244,25.9584 37.5482,25.9638 37.5022,25.9793 C37.2055,26.0794 37.0228,26.1731 36.7309,26.441 Z M16.0386,26.6761 C16.1975,26.9805 16.414,27.299 16.6727,27.631 L14.6604,28.1235 C14.2441,27.9185 13.6636,27.2651 14.1514,26.8351 L14.152,26.831 L16.0386,26.6761 Z M37.7791,26.4729 C38.0479,26.4379 38.4426,26.3901 38.7157,26.4935 C39.3085,26.7177 39.7244,27.2849 39.7432,27.694 C39.7532,27.9116 39.8865,28.0132 39.9488,27.765 C39.9906,27.5987 40.1684,27.1805 40.1771,26.7775 C40.1787,26.7021 40.1687,26.5713 40.1049,26.531 C40.037,26.4882 39.7532,26.5156 39.6247,26.4925 C39.4554,26.4619 39.1873,26.399 39.0451,26.3243 C38.7204,26.1538 38.0748,26.2065 37.7212,26.3083 C37.6402,26.3316 37.5099,26.5079 37.7791,26.4729 Z M13.3879,27.1228 L10.2593,27.21 C9.975,27.2179 9.7283,27.0156 9.6803,26.7353 C9.663,26.6347 9.6442,26.5249 9.625,26.4125 C9.5809,26.1553 9.6601,25.8923 9.8388,25.7021 C10.0176,25.512 10.2752,25.4166 10.5347,25.4447 C11.4907,25.548 12.2758,25.6382 12.7544,25.6919 C12.8265,26.4322 13.2081,26.9272 13.3879,27.1228 Z M35.0017,26.777 C35.3079,27.0803 35.8807,26.9823 36.1079,26.6893 C36.7187,25.9018 37.2091,25.6973 37.9662,25.6941 C38.2222,25.6931 38.1056,25.5768 37.8732,25.3583 C37.564,25.0677 37.3694,25.0408 36.9957,25.0617 C36.7104,25.0776 36.6119,25.0597 36.612,24.9735 C36.6123,24.6247 36.0066,24.4097 35.5912,24.6664 C34.8609,25.1177 34.536,26.3159 35.0017,26.777 Z M37.5125,25.4513 C37.5369,25.4889 36.8964,25.6703 36.6373,25.8534 C36.5291,25.9298 36.4662,26.008 36.3663,26.0618 C36.3448,26.0734 35.9585,26.0661 35.8127,25.898 C35.6545,25.7156 35.7445,25.2967 36.038,25.3009 C36.2159,25.3034 36.113,25.4503 36.0468,25.6167 C36.01,25.7093 36.0252,25.8297 36.084,25.8476 C36.6232,26.0118 36.4599,25.1601 36.1383,25.1054 C35.9021,25.0653 35.4427,25.2401 35.4158,25.609 C35.4032,25.7815 35.423,25.9446 35.6343,26.1074 C35.8126,26.2447 36.0314,26.2069 36.2103,26.1927 C35.9726,26.4398 35.7261,26.6462 35.4439,26.631 C35.0687,26.6108 35.022,25.9342 35.2644,25.4508 C35.4068,25.1668 35.7541,24.8469 36.0285,24.8602 C36.4025,24.8785 36.3624,25.1256 36.533,25.2968 C36.632,25.3963 37.3736,25.2376 37.5125,25.4513 Z M16.0182,26.3788 L13.7153,26.4767 C13.0815,26.0119 13.0535,24.1925 13.3705,23.9575 C14.0299,24.7319 14.9663,25.0137 15.9237,25.1615 C15.89,25.32 15.8684,25.4949 15.8604,25.6877 C15.8529,25.869 15.8666,26.1938 16.0182,26.3788 Z M34.6486,24.3765 C34.4573,24.5531 34.3911,24.5439 34.1751,24.2209 C33.9478,23.881 33.6522,23.7368 33.3798,23.7334 C32.7509,23.7253 32.2164,24.3094 32.1716,24.3983 C32.1335,24.4739 32.2455,24.5014 32.2819,24.6387 C32.4023,25.0931 32.8651,25.7298 33.4864,25.7644 C33.9637,25.791 34.3739,25.6222 34.6972,25.1048 C35.0138,24.5981 35.3271,24.2608 35.6659,24.1394 C36.1427,23.9684 36.5965,24.158 37.0227,24.5929 C37.0904,24.662 37.2981,24.6934 37.364,24.6906 C37.4935,24.6849 37.7987,24.9105 37.9517,25.0952 C38.2653,25.4736 38.4075,25.4884 38.3326,25.2419 C38.2769,25.0586 37.6314,24.3689 37.2699,24.2512 C36.9424,24.1446 36.5821,23.5677 36.0346,23.4541 C35.7951,23.4043 35.5943,23.5645 35.3959,23.7357 C35.1408,23.9556 34.7226,24.3083 34.6486,24.3765 Z M12.7337,25.3859 C12.2501,25.3015 10.8999,25.0672 9.9395,24.9119 C9.7576,24.8826 9.595,24.7821 9.4874,24.6326 C9.3797,24.4832 9.3359,24.2971 9.3657,24.1153 C9.3913,23.9586 9.4188,23.7908 9.4451,23.6298 C9.4765,23.4377 9.5948,23.2708 9.7656,23.1775 C9.9364,23.0841 10.1408,23.0748 10.3194,23.1521 C11.1798,23.5244 12.2668,24.0107 12.7356,24.2211 C12.696,24.5835 12.718,25.1146 12.7337,25.3859 Z M15.9839,24.9332 C15.1228,24.8041 14.5562,24.5901 13.6232,23.8285 C13.1127,23.2303 14.2551,21.7311 14.7924,22.1374 C15.1249,23.2676 15.7196,23.6927 16.4198,24.2113 C16.2327,24.3903 16.082,24.6255 15.9839,24.9332 Z M16.5764,24.0801 C16.0144,23.5835 15.449,22.8659 15.2634,22.2207 C15.2217,22.0757 15.2047,21.8358 15.2667,21.7346 C15.6895,21.0435 16.7628,21.1309 17.1437,21.1853 C17.218,21.1959 17.2629,21.2754 17.2563,21.3286 C17.1586,22.1129 17.299,22.7109 17.5008,23.2184 C17.5139,23.2514 17.5674,23.7103 17.4955,23.7223 C17.1588,23.7788 16.8409,23.8864 16.5764,24.0801 Z M12.7926,23.9121 L10.2731,22.5876 C10.0889,22.4907 9.9508,22.3245 9.8893,22.1257 C9.8279,21.9269 9.8481,21.7117 9.9456,21.5279 C9.9565,21.5072 9.9675,21.4865 9.9786,21.4656 C10.104,21.229 10.3299,21.062 10.5929,21.0114 C10.8558,20.9608 11.1276,21.0322 11.3318,21.2054 L13.228,22.8137 C13.0635,23.0911 12.8887,23.5201 12.7926,23.9121 Z M17.9744,23.6732 C17.6513,23.2319 17.5606,22.0666 17.6108,21.3661 C17.6204,21.2323 17.7165,21.1876 17.7528,21.1891 C18.4415,21.2188 18.959,21.4088 19.4926,21.8974 C19.5547,21.9543 19.5691,22.1021 19.5413,22.1412 C19.2114,22.604 19.0773,23.1271 19.1051,23.7004 C18.7571,23.6803 18.3639,23.6547 17.9744,23.6732 Z M13.3719,22.591 C12.8894,22.19 11.5166,21.0393 11.3823,20.8211 C11.1814,19.6272 12.2988,18.9235 13.0362,19.193 C13.2396,19.4853 13.967,21.0322 14.2372,21.6118 C13.8226,21.9408 13.5419,22.335 13.3719,22.591 Z M19.1154,21.0007 C19.5086,20.5309 20.412,19.4629 20.7914,19.1072 C21.066,18.8498 21.5567,18.7217 21.7898,18.9093 C22.0027,19.0807 22.3701,19.4602 22.4367,19.7564 C22.5316,20.1782 22.427,20.47 22.0916,20.6866 C21.6985,20.9406 20.483,21.6078 19.9717,21.8866 C19.733,21.4852 19.4587,21.1975 19.1154,21.0007 Z M14.4955,21.4195 C14.1913,20.82 13.4135,19.2789 13.2326,18.8428 C13.1779,18.7109 13.1491,18.5069 13.2647,18.3753 C13.6912,17.8894 14.6834,17.5449 15.2098,17.5983 C15.4397,17.6216 15.5206,17.7398 15.5277,17.9233 C15.5528,18.5737 15.599,20.2423 15.6147,20.8201 C15.217,20.9536 14.8246,21.1864 14.4955,21.4195 Z M17.5446,20.6454 C17.7891,19.9961 18.3137,18.6066 18.4843,18.1803 C18.5338,18.0567 18.632,17.7238 18.8091,17.6286 C19.0063,17.5226 19.4781,17.475 19.8008,17.555 C20.1236,17.635 20.476,17.9071 20.5884,18.1217 C20.7009,18.3363 20.6417,18.5853 20.5099,18.7893 C20.2553,19.1834 19.3181,20.3691 18.9008,20.8932 C18.5332,20.7338 18.0918,20.6585 17.5446,20.6454 Z M15.8804,20.7469 C15.8694,20.083 15.8459,18.2114 15.9177,17.6889 C15.9521,17.4391 16.1321,17.2368 16.3745,17.1672 C16.6854,17.0777 17.5144,17.0738 17.8286,17.1801 C18.0851,17.2669 18.3022,17.4959 18.2626,17.7638 C18.1895,18.2595 17.5475,19.9504 17.279,20.6437 C16.9274,20.6471 16.5351,20.6721 16.0951,20.7136 C16.024,20.7203 15.9523,20.7316 15.8804,20.7469 Z M28.1138,11.2808 L6.3245,11.2808 L6.2762,10.9817 L28.1611,10.9817 L28.1138,11.2808 Z M28.2508,10.4141 L6.1847,10.4141 L6.0823,9.7796 C6.157,9.7621 6.2308,9.7407 6.3035,9.7147 C6.542,9.6296 6.7622,9.4987 6.952,9.3311 C7.1317,9.1724 7.2828,8.9834 7.4086,8.7797 C7.5024,8.6279 7.5826,8.4678 7.6522,8.3035 C7.6668,8.2689 7.6801,8.2336 7.6933,8.1983 L7.6933,7.584 C7.6744,7.5889 7.6559,7.5953 7.6379,7.603 C7.5308,7.6491 7.4544,7.74 7.4026,7.8421 C7.3687,7.9087 7.3459,7.9802 7.3187,8.0496 C7.306,8.0818 7.2926,8.1136 7.2795,8.1455 C7.2465,8.2206 7.2127,8.2949 7.1759,8.3683 C7.0833,8.546 6.9768,8.716 6.8441,8.8669 C6.6274,9.1135 6.348,9.2923 6.0299,9.3761 L6.0177,9.3792 L4.7444,1.4872 L29.6618,1.4872 L28.4075,9.4229 C28.3268,9.4125 28.2466,9.3968 28.1682,9.3761 C27.8501,9.2923 27.5708,9.1135 27.354,8.8669 C27.2214,8.716 27.1148,8.546 27.0222,8.3683 C26.9854,8.2949 26.9516,8.2206 26.9186,8.1455 C26.9055,8.1136 26.8921,8.0818 26.8795,8.0496 C26.8522,7.9802 26.8294,7.9087 26.7955,7.8421 C26.7437,7.74 26.6673,7.6491 26.5602,7.603 C26.5422,7.5953 26.5237,7.5889 26.5048,7.584 L26.5048,8.1983 C26.518,8.2336 26.5313,8.2689 26.546,8.3035 C26.6156,8.4678 26.6957,8.6279 26.7895,8.7797 C26.9154,8.9834 27.0664,9.1724 27.2461,9.3311 C27.4359,9.4987 27.6562,9.6296 27.8947,9.7147 C28.0408,9.7669 28.1915,9.8008 28.3445,9.8215 L28.2508,10.4141 Z M14.7646,9.4402 C14.7646,9.4402 14.943,9.4384 14.9937,9.4355 C15.1196,9.4283 15.2457,9.4082 15.3676,9.3761 C15.6857,9.2923 15.965,9.1135 16.1818,8.8669 C16.3144,8.716 16.421,8.546 16.5136,8.3683 C16.5503,8.2949 16.5841,8.2206 16.6172,8.1455 C16.6302,8.1136 16.6437,8.0818 16.6563,8.0496 C16.6836,7.9802 16.7064,7.9087 16.7402,7.8421 C16.792,7.74 16.8685,7.6491 16.9755,7.603 C16.9935,7.5953 17.0121,7.5889 17.031,7.584 L17.031,8.1983 C17.0178,8.2336 17.0045,8.2689 16.9898,8.3035 C16.9202,8.4678 16.84,8.6279 16.7462,8.7797 C16.6204,8.9834 16.4693,9.1724 16.2896,9.3311 C16.0999,9.4987 15.8796,9.6296 15.6411,9.7147 C15.4402,9.7865 15.2309,9.8236 15.0186,9.8395 C14.9557,9.8425 14.7521,9.84540229 14.7521,9.84540229 C14.6859,9.8455 14.5696,9.8423 14.5107,9.8395 C14.2984,9.8236 14.0891,9.7865 13.8882,9.7147 C13.6497,9.6296 13.4294,9.4987 13.2397,9.3311 C13.06,9.1724 12.9089,8.9834 12.7831,8.7797 C12.6893,8.6279 12.6091,8.4678 12.5395,8.3035 C12.5248,8.2689 12.5115,8.2336 12.4983,8.1983 L12.4983,7.584 C12.5172,7.5889 12.5358,7.5953 12.5538,7.603 C12.6608,7.6491 12.7373,7.74 12.7891,7.8421 C12.8229,7.9087 12.8457,7.9802 12.873,8.0496 C12.8856,8.0818 12.8991,8.1136 12.9121,8.1455 C12.9452,8.2206 12.979,8.2949 13.0157,8.3683 C13.1083,8.546 13.2149,8.716 13.3475,8.8669 C13.5643,9.1135 13.8436,9.2923 14.1617,9.3761 C14.2836,9.4082 14.4097,9.4283 14.5356,9.4355 C14.5897,9.4386 14.7104,9.4365 14.7646,9.4402 Z M24.1023,9.8453 C24.1023,9.8453 23.9073,9.8423 23.8483,9.8395 C23.6361,9.8236 23.4267,9.7865 23.2258,9.7147 C22.9873,9.6296 22.7671,9.4987 22.5773,9.3311 C22.3976,9.1724 22.2465,8.9834 22.1207,8.7797 C22.0269,8.6279 21.9467,8.4678 21.8771,8.3035 C21.8625,8.2689 21.8492,8.2336 21.836,8.1983 L21.836,7.584 C21.8549,7.5889 21.8734,7.5953 21.8914,7.603 C21.9985,7.6491 22.0749,7.74 22.1267,7.8421 C22.1606,7.9087 22.1834,7.9802 22.2106,8.0496 C22.2233,8.0818 22.2367,8.1136 22.2498,8.1455 C22.2828,8.2206 22.3166,8.2949 22.3534,8.3683 C22.446,8.546 22.5525,8.716 22.6852,8.8669 C22.9019,9.1135 23.1813,9.2923 23.4994,9.3761 C23.6213,9.4082 23.7473,9.4283 23.8732,9.4355 C23.9274,9.4386 24.0481,9.4365 24.1023,9.4402 C24.1023,9.4402 24.2806,9.4384 24.3314,9.4355 C24.4572,9.4283 24.5833,9.4082 24.7052,9.3761 C25.0233,9.2923 25.3026,9.1135 25.5194,8.8669 C25.652,8.716 25.7586,8.546 25.8512,8.3683 C25.888,8.2949 25.9218,8.2206 25.9548,8.1455 C25.9679,8.1136 25.9813,8.0818 25.9939,8.0496 C26.0212,7.9802 26.044,7.9087 26.0779,7.8421 C26.1297,7.74 26.2061,7.6491 26.3132,7.603 C26.3312,7.5953 26.3497,7.5889 26.3686,7.584 L26.3686,8.1983 C26.3554,8.2336 26.3421,8.2689 26.3275,8.3035 C26.2579,8.4678 26.1777,8.6279 26.0839,8.7797 C25.958,8.9834 25.807,9.1724 25.6273,9.3311 C25.4375,9.4987 25.2172,9.6296 24.9787,9.7147 C24.7779,9.7865 24.5685,9.8236 24.3563,9.8395 C24.2934,9.8425 24.1653,9.846 24.1023,9.8453 Z M19.4444,9.4396 C19.5025,9.4368 19.6118,9.4384 19.6626,9.4355 C19.7884,9.4283 19.9145,9.4082 20.0364,9.3761 C20.3545,9.2923 20.6338,9.1135 20.8506,8.8669 C20.9832,8.716 21.0898,8.546 21.1824,8.3683 C21.2192,8.2949 21.253,8.2206 21.286,8.1455 C21.299,8.1136 21.3125,8.0818 21.3251,8.0496 C21.3524,7.9802 21.3752,7.9087 21.409,7.8421 C21.4608,7.74 21.5373,7.6491 21.6443,7.603 C21.6623,7.5953 21.6809,7.5889 21.6998,7.584 L21.6998,8.1983 C21.6866,8.2336 21.6733,8.2689 21.6586,8.3035 C21.589,8.4678 21.5089,8.6279 21.415,8.7797 C21.2892,8.9834 21.1382,9.1724 20.9585,9.3311 C20.7687,9.4987 20.5484,9.6296 20.3099,9.7147 C20.109,9.7865 19.8997,9.8236 19.6875,9.8395 C19.6246,9.8425 19.4965,9.846 19.4335,9.8453 C19.3705,9.846 19.2424,9.8425 19.1795,9.8395 C18.9672,9.8236 18.7579,9.7865 18.557,9.7147 C18.3185,9.6296 18.0982,9.4987 17.9085,9.3311 C17.7288,9.1724 17.5777,8.9834 17.4519,8.7797 C17.3581,8.6279 17.2779,8.4678 17.2083,8.3035 C17.1936,8.2689 17.1803,8.2336 17.1671,8.1983 L17.1671,7.584 C17.1861,7.5889 17.2046,7.5953 17.2226,7.603 C17.3297,7.6491 17.4061,7.74 17.4579,7.8421 C17.4917,7.9087 17.5146,7.9802 17.5418,8.0496 C17.5544,8.0818 17.5679,8.1136 17.5809,8.1455 C17.614,8.2206 17.6478,8.2949 17.6846,8.3683 C17.7771,8.546 17.8837,8.716 18.0163,8.8669 C18.2331,9.1135 18.5124,9.2923 18.8306,9.3761 C18.9524,9.4082 19.0785,9.4283 19.2044,9.4355 C19.2585,9.4386 19.4444,9.4396 19.4444,9.4396 Z M9.8667,9.4355 C9.9209,9.4386 10.2741,9.4384 10.3249,9.4355 C10.4508,9.4283 10.5769,9.4082 10.6987,9.3761 C11.0169,9.2923 11.2962,9.1135 11.513,8.8669 C11.6456,8.716 11.7522,8.546 11.8447,8.3683 C11.8815,8.2949 11.9153,8.2206 11.9484,8.1455 C11.9614,8.1136 11.9749,8.0818 11.9875,8.0496 C12.0147,7.9802 12.0376,7.9087 12.0714,7.8421 C12.1232,7.74 12.1996,7.6491 12.3067,7.603 C12.3247,7.5953 12.3432,7.5889 12.3622,7.584 L12.3622,8.1983 C12.349,8.2336 12.3357,8.2689 12.321,8.3035 C12.2514,8.4678 12.1712,8.6279 12.0774,8.7797 C11.9516,8.9834 11.8005,9.1724 11.6208,9.3311 C11.431,9.4987 11.2108,9.6296 10.9723,9.7147 C10.7714,9.7865 10.5621,9.8236 10.3498,9.8395 C10.2869,9.8425 9.9008,9.8423 9.8418,9.8395 C9.6296,9.8236 9.4203,9.7865 9.2194,9.7147 C8.9809,9.6296 8.7606,9.4987 8.5708,9.3311 C8.3911,9.1724 8.2401,8.9834 8.1143,8.7797 C8.0204,8.6279 7.9403,8.4678 7.8707,8.3035 C7.856,8.2689 7.8427,8.2336 7.8295,8.1983 L7.8295,7.584 C7.8484,7.5889 7.8669,7.5953 7.885,7.603 C7.992,7.6491 8.0685,7.74 8.1203,7.8421 C8.1541,7.9087 8.1769,7.9802 8.2042,8.0496 C8.2168,8.0818 8.2303,8.1136 8.2433,8.1455 C8.2763,8.2206 8.3101,8.2949 8.3469,8.3683 C8.4395,8.546 8.5461,8.716 8.6787,8.8669 C8.8955,9.1135 9.1748,9.2923 9.4929,9.3761 C9.6148,9.4082 9.7409,9.4283 9.8667,9.4355 Z M7.6305,7.3996 C7.5626,7.4591 7.49,7.5228 7.471,7.5395 C7.4679,7.5422 7.4639,7.5435 7.4598,7.5432 C7.4249,7.5396 7.3765,7.5205 7.3488,7.4752 C7.3437,7.4662 7.3459,7.4549 7.3538,7.4484 C7.4078,7.4008 7.6313,7.204 7.7225,7.1237 C7.7448,7.1041 7.7782,7.1041 7.8005,7.1237 C7.9024,7.2135 8.1691,7.4484 8.1691,7.4484 C8.1771,7.4549 8.1792,7.4662 8.1742,7.4752 C8.1464,7.5205 8.098,7.5396 8.0631,7.5432 C8.0591,7.5435 8.055,7.5422 8.0519,7.5395 C8.0208,7.5122 7.8461,7.359 7.7837,7.3042 C7.771,7.293 7.752,7.293 7.7392,7.3042 C7.7019,7.337 7.6305,7.3996 7.6305,7.3996 Z M12.2993,7.3996 C12.2315,7.4591 12.1588,7.5228 12.1398,7.5395 C12.1367,7.5422 12.1327,7.5435 12.1286,7.5432 C12.0938,7.5396 12.0454,7.5205 12.0176,7.4752 C12.0126,7.4662 12.0147,7.4549 12.0226,7.4484 C12.0767,7.4008 12.3001,7.204 12.3913,7.1237 C12.4136,7.1041 12.447,7.1041 12.4693,7.1237 C12.5712,7.2135 12.8379,7.4484 12.8379,7.4484 C12.8459,7.4549 12.848,7.4662 12.843,7.4752 C12.8152,7.5205 12.7668,7.5396 12.732,7.5432 C12.7279,7.5435 12.7238,7.5422 12.7208,7.5395 C12.6896,7.5122 12.515,7.359 12.4525,7.3042 C12.4398,7.293 12.4208,7.293 12.4081,7.3042 C12.3707,7.337 12.2993,7.3996 12.2993,7.3996 Z M16.9681,7.3996 C16.9003,7.4591 16.8277,7.5228 16.8086,7.5395 C16.8055,7.5422 16.8015,7.5435 16.7974,7.5432 C16.7626,7.5396 16.7142,7.5205 16.6864,7.4752 C16.6814,7.4662 16.6835,7.4549 16.6915,7.4484 C16.7455,7.4008 16.9689,7.204 17.0601,7.1237 C17.0824,7.1041 17.1158,7.1041 17.1381,7.1237 C17.2401,7.2135 17.5067,7.4484 17.5067,7.4484 C17.5147,7.4549 17.5168,7.4662 17.5118,7.4752 C17.484,7.5205 17.4356,7.5396 17.4008,7.5432 C17.3967,7.5435 17.3927,7.5422 17.3896,7.5395 C17.3584,7.5122 17.1838,7.359 17.1213,7.3042 C17.1086,7.293 17.0896,7.293 17.0769,7.3042 C17.0395,7.337 16.9681,7.3996 16.9681,7.3996 Z M21.637,7.3996 C21.5691,7.4591 21.4965,7.5228 21.4774,7.5395 C21.4744,7.5422 21.4703,7.5435 21.4662,7.5432 C21.4314,7.5396 21.383,7.5205 21.3552,7.4752 C21.3502,7.4662 21.3523,7.4549 21.3603,7.4484 C21.4143,7.4008 21.6378,7.204 21.7289,7.1237 C21.7512,7.1041 21.7846,7.1041 21.8069,7.1237 C21.9089,7.2135 22.1756,7.4484 22.1756,7.4484 C22.1835,7.4549 22.1856,7.4662 22.1806,7.4752 C22.1528,7.5205 22.1044,7.5396 22.0696,7.5432 C22.0655,7.5435 22.0615,7.5422 22.0584,7.5395 C22.0272,7.5122 21.8526,7.359 21.7901,7.3042 C21.7774,7.293 21.7584,7.293 21.7457,7.3042 C21.7083,7.337 21.637,7.3996 21.637,7.3996 Z M26.3058,7.3996 C26.2379,7.4591 26.1653,7.5228 26.1463,7.5395 C26.1432,7.5422 26.1391,7.5435 26.1351,7.5432 C26.1002,7.5396 26.0518,7.5205 26.024,7.4752 C26.019,7.4662 26.0211,7.4549 26.0291,7.4484 C26.0831,7.4008 26.3066,7.204 26.3978,7.1237 C26.42,7.1041 26.4535,7.1041 26.4757,7.1237 C26.5777,7.2135 26.8444,7.4484 26.8444,7.4484 C26.8523,7.4549 26.8545,7.4662 26.8494,7.4752 C26.8217,7.5205 26.7733,7.5396 26.7384,7.5432 C26.7343,7.5435 26.7303,7.5422 26.7272,7.5395 C26.6961,7.5122 26.5214,7.359 26.459,7.3042 C26.4463,7.293 26.4272,7.293 26.4145,7.3042 C26.3772,7.337 26.3058,7.3996 26.3058,7.3996 Z M26.4368,5.2099 L27.0965,4.5976 C27.0965,4.5976 27.8927,3.8088 28.1042,3.6225 C28.2254,3.5158 28.3515,3.5216 28.3515,3.5216 C28.3515,3.5216 27.5577,4.9968 27.5608,5.8682 C27.5642,6.8205 26.9354,7.3511 26.9354,7.3511 L26.4368,6.912 L25.9382,7.3511 C25.9382,7.3511 25.3094,6.8205 25.3128,5.8682 C25.3159,4.9968 24.5221,3.5216 24.5221,3.5216 C24.5221,3.5216 24.6482,3.5158 24.7694,3.6225 C24.9809,3.8088 25.7771,4.5976 25.7771,4.5976 L26.4368,5.2099 Z M7.7615,5.2099 L8.4212,4.5976 C8.4212,4.5976 9.2174,3.8088 9.4289,3.6225 C9.5501,3.5158 9.6762,3.5216 9.6762,3.5216 C9.6762,3.5216 8.8824,4.9968 8.8855,5.8682 C8.8889,6.8205 8.2601,7.3511 8.2601,7.3511 L7.7615,6.912 L7.2629,7.3511 C7.2629,7.3511 6.6341,6.8205 6.6375,5.8682 C6.6406,4.9968 5.8468,3.5216 5.8468,3.5216 C5.8468,3.5216 5.9729,3.5158 6.0941,3.6225 C6.3056,3.8088 7.1018,4.5976 7.1018,4.5976 L7.7615,5.2099 Z M12.4303,5.2099 L13.09,4.5976 C13.09,4.5976 13.8862,3.8088 14.0977,3.6225 C14.2189,3.5158 14.345,3.5216 14.345,3.5216 C14.345,3.5216 13.5512,4.9968 13.5543,5.8682 C13.5577,6.8205 12.9289,7.3511 12.9289,7.3511 L12.4303,6.912 L11.9317,7.3511 C11.9317,7.3511 11.3029,6.8205 11.3063,5.8682 C11.3094,4.9968 10.5156,3.5216 10.5156,3.5216 C10.5156,3.5216 10.6418,3.5158 10.7629,3.6225 C10.9744,3.8088 11.7706,4.5976 11.7706,4.5976 L12.4303,5.2099 Z M17.0991,5.2099 L17.7588,4.5976 C17.7588,4.5976 18.555,3.8088 18.7665,3.6225 C18.8877,3.5158 19.0138,3.5216 19.0138,3.5216 C19.0138,3.5216 18.2201,4.9968 18.2231,5.8682 C18.2265,6.8205 17.5977,7.3511 17.5977,7.3511 L17.0991,6.912 L16.6005,7.3511 C16.6005,7.3511 15.9718,6.8205 15.9751,5.8682 C15.9782,4.9968 15.1845,3.5216 15.1845,3.5216 C15.1845,3.5216 15.3106,3.5158 15.4318,3.6225 C15.6433,3.8088 16.4395,4.5976 16.4395,4.5976 L17.0991,5.2099 Z M21.768,5.2099 L22.4276,4.5976 C22.4276,4.5976 23.2238,3.8088 23.4353,3.6225 C23.5565,3.5158 23.6826,3.5216 23.6826,3.5216 C23.6826,3.5216 22.8889,4.9968 22.892,5.8682 C22.8953,6.8205 22.2666,7.3511 22.2666,7.3511 L21.768,6.912 L21.2694,7.3511 C21.2694,7.3511 20.6406,6.8205 20.644,5.8682 C20.647,4.9968 19.8533,3.5216 19.8533,3.5216 C19.8533,3.5216 19.9794,3.5158 20.1006,3.6225 C20.3121,3.8088 21.1083,4.5976 21.1083,4.5976 L21.768,5.2099 Z M16.5419,4.4865 C16.2101,4.1788 15.8089,3.8064 15.5725,3.5866 C15.5178,3.5359 15.4875,3.4641 15.4893,3.3895 C15.4911,3.3149 15.5249,3.2447 15.582,3.1967 C15.6398,3.1464 15.7152,3.1252 15.7893,3.1365 C15.8635,3.1478 15.9292,3.1904 15.9697,3.2535 L16.6364,4.2866 C16.5928,4.3456 16.5603,4.4133 16.5419,4.4865 Z M25.8795,4.4865 C25.5478,4.1788 25.1465,3.8064 24.9101,3.5866 C24.8554,3.5359 24.8251,3.4641 24.8269,3.3895 C24.8288,3.3149 24.8625,3.2447 24.9197,3.1967 C24.9775,3.1464 25.0529,3.1252 25.127,3.1365 C25.2011,3.1478 25.2668,3.1904 25.3073,3.2535 L25.974,4.2866 C25.9305,4.3456 25.898,4.4133 25.8795,4.4865 Z M11.8731,4.4865 C11.5413,4.1788 11.14,3.8064 10.9037,3.5866 C10.8489,3.5359 10.8186,3.4641 10.8205,3.3895 C10.8223,3.3149 10.8561,3.2447 10.9132,3.1967 C10.971,3.1464 11.0464,3.1252 11.1205,3.1365 C11.1946,3.1478 11.2603,3.1904 11.3009,3.2535 L11.9675,4.2866 C11.924,4.3456 11.8915,4.4133 11.8731,4.4865 Z M21.2107,4.4865 C20.879,4.1788 20.4777,3.8064 20.2413,3.5866 C20.1866,3.5359 20.1563,3.4641 20.1581,3.3895 C20.1599,3.3149 20.1937,3.2447 20.2508,3.1967 C20.3086,3.1464 20.384,3.1252 20.4582,3.1365 C20.5323,3.1478 20.598,3.1904 20.6385,3.2535 L21.3052,4.2866 C21.2617,4.3456 21.2291,4.4133 21.2107,4.4865 Z M7.2042,4.4865 C6.8725,4.1788 6.4712,3.8064 6.2348,3.5866 C6.1801,3.5359 6.1498,3.4641 6.1516,3.3895 C6.1535,3.3149 6.1872,3.2447 6.2444,3.1967 C6.3022,3.1464 6.3776,3.1252 6.4517,3.1365 C6.5258,3.1478 6.5915,3.1904 6.632,3.2535 L7.2987,4.2866 C7.2552,4.3456 7.2227,4.4133 7.2042,4.4865 Z M8.2237,4.2858 C8.4581,3.9227 8.727,3.5064 8.8904,3.254 C8.9309,3.1913 8.9963,3.149 9.0701,3.1378 C9.1439,3.1266 9.2189,3.1477 9.2761,3.1956 C9.3357,3.2438 9.3696,3.3144 9.3714,3.3894 C9.3731,3.4643 9.3426,3.5364 9.2875,3.5873 L8.3185,4.4856 C8.3,4.4124 8.2673,4.3448 8.2237,4.2858 Z M26.899,4.2858 C27.1334,3.9227 27.4023,3.5064 27.5657,3.254 C27.6062,3.1913 27.6716,3.149 27.7454,3.1378 C27.8192,3.1266 27.8942,3.1477 27.9514,3.1956 C28.011,3.2438 28.0449,3.3144 28.0466,3.3894 C28.0484,3.4643 28.0179,3.5364 27.9628,3.5873 L26.9938,4.4856 C26.9753,4.4124 26.9426,4.3448 26.899,4.2858 Z M22.2301,4.2858 C22.4646,3.9227 22.7335,3.5064 22.8969,3.254 C22.9373,3.1913 23.0028,3.149 23.0766,3.1378 C23.1503,3.1266 23.2254,3.1477 23.2825,3.1956 C23.3421,3.2438 23.3761,3.3144 23.3778,3.3894 C23.3796,3.4643 23.349,3.5364 23.294,3.5873 L22.325,4.4856 C22.3064,4.4124 22.2738,4.3448 22.2301,4.2858 Z M17.5613,4.2858 C17.7958,3.9227 18.0647,3.5064 18.2281,3.254 C18.2685,3.1913 18.334,3.149 18.4077,3.1378 C18.4815,3.1266 18.5565,3.1477 18.6137,3.1956 C18.6733,3.2438 18.7072,3.3144 18.709,3.3894 C18.7108,3.4643 18.6802,3.5364 18.6251,3.5873 L17.6562,4.4856 C17.6376,4.4124 17.605,4.3448 17.5613,4.2858 Z M12.8925,4.2858 C13.1269,3.9227 13.3958,3.5064 13.5592,3.254 C13.5997,3.1913 13.6651,3.149 13.7389,3.1378 C13.8127,3.1266 13.8877,3.1477 13.9449,3.1956 C14.0045,3.2438 14.0384,3.3144 14.0402,3.3894 C14.0419,3.4643 14.0114,3.5364 13.9563,3.5873 L12.9874,4.4856 C12.9688,4.4124 12.9362,4.3448 12.8925,4.2858 Z M21.3647,4.2179 C21.1707,3.8394 20.9515,3.4119 20.8177,3.1501 C20.7836,3.0837 20.7797,3.0059 20.8069,2.9364 C20.8341,2.8669 20.8899,2.8125 20.96,2.7869 C21.0315,2.7594 21.1096,2.7654 21.1754,2.8013 C21.2412,2.8373 21.2883,2.8998 21.3049,2.9729 L21.5597,4.0914 C21.4862,4.1201 21.42,4.1634 21.3647,4.2179 Z M16.6959,4.2179 C16.5019,3.8394 16.2827,3.4119 16.1488,3.1501 C16.1148,3.0837 16.1108,3.0059 16.1381,2.9364 C16.1653,2.8669 16.221,2.8125 16.2911,2.7869 C16.3627,2.7594 16.4408,2.7654 16.5066,2.8013 C16.5724,2.8373 16.6195,2.8998 16.636,2.9729 L16.8909,4.0914 C16.8174,4.1201 16.7512,4.1634 16.6959,4.2179 Z M12.0271,4.2179 C11.833,3.8394 11.6139,3.4119 11.48,3.1501 C11.4459,3.0837 11.442,3.0059 11.4693,2.9364 C11.4965,2.8669 11.5522,2.8125 11.6223,2.7869 C11.6939,2.7594 11.7719,2.7654 11.8377,2.8013 C11.9035,2.8373 11.9507,2.8998 11.9672,2.9729 L12.2221,4.0914 C12.1485,4.1201 12.0823,4.1634 12.0271,4.2179 Z M26.0336,4.2179 C25.8395,3.8394 25.6204,3.4119 25.4865,3.1501 C25.4524,3.0837 25.4485,3.0059 25.4757,2.9364 C25.5029,2.8669 25.5587,2.8125 25.6288,2.7869 C25.7003,2.7594 25.7784,2.7654 25.8442,2.8013 C25.91,2.8373 25.9572,2.8998 25.9737,2.9729 L26.2285,4.0914 C26.155,4.1201 26.0888,4.1634 26.0336,4.2179 Z M7.3583,4.2179 C7.1642,3.8394 6.9451,3.4119 6.8112,3.1501 C6.7771,3.0837 6.7732,3.0059 6.8004,2.9364 C6.8277,2.8669 6.8834,2.8125 6.9535,2.7869 C7.025,2.7594 7.1031,2.7654 7.1689,2.8013 C7.2347,2.8373 7.2819,2.8998 7.2984,2.9729 L7.5532,4.0914 C7.4797,4.1201 7.4135,4.1634 7.3583,4.2179 Z M12.6376,4.091 C12.7291,3.6897 12.83,3.2478 12.893,2.9731 C12.9096,2.9003 12.9566,2.8382 13.0221,2.8025 C13.0876,2.7668 13.1653,2.7609 13.2355,2.7864 C13.236,2.7866 13.2365,2.7868 13.2375,2.7856 C13.308,2.8113 13.364,2.866 13.3913,2.9358 C13.4186,3.0057 13.4145,3.0839 13.3801,3.1505 L12.8328,4.2171 C12.7774,4.1628 12.7112,4.1195 12.6376,4.091 Z M26.644,4.091 C26.7356,3.6897 26.8365,3.2478 26.8995,2.9731 C26.9161,2.9003 26.9631,2.8382 27.0286,2.8025 C27.0941,2.7668 27.1718,2.7609 27.2419,2.7864 C27.2425,2.7866 27.243,2.7868 27.244,2.7856 C27.3144,2.8113 27.3704,2.866 27.3977,2.9358 C27.425,3.0057 27.421,3.0839 27.3866,3.1505 L26.8393,4.2171 C26.7839,4.1628 26.7176,4.1195 26.644,4.091 Z M7.9687,4.091 C8.0603,3.6897 8.1612,3.2478 8.2242,2.9731 C8.2408,2.9003 8.2878,2.8382 8.3533,2.8025 C8.4188,2.7668 8.4965,2.7609 8.5666,2.7864 C8.5672,2.7866 8.5677,2.7868 8.5687,2.7856 C8.6391,2.8113 8.6951,2.866 8.7224,2.9358 C8.7497,3.0057 8.7457,3.0839 8.7113,3.1505 L8.164,4.2171 C8.1086,4.1628 8.0423,4.1195 7.9687,4.091 Z M17.3064,4.091 C17.3979,3.6897 17.4988,3.2478 17.5618,2.9731 C17.5784,2.9003 17.6254,2.8382 17.691,2.8025 C17.7565,2.7668 17.8342,2.7609 17.9043,2.7864 C17.9048,2.7866 17.9053,2.7868 17.9063,2.7856 C17.9768,2.8113 18.0328,2.866 18.0601,2.9358 C18.0874,3.0057 18.0833,3.0839 18.049,3.1505 L17.5016,4.2171 C17.4463,4.1628 17.38,4.1195 17.3064,4.091 Z M21.9752,4.091 C22.0668,3.6897 22.1677,3.2478 22.2307,2.9731 C22.2472,2.9003 22.2943,2.8382 22.3598,2.8025 C22.4253,2.7668 22.503,2.7609 22.5731,2.7864 C22.5736,2.7866 22.5742,2.7868 22.5752,2.7856 C22.6456,2.8113 22.7016,2.866 22.7289,2.9358 C22.7562,3.0057 22.7521,3.0839 22.7178,3.1505 L22.1704,4.2171 C22.1151,4.1628 22.0488,4.1195 21.9752,4.091 Z M26.331,4.0622 C26.2751,3.5613 26.2104,2.9815 26.1736,2.6482 C26.1653,2.5739 26.189,2.4994 26.2389,2.4436 C26.2888,2.3878 26.36,2.3559 26.4349,2.3558 C26.5126,2.3544 26.5842,2.3866 26.6343,2.4427 C26.6844,2.4988 26.7081,2.5736 26.6996,2.6483 L26.5414,4.062 C26.5075,4.0557 26.4725,4.0525 26.4368,4.0525 C26.4007,4.0525 26.3653,4.0558 26.331,4.0622 Z M21.6622,4.0622 C21.6063,3.5613 21.5416,2.9815 21.5048,2.6482 C21.4964,2.5739 21.5202,2.4994 21.5701,2.4436 C21.6199,2.3878 21.6912,2.3559 21.7661,2.3558 C21.8438,2.3544 21.9154,2.3866 21.9655,2.4427 C22.0155,2.4988 22.0393,2.5736 22.0308,2.6483 L21.8726,4.062 C21.8387,4.0557 21.8037,4.0525 21.768,4.0525 C21.7318,4.0525 21.6965,4.0558 21.6622,4.0622 Z M12.3246,4.0622 C12.2686,3.5613 12.204,2.9815 12.1671,2.6482 C12.1588,2.5739 12.1825,2.4994 12.2324,2.4436 C12.2823,2.3878 12.3536,2.3559 12.4284,2.3558 C12.5061,2.3544 12.5778,2.3866 12.6278,2.4427 C12.6779,2.4988 12.7016,2.5736 12.6931,2.6483 L12.5349,4.062 C12.501,4.0557 12.466,4.0525 12.4303,4.0525 C12.3942,4.0525 12.3588,4.0558 12.3246,4.0622 Z M7.6557,4.0622 C7.5998,3.5613 7.5351,2.9815 7.4983,2.6482 C7.49,2.5739 7.5137,2.4994 7.5636,2.4436 C7.6135,2.3878 7.6847,2.3559 7.7596,2.3558 C7.8373,2.3544 7.9089,2.3866 7.959,2.4427 C8.0091,2.4988 8.0328,2.5736 8.0243,2.6483 L7.8661,4.062 C7.8322,4.0557 7.7972,4.0525 7.7615,4.0525 C7.7254,4.0525 7.69,4.0558 7.6557,4.0622 Z M16.9934,4.0622 C16.9374,3.5613 16.8728,2.9815 16.8359,2.6482 C16.8276,2.5739 16.8514,2.4994 16.9012,2.4436 C16.9511,2.3878 17.0224,2.3559 17.0972,2.3558 C17.175,2.3544 17.2466,2.3866 17.2966,2.4427 C17.3467,2.4988 17.3705,2.5736 17.362,2.6483 L17.2038,4.062 C17.1698,4.0557 17.1349,4.0525 17.0991,4.0525 C17.063,4.0525 17.0277,4.0558 16.9934,4.0622 Z M29.7515,0.9196 L4.6528,0.9196 L4.5045,0 L29.8969,0 L29.7515,0.9196 Z" id="Shape"></path>
                </g>
            </g>
        </g>
    </g>
</svg>