<?xml version="1.0" encoding="UTF-8"?>
<svg width="48px" height="48px" viewBox="0 0 48 48" version="1.1" xmlns="http://www.w3.org/2000/svg" xmlns:xlink="http://www.w3.org/1999/xlink">
    <!-- Generator: Sketch 56 (81588) - https://sketch.com -->
    <title>Bank/Mono/Refah</title>
    <desc>Created with Sketch.</desc>
    <g id="Ready-For-Export" stroke="none" stroke-width="1" fill="none" fill-rule="evenodd">
        <g id="Artboard" transform="translate(-2888.000000, -184.000000)" fill="#FFFFFF">
            <g id="Banks_(Mono)" transform="translate(80.000000, 184.000000)">
                <g id="Bank-/-Refah-/-Mono" transform="translate(2808.000000, 0.000000)">
                    <path d="M24,33 C27.3114795,33 30,35.6885118 30,39.0000195 C30,42.3114882 27.3114795,45 24,45 C20.6885205,45 18,42.3114882 18,39.0000195 C18,35.6885118 20.6885205,33 24,33 Z M43.3687619,31.4694476 L4.63139048,31.4694476 C1.71992381,28.2209143 0,24.2141333 0,19.8813714 C0,15.7982095 1.52746667,12.0045714 4.14019048,8.86217143 L17.4267429,8.86217143 C12.6686857,10.924381 9.40335238,15.1541333 9.40335238,20.0322667 C9.40335238,24.0416 11.6091429,27.6129524 15.0365714,29.902819 L32.9634286,29.902819 C36.3909333,27.6128381 38.5965714,24.0415619 38.5965714,20.0322667 C38.5965714,15.1541333 35.3313143,10.924381 30.5732571,8.86217143 L43.8598095,8.86217143 C46.472381,12.0045714 48,15.7982095 48,19.8813714 C48,24.2140571 46.28,28.2207619 43.3687619,31.4694476 Z M25.4242286,25.6072762 L11.972381,25.6072762 C17.084,23.6603048 20.6522667,19.2694857 20.6522667,14.1700952 C20.6522667,9.29192381 17.3869333,5.06209524 12.6288762,3 L25.9154286,3 C28.5281524,6.14247619 30.055619,9.9360381 30.055619,14.0191619 C30.055619,18.3518476 28.3357714,22.3585524 25.4242286,25.6072762 Z" id="Shape"></path>
                </g>
            </g>
        </g>
    </g>
</svg>