<?xml version="1.0" encoding="UTF-8"?>
<svg width="48px" height="48px" viewBox="0 0 48 48" version="1.1" xmlns="http://www.w3.org/2000/svg" xmlns:xlink="http://www.w3.org/1999/xlink">
    <!-- Generator: Sketch 56 (81588) - https://sketch.com -->
    <title>Bank/Mono/Resalat</title>
    <desc>Created with Sketch.</desc>
    <g id="Ready-For-Export" stroke="none" stroke-width="1" fill="none" fill-rule="evenodd">
        <g id="Artboard" transform="translate(-2992.000000, -184.000000)" fill="#FFFFFF">
            <g id="Banks_(Mono)" transform="translate(80.000000, 184.000000)">
                <g id="Bank-/-Resalat-/-Mono" transform="translate(2912.000000, 0.000000)">
                    <path d="M5.97282544,41.138463 C4.15452544,40.6981485 2.40182544,39.5394314 1.03702544,37.1989651 C-1.36707456,33.0760112 0.94632544,29.0071328 2.56392544,26.2216454 C-2.39077456,36.5544657 4.30512544,39.7161781 12.2331254,32.7571662 C12.2331254,32.7571662 21.9412254,23.0373014 24.6541254,20.3211108 C25.9084254,19.0652581 27.7771254,18.2328965 29.6363254,18.4493987 C32.4110254,18.7726498 34.2759254,20.3550582 35.3979254,20.8361295 C36.1340254,21.15177 36.8017254,20.6904262 36.5483254,20.0788727 C36.2903254,19.4562037 35.7411254,18.7918766 34.7013254,17.7507236 C31.6171254,14.6621132 27.8322254,11.060587 27.8322254,11.060587 C25.6314254,8.94263123 24.7547254,7.01434016 24.8750254,5.11939562 C25.0657254,2.11620443 27.8554254,0.329010265 29.7377254,0.25 C28.5942254,1.61119966 28.6931254,2.77402247 29.3630254,3.62130491 C29.3630254,3.62130491 39.9330254,14.2060768 40.1938254,14.4672413 C41.5310254,15.80631 43.2504254,21.3919052 38.3612254,22.8512418 C37.7723254,23.026987 37.1855254,23.0156712 36.5181254,22.8226018 C34.7787254,22.3191993 32.1454254,21.8404311 30.3506254,23.6055945 C27.1120254,26.7907396 16.7240085,37.2933756 15.8188254,38.1577031 C14.9136424,39.0220306 12.1832254,41.1694062 8.28032544,41.3470541 C9.21512544,44.6563725 13.7358254,44.221065 19.0356254,39.5690728 C19.0356254,39.5690728 28.7437254,29.849208 31.4565254,27.1331175 C32.7109254,25.8771647 34.5673254,25.2331659 36.4387254,25.2614053 C37.8110254,25.2821343 38.8101254,25.6475442 39.5722254,26.197011 C41.1198254,27.3128683 41.6719254,28.3754512 41.8946254,29.5603048 C40.0937254,28.5152463 38.9479254,28.6523376 37.1531254,30.4175011 C34.5552254,32.9725669 27.7150254,39.8504655 25.1102254,42.4718238 C25.1242254,42.7472081 25.2139254,42.9948537 25.4403254,43.1679954 C26.2393254,43.778948 28.0772254,43.7908646 28.9453254,42.9217517 C32.0331254,39.8301371 36.7184254,35.1391905 38.4741254,33.3814375 C39.7284254,32.1254847 41.3561254,31.382648 43.2276254,31.4108874 C44.5998254,31.4316163 45.1138254,31.7421497 45.8759254,32.2916165 C47.4235254,33.4074738 47.7772254,34.8575976 48.0000254,36.0424511 C46.3746254,34.894449 45.4823254,35.3758208 44.1706254,36.6658211 C42.2730254,38.5321256 38.1119254,42.7049491 34.9913254,45.8405251 C33.9059254,46.9311471 31.0771254,48.3350063 27.8784254,47.2018249 C26.0764254,46.563434 24.8576254,44.6453571 24.0802254,43.5189852 C23.8642254,44.2974716 13.4108683,52.548536 7.37582544,43.6584799 C6.78555665,42.7889711 6.361567,41.9904098 5.97282544,41.138463 Z M9.79392544,21.350948 C9.49212544,20.7999791 9.32042544,20.1676967 9.32042544,19.4954585 C9.32042544,17.3614804 11.0505254,15.6289625 13.1815254,15.6289625 C15.3125254,15.6289625 17.0426254,17.3614804 17.0426254,19.4954585 C17.0426254,21.6294366 15.3125254,23.3619545 13.1815254,23.3619545 C12.5103254,23.3619545 11.8788254,23.1900146 11.3286254,22.8877928 C11.6304254,23.4387617 11.8021254,24.0711442 11.8021254,24.7432823 C11.8021254,26.8772604 10.0720254,28.6097782 7.94102544,28.6097782 C5.81002544,28.6097782 4.07992544,26.8772604 4.07992544,24.7432823 C4.07992544,22.6093041 5.81002544,20.8767863 7.94102544,20.8767863 C8.61232544,20.8767863 9.24372544,21.0487262 9.79392544,21.350948 Z" id="Shape"></path>
                </g>
            </g>
        </g>
    </g>
</svg>