<?xml version="1.0" encoding="UTF-8"?>
<svg width="48px" height="48px" viewBox="0 0 48 48" version="1.1" xmlns="http://www.w3.org/2000/svg" xmlns:xlink="http://www.w3.org/1999/xlink">
    <!-- Generator: Sketch 56 (81588) - https://sketch.com -->
    <title>Bank/Mono/Saman</title>
    <desc>Created with Sketch.</desc>
    <g id="Ready-For-Export" stroke="none" stroke-width="1" fill="none" fill-rule="evenodd">
        <g id="Artboard" transform="translate(-3200.000000, -184.000000)" fill="#FFFFFF">
            <g id="Banks_(Mono)" transform="translate(80.000000, 184.000000)">
                <g id="Bank-/-Saman-/-Mono" transform="translate(3120.000000, 0.000000)">
                    <path d="M15.1109,43.7198542 C15.229,43.6336993 15.3452,43.5453405 15.4584,43.4530746 C15.6995,43.2566214 15.9282,43.0445401 16.1395,42.8162296 C16.2379,42.7099385 16.3325,42.6002413 16.4229,42.4869376 C16.4952,42.3962746 16.5646,42.3031071 16.6333,42.2095388 C16.7498,42.0506532 16.8626,41.8888623 16.9714,41.7244667 C17.276,41.2643395 17.5501,40.7839758 17.7937,40.2886853 C17.9108,40.0506574 18.0203,39.8091231 18.1238,39.564884 C18.1443,39.5161965 18.1646,39.4673086 18.1846,39.4184207 C18.1913,39.4020913 18.2045,39.3694326 18.2045,39.3694326 C18.3989,39.5689914 18.5976,39.7642424 18.8012,39.9543843 C19.3244,40.4429627 19.8768,40.8998842 20.4512,41.3265513 C20.6643,41.4849361 20.8804,41.6390131 21.0994,41.7890829 C21.2189,41.8710302 21.3389,41.9521761 21.4607,42.0306172 C21.6244,42.1361068 21.7913,42.2366876 21.9607,42.3327604 C22.3363,42.5458435 22.7241,42.736887 23.1192,42.9106994 C23.2825,42.9825286 23.4473,43.0508514 23.6128,43.1175714 C23.6687,43.1397112 23.7247,43.1617508 23.7808,43.1836903 L23.7808,43.1835901 L23.7809,43.1835901 C22.963,44.9820235 21.5448,46.5334127 20.0993,47.75 C18.2027,46.568075 16.3946,45.2100334 15.1109,43.7198542 Z M4.1528,35.6177876 C4.2662,35.6613659 4.3802,35.7025399 4.4956,35.7400073 C4.7383,35.8186487 4.9861,35.8823632 5.2374,35.9271437 C5.3529,35.9477809 5.4691,35.9644108 5.5858,35.9767329 C5.6926,35.9879531 5.7997,35.9952662 5.9069,36.0013772 C6.0495,36.009592 6.1923,36.0148013 6.3351,36.0170053 C6.7884,36.0242183 7.2422,36.0013772 7.6924,35.9483819 C7.8879,35.9253405 8.0824,35.8958876 8.2763,35.862227 C8.3591,35.8472 8.359,35.8472 8.4417,35.8314717 C8.3995,36.0456568 8.3609,36.2603428 8.328,36.4761308 C8.256,36.9492814 8.2083,37.4261388 8.1842,37.9040981 C8.171,38.1651675 8.1649,38.4265374 8.1658,38.6879073 C8.1664,38.8909724 8.171,39.0938371 8.1859,39.2965015 C8.2183,39.7371938 8.2919,40.1730775 8.3919,40.6031507 C8.4062,40.6630584 8.4209,40.722866 8.436,40.7826735 C8.5621,40.7654425 8.6878,40.7460076 8.8129,40.7223651 C9.0781,40.6721748 9.3403,40.6056552 9.5962,40.5193 C9.7149,40.4793281 9.8323,40.4350485 9.9478,40.3862608 C10.0402,40.3471905 10.1315,40.3051149 10.2223,40.2625383 C10.3488,40.2031315 10.4742,40.1414206 10.5983,40.0773053 C11.1759,39.7790691 11.7255,39.4294405 12.244,39.0372354 C12.3054,38.9904513 12.3664,38.9431662 12.427,38.8953803 C12.4874,38.8472939 12.5474,38.7988067 12.6071,38.7498186 L12.6071,38.7499188 C12.6803,39.013092 12.7587,39.2746622 12.845,39.5338282 C13.0355,40.1059568 13.2595,40.6668653 13.5141,41.213448 C13.5993,41.396477 13.688,41.5779032 13.7801,41.7577265 C13.8359,41.8667225 13.8924,41.9756183 13.9517,42.082811 C14.0279,42.2208592 14.1082,42.3567034 14.1922,42.4901433 C14.4272,42.8635146 14.6909,43.2172506 14.9722,43.556761 C15.0181,43.6113592 15.0642,43.6656568 15.1107,43.7196539 L15.1105,43.7194535 L15.111,43.7200546 C13.7876,44.6707639 12.1477,45.2286669 10.6257,45.5448353 C9.6845,44.0376255 8.8458,42.3853549 8.4359,40.7826735 C7.564,40.8950756 6.6481,40.8459873 5.7584,40.6993236 C5.2163,40.6112653 4.6805,40.4877432 4.1681,40.342983 C3.9591,38.7886885 3.8854,37.1115732 4.1528,35.6179879 L4.1528,35.6177876 Z M23.7809,43.1834899 C23.8527,43.0232017 23.9212,42.8616112 23.9838,42.6975162 C24.1173,42.3480879 24.2272,41.9894431 24.3081,41.6240863 C24.3485,41.4418586 24.3817,41.2581283 24.4071,41.0731958 C24.43,40.9065963 24.446,40.738995 24.4603,40.5713936 C24.4783,40.3611156 24.4917,40.150537 24.5005,39.9396578 C24.5277,39.2941974 24.5123,38.6468335 24.4538,38.0032764 C24.4278,37.7169617 24.3927,37.4316487 24.3502,37.1473375 C24.3378,37.0666925 24.3248,36.9861477 24.3114,36.9057031 L24.381,36.924537 L24.4509,36.9432706 C24.7849,37.0316295 25.1205,37.1132763 25.4579,37.187109 C26.3091,37.3735442 27.17,37.5139967 28.0353,37.6150785 C28.342,37.650943 28.6492,37.6817984 28.9568,37.7079454 C29.16,37.7251764 29.3634,37.7413054 29.567,37.752726 C29.8208,37.7669515 30.075,37.7743649 30.3291,37.7756672 C30.9138,37.7786726 31.4985,37.7495202 32.0806,37.6956233 C32.3536,37.6702777 32.6258,37.6388212 32.8978,37.6039585 L32.8973,37.6041588 L32.8979,37.6040587 C33.3329,40.0195014 32.8979,42.5891213 32.1644,44.8507875 C30.9606,44.7507076 29.7715,44.6125592 28.6277,44.426124 C26.8766,44.1423138 25.2259,43.741994 23.7809,43.1834899 Z M12.9871,38.4179219 C13.2157,38.2087458 13.4352,37.9897521 13.6474,37.7636456 C13.9113,37.4825402 14.1641,37.1907155 14.4048,36.8893737 C14.5956,36.650344 14.7791,36.4052032 14.9508,36.1519479 C15.1104,35.9164245 15.2603,35.6738884 15.3851,35.4179282 C15.3981,35.3902785 15.4109,35.362729 15.4233,35.3348789 C15.5263,35.6012578 15.6531,35.8578191 15.7878,36.1093714 C15.9551,36.4219333 16.1364,36.7269818 16.3271,37.0257189 C16.5742,37.4127146 16.8378,37.7892917 17.1188,38.1523444 C17.3409,38.4392603 17.5741,38.7175606 17.8218,38.982537 L17.7219,39.2286796 L17.7025,39.2757642 C17.5915,39.5432451 17.473,39.8074201 17.3452,40.0671871 C17.1185,40.5280156 16.8646,40.9753198 16.583,41.4045916 C16.4699,41.5771018 16.3524,41.7467067 16.2304,41.9130057 C16.1321,42.0468463 16.0318,42.1790841 15.9241,42.3055114 C15.7257,42.5384301 15.5074,42.752515 15.2764,42.9527751 C15.2468,42.9780205 15.2173,43.0032659 15.1872,43.0280104 C14.9291,42.7043284 14.692,42.3624137 14.4828,42.004971 C14.3916,41.849191 14.3072,41.6897042 14.225,41.5291155 C14.1277,41.339174 14.0344,41.1473291 13.9449,40.9536809 C13.7217,40.4700113 13.5231,39.9749212 13.3514,39.4705144 C13.266,39.2196634 13.1881,38.966408 13.1155,38.7115498 L13.0674,38.5385388 L12.9871,38.4179219 Z M18.4061,38.8599166 L18.4086,38.852904 C18.549,38.4567918 18.6702,38.0538674 18.7712,37.6458338 C18.9374,36.974627 19.0489,36.289395 19.0989,35.5994546 C19.1206,35.300417 19.1297,35.0009786 19.1285,34.7011395 C19.128,34.6517507 19.1273,34.6022618 19.1265,34.5527728 C19.4426,34.7629507 19.7635,34.9657152 20.0911,35.1574599 C20.5933,35.4513884 21.1101,35.720372 21.64,35.9605037 C22.1862,36.2080488 22.746,36.4247384 23.3157,36.6113739 C23.4695,36.6617645 23.6241,36.7097508 23.7793,36.7557335 L23.8282,37.0475581 L23.8376,37.105863 C23.8779,37.3598195 23.912,37.6146778 23.9386,37.8704376 C24.007,38.5302238 24.0284,39.1949189 24.0034,39.8577105 C23.9942,40.1020498 23.9786,40.3462889 23.9568,40.5898268 C23.9382,40.7974 23.9154,41.0043721 23.8801,41.2097413 C23.8026,41.6620545 23.6763,42.1063533 23.5108,42.5341224 L23.4776,42.5200972 C23.3212,42.4529765 23.1656,42.3840526 23.0116,42.3117225 C22.69,42.1607511 22.3745,41.9967563 22.0682,41.8166324 C21.9544,41.7498123 21.842,41.6807882 21.7311,41.6093598 C21.595,41.521602 21.461,41.4305383 21.3277,41.3385729 C21.0626,41.155644 20.8017,40.966504 20.5456,40.7711528 C19.8894,40.2703524 19.2653,39.7278771 18.683,39.1425247 C18.5902,39.0486559 18.498,38.9543864 18.4061,38.8599166 Z M8.9746,35.7143612 C9.4761,35.5878337 9.9672,35.4188299 10.4446,35.220373 C10.6867,35.119692 10.9255,35.0107963 11.1598,34.8928843 C11.4788,34.7323957 11.789,34.5548766 12.0842,34.3535145 C12.1281,34.3228594 12.128,34.3229596 12.1716,34.2919038 C12.1363,34.580723 12.1247,34.8717463 12.1243,35.1625691 C12.1238,35.4958684 12.1381,35.8292678 12.1628,36.1615652 C12.1914,36.5459563 12.2342,36.9292454 12.2924,37.3102304 C12.3389,37.6149783 12.3956,37.9180231 12.4658,38.2179624 L12.2549,38.391274 C12.0603,38.5499593 11.861,38.7026338 11.6562,38.847895 C11.2703,39.1216872 10.8666,39.3704344 10.4481,39.5909309 C10.3038,39.6669676 10.1579,39.7395981 10.0103,39.8088226 C9.8815,39.8692312 9.752,39.9277364 9.6192,39.9788283 C9.3595,40.0786076 9.0904,40.1558465 8.8177,40.2108454 L8.8166,40.2053355 C8.7511,39.8748413 8.7027,39.5413417 8.6808,39.2049369 C8.6695,39.0322264 8.6663,38.8592153 8.6657,38.6862042 C8.6651,38.4965633 8.6683,38.3068222 8.6753,38.1172814 C8.6914,37.6843029 8.7274,37.2520257 8.7839,36.8223532 C8.8116,36.6123757 8.8448,36.4032998 8.8816,36.1947248 C8.8924,36.1358189 8.9034,36.0770132 8.9146,36.0181073 L8.9746,35.7143612 Z M15.7234,34.7244815 C16.1532,33.7714681 16.4213,32.7805866 16.5049,31.7976193 C17.0162,32.6586674 17.7309,33.4582049 18.6198,34.1699846 L18.6278,34.6339187 C18.6291,34.7523316 18.6291,34.8708446 18.6268,34.9892575 C18.6211,35.2773755 18.6038,35.5652932 18.5755,35.8521088 C18.5126,36.4907571 18.3954,37.1237952 18.2297,37.7437097 C18.1659,37.9825391 18.0944,38.2191646 18.0168,38.4538866 L17.9966,38.4310455 C17.923,38.3468942 17.8502,38.262242 17.7789,38.1762875 C17.5804,37.9369572 17.3912,37.6900132 17.2099,37.4374591 C17.0041,37.1507437 16.8084,36.856715 16.6231,36.5562749 C16.4737,36.3140393 16.331,36.0674961 16.1982,35.8156433 C16.0911,35.6126784 15.9902,35.4063073 15.9047,35.1932242 L15.7234,34.7244815 Z M12.7249,33.886575 C13.476,33.2930078 14.1234,32.592248 14.6336,31.8040308 C14.6405,32.7523358 14.8233,33.7210775 15.1661,34.6829067 L14.9584,35.1493453 L14.9511,35.1654743 C14.8607,35.3581207 14.7522,35.5414503 14.6368,35.7199713 C14.5091,35.9177268 14.3726,36.1095717 14.231,36.2974094 C14.0266,36.5683967 13.8113,36.8311691 13.5871,37.0859271 C13.3641,37.339483 13.1322,37.585325 12.8905,37.821149 L12.8888,37.8131346 C12.7685,37.208247 12.691,36.5952449 12.6514,35.9797383 C12.6353,35.7291878 12.6255,35.4781365 12.6244,35.2269849 C12.6233,34.9813433 12.6306,34.7357017 12.6526,34.4909616 C12.6572,34.444979 12.6571,34.4450792 12.6622,34.3990965 L12.7249,33.886575 Z M38.6892,26.7606634 C41.0905,28.7479363 42.7487,31.5257305 43.866,34.3129416 C40.0817,35.9049038 36.2747,37.1643681 32.8979,37.6039585 L32.8897,37.5589776 C32.8446,37.3196473 32.7919,37.0819199 32.7294,36.8464966 C32.6048,36.3779543 32.4433,35.918929 32.2418,35.4779361 C32.1725,35.3260631 32.0984,35.176394 32.0196,35.0291292 C31.9428,34.8856713 31.8617,34.7446177 31.7794,34.6042654 C31.6005,34.2991167 31.4123,33.9995782 31.215,33.7060505 C30.814,33.1095781 30.376,32.5380505 29.9044,31.9958757 C29.6812,31.7392143 29.4501,31.4896656 29.2128,31.2461278 C29.1622,31.194535 29.1113,31.1432428 29.0602,31.0920508 C29.4672,30.9868616 29.8723,30.8742592 30.2749,30.7531414 C31.1965,30.4759431 32.1056,30.1576708 33.001,29.8048365 C33.478,29.6167984 33.9512,29.4188425 34.4204,29.2117702 C34.6418,29.1140946 34.8628,29.0150165 35.0819,28.9119311 C35.3041,28.8074433 35.5242,28.6985475 35.7423,28.5857447 C36.6642,28.1087872 37.5474,27.5606016 38.3986,26.9667339 C38.4957,26.8986114 38.5926,26.8298878 38.6892,26.7606634 Z M28.4919,31.2313011 L28.7571,31.4967784 L28.8065,31.5465679 L28.8557,31.5967582 C29.0863,31.8332834 29.3107,32.0756191 29.5275,32.3248672 C30.0174,32.8882802 30.4702,33.4842517 30.8814,34.1076725 C31.0436,34.3536147 31.1993,34.6037645 31.3483,34.8579214 C31.4273,34.9926637 31.5053,35.1282073 31.579,35.265955 C31.6394,35.3787578 31.6968,35.4931635 31.7513,35.6089717 C31.9865,36.1089707 32.1656,36.6339144 32.2957,37.1708799 L32.261,37.1745865 C32.0363,37.1972272 31.8115,37.2175638 31.5862,37.2330917 C31.0804,37.2681547 30.5731,37.2825807 30.0661,37.27106 C29.8917,37.2671529 29.7174,37.2600402 29.5432,37.2496214 C29.3617,37.2387018 29.1803,37.2242759 28.9991,37.2088481 C28.5891,37.1739854 28.1797,37.1305073 27.7716,37.0780129 C27.0066,36.979636 26.2455,36.8492015 25.4925,36.6819007 C25.1866,36.6138784 24.8823,36.5393444 24.5794,36.4592003 C24.4646,36.428445 24.3499,36.3974894 24.2353,36.3663334 C24.1668,35.9916597 24.0683,35.6223958 23.9542,35.2592429 C23.7703,34.6734898 23.5443,34.1008603 23.2911,33.5418553 C23.137,33.2018439 22.9725,32.8661404 22.7939,32.5383511 C22.7299,32.4210401 22.664,32.3046309 22.595,32.1902252 C22.5297,32.0818303 22.462,31.9744372 22.3857,31.8734556 C22.3728,31.8568257 22.3597,31.8403962 22.3461,31.8242672 L22.4161,31.8288755 L22.4864,31.8332834 C22.8245,31.8527184 23.1631,31.8631371 23.5018,31.8622355 C24.1264,31.8604322 24.7509,31.8243674 25.3722,31.7616546 C26.203,31.6777037 27.0288,31.5453658 27.8461,31.374759 C28.0621,31.329678 28.2773,31.2816917 28.4919,31.2313011 Z M19.0961,33.9317563 C19.0064,32.7949123 18.7324,31.728495 18.2745,30.7934138 C19.225,31.2770834 20.3557,31.6021679 21.6329,31.7567458 L21.9714,32.1560637 L21.9762,32.1620746 C21.9824,32.1697884 21.9824,32.1697884 21.9884,32.1776025 C22.043,32.2499325 22.0919,32.3265703 22.1394,32.4038092 C22.2028,32.5067943 22.263,32.6116829 22.3215,32.7174731 C22.4779,32.9998808 22.6224,33.2891008 22.7589,33.5816268 C22.9435,33.9774384 23.1132,34.380463 23.2649,34.7900995 C23.4361,35.2528314 23.5847,35.7244794 23.6927,36.2061454 L23.6426,36.1904171 C23.3881,36.1093714 23.1352,36.0236172 22.8846,35.9308504 C22.4803,35.7812815 22.0821,35.6151829 21.6913,35.4329553 C21.2567,35.2302909 20.8315,35.0076907 20.4164,34.7675589 C20.1958,34.6398293 19.9784,34.5068903 19.7631,34.370445 C19.6909,34.3242619 19.619,34.2777784 19.5473,34.2309943 C19.3966,34.1317158 19.2462,34.0318362 19.0961,33.9317563 Z M2.4061,29.0027945 C2.6822,29.3205658 2.9797,29.6192027 3.3081,29.8826764 C3.4042,29.9598151 3.5027,30.0338482 3.6037,30.1044752 C3.6808,30.1582719 3.7594,30.2099649 3.8384,30.2609565 C3.9616,30.3404996 4.0864,30.4175381 4.2127,30.4921722 C4.5834,30.7109656 4.967,30.9078195 5.3614,31.0803297 C5.5668,31.1701912 5.7753,31.2524391 5.9858,31.3295778 C6.0642,31.3576282 6.0642,31.3576282 6.1428,31.3849774 C5.9994,31.5760209 5.8604,31.7701699 5.7276,31.9688271 C5.4568,32.3739555 5.2098,32.7950125 4.9868,33.2283917 C4.9016,33.3939894 4.8199,33.5613904 4.7417,33.7303942 C4.7002,33.8200554 4.6593,33.9101173 4.6209,34.0012813 C4.5782,34.1025633 4.5382,34.2050476 4.5007,34.3084335 C4.366,34.679701 4.2649,35.0617879 4.1855,35.4484832 C4.1743,35.5047844 4.1634,35.5611858 4.1528,35.6177876 L4.1528,35.6173868 L4.1527,35.6178877 C2.877,35.128007 1.6494,34.2189726 0.5926,33.2490288 C0.9916,31.7793865 1.5686,30.2355108 2.4061,29.0027945 Z M6.6357,31.5617953 C6.7938,31.6096814 6.9541,31.6505549 7.1156,31.6859185 C7.3538,31.7381123 7.5945,31.7784849 7.8362,31.8099415 C8.1153,31.8462067 8.3959,31.8704502 8.6769,31.8843753 C9.0172,31.9012055 9.3582,31.9025079 9.6986,31.8863789 C9.7463,31.8838744 9.794,31.8809692 9.8417,31.8778636 C9.886,31.8746578 9.9303,31.8711515 9.9746,31.8673447 L9.9413,31.9215421 C9.8302,32.1043708 9.7238,32.2899044 9.6233,32.4788441 C9.3864,32.9245454 9.1802,33.3864759 9.0033,33.8592259 C8.8606,34.2405114 8.7369,34.6290098 8.6316,35.022317 C8.6069,35.1142823 8.5834,35.206448 8.5609,35.2989143 L8.2678,35.3547146 C8.0575,35.3929834 7.8464,35.4258425 7.634,35.4508875 C7.2058,35.5012781 6.7741,35.5230172 6.343,35.5162049 C6.2071,35.5141011 6.0712,35.5090921 5.9355,35.5012781 C5.8063,35.4938648 5.6772,35.4844478 5.5488,35.4682186 C5.2721,35.4331556 4.9983,35.3720457 4.7319,35.2893971 L4.7331,35.284288 C4.8101,34.9624093 4.9039,34.6448383 5.0246,34.3363837 C5.0878,34.174693 5.1595,34.0165086 5.2334,33.8594262 C5.3097,33.6975351 5.3893,33.5373471 5.4722,33.3788622 C5.6623,33.0158095 5.87,32.6619733 6.0952,32.3196579 C6.19,32.1755989 6.2883,32.0339442 6.3888,31.8937922 C6.4392,31.8245677 6.4392,31.8246679 6.4901,31.755744 L6.6357,31.5617953 Z M10.6125,31.7841952 C11.4956,31.6334241 12.3447,31.3363901 13.1205,30.8946959 C12.6948,31.7242875 12.4064,32.6449427 12.2544,33.6187936 L11.8409,33.9128222 C11.4689,34.171888 11.0688,34.3884774 10.6582,34.5794207 C10.1588,34.8116382 9.6417,35.0051862 9.1128,35.1584617 L9.1145,35.1521504 C9.2556,34.6306127 9.4274,34.1178909 9.6362,33.6194948 C9.7732,33.2925069 9.9255,32.9719306 10.0937,32.6599697 C10.1712,32.5163114 10.2523,32.3749573 10.3362,32.2350057 C10.4276,32.0843348 10.5199,31.9341648 10.6125,31.7841952 Z M9.729,28.8283809 C10.5609,29.1561703 11.4246,29.3277788 12.2866,29.3235712 C11.5472,29.8579319 10.8875,30.5423625 10.3271,31.3341861 L9.8904,31.3718538 L9.8493,31.3750596 C9.6025,31.393092 9.3549,31.3991028 9.1074,31.3963979 C8.85,31.3935929 8.5927,31.3813709 8.3363,31.359732 C8.0654,31.336891 7.7952,31.3034308 7.5274,31.2565465 C7.3436,31.2242885 7.1604,31.1863202 6.9799,31.1385343 L6.9854,31.1320226 C7.082,31.0191196 7.1802,30.9076192 7.2808,30.7983227 C7.5207,30.5378544 7.7729,30.2886063 8.0371,30.0529826 C8.2792,29.8369943 8.5312,29.6323263 8.7929,29.440782 C8.9212,29.3469132 9.052,29.2567511 9.1845,29.1690935 C9.234,29.1368355 9.2836,29.104878 9.3334,29.0733213 C9.4649,28.9910734 9.5969,28.909627 9.729,28.8283809 Z M23.2856,27.959619 L23.8168,28.1701976 C23.9803,28.2363165 24.1427,28.3046393 24.3036,28.3768692 C24.6601,28.5367566 25.0095,28.7124725 25.3509,28.9025142 C26.0362,29.2837997 26.6897,29.7219875 27.3064,30.2065587 C27.5575,30.4037132 27.8019,30.6089823 28.041,30.8205627 L28.0157,30.8261727 C27.019,31.0436638 26.0105,31.2076586 24.9937,31.2938135 C24.4972,31.3358892 23.9988,31.3599324 23.5004,31.3613349 C23.2409,31.3620362 22.9815,31.3557248 22.7223,31.3442041 C22.6536,31.340798 22.5848,31.3371915 22.5161,31.3332845 C22.3339,31.3219641 22.1517,31.3100427 21.9696,31.2978207 C21.2353,30.3336873 20.3761,29.5508799 19.4326,28.9954813 C20.6267,28.8937985 21.9275,28.5456726 23.2856,27.959619 Z M6.334,26.4550139 L6.3501,26.4722448 C6.6368,26.7752897 6.9398,27.063007 7.2591,27.3313895 C7.5966,27.6151997 7.9523,27.8774713 8.3253,28.112594 C8.4973,28.2210891 8.6731,28.3230724 8.8519,28.4199466 C8.905,28.4482976 8.9583,28.4762478 9.0119,28.5037974 C9.0653,28.530846 9.1189,28.5574939 9.1728,28.5838413 L9.12,28.6162996 C8.9434,28.7266981 8.7698,28.8416047 8.6002,28.9625221 C8.2008,29.2471338 7.8223,29.5609981 7.466,29.8982044 C7.1789,30.1698928 6.9062,30.4567085 6.6483,30.7563472 C6.588,30.8263731 6.5287,30.8972004 6.4701,30.9686289 L6.2303,30.8851788 C6.0298,30.81355 5.8312,30.7370124 5.6354,30.6532619 C5.259,30.4922724 4.8927,30.307941 4.5384,30.102672 C4.3933,30.0185207 4.2502,29.9308631 4.1092,29.8398995 C3.9817,29.7575515 3.8562,29.6726989 3.7352,29.5810341 C3.5241,29.4210465 3.3267,29.2445291 3.1389,29.0578936 C3.1086,29.0273386 3.0785,28.9966835 3.0487,28.9657279 C3.2417,28.7115709 3.4508,28.4695358 3.6802,28.2476368 C3.8046,28.1272203 3.9357,28.0143173 4.0691,27.9041192 C4.2168,27.7820998 4.3676,27.6638873 4.5214,27.5495818 C4.8233,27.3252785 5.1364,27.1161024 5.4596,26.9238568 C5.6306,26.822174 5.8045,26.7259009 5.9804,26.6331341 C6.0556,26.5942642 6.0555,26.5942642 6.131,26.5559954 L6.334,26.4550139 Z M29.6159,23.781407 L30.0993,23.8574437 L30.1824,23.8707677 C30.5743,23.9352836 30.9646,24.0086155 31.3529,24.0924662 C32.2691,24.2902218 33.1735,24.5425755 34.0605,24.8460211 C34.4024,24.9630314 34.7418,25.0876555 35.0783,25.2197931 C35.2422,25.2841087 35.4059,25.3495263 35.5678,25.4190513 C35.718,25.4834671 35.8667,25.5512891 36.0138,25.6224169 C36.4037,25.8109559 36.7821,26.0228368 37.1476,26.2552547 C37.3299,26.3712633 37.5087,26.4926816 37.6847,26.6181071 C37.7397,26.6577784 37.7945,26.6976501 37.849,26.7379225 L37.8262,26.7534504 L37.7689,26.7923203 C37.0239,27.2947236 36.2541,27.7604609 35.4545,28.1707987 C35.2611,28.269977 35.0661,28.3660497 34.8694,28.4585159 C34.6539,28.559798 34.4366,28.6572733 34.2188,28.7534462 C33.8164,28.9309654 33.411,29.1017724 33.0027,29.2652664 C32.2304,29.5745224 31.4476,29.8577316 30.6552,30.1108867 C30.2536,30.2391173 29.8495,30.3590329 29.4432,30.4717355 C29.3304,30.5026912 29.2174,30.5331459 29.1042,30.5630998 C28.9482,30.6039732 28.792,30.644446 28.6359,30.6847184 C28.6038,30.6548647 28.5715,30.6251113 28.5391,30.5955581 C28.1428,30.2339079 27.7292,29.8914923 27.2994,29.5707156 C26.6049,29.0524838 25.8677,28.5907537 25.0946,28.1996505 C24.7648,28.0327505 24.4284,27.880076 24.0868,27.7392227 C24.0306,27.7164818 23.9743,27.6939413 23.9179,27.6716012 C24.202,27.5345548 24.4831,27.3918983 24.7605,27.2418285 C25.4869,26.8491224 26.1896,26.4127378 26.8694,25.9438949 C27.6469,25.407731 28.3949,24.8288903 29.1147,24.2171905 C29.2834,24.0737326 29.4504,23.9283712 29.6159,23.781407 Z M2.4062,29.0026943 L2.4062,29.0026943 C1.4262,27.861743 0.6306,26.3157635 0,24.7621703 C0.9779,23.5193358 2.1835,22.2827125 3.5183,21.5103238 L3.5076,21.4677473 C3.0575,19.6634033 2.9467,17.4879921 3.0065,15.3390285 C3.5968,15.0509105 4.2168,14.7916443 4.8565,14.5752553 C5.9099,14.223022 7.0016,14.0013234 8.0606,14.0200571 L8.0607,14.0200571 C7.9438,14.6701259 7.8571,15.3258047 7.8258,15.9858915 C7.818,16.1492852 7.8136,16.3128794 7.8129,16.4764735 C7.8123,16.6231372 7.8151,16.7697007 7.8186,16.9163644 C7.8242,17.1549934 7.8335,17.3936224 7.8466,17.6319509 C7.8967,18.5444916 8.004,19.4535259 8.1787,20.3506388 C8.1973,20.4443072 8.2165,20.5378755 8.2363,20.6312433 C7.9888,20.6114077 7.7408,20.5995864 7.4925,20.5973825 C6.9724,20.592674 6.452,20.6279374 5.9371,20.7016699 C5.7626,20.726715 5.5887,20.7561679 5.4156,20.7899286 C5.3157,20.8094638 5.2159,20.8298003 5.1168,20.8534428 C5.0072,20.8795898 4.8986,20.9096439 4.791,20.943104 C4.5162,21.0285577 4.2486,21.136652 3.9892,21.2610757 C3.865,21.3205827 3.743,21.3843974 3.6222,21.4505163 C3.5701,21.4795685 3.5702,21.4795685 3.5183,21.5089213 C3.6452,22.0022082 3.8004,22.4880817 4.0013,22.9564238 C4.0592,23.0913664 4.1207,23.2247061 4.1863,23.3561424 C4.2356,23.4548198 4.2872,23.5523953 4.3394,23.6496701 C4.4201,23.79974 4.5034,23.9485074 4.5892,24.0957722 C4.8375,24.5215377 5.1076,24.9345803 5.3998,25.3312935 C5.5494,25.5343586 5.7054,25.7323145 5.8659,25.9267641 C5.9068,25.9754517 5.9444,26.0208332 5.9859,26.0689197 C5.7738,26.1744094 5.5644,26.284908 5.3589,26.40282 C4.9263,26.6510663 4.5101,26.9279642 4.1133,27.2302076 C3.9784,27.3330925 3.8457,27.4387826 3.7153,27.5473778 C3.6398,27.6101907 3.5648,27.6736048 3.4917,27.7391225 C3.4107,27.8118533 3.3318,27.886788 3.255,27.9639267 C2.979,28.2409247 2.7318,28.5442701 2.5041,28.8620414 C2.4711,28.9087254 2.4385,28.9555095 2.4062,29.0026943 Z M10.2912,25.5230383 C10.8763,26.3224756 11.5561,26.9739468 12.312,27.4439919 C11.428,27.5487803 10.5443,27.8403045 9.7001,28.2840022 L9.3397,28.1080859 L9.2892,28.0830409 L9.2389,28.0575951 C8.9834,27.9258583 8.7345,27.7824004 8.4933,27.6258188 C7.8848,27.2305081 7.3269,26.7597618 6.8208,26.2399272 L6.8592,26.2241989 C7.0918,26.129729 7.3274,26.0429731 7.5664,25.9660347 C8.1135,25.7900183 8.6769,25.6626893 9.2476,25.5939658 C9.3755,25.578538 9.5041,25.5697222 9.6325,25.5606058 C9.7224,25.554595 9.8124,25.5490851 9.9024,25.5438757 L10.2912,25.5230383 Z M22.6123,24.0155279 L23.1891,23.913244 C23.3958,23.8769788 23.6027,23.8415151 23.8099,23.8078545 C23.971,23.7817075 24.1323,23.7562618 24.294,23.7343223 C24.4566,23.7121825 24.62,23.6944507 24.7833,23.6780211 C26.1658,23.539472 27.5629,23.5568032 28.9439,23.7044687 L28.8875,23.7529558 C28.5717,24.0224403 28.2517,24.2868157 27.9253,24.5433769 C27.021,25.2541548 26.0731,25.9112362 25.0787,26.4892755 C24.7166,26.6997539 24.3481,26.8985112 23.974,27.0867497 C23.9136,27.1167035 23.8532,27.146457 23.7926,27.1761103 L23.2582,27.4338737 C22.0033,27.0211317 20.7529,26.8347967 19.5673,26.8810799 C20.6303,26.1664951 21.6599,25.199757 22.6123,24.0155279 Z M8.0608,14.0199569 C8.5035,11.5662454 9.5184,8.81059104 10.733,6.1187514 C12.723,6.37901933 14.8222,7.01446179 16.4367,8.35256756 L16.437,8.35276792 L16.4368,8.35256756 C18.3011,5.61083822 20.9577,2.84947358 23.844,0.25 C25.515,2.25710857 26.9759,4.77223049 27.4994,7.67524982 C29.5678,6.48460917 31.8978,5.49422857 34.3542,4.66884462 C35.9713,4.12556786 37.6397,3.65452097 39.32,3.24368233 C39.1121,7.00764954 38.3996,11.0048361 36.7703,14.5935883 L36.7703,14.5936884 L36.7704,14.5935883 C40.6103,14.6728307 44.4792,15.8023615 48,17.3391244 C45.1883,20.9596337 42.0342,24.3491277 38.6891,26.7605632 L38.6457,26.7247989 L38.602,26.6891348 C38.3539,26.4883738 38.0995,26.2955271 37.8375,26.1132995 C37.374,25.7908197 36.8885,25.500097 36.384,25.2467415 C36.1975,25.1530731 36.0084,25.0644137 35.8171,24.981164 C35.6333,24.9013205 35.4472,24.8266863 35.2607,24.7534546 C34.889,24.6074922 34.5137,24.4704458 34.1354,24.3425158 C33.3412,24.0740331 32.5334,23.8457226 31.7159,23.6598885 C31.3467,23.5759376 30.9755,23.5014036 30.6029,23.4343831 C30.5178,23.4193561 30.4327,23.4047298 30.3476,23.390404 C30.2627,23.3763788 30.1779,23.3627543 30.0929,23.3494303 L30.1638,23.283612 C30.4999,22.9698479 30.8303,22.6501732 31.1541,22.3236862 C31.9084,21.5628182 32.6281,20.7676886 33.3134,19.9439076 C33.6377,19.5541068 33.9542,19.1577942 34.263,18.7555711 C34.4087,18.5658299 34.5533,18.3751872 34.6941,18.1817394 C34.8427,17.9774721 34.9871,17.7701995 35.1274,17.560222 C35.5114,16.9854886 35.8645,16.3902184 36.1879,15.7792199 C36.3505,15.4720677 36.505,15.1609082 36.6533,14.8466432 C36.6927,14.7624919 36.7317,14.6781403 36.7703,14.5936884 L36.7029,14.5922859 L36.6356,14.5911839 C36.2774,14.5862751 35.9192,14.5895811 35.5612,14.6035061 C34.8718,14.630154 34.1838,14.6938686 33.5018,14.7979557 C33.2384,14.8382281 32.976,14.8844111 32.7148,14.9368053 C32.4756,14.9847916 32.2375,15.0380874 31.9997,15.0926856 C31.5578,15.1942682 31.1177,15.3040656 30.6798,15.4220778 C29.8054,15.6578016 28.9399,15.9265848 28.0867,16.230331 C27.693,16.3705831 27.3023,16.5187495 26.9141,16.6734276 C26.8262,16.7087912 26.7385,16.7443551 26.6508,16.7802196 C26.5639,16.8161843 26.4771,16.8522491 26.3904,16.8887147 L26.4182,16.8047637 C26.548,16.4092526 26.6698,16.0113372 26.7818,15.6104164 C27.0437,14.6728307 27.2552,13.7210195 27.4155,12.7606929 C27.4819,12.3628777 27.5395,11.9636599 27.5883,11.5633402 C27.6125,11.3643825 27.6354,11.1651242 27.6532,10.9654653 C27.6715,10.7602964 27.6845,10.5546266 27.6922,10.3487565 C27.7134,9.77933274 27.6939,9.20860663 27.6359,8.64188773 C27.6045,8.33593766 27.5614,8.03139012 27.5088,7.72844546 C27.5057,7.71071358 27.5025,7.6929817 27.4994,7.67524982 C27.2252,7.83493692 26.953,7.9977296 26.6841,8.16613237 C26.1385,8.50784674 25.6053,8.86979749 25.0898,9.25569128 C24.846,9.43821945 24.6062,9.62605716 24.3711,9.81970532 C24.2014,9.9593564 24.0348,10.1027141 23.8685,10.2463724 C23.6113,10.4684717 23.3568,10.6937768 23.1052,10.9223878 C22.387,11.5748609 21.6923,12.2535812 21.0262,12.9596506 C20.7331,13.2704093 20.446,13.5867781 20.1641,13.9078554 C20.0859,13.9975166 20.008,14.0874783 19.9304,14.1777406 C19.854,14.2672015 19.778,14.3569628 19.7024,14.4470248 L19.6858,14.3795034 C19.6072,14.0642365 19.521,13.7509733 19.4252,13.4405152 C19.2059,12.7296371 18.9397,12.0330847 18.6255,11.3587724 C18.4978,11.0846796 18.3622,10.8143937 18.2185,10.5484155 C18.1482,10.4181813 18.0767,10.2885483 18.001,10.1615199 C17.9313,10.0446097 17.8581,9.92980327 17.7814,9.817301 C17.5631,9.496925 17.317,9.1956834 17.0478,8.91678196 C16.8917,8.75509126 16.7278,8.60151515 16.5578,8.45455092 C16.5177,8.42018914 16.4773,8.38622808 16.4367,8.35256756 C16.2867,8.57476705 16.1392,8.79846925 15.9961,9.02507666 C15.6796,9.52617759 15.382,10.0395005 15.1101,10.5663477 C14.9951,10.7892485 14.8847,11.0144534 14.7796,11.2421628 C14.7021,11.4099644 14.6275,11.5791687 14.5537,11.7486734 C14.4418,12.0058358 14.333,12.2644006 14.2276,12.5242678 C13.937,13.2408562 13.6717,13.9678633 13.4359,14.7043875 C13.336,15.0162482 13.2419,15.3299121 13.1526,15.6449786 C13.126,15.7396488 13.0998,15.8345193 13.074,15.9293899 C13.0551,16.0000169 13.0362,16.0705437 13.0178,16.1411707 C13.0117,16.1646128 12.9995,16.2114971 12.9995,16.2114971 L12.9584,16.1767346 C12.7521,16.0036234 12.5406,15.8369236 12.3228,15.6785389 C11.9007,15.371587 11.4569,15.0943886 10.9952,14.8511513 C10.755,14.7245237 10.5099,14.6071126 10.2606,14.499419 C10.1452,14.4495293 10.029,14.4007415 9.9111,14.3567625 C9.8019,14.315889 9.6911,14.2790227 9.5793,14.2459633 C9.2732,14.1555006 8.9588,14.0940902 8.6417,14.0582257 C8.4918,14.0412953 8.3415,14.0307764 8.1908,14.0239641 C8.1258,14.02166 8.1258,14.02166 8.0608,14.0199569 Z M9.96,25.0391683 C9.7308,25.0514905 9.5013,25.0645139 9.2729,25.0873549 C9.1357,25.1010796 8.999,25.1205146 8.8628,25.1419531 C8.2158,25.2440366 7.5801,25.4152445 6.9666,25.6445567 C6.7969,25.7078706 6.629,25.775993 6.4629,25.8481227 L6.3599,25.7363217 C6.2059,25.5550959 6.0561,25.3704639 5.9122,25.1810234 C5.6076,24.7800024 5.3272,24.3605482 5.0705,23.9272692 C4.97,23.7576643 4.873,23.5858554 4.7797,23.4122433 C4.6929,23.2507529 4.6091,23.0880604 4.5328,22.9213607 C4.3612,22.5467873 4.2204,22.1573872 4.1056,21.7616757 L4.1074,21.7607741 C4.4067,21.6124074 4.7158,21.4844774 5.0372,21.3921113 C5.208,21.343023 5.3819,21.3061568 5.5564,21.272897 C5.751,21.2358303 5.9467,21.2045741 6.1432,21.1791284 C6.5743,21.123328 7.009,21.0960791 7.4436,21.0978823 C7.6504,21.0987839 7.857,21.1067983 8.0634,21.1204228 C8.1605,21.1274354 8.2577,21.1348488 8.3548,21.1426628 C8.3774,21.2358303 8.4009,21.3287975 8.4253,21.4216644 C8.6728,22.3630569 9.0062,23.2850145 9.4505,24.1517729 C9.586,24.4159478 9.7325,24.6740118 9.8887,24.9264657 C9.9123,24.9640332 9.9361,25.0016008 9.96,25.0391683 C9.9467,25.0186314 9.9206,25.0214364 9.8848,25.0416728 L9.96,25.0391683 Z M10.5554,25.0422739 L10.3465,24.7147851 C10.2085,24.4950901 10.0782,24.2707868 9.9569,24.0412742 C9.6396,23.4406944 9.3796,22.8105615 9.1666,22.1658023 C9.063,21.8522386 8.9697,21.5349681 8.8882,21.2149929 L8.9207,21.2202022 C9.0931,21.2490541 9.2649,21.2816126 9.4356,21.3196811 C9.7928,21.3995246 10.1453,21.5010071 10.4899,21.6245292 C10.8282,21.7456469 11.1589,21.8880029 11.479,22.0513966 C11.6279,22.1273331 11.774,22.2083789 11.9182,22.2928307 C11.9718,22.3247881 11.9717,22.324688 12.0251,22.3571463 L12.3916,22.5834532 C12.5134,23.748047 12.7927,24.7928254 13.2235,25.6808219 C12.4096,25.2924236 11.5052,25.0824461 10.5554,25.0422739 Z M19.8952,21.4150525 L20.4181,20.9816734 C20.6834,20.7640822 20.9533,20.5525018 21.229,20.3483347 C21.9681,19.8007502 22.7429,19.3019534 23.5414,18.8458334 C23.9512,18.6118126 24.3675,18.3891122 24.7891,18.1770309 C24.9698,18.0861676 25.1517,17.9976083 25.3342,17.9102513 C25.3975,17.8802974 25.4608,17.8503436 25.5242,17.8205901 C25.15,18.7855249 24.7182,19.7284201 24.2315,20.6416621 C23.812,21.4287772 23.3521,22.1965576 22.8248,22.9163517 C22.7737,22.9848749 22.7738,22.9848749 22.7221,23.0530976 L22.305,23.5960738 C20.9134,23.941595 19.6624,24.4535154 18.5959,25.1133016 C19.1949,24.0203366 19.6339,22.7686862 19.8952,21.4150525 Z M12.862,22.3161727 L12.8372,21.8594515 C12.8271,21.6511771 12.8208,21.4428024 12.8196,21.2342274 C12.8159,20.5894682 12.8554,19.944709 12.9276,19.3041574 C13.0089,18.5828606 13.1319,17.8664726 13.2879,17.1576983 L13.2942,17.1640096 C13.4554,17.3259007 13.6123,17.4917989 13.7635,17.6631069 C14.0467,17.9841842 14.3109,18.3221919 14.554,18.6748259 C14.7946,19.0239536 15.0146,19.3875072 15.2119,19.7629823 C15.3155,19.9603371 15.4121,20.1611982 15.5036,20.3643635 L15.7271,20.8704734 C15.2288,22.1421598 14.9359,23.3602498 14.8604,24.4879773 C14.3587,23.6466647 13.6764,22.9133463 12.862,22.3161727 Z M16.2293,20.8264944 L16.4748,20.3928147 L16.5297,20.2948385 C16.7895,19.8286003 17.0489,19.3621617 17.3157,18.8999306 C17.6264,18.3616629 17.9456,17.8283039 18.2776,17.3030596 C18.6376,16.7336358 19.013,16.1739295 19.4114,15.6305526 C19.4226,15.6154254 19.4338,15.600198 19.445,15.5850708 L19.4463,15.5927847 C19.5848,16.4078501 19.6519,17.2347368 19.6695,18.0609222 C19.6771,18.4231735 19.6747,18.7857253 19.6606,19.1478764 C19.6448,19.5528044 19.6136,19.9568308 19.5606,20.3586532 C19.5553,20.3961206 19.5501,20.4336881 19.5446,20.4711555 C19.509,20.7051763 19.4713,20.9388965 19.433,21.1725165 C18.3524,22.1543818 17.48,23.190745 16.8426,24.2448402 C16.8498,23.103388 16.6401,21.9446046 16.2293,20.8264944 Z M23.0663,23.4262685 L23.0663,23.4263687 C23.139,23.3317986 23.2107,23.2368279 23.2808,23.1403544 C23.5362,22.7892232 23.7744,22.4254692 24.001,22.0551033 C24.2574,21.6360499 24.4988,21.2078801 24.7279,20.7731986 C25.2285,19.8233909 25.6724,18.8424272 26.0531,17.838322 C26.0926,17.7340345 26.1313,17.6294464 26.1693,17.5245578 L26.6694,17.3146805 L26.7549,17.2791166 C27.1612,17.111415 27.5705,16.951227 27.9832,16.8001554 C28.9755,16.4369023 29.9854,16.1222366 31.0071,15.8531528 C31.4075,15.7477633 31.8097,15.6492863 32.2135,15.5576215 C32.3919,15.5171487 32.5704,15.4774774 32.7496,15.4408115 C32.9396,15.4019416 33.1303,15.3663777 33.3216,15.3342198 C34.1991,15.1864542 35.0887,15.1073119 35.9784,15.0927858 L35.9635,15.1225393 C35.5694,15.9064486 35.1296,16.6669159 34.6369,17.3929212 C34.524,17.5594205 34.4084,17.7240164 34.29,17.8866088 C34.1518,18.0766504 34.0097,18.2638871 33.8667,18.4502221 C33.6049,18.7912352 33.3374,19.1279405 33.0643,19.4599374 C32.3481,20.3309034 31.5931,21.170012 30.7993,21.9707516 C30.5027,22.2698894 30.2003,22.5631166 29.8933,22.851435 C29.747,22.9880807 29.6004,23.1242254 29.4537,23.26027 C29.1947,23.2271104 28.9351,23.1982586 28.675,23.1743155 C27.3085,23.0484893 25.9285,23.0478882 24.5638,23.1974571 C24.4514,23.2097793 24.339,23.2227025 24.2269,23.2379299 C23.9936,23.2695868 23.7612,23.3079558 23.5289,23.3465251 C23.3747,23.372572 23.2205,23.3990195 23.0665,23.4262685 L23.0665,23.4262685 L23.0663,23.4262685 Z M8.7599,20.6895482 L8.7137,20.4720571 L8.7024,20.4178597 C8.5248,19.552003 8.4131,18.6739243 8.3569,17.7918384 C8.3381,17.4964072 8.3254,17.2005754 8.3184,16.9045431 C8.3127,16.6588013 8.3106,16.4130595 8.3188,16.1672175 C8.3342,15.705287 8.3798,15.2453601 8.4428,14.7876371 C8.4544,14.7066916 8.4664,14.6258463 8.4789,14.5450009 C8.832,14.5792625 9.1815,14.6444798 9.52,14.7515723 C9.705,14.8099773 9.8846,14.8824075 10.0626,14.9593459 C10.2527,15.0414935 10.4402,15.1295519 10.6249,15.2233205 C11.0538,15.4409117 11.467,15.6892582 11.8615,15.9644529 C12.0585,16.1019 12.2502,16.24646 12.4378,16.3964296 C12.4912,16.439507 12.5443,16.4829852 12.597,16.5268641 C12.6871,16.6023999 12.7769,16.6783364 12.8666,16.7543731 C12.8477,16.8350181 12.8293,16.9157633 12.8113,16.9966086 C12.6593,17.6805383 12.5371,18.3712802 12.452,19.0668307 C12.3741,19.7041766 12.3273,20.34573 12.3203,20.9878845 C12.3173,21.2605748 12.3224,21.5330647 12.334,21.8054544 C12.3366,21.8585499 12.3393,21.9115452 12.3422,21.9645405 C12.1348,21.8364101 11.9231,21.7158934 11.706,21.604994 C11.2055,21.3495347 10.6806,21.142763 10.1415,20.9847789 C9.745,20.86857 9.3409,20.7787085 8.9327,20.7147935 C8.8752,20.7057773 8.8176,20.6973622 8.7599,20.6895482 Z M20.0244,20.6393579 L20.0271,20.622728 C20.1027,20.1412624 20.1412,19.654387 20.1602,19.1675117 C20.1802,18.655391 20.1778,18.1422684 20.156,17.630348 C20.1336,17.1052039 20.0909,16.5806608 20.0224,16.0595239 C19.9778,15.7205144 19.9224,15.3826068 19.8507,15.0483058 L20.141,14.7027846 L20.1969,14.6365655 C20.4649,14.3211985 20.738,14.0103396 21.0171,13.7047903 C21.6973,12.9605522 22.4102,12.2464684 23.1494,11.5611362 C23.4923,11.2431646 23.841,10.931404 24.1949,10.6257545 C24.3265,10.5121503 24.4581,10.398546 24.5915,10.2871457 C24.7536,10.1518024 24.9179,10.0192641 25.0844,9.88953086 C25.4918,9.57216026 25.9117,9.27101884 26.341,8.98420318 C26.5785,8.8254177 26.8192,8.6717414 27.0617,8.52076997 C27.0797,8.50975016 27.0977,8.49863017 27.1157,8.48761036 L27.1215,8.53689897 C27.149,8.78033665 27.1703,9.02427522 27.1835,9.26891506 C27.2055,9.6757465 27.2062,10.0837801 27.1854,10.4908119 C27.1771,10.6524024 27.1654,10.8137926 27.1503,10.9748822 C27.1337,11.151099 27.1133,11.3270153 27.0919,11.5027312 C27.0514,11.8354294 27.0047,12.1675265 26.9517,12.4985216 C26.8004,13.4440215 26.5986,14.3814068 26.3472,15.3052678 C26.2322,15.7283284 26.1059,16.1480831 25.9706,16.5650327 C25.9059,16.762087 25.8406,16.9589409 25.7752,17.1557948 C25.5933,17.2368406 25.4123,17.3196895 25.2322,17.4044419 C23.921,18.0221525 22.6528,18.7364367 21.4622,19.5647258 C21.0801,19.8305037 20.7073,20.1089042 20.3427,20.3983246 C20.2885,20.4418027 20.2344,20.4854813 20.1805,20.52926 C20.1272,20.5729385 20.074,20.6168174 20.0209,20.6607965 C20.0266,20.6559878 20.0275,20.6487748 20.0244,20.6393579 Z M13.4185,16.5875732 L13.5015,16.2679987 C13.5816,15.9632508 13.6664,15.659705 13.7568,15.3578623 C13.9864,14.5914845 14.2495,13.835325 14.5406,13.0902855 C14.6802,12.7328428 14.8264,12.3780049 14.9787,12.0257716 C15.1304,11.6746403 15.2876,11.3260135 15.4589,10.9839986 C15.7817,10.3396401 16.1455,9.71722107 16.5347,9.1110312 L16.5583,9.13397245 C16.6636,9.23765886 16.7659,9.34435069 16.8643,9.45464899 C17.0627,9.67734938 17.2455,9.91377445 17.4105,10.1622211 C17.5444,10.3637835 17.6638,10.5738612 17.7788,10.786744 C17.8963,11.0044353 18.0084,11.2251321 18.1149,11.4485338 C18.4446,12.1398767 18.7217,12.8563649 18.9475,13.5884812 C19.0339,13.8682842 19.1122,14.1504916 19.1841,14.4344021 C19.226,14.6020034 19.2672,14.7697049 19.3082,14.9374064 C18.917,15.4417131 18.5513,15.9657553 18.2007,16.499014 C17.6113,17.3953255 17.0662,18.3195872 16.5385,19.2533661 C16.3556,19.5789514 16.1755,19.9061397 15.9915,20.231124 C15.8656,19.9460114 15.7296,19.6658076 15.5808,19.3920153 C15.2552,18.7930384 14.8742,18.2244161 14.4453,17.694864 C14.1783,17.3650711 13.8927,17.0504054 13.5904,16.7528704 C13.5337,16.6971703 13.4764,16.6420712 13.4185,16.5875732 Z" id="Shape"></path>
                </g>
            </g>
        </g>
    </g>
</svg>