<?xml version="1.0" encoding="UTF-8"?>
<svg width="48px" height="48px" viewBox="0 0 48 48" version="1.1" xmlns="http://www.w3.org/2000/svg" xmlns:xlink="http://www.w3.org/1999/xlink">
    <!-- Generator: Sketch 56 (81588) - https://sketch.com -->
    <title>Bank/Mono/Sarmayeh</title>
    <desc>Created with Sketch.</desc>
    <g id="Ready-For-Export" stroke="none" stroke-width="1" fill="none" fill-rule="evenodd">
        <g id="Artboard" transform="translate(-3408.000000, -184.000000)" fill="#FFFFFF">
            <g id="Banks_(Mono)" transform="translate(80.000000, 184.000000)">
                <g id="Bank-/-Sarmayeh-/-Mono" transform="translate(3328.000000, 0.000000)">
                    <path d="M14.1858,23.2808547 L14.1858,16.416 C24.1383,16.0947 32.9508,9.8457 41.085,0.0666 L41.1234,16.1046 C38.6578922,19.048185 36.1924297,21.4424898 33.727,23.3707491 L33.727,16.9233373 L33.0137648,16.9368251 C26.2096285,17.0654967 20.0284616,19.0358564 14.1858,23.2808547 Z M27.2574,48 C23.9367,48 21.2283,45.2916 21.2283,41.9709 C21.2283,38.6499 23.9367,35.9415 27.2574,35.9415 C30.5784,35.9415 33.2868,38.6499 33.2868,41.9709 C33.2868,45.2916 30.5784,48 27.2574,48 Z M33.027,17.6367 L33.027,31.6506 C23.0748,31.9719 14.262,38.2209 6.1278,48 L6.0894,31.962 C15.069,21.2412 24.048,17.8065 33.027,17.6367 Z" id="Shape"></path>
                </g>
            </g>
        </g>
    </g>
</svg>