<?xml version="1.0" encoding="UTF-8"?>
<svg width="48px" height="48px" viewBox="0 0 48 48" version="1.1" xmlns="http://www.w3.org/2000/svg" xmlns:xlink="http://www.w3.org/1999/xlink">
    <!-- Generator: Sketch 56 (81588) - https://sketch.com -->
    <title>Bank/Mono/Shahr</title>
    <desc>Created with Sketch.</desc>
    <g id="Ready-For-Export" stroke="none" stroke-width="1" fill="none" fill-rule="evenodd">
        <g id="Artboard" transform="translate(-3616.000000, -184.000000)" fill="#FFFFFF">
            <g id="Banks_(Mono)" transform="translate(80.000000, 184.000000)">
                <g id="Bank-/-Shahr-/-Mono" transform="translate(3536.000000, 0.000000)">
                    <path d="M24.0380697,2.93737086 C26.4812332,2.93737086 28.4640751,4.94096128 28.4640751,7.41252583 C28.4640751,9.88436135 26.4809651,11.8879518 24.0380697,11.8879518 C21.5911528,11.8879518 19.6080429,9.88436135 19.6080429,7.41252583 C19.6080429,4.94096128 21.5911528,2.93737086 24.0380697,2.93737086 Z M34.3442359,0 C36.791689,0 38.7734584,2.0038614 38.7734584,4.47542594 C38.7737265,6.94726146 36.791689,8.95112285 34.3439678,8.95112285 C31.9005362,8.95112285 29.9174263,6.94726146 29.9174263,4.47542594 C29.9174263,2.0038614 31.9005362,0 34.3439678,0 L34.3442359,0 Z M14.5930295,7.51630932 C17.038874,7.51630932 19.0214477,9.52071266 19.0214477,11.9933611 C19.0214477,14.4643837 17.038874,16.4685161 14.5930295,16.4685161 C12.1474531,16.4685161 10.1646113,14.4643837 10.1646113,11.9933611 C10.1646113,9.52071266 12.1474531,7.51630932 14.5930295,7.51630932 Z M23.9428954,35.5129221 L24.0104558,28.4410121 C24.3037534,28.4269214 27.2563003,28.310673 29.0713137,29.2254852 C29.7359249,29.5601396 29.8042895,29.991532 29.8032172,30.4481252 C29.8021448,32.5712157 24.0672922,35.6026149 23.5034853,35.8901196 C16.2412869,39.595705 6,40.2257223 6,40.2257223 L6.09624665,48 C10.4780161,47.3927446 18.383378,46.4990685 27.9233244,41.3304881 C32.6418231,38.7738373 37.7485255,34.565322 36.7959786,28.5415439 C35.8756032,22.7302103 29.7892761,21.0927074 24.0576408,21.3436304 L23.9900804,28.4158114 C23.6997319,28.4301731 20.7453083,28.5466924 18.9300268,27.6321512 C18.2651475,27.2974969 18.1981233,26.8663754 18.1981233,26.4092403 C18.1986595,24.2858788 23.9329759,21.2544796 24.497319,20.9677878 C31.7603217,17.2613894 42,16.6313722 42,16.6313722 L41.9040214,8.85682349 C37.5209115,9.46543373 29.616622,10.3582969 20.0774799,15.5266064 C15.3581769,18.0829861 10.2530831,22.2917725 11.2064343,28.3155506 C12.1265416,34.128239 18.2128686,35.7643871 23.9428954,35.5129221 L23.9428954,35.5129221 Z" id="Shape"></path>
                </g>
            </g>
        </g>
    </g>
</svg>