<?xml version="1.0" encoding="UTF-8"?>
<svg width="48px" height="48px" viewBox="0 0 48 48" version="1.1" xmlns="http://www.w3.org/2000/svg" xmlns:xlink="http://www.w3.org/1999/xlink">
    <!-- Generator: Sketch 56 (81588) - https://sketch.com -->
    <title>Bank/Mono/Tosee_Taavon</title>
    <desc>Created with Sketch.</desc>
    <g id="Ready-For-Export" stroke="none" stroke-width="1" fill="none" fill-rule="evenodd">
        <g id="Artboard" transform="translate(-4344.000000, -184.000000)" fill="#FFFFFF">
            <g id="Banks_(Mono)" transform="translate(80.000000, 184.000000)">
                <g id="Bank-/-Tosee-Taavon-/-Mono" transform="translate(4264.000000, 0.000000)">
                    <path d="M22.6232155,34.5074028 C23.0106155,34.8158586 23.2306155,35.2993326 23.1957155,35.8070952 C23.0473155,37.9674853 22.7036155,42.9698469 22.5387155,45.2495812 C22.4933155,45.9091728 21.9883155,46.4450224 21.3322155,46.5293829 C17.5364155,46.9821713 15.5434155,48.1128427 13.3804155,47.0737285 C11.2174155,46.0346142 10.8557155,43.7726716 8.83841552,40.5270888 C8.49451552,39.9622528 8.59761552,39.2333935 9.08461552,38.7860027 C10.7626155,37.2331286 14.4561155,33.8401147 16.0512155,32.3746997 C16.4275155,32.0289613 16.9452155,31.8989221 17.4298155,32.0109698 C18.8330155,33.3240559 20.6298155,34.2218363 22.6232155,34.5074028 Z M30.5735155,32.0023738 C31.0580155,31.8896265 31.5758155,32.019066 31.9526155,32.3642046 C33.5496155,33.8275206 37.2475155,37.2157367 38.9276155,38.7663119 C39.4152155,39.213103 39.5193155,39.9418623 39.1761155,40.5070981 C37.1631155,43.7552797 36.8044155,46.0177221 34.6428155,47.059735 C32.4812155,48.1017479 30.4866155,46.9736752 26.6902155,46.5257846 C26.0341155,46.4423236 25.5283155,45.9071738 25.4821155,45.2476821 C25.3142155,42.9681477 24.9639155,37.9662859 24.8126155,35.8059957 C24.7771155,35.298333 24.9964155,34.8145592 25.3834155,34.5056036 C27.3762155,34.2174383 29.1719155,33.3173591 30.5735155,32.0023738 Z M15.7014186,29.8521789 C15.7024155,30.3479472 15.4614155,30.8222254 15.0420155,31.11199 C13.2598155,32.3433144 9.13321552,35.1944816 7.24741552,36.4873772 C6.70331552,36.8633015 5.96931552,36.8027298 5.49421552,36.3427448 C2.77291552,33.6593992 0.64571552,32.8071975 0.10931552,30.4690905 C-0.42678448,28.1309835 1.11661552,26.437775 2.39691552,22.837458 C2.62411552,22.2165483 3.25841552,21.8425231 3.91201552,21.9440757 C6.17301552,22.2868154 11.1300155,23.0566556 13.2708155,23.3891002 C13.7743155,23.4672636 14.1979155,23.7890132 14.4131155,24.2354046 C14.3933155,24.4862873 14.3833155,24.7398687 14.3833155,24.9957491 C14.3833155,26.7669212 14.8637155,28.4268452 15.7014186,29.8521789 Z M33.5800155,24.2227105 C33.7946155,23.7760193 34.2177155,23.4538699 34.7211155,23.3750068 C36.8615155,23.0396635 41.8175155,22.2633264 44.0780155,21.917588 C44.7314155,21.8152359 45.3663155,22.1884614 45.5943155,22.8090713 C46.8793155,26.4076891 48.4250155,28.0987986 47.8919155,30.4376052 C47.3587155,32.7764119 45.2326155,33.6313123 42.5148155,36.3183562 C42.0403155,36.7789409 41.3064155,36.8405121 40.7618155,36.4652875 C38.8743155,35.1748907 34.7440155,32.329221 32.9601155,31.1001955 C32.5404155,30.8109307 32.2987155,30.3370522 32.299115,29.841284 C33.1328155,28.4183492 33.6108155,26.7624233 33.6108155,24.9957491 C33.6108155,24.7355707 33.6004155,24.4777912 33.5800155,24.2227105 Z M15.0230155,21.5445624 C14.6362155,21.8531182 14.1161155,21.9597683 13.6290155,21.8130369 C11.5545155,21.1884289 6.75131552,19.742205 4.56411552,19.0750168 C3.93071552,18.884406 3.52031552,18.2730917 3.58371552,17.6149994 C3.98531552,13.8152756 3.32511552,11.621701 4.81921552,9.74457849 C6.31341552,7.86745598 8.60021552,8.01748585 12.2143155,6.7725678 C12.8416155,6.56286583 13.5298155,6.82524318 13.8580155,7.39927484 C14.9999155,9.37954913 17.4892155,13.7328141 18.5643155,15.6128353 C18.8176155,16.0557283 18.8298155,16.5881794 18.6138155,17.0351704 C16.9993155,18.1285593 15.7344155,19.6996249 15.0230155,21.5445624 Z M29.3697155,17.0279738 C29.1532155,16.5813825 29.1647155,16.0489314 29.4174155,15.6057386 C30.4900155,13.7242182 32.9735155,9.36775464 34.1128155,7.3858811 C34.4403155,6.81144962 35.1281155,6.5481727 35.7557155,6.75697509 C39.3714155,7.99719533 41.6580155,7.84416687 43.1547155,9.71929031 C44.6513155,11.5944138 43.9940155,13.788788 44.4006155,17.5881119 C44.4649155,18.2461043 44.0553155,18.8579183 43.4222155,19.0494288 C41.2359155,19.7195156 36.4345155,21.1720366 34.3609155,21.7994433 C33.8740155,21.9466744 33.3538155,21.8408239 32.9665155,21.5327679 C32.2527155,19.6889299 30.9858155,18.1193636 29.3697155,17.0279738 Z M21.1113155,15.8277348 C20.6291155,15.7171865 20.2220155,15.3768456 20.0336155,14.9046663 C19.2310155,12.8932066 17.3727155,8.2357838 16.5333155,6.10957772 C16.2882155,5.49556475 16.5113155,4.79389276 17.0660155,4.43376111 C20.2908155,2.38212018 21.5971155,0.5 23.9970155,0.5 C26.3969155,0.5 27.7032155,2.38212018 30.9281155,4.43376111 C31.4828155,4.79389276 31.7058155,5.49556475 31.4608155,6.10957772 C30.6213155,8.2357838 28.7631155,12.8932066 27.9605155,14.9046663 C27.7721155,15.3768456 27.3650155,15.7171865 26.8828155,15.8277348 C25.9717155,15.5410688 25.0023155,15.3865411 23.9970155,15.3865411 C22.9918155,15.3865411 22.0223155,15.5410688 21.1113155,15.8277348 Z M23.997,17.4865 C28.1478,17.4865 31.5177,20.8564 31.5177,25.0072 C31.5177,29.158 28.1478,32.5279 23.997,32.5279 C19.8462,32.5279 16.4763,29.158 16.4763,25.0072 C16.4763,20.8564 19.8462,17.4865 23.997,17.4865 Z" id="Shape"></path>
                </g>
            </g>
        </g>
    </g>
</svg>