<?xml version="1.0" encoding="UTF-8"?>
<svg width="48px" height="48px" viewBox="0 0 48 48" version="1.1" xmlns="http://www.w3.org/2000/svg" xmlns:xlink="http://www.w3.org/1999/xlink">
    <!-- Generator: Sketch 56 (81588) - https://sketch.com -->
    <title>Bank/Color/Bank_Markazi</title>
    <desc>Created with Sketch.</desc>
    <g id="Ready-For-Export" stroke="none" stroke-width="1" fill="none" fill-rule="evenodd">
        <g id="Artboard" transform="translate(-288.000000, -80.000000)" fill="#00194A">
            <g id="Banks_(Color)" transform="translate(80.000000, 80.000000)">
                <g id="Bank-/-Bank-Markazi-/-Color" transform="translate(208.000000, 0.000000)">
                    <path d="M25.671,47.3078 C25.2278,47.751 24.6267,48 24,48 C23.3732,48 22.7722,47.751 22.329,47.3078 C20.5508,45.5297 17.9909,42.9698 17.9909,42.9698 C17.9909,42.9698 20.7323,42.9698 22.4968,42.9698 C23.4282,42.9698 24.3214,42.5998 24.98,41.9412 C27.8897,39.0316 35.9696,30.9516 35.9696,30.9516 L36.0182,36.9607 C36.0182,36.9607 28.9732,44.0056 25.671,47.3078 Z M9.52530003,36.3527 C10.1827,37.01 11.0743,37.3793 12.004,37.3793 C16.1166,37.3793 27.5482,37.3793 27.5482,37.3793 L23.3335,41.6627 L6.33730003,41.6627 L6.33730003,33.1646 C6.33730003,33.1646 8.27770003,35.105 9.52530003,36.3527 Z M41.6627,41.6627 L33.1646,41.6627 C33.1646,41.6627 35.105,39.7223 36.3527,38.4747 C37.01,37.8173 37.3793,36.9257 37.3793,35.996 C37.3793,31.8834 37.3793,20.4518 37.3793,20.4518 L41.6627,24.6665 L41.6627,41.6627 Z M0.69220003,25.671 C0.24900003,25.2278 1.80966353e-14,24.6267 1.80966353e-14,24 C1.80966353e-14,23.3732 0.24900003,22.7722 0.69220003,22.329 C2.47030003,20.5508 5.03020003,17.9909 5.03020003,17.9909 C5.03020003,17.9909 5.03020003,20.7323 5.03020003,22.4968 C5.03020003,23.4282 5.40020003,24.3214 6.05880003,24.98 C8.96840003,27.8897 17.0484,35.9696 17.0484,35.9696 L11.0393,36.0182 C11.0393,36.0182 3.99440003,28.9732 0.69220003,25.671 Z M24,12.9834 C30.0803,12.9834 35.0166,17.9197 35.0166,24 C35.0166,30.0803 30.0803,35.0166 24,35.0166 C17.9197,35.0166 12.9834,30.0803 12.9834,24 C12.9834,17.9197 17.9197,12.9834 24,12.9834 Z M47.3078,22.329 C47.751,22.7722 48,23.3733 48,24 C48,24.6268 47.751,25.2278 47.3078,25.671 C45.5297,27.4492 42.9698,30.0091 42.9698,30.0091 C42.9698,30.0091 42.9698,27.2677 42.9698,25.5032 C42.9698,24.5718 42.5998,23.6786 41.9412,23.02 C39.0316,20.1103 30.9516,12.0304 30.9516,12.0304 L36.9607,11.9818 C36.9607,11.9818 44.0056,19.0268 47.3078,22.329 Z M6.33730003,6.3373 L14.8354,6.3373 C14.8354,6.3373 12.895,8.2777 11.6473,9.5253 C10.99,10.1827 10.6207,11.0743 10.6207,12.004 C10.6207,16.1166 10.6207,27.5482 10.6207,27.5482 L6.33730003,23.3335 L6.33730003,6.3373 Z M30.0091,5.0302 C30.0091,5.0302 27.2677,5.0302 25.5032,5.0302 C24.5718,5.0302 23.6786,5.4002 23.02,6.0588 C20.1103,8.9684 12.0304,17.0484 12.0304,17.0484 L11.9818,11.0393 C11.9818,11.0393 19.0268,3.9944 22.329,0.6922 C22.7722,0.249 23.3733,0 24,0 C24.6268,0 25.2278,0.249 25.671,0.6922 C27.4492,2.4703 30.0091,5.0302 30.0091,5.0302 Z M41.6627,6.3373 L41.6627,14.8354 C41.6627,14.8354 39.7223,12.895 38.4747,11.6473 C37.8173,10.99 36.9257,10.6207 35.996,10.6207 C31.8834,10.6207 20.4518,10.6207 20.4518,10.6207 L24.6665,6.3373 L41.6627,6.3373 Z" id="Shape"></path>
                </g>
            </g>
        </g>
    </g>
</svg>