<?xml version="1.0" encoding="UTF-8"?>
<svg width="48px" height="48px" viewBox="0 0 48 48" version="1.1" xmlns="http://www.w3.org/2000/svg" xmlns:xlink="http://www.w3.org/1999/xlink">
    <!-- Generator: Sketch 56 (81588) - https://sketch.com -->
    <title>Bank/Color/Dey</title>
    <desc>Created with Sketch.</desc>
    <g id="Ready-For-Export" stroke="none" stroke-width="1" fill="none" fill-rule="evenodd">
        <g id="Artboard" transform="translate(-496.000000, -80.000000)" fill="#008B9A">
            <g id="Banks_(Color)" transform="translate(80.000000, 80.000000)">
                <g id="Bank-/-Dey-/-Color" transform="translate(416.000000, 0.000000)">
                    <path d="M24.5716448,28.698503 L26.7865536,26.4849026 L26.8596967,26.5471954 C29.4280484,28.7485334 33.2604494,32.0314112 36.452726,32.6396241 C36.6878637,32.6602248 36.9239832,32.6749397 37.1601027,32.6749397 L37.1601027,32.6724872 C37.1748295,32.6724872 37.1920107,32.6700347 37.2057557,32.6744492 L37.199865,32.6744492 L37.199865,32.6749397 L37.2155736,32.6744492 C39.3352492,32.6479625 41.0700647,30.9385901 41.0700647,28.8054308 C41.0700647,26.6963056 39.336231,24.9432792 37.199865,24.9359218 L37.199865,18.0145579 L39.0466041,18.0145579 C41.0548471,18.0248582 42.9074769,18.6924209 44.4002823,19.8132002 C45.8876878,20.929565 47.0177233,22.4957131 47.5881408,24.3090702 C47.8556775,25.1610587 48,26.067492 48,27.0067884 C48,29.4577881 47.0187051,31.6797269 45.4267393,33.3017913 C45.1081498,33.6264985 44.7650157,33.9276619 44.4002823,34.2013577 C42.9074769,35.322137 41.0548471,35.9896996 39.0466041,36 L38.9528436,36 C33.555476,35.9725323 28.4418445,32.1084188 24.5716448,28.698503 Z M3.9487426,24.0952147 C2.90363158,25.9188723 2.8751598,28.1569974 3.94776081,29.9762405 C4.98698111,31.7390767 6.94858919,32.6724872 8.95781389,32.6724872 C16.589726,32.6724872 20.9326556,23.1441464 24.6055164,18.0145579 C24.9869402,17.4818811 25.3835817,16.9649002 25.7998589,16.4690106 C26.3609495,15.800467 26.9573844,15.1696914 27.5999632,14.5913987 C29.9812847,12.4464675 32.9894765,11.0152053 37.1340854,11.0004905 C37.1556846,11 37.1777748,11 37.199865,11 L37.199865,18.0145579 C35.320236,18.0145579 33.532404,18.7041927 31.7872797,19.8132002 C30.9728884,20.3306716 30.167824,20.9393749 29.3671777,21.6118425 C25.5652121,24.8054504 22.4509874,28.7308756 18.5999325,31.8764151 C17.9774803,32.3845671 17.3457011,32.8632895 16.7021405,33.3017913 C16.2289197,33.6245365 15.7493174,33.9261904 15.2623516,34.2013577 C13.3419785,35.2882929 11.2267209,36 9.00003068,36 C7.05118581,35.9955856 5.15830274,35.3716769 3.59971774,34.2013577 C3.2349843,33.9276619 2.89135926,33.6264985 2.57276976,33.3017913 C0.981294935,31.6797269 0,29.4577881 0,27.0072789 C0,26.0670015 0.144322517,25.1610587 0.411859155,24.3090702 C0.98227672,22.4957131 2.11231221,20.929565 3.59922684,19.8132002 C5.15437559,18.6458239 7.05462206,18.0145579 9.00003068,18.0145579 C11.4039333,18.0209343 13.68364,18.7135121 15.8023338,19.8132002 C16.7590841,20.3095803 17.6893261,20.8873825 18.5999325,21.5196296 C18.6441129,21.5500402 18.6882932,21.5809414 18.7324736,21.6118425 C18.8134709,21.6687398 18.9258854,21.7280896 19.0481177,21.8114736 L19.693151,22.249485 L19.7049325,22.2578234 L18.0044794,24.7156899 C15.452818,22.8621123 12.2777227,21.1566639 9.03782944,21.1566639 C6.90784508,21.1566639 5.01299844,22.2382036 3.9487426,24.0952147 Z" id="Shape"></path>
                </g>
            </g>
        </g>
    </g>
</svg>