<?xml version="1.0" encoding="UTF-8"?>
<svg width="48px" height="48px" viewBox="0 0 48 48" version="1.1" xmlns="http://www.w3.org/2000/svg" xmlns:xlink="http://www.w3.org/1999/xlink">
    <!-- Generator: Sketch 56 (81588) - https://sketch.com -->
    <title>Bank/Color/Ghavamin</title>
    <desc>Created with Sketch.</desc>
    <g id="Ready-For-Export" stroke="none" stroke-width="1" fill="none" fill-rule="evenodd">
        <g id="Artboard" transform="translate(-912.000000, -80.000000)" fill-rule="nonzero">
            <g id="Banks_(Color)" transform="translate(80.000000, 80.000000)">
                <g id="Bank-/-Ghavamin-/-Color" transform="translate(832.000000, 0.000000)">
                    <path d="M36,7.41839495 L9.29032257,7.41839495 L9.29032257,26.6582506 C9.29032257,26.6582506 11.1688805,33.9053201 19.6565465,33.9053201 C28.1442125,33.9053201 29.5616698,27.600541 29.5616698,27.600541 C29.5616698,27.600541 31.4402277,38 16.0360531,38 C0.631878558,38 0,26.8124436 0,26.8124436 L0,3.3065825 C0,3.3065825 0.47817837,0 2.83491461,0 C5.19165085,0 27.8197344,0 27.8197344,0 L36,7.41839495 Z M10,40.5816049 L36.7096775,40.5816049 L36.7096775,21.3417493 C36.7096775,21.3417493 34.8311197,14.0946799 26.3434536,14.0946799 C17.8557875,14.0946799 16.4383302,20.399459 16.4383302,20.399459 C16.4383302,20.399459 14.5597723,10 29.963947,10 C45.3681215,10 46,21.2046889 46,21.2046889 L46,44.6934175 C46,44.6934175 45.521822,48 43.1650856,48 C40.8083493,48 18.1802657,48 18.1802657,48 L10,40.5816049 Z" id="Shape" fill="#007D3D"></path>
                    <ellipse id="Shape" fill="#FFF400" cx="23.404875" cy="23.931" rx="8.8695" ry="8.892"></ellipse>
                </g>
            </g>
        </g>
    </g>
</svg>