<?xml version="1.0" encoding="UTF-8"?>
<svg width="48px" height="48px" viewBox="0 0 48 48" version="1.1" xmlns="http://www.w3.org/2000/svg" xmlns:xlink="http://www.w3.org/1999/xlink">
    <!-- Generator: Sketch 56 (81588) - https://sketch.com -->
    <title>Bank/Color/Hekmat</title>
    <desc>Created with Sketch.</desc>
    <g id="Ready-For-Export" stroke="none" stroke-width="1" fill="none" fill-rule="evenodd">
        <g id="Artboard" transform="translate(-1016.000000, -80.000000)" fill="#324C88">
            <g id="Banks_(Color)" transform="translate(80.000000, 80.000000)">
                <g id="Bank-/-Hekmat-/-Color" transform="translate(936.000000, 0.000000)">
                    <path d="M11.3607978,22.0608935 C8.40821088,22.0608935 6,19.5945608 6,16.5709759 C6,13.5471288 8.40821088,11.0807961 11.3607978,11.0807961 C14.3131286,11.0807961 16.7213395,13.5471288 16.7213395,16.5709759 C16.7213395,19.5945608 14.3131286,22.0608935 11.3607978,22.0608935 Z M36.6394583,22.1615922 C33.6868714,22.1615922 31.2786605,19.6952595 31.2786605,16.6716747 C31.2786605,13.6478275 33.6868714,11.1814949 36.6394583,11.1814949 C39.5920452,11.1814949 42,13.6478275 42,16.6716747 C42,19.6952595 39.5920452,22.1615922 36.6394583,22.1615922 Z M24.0491628,29.4145246 C21.096576,29.4145246 18.6886211,26.9481919 18.6886211,23.9246071 C18.6886211,20.9007599 21.096576,18.4344273 24.0491628,18.4344273 C27.0017497,18.4344273 29.4097045,20.9007599 29.4097045,23.9246071 C29.4097045,26.9481919 27.0017497,29.4145246 24.0491628,29.4145246 Z M24.0491628,14.8079611 C20.067229,14.8079611 16.8196651,11.4820177 16.8196651,7.40398053 C16.8196651,3.32594337 20.067229,0 24.0491628,0 C28.0310966,0 31.2786605,3.32594337 31.2786605,7.40398053 C31.2786605,11.4820177 28.0310966,14.8079611 24.0491628,14.8079611 Z M13.2294977,33.0409908 C11.3062577,33.0409908 9.73765595,31.4345311 9.73765595,29.464874 C9.73765595,27.4952169 11.3062577,25.8887572 13.2294977,25.8887572 C15.1527377,25.8887572 16.7213395,27.4952169 16.7213395,29.464874 C16.7213395,31.4345311 15.1527377,33.0409908 13.2294977,33.0409908 Z M34.9182469,33.0409908 C32.9950069,33.0409908 31.4264051,31.4345311 31.4264051,29.464874 C31.4264051,27.4952169 32.9950069,25.8887572 34.9182469,25.8887572 C36.8412308,25.8887572 38.4098326,27.4952169 38.4098326,29.464874 C38.4098326,31.4345311 36.8412308,33.0409908 34.9182469,33.0409908 Z M24,40.4953207 C22.07676,40.4953207 20.5081582,38.888861 20.5081582,36.9192039 C20.5081582,34.9495468 22.07676,33.3430871 24,33.3430871 C25.92324,33.3430871 27.4918418,34.9495468 27.4918418,36.9192039 C27.4918418,38.888861 25.92324,40.4953207 24,40.4953207 Z M15.0984537,44.3231844 C14.0962488,44.3231844 13.2786605,43.4858638 13.2786605,42.4594708 C13.2786605,41.4330778 14.0962488,40.5960195 15.0984537,40.5960195 C16.1006586,40.5960195 16.9179908,41.4330778 16.9179908,42.4594708 C16.9179908,43.4858638 16.1006586,44.3231844 15.0984537,44.3231844 Z M33.1476165,44.3231844 C32.1454116,44.3231844 31.3280794,43.4858638 31.3280794,42.4594708 C31.3280794,41.4330778 32.1454116,40.5960195 33.1476165,40.5960195 C34.1498215,40.5960195 34.9671536,41.4330778 34.9671536,42.4594708 C34.9671536,43.4858638 34.1498215,44.3231844 33.1476165,44.3231844 Z M24.0983257,48 C23.0961207,48 22.2787886,47.1626794 22.2787886,46.1362864 C22.2787886,45.1098934 23.0961207,44.272835 24.0983257,44.272835 C25.1005306,44.272835 25.9181188,45.1098934 25.9181188,46.1362864 C25.9181188,47.1626794 25.1005306,48 24.0983257,48 Z" id="Shape"></path>
                </g>
            </g>
        </g>
    </g>
</svg>