<?xml version="1.0" encoding="UTF-8"?>
<svg width="48px" height="48px" viewBox="0 0 48 48" version="1.1" xmlns="http://www.w3.org/2000/svg" xmlns:xlink="http://www.w3.org/1999/xlink">
    <!-- Generator: Sketch 56 (81588) - https://sketch.com -->
    <title>Bank/Color/Iran_Zamin</title>
    <desc>Created with Sketch.</desc>
    <g id="Ready-For-Export" stroke="none" stroke-width="1" fill="none" fill-rule="evenodd">
        <g id="Artboard" transform="translate(-1328.000000, -80.000000)">
            <g id="Banks_(Color)" transform="translate(80.000000, 80.000000)">
                <g id="Bank-/-Iran-Zamin-/-Color" transform="translate(1248.000000, 0.000000)">
                    <path d="M31.5192229,34.5659193 C9.9616577,52.8208034 -11.4401851,25.103899 7.01292149,6.42510277 C-1.57987095,26.6761153 14.2263953,42.0017632 31.5192229,34.5659193 Z M34.490583,16.1951149 C53.0538705,37.5023729 25.7696868,59.4188389 6.83516288,41.230679 C27.1733922,49.5078663 42.193554,33.4071573 34.490583,16.1951149 Z M16.4018081,13.314044 C37.8412593,-5.08003291 59.4213014,22.4975313 41.0889532,41.2956357 C49.5509975,20.9892406 33.646303,5.76640392 16.4018081,13.314044 Z M12.8162259,30.6037103 C-3.6489224,7.62790571 25.5845828,-11.5966148 42.7141957,8.30928783 C23.2500687,-1.86357346 6.77522444,12.7370933 12.8162259,30.6037103 Z" id="Shape" fill="#4A297C"></path>
                    <path d="M24,33 C28.9570267,33 33,28.9571406 33,24.0000735 C33,19.0430064 28.9570267,15 24,15 C19.0429733,15 15,19.0430064 15,24.0000735 C15,28.9571406 19.0429733,33 24,33" id="Shape" fill="#C70075"></path>
                </g>
            </g>
        </g>
    </g>
</svg>