<?xml version="1.0" encoding="UTF-8"?>
<svg width="48px" height="48px" viewBox="0 0 48 48" version="1.1" xmlns="http://www.w3.org/2000/svg" xmlns:xlink="http://www.w3.org/1999/xlink">
    <!-- Generator: Sketch 56 (81588) - https://sketch.com -->
    <title>Bank/Color/Saman</title>
    <desc>Created with Sketch.</desc>
    <g id="Ready-For-Export" stroke="none" stroke-width="1" fill="none" fill-rule="evenodd">
        <g id="Artboard" transform="translate(-3200.000000, -80.000000)">
            <g id="Banks_(Color)" transform="translate(80.000000, 80.000000)">
                <g id="Bank-/-Saman-/-Color" transform="translate(3120.000000, 0.000000)">
                    <path d="M16.437,8.3809 L16.4368,8.3807 C18.3011,5.6439 20.9577,2.8875 23.844,0.2927 C25.515,2.2962 26.9759,4.8068 27.4994,7.7046 C29.5678,6.5161 31.8978,5.5275 34.3542,4.7036 C35.9713,4.1613 37.6397,3.6911 39.32,3.281 C39.1121,7.0382 38.3996,11.0282 36.7703,14.6105 L36.7703,14.6106 L36.7704,14.6105 C40.6103,14.6896 44.4792,15.8171 48,17.3511 C45.1882,20.9651 42.0341,24.3486 38.6891,26.7556 L38.689,26.7558 L38.6892,26.7557 C41.0904,28.7392 42.7487,31.5121 43.866,34.2944 C40.0817,35.8835 36.2745,37.1408 32.8978,37.5795 L32.8973,37.5797 L32.8979,37.5796 C33.3329,39.9907 32.8979,42.5557 32.1644,44.8133 C30.9606,44.7134 29.7715,44.5755 28.6277,44.3894 C26.8766,44.1061 25.2259,43.7065 23.7809,43.149 L23.7795,43.1486 L23.7809,43.1491 C22.963,44.9443 21.5448,46.4929 20.0993,47.7073 C18.2027,46.5275 16.3945,45.1718 15.1109,43.6844 L15.1105,43.684 L15.111,43.6846 C13.7876,44.6336 12.1477,45.1905 10.6257,45.5061 C9.6845,44.0016 8.8458,42.3523 8.4359,40.7525 C7.564,40.8647 6.6481,40.8157 5.7584,40.6693 C5.2163,40.5814 4.6805,40.4581 4.1681,40.3136 C3.9591,38.7621 3.8854,37.088 4.1528,35.5971 L4.1528,35.5965 L4.1527,35.597 C2.877,35.108 1.6494,34.2006 0.5926,33.2324 C0.9916,31.7653 1.5686,30.2242 2.4061,28.9937 L2.4062,28.9936 C1.4262,27.8548 0.6306,26.3116 0,24.7608 C0.9779,23.5202 2.1835,22.2858 3.5183,21.5148 L3.5076,21.4723 C3.0575,19.6712 2.9467,17.4997 3.0065,15.3546 C3.5968,15.067 4.2168,14.8082 4.8565,14.5922 C5.9099,14.2406 7.0016,14.0193 8.0606,14.038 L8.0608,14.038 C8.5035,11.5888 9.5184,8.8379 10.733,6.1509 C12.723,6.4107 14.8222,7.045 16.4367,8.3807 L16.437,8.3809 Z" id="Shape" fill="#7DCDF1"></path>
                    <path d="M19.7025,14.4643 L19.7025,14.4642 C20.9039,13.0325 22.3446,11.5709 24.0253,10.1366 C25.0648,9.2381 26.2364,8.435 27.4994,7.7046 C27.7032,8.8363 27.7615,10.0116 27.6309,11.2141 C27.4166,13.2003 26.9872,15.1164 26.3904,16.9015 L26.3904,16.9015 C28.2325,16.1262 30.2895,15.4715 32.5191,14.9935 C33.9091,14.6981 35.3329,14.5793 36.7703,14.6106 C36.1543,15.9617 35.4118,17.241 34.5304,18.4132 C33.1093,20.3045 31.6055,21.9531 30.0929,23.3506 C31.9011,23.631 33.7644,24.1368 35.6063,24.8905 C36.7369,25.3543 37.7624,25.9906 38.6892,26.7557 C37.4511,27.644 36.1885,28.3991 34.901,28.9869 C32.8427,29.9263 30.881,30.6122 29.0602,31.0793 L29.0602,31.0794 L29.0603,31.0793 C30.1504,32.1641 31.1312,33.4294 31.9316,34.8496 C32.4117,35.6966 32.7238,36.6203 32.8979,37.5795 C31.6409,37.7438 30.4355,37.7961 29.2995,37.7104 C27.4611,37.5752 25.7944,37.2869 24.3114,36.8825 C24.5291,38.1653 24.5746,39.5095 24.4299,40.8574 C24.3438,41.649 24.1131,42.4177 23.7808,43.1492 C22.8801,42.8008 22.0515,42.3942 21.3229,41.908 C20.121,41.1078 19.0828,40.2435 18.2112,39.3474 L18.2045,39.3418 L18.2111,39.3486 C17.7889,40.3917 17.2295,41.3896 16.5368,42.3063 C16.1403,42.8375 15.653,43.2927 15.1109,43.6844 C14.6108,43.108 14.1845,42.504 13.8569,41.8738 C13.3036,40.8214 12.8926,39.7622 12.6071,38.7234 L12.6071,38.7233 C11.8451,39.3508 11.0015,39.8815 10.0953,40.2917 C9.5742,40.532 9.0149,40.6759 8.436,40.7525 C8.2729,40.1151 8.1766,39.4812 8.1677,38.8591 C8.15,37.803 8.247,36.779 8.442,35.8102 L8.442,35.81 L8.4419,35.8102 C7.5618,35.9813 6.6506,36.0363 5.7353,35.9685 C5.2034,35.9296 4.673,35.7985 4.1528,35.5969 C4.2638,34.9935 4.4291,34.4136 4.6642,33.8833 C5.072,32.97 5.5702,32.1272 6.1428,31.3717 L6.1428,31.3716 C5.3047,31.0842 4.4786,30.6786 3.6901,30.1524 C3.2273,29.8432 2.8005,29.4502 2.4061,28.9938 C2.7507,28.4894 3.1367,28.0365 3.5729,27.6612 C4.3285,27.0129 5.1415,26.4801 5.9859,26.0651 L5.9861,26.0649 L5.9859,26.065 C5.3433,25.3167 4.7543,24.4502 4.2426,23.4673 C3.9385,22.8849 3.6997,22.226 3.5183,21.5134 C4.0713,21.1974 4.643,20.9588 5.226,20.8345 C6.2373,20.6181 7.2511,20.5562 8.2363,20.6373 C7.9822,19.452 7.8363,18.145 7.8147,16.7309 C7.7982,15.879 7.8894,14.9757 8.0607,14.0379 C8.756,14.0523 9.4298,14.1736 10.0595,14.4322 C11.1379,14.8711 12.125,15.4823 12.9996,16.2255 L13,16.2257 L12.9997,16.2254 C13.3865,14.7302 13.9426,13.131 14.6919,11.4579 C15.1512,10.4294 15.7423,9.4025 16.4367,8.3807 C17.0881,8.9164 17.6509,9.562 18.0836,10.3287 C18.8151,11.6226 19.3522,13.0258 19.7024,14.4642 L19.7025,14.4643 Z" id="Shape" fill="#00AAE7"></path>
                    <path d="M15.9915,20.2414 C15.9686,20.2933 16.0145,20.294 15.9915,20.2414 L15.9923,20.2396 L15.9915,20.2379 C16.7981,18.4088 18.0391,16.4442 19.7024,14.4642 C20.2045,16.5548 20.3006,18.6872 20.0208,20.6668 C19.9835,20.6979 19.9811,20.7353 20.0047,20.7787 C20.0102,20.7415 20.0156,20.7042 20.0209,20.6668 C21.7084,19.2628 23.8596,17.9641 26.3903,16.9014 C25.55,19.412 24.3957,21.6321 23.0666,23.4273 L23.0663,23.4274 L23.0666,23.4274 C23.4716,23.3469 23.885,23.2814 24.3111,23.2283 C26.1003,23.0076 28.0557,23.0344 30.0928,23.3514 C28.0092,25.2718 25.8978,26.7182 23.9179,27.665 C25.7201,28.3709 27.4936,29.5246 29.0603,31.0793 C27.0364,31.5973 25.1632,31.8425 23.5018,31.8481 C23.1045,31.8489 22.7185,31.8357 22.3461,31.8102 L22.346,31.8101 L22.346,31.8101 L22.3461,31.8102 C23.3058,33.2397 23.9903,34.9799 24.3111,36.8821 C22.2384,36.3131 20.4909,35.5038 19.1266,34.534 L19.1266,34.533 L19.1265,34.5338 C19.1592,36.1112 18.8492,37.7668 18.211,39.3473 C16.9589,38.0635 16.0216,36.6893 15.4233,35.3145 L15.4233,35.3145 L15.4233,35.3145 C15.441,35.2813 15.3993,35.2591 15.4233,35.3145 L15.4233,35.3145 L15.4233,35.3145 C14.7374,36.5963 13.7739,37.7652 12.607,38.7233 C12.1901,37.1906 12.0473,35.6779 12.1716,34.2735 L12.1717,34.2734 L12.1716,34.2734 L12.1716,34.2735 C11.0659,35.0253 9.7895,35.5504 8.4417,35.8102 C8.7369,34.3529 9.26,33.0038 9.9746,31.8532 C10.018,31.8493 10.0057,31.803 9.9747,31.8532 C9.7208,31.876 9.468,31.8882 9.2115,31.8882 C8.1929,31.8907 7.1563,31.7204 6.1426,31.3717 C7.0116,30.218 8.0456,29.2636 9.1728,28.5756 C8.0257,28.0218 6.9416,27.1711 5.9858,26.065 C7.0201,25.5559 8.0984,25.2292 9.1624,25.0978 C9.4273,25.0637 9.6939,25.0449 9.9601,25.0373 C9.9895,25.0831 10.0163,25.0356 9.96,25.0373 C9.1934,23.8461 8.6019,22.3567 8.2384,20.6375 C9.7342,20.7634 11.1434,21.2225 12.3422,21.9682 L12.3422,21.9683 C12.345,22.0195 12.3866,21.9959 12.3422,21.9683 L12.3422,21.9682 L12.3422,21.9682 C12.2452,20.283 12.4562,18.3365 12.9995,16.2255 C14.3047,17.3366 15.3278,18.7231 15.9915,20.2379 L15.9907,20.2397 L15.9915,20.2414 Z" id="Shape" fill="#006FBA"></path>
                    <path d="M20.0239,20.6439 C20.0229,20.6515 20.0219,20.6592 20.0208,20.6668 C18.6658,21.7952 17.5918,23.0076 16.8426,24.2444 C16.8511,22.9026 16.5588,21.5368 15.9915,20.2414 C15.3317,21.7405 14.9485,23.175 14.8604,24.4871 C14.2553,23.4742 13.3876,22.6182 12.3422,21.9683 C12.4208,23.3807 12.7177,24.6371 13.2235,25.6778 C12.2411,25.2098 11.1269,25.0013 9.96,25.0373 C9.9468,25.0168 9.9207,25.0195 9.8848,25.0398 C9.9099,25.0389 9.935,25.038 9.9601,25.0373 C10.6144,26.058 11.4088,26.8772 12.312,27.4378 C11.2421,27.5644 10.1724,27.9642 9.1729,28.5756 C10.1724,29.061 11.2307,29.3191 12.2866,29.314 C11.3859,29.9637 10.6034,30.8358 9.9747,31.8532 L9.9747,31.8532 C11.086,31.7529 12.1595,31.4285 13.1205,30.8823 C12.5978,31.8989 12.2822,33.0526 12.1717,34.2734 C13.16,33.6043 14.002,32.764 14.6336,31.79 C14.6421,32.9509 14.915,34.1425 15.4233,35.3145 C16.0292,34.1805 16.4032,32.9762 16.5049,31.7836 C17.11,32.8008 18,33.732 19.1265,34.5338 L19.1266,34.5337 C19.0992,33.1668 18.8149,31.8827 18.2745,30.7812 C19.3984,31.3521 20.774,31.7016 22.346,31.8101 C21.5355,30.6048 20.5424,29.6386 19.4326,28.9865 C20.8109,28.8693 22.3312,28.4244 23.9178,27.665 C22.4434,27.088 20.9606,26.8216 19.5673,26.8759 C20.8016,26.0477 21.9908,24.88 23.0666,23.4274 L23.0665,23.4273 C21.3679,23.7633 19.8535,24.3346 18.5959,25.1113 C19.3047,23.8203 19.7895,22.3076 20.0209,20.6668 C20.0269,20.6618 20.0276,20.6541 20.0239,20.6439 Z" id="Shape" fill="#FFFFFF"></path>
                </g>
            </g>
        </g>
    </g>
</svg>