<?xml version="1.0" encoding="UTF-8"?>
<svg width="48px" height="48px" viewBox="0 0 48 48" version="1.1" xmlns="http://www.w3.org/2000/svg" xmlns:xlink="http://www.w3.org/1999/xlink">
    <!-- Generator: Sketch 56 (81588) - https://sketch.com -->
    <title>Bank/Color/Sina</title>
    <desc>Created with Sketch.</desc>
    <g id="Ready-For-Export" stroke="none" stroke-width="1" fill="none" fill-rule="evenodd">
        <g id="Artboard" transform="translate(-3720.000000, -80.000000)">
            <g id="Banks_(Color)" transform="translate(80.000000, 80.000000)">
                <g id="Bank-/-Sina-/-Color" transform="translate(3640.000000, 0.000000)">
                    <path d="M12.3653306,41.2337682 L32.8483654,29.285589 L32.8483654,18.9523631 L25.5026912,14.6818703 L37.0498628,7.74574956 L44.5,12.178464 L44.5,36.059488 L23.9611269,48 L13.691824,42.0296768 L12.3653306,41.2337682 Z M35.6346694,6.76623184 L15.1517682,18.714411 L15.1517682,29.0476369 L22.4974423,33.3181297 L10.9502708,40.2542504 L3.5,35.821536 L3.5,11.9406465 L24.0388731,2.38031816e-13 L34.3083096,5.97032325 L35.6346694,6.76623184 Z" id="Shape" fill="#277EB5"></path>
                    <path d="M23.9999299,31 C27.8554756,31 31,27.8555071 31,24 C31,20.1444929 27.8554756,17 23.9999299,17 C20.1445244,17 17,20.1444929 17,24 C17,27.8555071 20.1445244,31 23.9999299,31" id="Shape" fill="#DBAF2E"></path>
                </g>
            </g>
        </g>
    </g>
</svg>