<?xml version="1.0" encoding="UTF-8"?>
<svg width="48px" height="48px" viewBox="0 0 48 48" version="1.1" xmlns="http://www.w3.org/2000/svg" xmlns:xlink="http://www.w3.org/1999/xlink">
    <!-- Generator: Sketch 56 (81588) - https://sketch.com -->
    <title>Bank/Color/Standard_Chartered</title>
    <desc>Created with Sketch.</desc>
    <g id="Ready-For-Export" stroke="none" stroke-width="1" fill="none" fill-rule="evenodd">
        <g id="Artboard" transform="translate(-3824.000000, -80.000000)" fill-rule="nonzero">
            <g id="Banks_(Color)" transform="translate(80.000000, 80.000000)">
                <g id="Bank-/-Standard-Chartered-/-Color" transform="translate(3744.000000, 0.000000)">
                    <path d="M26.1324137,1.77635684e-14 L13.8282838,7.58903603 C13.4335022,8.18398782 13.1797756,8.88960834 13.1797756,9.74722305 C13.1797756,11.7878067 14.8506127,12.628296 16.5274803,13.373686 L22.2238367,15.9033646 C21.2904784,15.4553099 20.2432576,14.9187351 20.2432576,14.2228087 C20.2432576,13.6115821 20.7861088,13.2129884 21.1897292,12.9668141 L25.7468131,10.1894751 C27.816224,8.93319785 29.0419365,7.29714956 29.0419365,4.84707606 C29.0419365,2.55798285 27.6075064,0.84409931 26.1324137,1.77635684e-14 Z M27.4820113,27.225003 C28.3845944,27.6383843 28.6913918,27.9644464 28.6913918,28.4809976 C28.6913918,28.9775215 28.2589653,29.4338543 26.921139,30.179243 L25.3261592,31.0814355 L34.6857117,35.2739806 C35.3244774,34.7262258 35.7724004,33.9272708 35.7724004,33.1334831 C35.7724004,31.7372422 35.1216491,30.6259531 33.0381494,29.6839212 L27.4820113,27.225003 L27.4820113,27.225003 Z M14.4592641,38.3166706 L8.5,41.9077533 C8.64730115,44.9553253 11.200323,47.4801219 14.2664644,47.4801219 C15.4513803,47.4801219 16.5802016,47.0430346 17.8244966,46.2948877 L23.7487073,42.5092145 L14.4592641,38.3166706 L14.4592641,38.3166706 Z" id="Shape" fill="#80B0D5"></path>
                    <path d="M35.807455,8.98655026 L24.8879786,15.6203229 L34.2825844,19.812868 L35.4218557,19.1583359 C37.5419578,17.9519437 38.7345082,16.2657977 38.7345082,13.8159368 C38.7345082,11.5279043 37.2829058,9.84543834 35.807455,8.98655026 Z M13.9685022,22.7140371 C13.4268396,23.3094142 13.0921385,23.9071954 13.0921385,25.0491253 C13.0921385,27.2513258 14.9648905,27.9934586 16.9481342,28.8878682 L21.3825289,30.8514647 C20.5599424,30.4753036 19.945299,30.0283821 19.9452941,29.4893307 C19.9452941,28.9909656 20.3914623,28.6311506 21.0319829,28.2333361 L23.363108,26.8888916 L13.9685022,22.7140371 Z" id="Shape" fill="#A2D993"></path>
                    <path d="M13.8282838,7.58903603 C11.2532525,9.17724943 9.62174338,11.3338804 9.62174338,14.6296793 C9.62174338,18.2090153 11.845034,20.2577369 15.4057357,21.8472249 L33.0381494,29.6839212 C35.1199661,30.6259519 35.7724004,31.7390109 35.7724004,33.1334831 C35.7724004,33.9281914 35.3244713,34.7262258 34.6857117,35.2739806 L35.7198192,34.6194485 C37.9377819,33.2266737 39.3304302,31.3355376 39.3304302,28.3394767 C39.3304302,24.497479 36.8037715,22.3908745 33.6866575,20.9981022 L16.5274803,13.373686 C14.8506127,12.6282973 13.1797756,11.7878067 13.1797756,9.74722305 C13.1797756,8.88960957 13.4335022,8.18398782 13.8282838,7.58903603 Z" id="Shape" fill="#086DA9"></path>
                    <path d="M37.3926912,47.9356768 C35.0269316,46.0968298 32.5032882,44.8530072 29.4349681,43.448133 L15.2552828,37.116011 C11.6927642,35.5137168 9.33051076,33.3773233 9.33051076,29.7824192 C9.33051076,26.2879957 11.0064662,24.5962597 13.1849635,23.2064582 L13.9723577,22.7081644 C13.4306951,23.3035415 13.0873014,23.9015366 13.0873014,25.0434652 C13.0873014,27.2456645 14.9594226,27.9909831 16.9426662,28.8853916 L33.4393841,36.2226633 C36.3089458,37.4661331 38.9350933,39.6053561 38.9350933,43.2480225 C38.9350933,45.2506078 38.18015,47.0423991 37.3926912,47.9356768" id="Shape" fill="#35AF3B"></path>
                </g>
            </g>
        </g>
    </g>
</svg>